<?xml version="1.0" encoding="utf-8"?>
<!-- Generator: Adobe Illustrator 16.0.0, SVG Export Plug-In . SVG Version: 6.00 Build 0)  -->
<!DOCTYPE svg PUBLIC "-//W3C//DTD SVG 1.1//EN" "http://www.w3.org/Graphics/SVG/1.1/DTD/svg11.dtd">
<svg version="1.1" xmlns="http://www.w3.org/2000/svg" xmlns:xlink="http://www.w3.org/1999/xlink" x="0px" y="0px"
	 width="1190.55px" height="841.89px" viewBox="0 0 1190.55 841.89" enable-background="new 0 0 1190.55 841.89"
	 xml:space="preserve">
<g id="参考图片">
</g>
<g id="底图" display="none">
	
		<image display="inline" overflow="visible" opacity="0.6" width="1466" height="882" xlink:href="G:\0东南\2020\3.20\技术方案1.png"  transform="matrix(0.7501 0 0 0.7501 53.5864 96.9131)">
	</image>
</g>
<g id="线">
	
		<line fill="none" stroke="#F4BA19" stroke-width="8" stroke-miterlimit="10" x1="399.954" y1="178.868" x2="399.954" y2="399.051"/>
	
		<line fill="none" stroke="#F4BA19" stroke-width="8" stroke-miterlimit="10" x1="670.254" y1="239.106" x2="399.972" y2="239.106"/>
	<line fill="none" stroke="#5893C9" stroke-width="9" stroke-miterlimit="10" x1="1095.202" y1="239.106" x2="862" y2="239.106"/>
	
		<line fill="none" stroke="#5893C9" stroke-width="9" stroke-miterlimit="10" x1="1095.202" y1="180.187" x2="1095.202" y2="409.206"/>
	
		<line fill="none" stroke="#E71F19" stroke-width="8" stroke-miterlimit="10" x1="787.717" y1="481.197" x2="787.717" y2="714.473"/>
	
		<line fill="none" stroke="#F4BA19" stroke-width="8" stroke-miterlimit="10" x1="399.954" y1="284.481" x2="247.323" y2="284.481"/>
	<line fill="none" stroke="#E71F19" stroke-width="8" stroke-miterlimit="10" x1="572.75" y1="685.562" x2="788.354" y2="685.562"/>
	
		<line fill="none" stroke="#763992" stroke-width="8" stroke-miterlimit="10" x1="247.323" y1="516.353" x2="380.158" y2="516.353"/>
	<polygon fill="#F4BA19" stroke="#FFFFFF" stroke-width="3" stroke-miterlimit="10" points="380.158,209.236 399.954,192.545 
		419.749,209.236 	"/>
	<polygon fill="#E71F19" stroke="#FFFFFF" stroke-width="3" stroke-miterlimit="10" points="708.079,665.766 724.771,685.562 
		708.079,705.357 	"/>
	<line fill="none" stroke="#E71F19" stroke-width="8" stroke-miterlimit="10" x1="572.75" y1="516.353" x2="788.354" y2="516.353"/>
	<polygon fill="#E71F19" stroke="#FFFFFF" stroke-width="3" stroke-miterlimit="10" points="675.03,496.557 691.722,516.353 
		675.03,536.148 	"/>
	<polygon fill="#763992" stroke="#FFFFFF" stroke-width="3" stroke-miterlimit="10" points="318.266,495.557 334.957,515.353 
		318.266,535.148 	"/>
	
		<line fill="none" stroke="#6EA647" stroke-width="8" stroke-miterlimit="10" x1="247.323" y1="683.562" x2="380.158" y2="683.562"/>
	<polygon fill="#6EA647" stroke="#FFFFFF" stroke-width="3" stroke-miterlimit="10" points="318.266,662.766 334.957,682.562 
		318.266,702.357 	"/>
	<polygon fill="#E71F19" stroke="#FFFFFF" stroke-width="3" stroke-miterlimit="10" points="768.277,603.861 788.073,587.17 
		807.869,603.861 	"/>
	<polygon fill="#E71F19" stroke="#FFFFFF" stroke-width="3" stroke-miterlimit="10" points="768.277,501.888 788.073,485.196 
		807.869,501.888 	"/>
	<polygon fill="#F4BA19" stroke="#FFFFFF" stroke-width="3" stroke-miterlimit="10" points="326.611,264.686 343.303,284.481 
		326.611,304.277 	"/>
	<polygon fill="#F4BA19" stroke="#FFFFFF" stroke-width="3" stroke-miterlimit="10" points="644.629,220.236 661.32,240.032 
		644.629,259.828 	"/>
	<polygon fill="#5893C9" stroke="#FFFFFF" stroke-width="3" stroke-miterlimit="10" points="1047.989,220.236 1064.681,240.032 
		1047.989,259.828 	"/>
	<polygon fill="#5893C9" stroke="#FFFFFF" stroke-width="3" stroke-miterlimit="10" points="945.415,220.236 962.106,240.032 
		945.415,259.828 	"/>
	<polygon fill="#5893C9" stroke="#FFFFFF" stroke-width="3" stroke-miterlimit="10" points="1075.429,207.166 1095.226,190.475 
		1115.021,207.166 	"/>
	<polygon fill="#F4BA19" stroke="#FFFFFF" stroke-width="3" stroke-miterlimit="10" points="504.263,220.236 520.954,240.032 
		504.263,259.828 	"/>
</g>
<g id="框底">
	<g opacity="0.8">
		
			<image overflow="visible" opacity="0.75" width="547" height="547" xlink:href="B9C3146.png"  transform="matrix(0.24 0 0 0.24 139.665 227.8501)">
		</image>
		<g>
			<path fill="#EFEFEF" d="M247.323,325.177c0,5.707-4.625,10.333-10.332,10.333h-77.494c-5.707,0-10.332-4.626-10.332-10.333
				v-77.494c0-5.707,4.625-10.333,10.332-10.333h77.494c5.707,0,10.332,4.626,10.332,10.333V325.177z"/>
			<path fill="none" stroke="#3E3A39" stroke-width="3" stroke-miterlimit="10" d="M247.323,325.177
				c0,5.707-4.625,10.333-10.332,10.333h-77.494c-5.707,0-10.332-4.626-10.332-10.333v-77.494c0-5.707,4.625-10.333,10.332-10.333
				h77.494c5.707,0,10.332,4.626,10.332,10.333V325.177z"/>
		</g>
	</g>
	<g opacity="0.8">
		
			<image overflow="visible" opacity="0.75" width="547" height="547" xlink:href="B9C3141.png"  transform="matrix(0.24 0 0 0.24 140.3506 457.8682)">
		</image>
		<g>
			<path fill="#EFEFEF" d="M248.01,555.194c0,5.707-4.626,10.332-10.333,10.332h-77.494c-5.706,0-10.332-4.625-10.332-10.332V477.7
				c0-5.707,4.626-10.332,10.332-10.332h77.494c5.707,0,10.333,4.625,10.333,10.332V555.194z"/>
			<path fill="none" stroke="#3E3A39" stroke-width="3" stroke-miterlimit="10" d="M248.01,555.194
				c0,5.707-4.626,10.332-10.333,10.332h-77.494c-5.706,0-10.332-4.625-10.332-10.332V477.7c0-5.707,4.626-10.332,10.332-10.332
				h77.494c5.707,0,10.333,4.625,10.333,10.332V555.194z"/>
		</g>
	</g>
	<g opacity="0.8">
		
			<image overflow="visible" opacity="0.75" width="547" height="547" xlink:href="B9C3142.png"  transform="matrix(0.24 0 0 0.24 729.7744 368.5391)">
		</image>
		<g>
			<path fill="#EFEFEF" d="M837.433,465.865c0,5.707-4.625,10.332-10.332,10.332h-77.494c-5.707,0-10.332-4.625-10.332-10.332
				v-77.494c0-5.707,4.625-10.332,10.332-10.332h77.494c5.707,0,10.332,4.625,10.332,10.332V465.865z"/>
			<path fill="none" stroke="#3E3A39" stroke-width="3" stroke-miterlimit="10" d="M837.433,465.865
				c0,5.707-4.625,10.332-10.332,10.332h-77.494c-5.707,0-10.332-4.625-10.332-10.332v-77.494c0-5.707,4.625-10.332,10.332-10.332
				h77.494c5.707,0,10.332,4.625,10.332,10.332V465.865z"/>
		</g>
	</g>
	<g opacity="0.8">
		
			<image overflow="visible" opacity="0.75" width="547" height="547" xlink:href="B9C3140.png"  transform="matrix(0.24 0 0 0.24 344.3408 72.5278)">
		</image>
		<g>
			<path fill="#EFEFEF" d="M451.999,169.854c0,5.707-4.625,10.332-10.332,10.332h-77.494c-5.707,0-10.332-4.625-10.332-10.332V92.36
				c0-5.707,4.625-10.332,10.332-10.332h77.494c5.707,0,10.332,4.625,10.332,10.332V169.854z"/>
			<path fill="none" stroke="#3E3A39" stroke-width="3" stroke-miterlimit="10" d="M451.999,169.854
				c0,5.707-4.625,10.332-10.332,10.332h-77.494c-5.707,0-10.332-4.625-10.332-10.332V92.36c0-5.707,4.625-10.332,10.332-10.332
				h77.494c5.707,0,10.332,4.625,10.332,10.332V169.854z"/>
		</g>
	</g>
	<g opacity="0.8">
		
			<image overflow="visible" opacity="0.75" width="547" height="547" xlink:href="B9C314E.png"  transform="matrix(0.24 0 0 0.24 1034.8926 72.5278)">
		</image>
		<g>
			<path fill="#EFEFEF" d="M1142.551,169.854c0,5.707-4.625,10.332-10.332,10.332h-77.494c-5.707,0-10.332-4.625-10.332-10.332
				V92.36c0-5.707,4.625-10.332,10.332-10.332h77.494c5.707,0,10.332,4.625,10.332,10.332V169.854z"/>
			<path fill="none" stroke="#3E3A39" stroke-width="3" stroke-miterlimit="10" d="M1142.551,169.854
				c0,5.707-4.625,10.332-10.332,10.332h-77.494c-5.707,0-10.332-4.625-10.332-10.332V92.36c0-5.707,4.625-10.332,10.332-10.332
				h77.494c5.707,0,10.332,4.625,10.332,10.332V169.854z"/>
		</g>
	</g>
	<g opacity="0.1">
		
			<image overflow="visible" opacity="0.75" width="937" height="547" xlink:href="B9C3143.png"  transform="matrix(0.24 0 0 0.24 660.7539 180.5269)">
		</image>
		<g>
			<radialGradient id="SVGID_1_" cx="766.127" cy="239.1064" r="76.159" gradientUnits="userSpaceOnUse">
				<stop  offset="0.5744" style="stop-color:#000000;stop-opacity:0"/>
				<stop  offset="0.7977" style="stop-color:#000000;stop-opacity:0.6512"/>
				<stop  offset="1" style="stop-color:#000000;stop-opacity:0.95"/>
			</radialGradient>
			<path fill="url(#SVGID_1_)" d="M862,277.854c0,5.707-9.035,10.332-20.184,10.332h-151.38c-11.148,0-20.183-4.625-20.183-10.332
				v-77.495c0-5.707,9.034-10.332,20.183-10.332h151.38c11.148,0,20.184,4.625,20.184,10.332V277.854z"/>
			<path fill="none" stroke="#3E3A39" stroke-width="3" stroke-miterlimit="10" d="M862,277.854c0,5.707-9.035,10.332-20.184,10.332
				h-151.38c-11.148,0-20.183-4.625-20.183-10.332v-77.495c0-5.707,9.034-10.332,20.183-10.332h151.38
				c11.148,0,20.184,4.625,20.184,10.332V277.854z"/>
		</g>
	</g>
	<g opacity="0.1">
		
			<image overflow="visible" opacity="0.75" width="940" height="547" xlink:href="B9C3147.png"  transform="matrix(0.24 0 0 0.24 370.6582 459.2949)">
		</image>
		<g>
			
				<radialGradient id="SVGID_2_" cx="508.6152" cy="517.874" r="49.0791" gradientTransform="matrix(1.9621 0 0 1 -521.4791 0)" gradientUnits="userSpaceOnUse">
				<stop  offset="0.5744" style="stop-color:#000000;stop-opacity:0"/>
				<stop  offset="0.7977" style="stop-color:#000000;stop-opacity:0.6512"/>
				<stop  offset="1" style="stop-color:#000000;stop-opacity:0.95"/>
			</radialGradient>
			<path fill="url(#SVGID_2_)" d="M572.75,556.621c0,5.707-9.074,10.332-20.271,10.332H400.431
				c-11.197,0-20.272-4.625-20.272-10.332v-77.494c0-5.707,9.075-10.332,20.272-10.332h152.048c11.197,0,20.271,4.625,20.271,10.332
				V556.621z"/>
			<path fill="none" stroke="#3E3A39" stroke-width="3" stroke-miterlimit="10" d="M572.75,556.621
				c0,5.707-9.074,10.332-20.271,10.332H400.431c-11.197,0-20.272-4.625-20.272-10.332v-77.494c0-5.707,9.075-10.332,20.272-10.332
				h152.048c11.197,0,20.271,4.625,20.271,10.332V556.621z"/>
		</g>
	</g>
	<path opacity="0.8" fill="none" stroke="#3E3A39" stroke-width="3" stroke-miterlimit="10" d="M861.918,278.394
		c0,6.439-9.706,11.659-21.681,11.659h-148.22c-11.975,0-21.681-5.22-21.681-11.659v-79.708c0-6.439,9.706-11.659,21.681-11.659
		h148.22c11.975,0,21.681,5.22,21.681,11.659V278.394z"/>
	<path opacity="0.8" fill="none" stroke="#3E3A39" stroke-width="3" stroke-miterlimit="10" d="M572.75,556.769
		c0,6.199-9.689,11.224-21.643,11.224H403.154c-11.953,0-21.643-5.024-21.643-11.224v-76.737c0-6.199,9.689-11.224,21.643-11.224
		h147.953c11.953,0,21.643,5.024,21.643,11.224V556.769z"/>
	<g opacity="0.8">
		
			<image overflow="visible" opacity="0.75" width="547" height="547" xlink:href="B9C3145.png"  transform="matrix(0.24 0 0 0.24 140.3506 628.0771)">
		</image>
		<g>
			<path fill="#EFEFEF" d="M248.01,725.403c0,5.707-4.626,10.332-10.333,10.332h-77.494c-5.706,0-10.332-4.625-10.332-10.332
				v-77.494c0-5.707,4.626-10.332,10.332-10.332h77.494c5.707,0,10.333,4.625,10.333,10.332V725.403z"/>
			<path fill="none" stroke="#3E3A39" stroke-width="3" stroke-miterlimit="10" d="M248.01,725.403
				c0,5.707-4.626,10.332-10.333,10.332h-77.494c-5.706,0-10.332-4.625-10.332-10.332v-77.494c0-5.707,4.626-10.332,10.332-10.332
				h77.494c5.707,0,10.333,4.625,10.333,10.332V725.403z"/>
		</g>
	</g>
	<g opacity="0.1">
		
			<image overflow="visible" opacity="0.75" width="940" height="547" xlink:href="AD931ED5.png"  transform="matrix(0.24 0 0 0.24 370.6582 629.5039)">
		</image>
		<g>
			
				<radialGradient id="SVGID_3_" cx="508.6152" cy="688.083" r="49.0791" gradientTransform="matrix(1.9621 0 0 1 -521.4791 0)" gradientUnits="userSpaceOnUse">
				<stop  offset="0.5744" style="stop-color:#000000;stop-opacity:0"/>
				<stop  offset="0.7977" style="stop-color:#000000;stop-opacity:0.6512"/>
				<stop  offset="1" style="stop-color:#000000;stop-opacity:0.95"/>
			</radialGradient>
			<path fill="url(#SVGID_3_)" d="M572.75,726.83c0,5.707-9.074,10.332-20.271,10.332H400.431c-11.197,0-20.272-4.625-20.272-10.332
				v-77.494c0-5.707,9.075-10.332,20.272-10.332h152.048c11.197,0,20.271,4.625,20.271,10.332V726.83z"/>
			<path fill="none" stroke="#3E3A39" stroke-width="3" stroke-miterlimit="10" d="M572.75,726.83
				c0,5.707-9.074,10.332-20.271,10.332H400.431c-11.197,0-20.272-4.625-20.272-10.332v-77.494c0-5.707,9.075-10.332,20.272-10.332
				h152.048c11.197,0,20.271,4.625,20.271,10.332V726.83z"/>
		</g>
	</g>
	<path opacity="0.8" fill="none" stroke="#3E3A39" stroke-width="3" stroke-miterlimit="10" d="M572.75,726.978
		c0,6.199-9.689,11.224-21.643,11.224H403.154c-11.953,0-21.643-5.024-21.643-11.224V650.24c0-6.199,9.689-11.224,21.643-11.224
		h147.953c11.953,0,21.643,5.024,21.643,11.224V726.978z"/>
</g>
<g id="图元">
	<rect x="455" y="495.557" opacity="0.6" fill="#FCFCFC" width="35" height="33.262"/>
	<g>
		<g>
			<defs>
				<rect id="SVGID_50_" x="358.602" y="85.997" width="86.997" height="87.09"/>
			</defs>
			<clipPath id="SVGID_4_">
				<use xlink:href="#SVGID_50_"  overflow="visible"/>
			</clipPath>
			<path clip-path="url(#SVGID_4_)" fill="#B1B1B1" d="M402.054,172.981c-24.006,0-43.465-19.459-43.465-43.464
				s19.459-43.464,43.465-43.464c24.004,0,43.463,19.459,43.463,43.464S426.058,172.981,402.054,172.981L402.054,172.981z
				 M402.054,167.548c21.004,0,38.031-17.027,38.031-38.031c0-21.004-17.027-38.031-38.031-38.031
				c-21.005,0-38.031,17.027-38.031,38.031C364.022,150.521,381.049,167.548,402.054,167.548L402.054,167.548z M402.054,167.548"/>
		</g>
		<path fill="#626262" d="M418.325,96.918l-38.004,38.032h16.299l-10.866,27.165l43.465-38.042h-21.732L418.325,96.918z
			 M418.325,96.918"/>
	</g>
	<g>
		<path fill="#5CB7DF" d="M1117.534,116.745c-0.525-0.917-1.7-1.232-2.617-0.697l-5.521,3.19v-5.511
			c0-0.631-0.516-1.147-1.146-1.147c-0.63,0-1.146,0.517-1.146,1.147v6.839l-11.683,6.745v-13.499l5.923-3.42
			c0.554-0.315,0.735-1.021,0.419-1.565c-0.314-0.555-1.021-0.736-1.565-0.42l-4.776,2.76v-6.372c0-1.06-0.86-1.919-1.92-1.919
			c-1.061,0-1.92,0.859-1.92,1.919v6.372l-4.776-2.76c-0.554-0.315-1.252-0.134-1.567,0.42c-0.315,0.553-0.134,1.25,0.421,1.565
			l5.923,3.42v13.499l-11.683-6.745v-6.839c0-0.631-0.517-1.147-1.147-1.147s-1.146,0.517-1.146,1.147v5.511l-5.541-3.2
			c-0.918-0.525-2.092-0.22-2.617,0.698c-0.525,0.917-0.22,2.092,0.696,2.618l5.522,3.19l-4.776,2.761
			c-0.554,0.315-0.735,1.022-0.42,1.566c0.21,0.373,0.602,0.573,0.992,0.573c0.191,0,0.393-0.047,0.574-0.152l5.923-3.42
			l11.682,6.744l-11.682,6.745l-5.923-3.42c-0.554-0.315-1.252-0.134-1.566,0.42c-0.315,0.554-0.134,1.251,0.42,1.567l4.776,2.76
			l-5.522,3.191c-0.916,0.525-1.232,1.7-0.696,2.617c0.353,0.612,1.003,0.956,1.662,0.956c0.324,0,0.659-0.086,0.955-0.258
			l5.521-3.19v5.512c0,0.63,0.517,1.146,1.147,1.146c0.629,0,1.146-0.516,1.146-1.146v-6.84l11.682-6.744v13.498l-5.923,3.42
			c-0.553,0.315-0.734,1.022-0.42,1.567c0.211,0.373,0.602,0.573,0.994,0.573c0.191,0,0.392-0.048,0.573-0.153l4.775-2.761v6.372
			c0,1.06,0.86,1.919,1.921,1.919c1.06,0,1.92-0.859,1.92-1.919v-6.372l4.777,2.761c0.181,0.104,0.382,0.153,0.572,0.153
			c0.402,0,0.783-0.21,0.994-0.573c0.315-0.555,0.134-1.251-0.421-1.567l-5.923-3.42v-13.479l11.692,6.744v6.84
			c0,0.63,0.517,1.146,1.147,1.146c0.629,0,1.146-0.516,1.146-1.146v-5.512l5.522,3.19c0.305,0.172,0.629,0.257,0.955,0.257
			c0.658,0,1.309-0.344,1.661-0.955c0.526-0.917,0.22-2.092-0.696-2.617l-5.521-3.191l4.775-2.761
			c0.555-0.315,0.736-1.022,0.421-1.566c-0.315-0.554-1.023-0.735-1.567-0.42l-5.922,3.419l-11.684-6.744l11.684-6.744l5.922,3.42
			c0.182,0.105,0.382,0.152,0.574,0.152c0.401,0,0.782-0.21,0.993-0.573c0.315-0.554,0.134-1.251-0.421-1.566l-4.775-2.761
			l5.521-3.19C1117.754,118.836,1118.06,117.662,1117.534,116.745L1117.534,116.745z M1117.534,116.745"/>
		<path fill="#B1B1B1" d="M1093.202,174.572c-24.004,0-43.464-19.46-43.464-43.465s19.46-43.464,43.464-43.464
			c24.005,0,43.465,19.459,43.465,43.464S1117.207,174.572,1093.202,174.572L1093.202,174.572z M1093.202,169.138
			c21.004,0,38.031-17.027,38.031-38.031c0-21.004-17.027-38.031-38.031-38.031s-38.031,17.027-38.031,38.031
			C1055.171,152.111,1072.198,169.138,1093.202,169.138L1093.202,169.138z M1093.202,169.138"/>
	</g>
	<g opacity="0.6">
		<path fill="#546479" d="M764.656,217.589h59.132c0.453,0,0.888-0.145,0.888-0.888v-14.357c0-0.453-0.452-0.743-0.888-0.743
			h-69.283l-15.97,1.939c0,0-17.168-2.084-17.168,16.876v9.699h-26.14v32.103h135.722v-32.103h-66.293V217.589z M732.262,220.417
			c0,0,1.197-5.221,6.127-5.075h0.146v0.145l15.97,2.085h1.342v12.544h-23.585V220.417z M833.631,230.116h2.991v32.248h-2.991
			V230.116z M689.245,230.116h2.991v32.248h-2.991V230.116z M689.245,230.116"/>
		<rect x="796.307" y="211.318" fill="#EEEEEF" width="19.56" height="22.695"/>
		<g>
			<defs>
				<rect id="SVGID_52_" x="686.273" y="195.989" width="153.333" height="76.428"/>
			</defs>
			<clipPath id="SVGID_5_">
				<use xlink:href="#SVGID_52_"  overflow="visible"/>
			</clipPath>
			<path clip-path="url(#SVGID_5_)" fill="#384253" d="M717.924,225.203h17.312v2.085h-17.312V225.203z M695.228,267.187v-40.044
				h-2.991v39.7l-1.993,2.411h-2.629v2.972h11.802v-2.972h-2.483L695.228,267.187z M833.631,266.842v-39.7h-2.972v39.917
				l-1.939,2.194h-2.394v2.972h11.801v-2.972h-2.483L833.631,266.842z M754.505,224.605h11.801v2.393h-11.801V224.605z
				 M737.628,202.199h1.486v14.628h-1.486V202.199z M820.344,199.208h1.486v20.448h-1.486V199.208z M755.629,217.735v-14.792h3.136
				v-6.87h-5.837v6.87h1.196v14.792H755.629z M755.629,217.735"/>
			<path clip-path="url(#SVGID_5_)" fill="#384253" d="M839.613,229.082v-0.906h-0.743v-1.033h-2.99v38.068h2.99v-0.744h0.743
				v-0.888h-0.743v-1.649h0.743v-0.906h-0.743v-1.341h0.743v-0.888h-0.743v-1.341h0.743v-0.907h-0.743v-1.341h0.743v-0.889h-0.743
				v-1.649h0.743v-0.889h-0.743v-1.504h0.743v-0.888h-0.743v-1.341h0.743v-0.906h-0.743v-1.632h0.743V244.6h-0.743v-1.342h0.743
				v-0.888h-0.743v-1.342h0.743v-0.907h-0.743v-1.341h0.743v-0.889h-0.743v-1.649h0.743v-0.888h-0.743v-1.504h0.743v-0.889h-0.743
				v-1.341h0.743v-0.906h-0.743v-1.632H839.613z M690.007,265.211v-38.068h-2.99v1.033h-0.743v0.906h0.743v1.632h-0.743v0.906h0.743
				v1.341h-0.743v0.889h0.743v1.504h-0.743v0.888h0.743v1.649h-0.743v0.889h0.743v1.341h-0.743v0.907h0.743v1.342h-0.743v0.888
				h0.743v1.342h-0.743v0.906h0.743v1.632h-0.743v0.906h0.743v1.341h-0.743v0.888h0.743v1.504h-0.743v0.889h0.743v1.649h-0.743
				v0.889h0.743v1.341h-0.743v0.907h0.743v1.341h-0.743v0.888h0.743v1.341h-0.743v0.906h0.743v1.649h-0.743v0.888h0.743v0.744
				H690.007z M796.307,234.158h19.56v2.991h-19.56V234.158z M796.307,234.158"/>
		</g>
		<rect x="801.69" y="218.478" fill="#C9CACA" width="8.81" height="8.811"/>
	</g>
	<g>
		<g>
			<defs>
				<rect id="SVGID_54_" x="415.466" y="479.933" width="108.755" height="71.602"/>
			</defs>
			<clipPath id="SVGID_6_">
				<use xlink:href="#SVGID_54_"  overflow="visible"/>
			</clipPath>
			<path clip-path="url(#SVGID_6_)" fill="#515151" d="M447.905,509.381c0.595-13.793-3.02-25.109-8.066-25.278
				c-4.751-0.159-9.08,9.608-10.072,22.261l-5.762-0.088c0,0-8.556,0.469-8.556,10.169h9.868c0,0-0.366-3.226,1.39-3.854
				l2.851,0.191c0.203,11.923,3.578,21.127,8.133,21.276C442.732,534.223,447.313,523.176,447.905,509.381L447.905,509.381z
				 M435.806,516.734c-0.924,0-1.743-1.542-2.144-3.805l2.463,0.089l0.022-6.504l-2.516-0.05c0.41-2.381,1.229-3.994,2.177-3.994
				c1.334,0,2.414,3.195,2.414,7.13C438.223,513.538,437.14,516.734,435.806,516.734L435.806,516.734z M435.806,516.734"/>
		</g>
		<path fill="#515151" d="M515.811,537.878v-9.312c4.9-2.878,8.306-9.148,8.306-16.413c0-9.669-6.014-17.56-13.602-18.073v-0.026
			l-13.5-1.814v-4.188h-4.621v3.561l-10.975-1.865v-4.488h-4.938v3.827l-19.193-3.039v-6.107h-5.396v5.382l-8.605-1.154v0.021
			c4.928,0.577,8.398,11.729,7.814,25.265c-0.586,13.537-5.02,24.432-9.98,24.689l7.094-0.2v2.82l-12.939,0.572v4.693l30.15-2.154
			l0.115,1.794l-14.076,0.828l0.051,8.913l70.115-7.496v-5.901l-2.842-0.319L515.811,537.878z M454.126,536.491l0.676-2.753
			l10.184-0.289l0.174,2.56L454.126,536.491z M458.041,513.596c0.001-4.744,2.533-9.127,6.643-11.501
			c4.108-2.371,9.171-2.37,13.28,0.003c4.107,2.372,6.639,6.757,6.639,11.502c-0.002,7.335-5.948,13.28-13.283,13.277
			C463.985,526.876,458.04,520.931,458.041,513.596L458.041,513.596z M483.884,532.725v2.255l-13.098,0.639v-2.425L483.884,532.725z
			 M470.8,541.128l-0.014-1.901l21.897-1.757v-2.869l-3.542,0.159l0.4-2.194l18.861-1.036l1.294,6.588L470.8,541.128z
			 M470.8,541.128"/>
		<path fill="#727171" d="M475.917,509.69l-0.09-0.024c0.125,0.619,0.088,1.251-0.116,1.9c-0.306,0.97-0.495,0.97-0.823,2.027
			c-0.066-0.096-0.499-0.757-0.131-2.031c0.281-1.475-0.445-2.952-1.46-4.469c-0.983-1.476-2.429-2.586-3.794-2.865h-0.068
			l0.023,0.07c0.445,2.248-0.82,3.418-2.313,4.728c-1.49,1.308-3.124,2.813-3.371,5.749c-0.319,3.857,2.207,6.566,3.735,7.821
			c0.093,0.066,0.183,0.091,0.286,0.091c0.158,0,0.283-0.068,0.375-0.187c0.086-0.129,0.096-0.291,0.025-0.428
			c-1.206-3.15,1.262-5.182,2.05-5.737c-0.647,3.838,2.541,6.854,3.253,6.606c2.926-1.022,4.813-3.087,5.281-5.875
			C479.28,514.084,478.017,510.781,475.917,509.69L475.917,509.69z M475.917,509.69"/>
	</g>
	<g opacity="0.9">
		<path fill="#C0E1F7" d="M233.143,281.238c1.376,0,2.478-1.1,2.478-2.477v-9.632c0,0,0-0.275-0.275-0.275l-0.275-0.275
			l-0.275-0.275c0,0-0.275-0.276-0.551-0.276l-27.244-9.632c-0.275-0.275-0.826-0.275-1.102-0.275s-0.825,0-1.1,0.275l-27.246,9.632
			c-0.275,0-0.275,0-0.551,0.276l-0.273,0.275l-0.277,0.275l-0.273,0.275v9.632c0,1.376,1.1,2.477,2.477,2.477
			c1.375,0,2.477-1.1,2.477-2.477v-2.477h14.311v5.229l-17.338,6.055c-0.275,0-0.275,0-0.551,0.275l-0.275,0.275l-0.275,0.275
			l-0.273,0.275v1.926c-0.826,1.101-1.652,2.751-2.203,4.678c-3.853-1.101-7.154-0.825-8.53,0.826c-1.376,2.202,0,5.779,3.302,9.357
			c-3.302,3.578-4.678,7.43-3.302,9.357c1.376,1.926,4.403,1.926,8.53,0.826c1.377,3.853,3.303,6.33,5.504,6.33
			c2.203,0,4.129-2.477,5.505-6.33c3.853,1.101,7.155,0.825,8.53-0.826c1.377-2.202,0-5.779-3.302-9.357
			c3.302-3.578,4.679-7.43,3.302-9.357c-0.825-1.376-2.751-1.651-4.953-1.651c4.403-0.826,7.981-0.275,9.357,1.926
			c0.825,1.101,0.825,2.477,0.55,4.128l3.853,3.027l-6.329,4.954c1.101,1.651,1.927,3.028,2.202,4.403l7.98-6.329l22.291,17.613
			h3.303c0,0,0.275,0,0.275-0.275h0.274c0,0,0.275,0,0.275-0.275v-2.752l-12.935-26.144h12.109v3.027
			c0,1.376,1.102,2.476,2.477,2.476c1.376,0,2.477-1.1,2.477-2.476v-9.632c0,0,0-0.275-0.275-0.275l-0.275-0.275l-0.275-0.275
			c0,0-0.274-0.275-0.55-0.275l-17.337-6.054v-5.229h14.31v2.477C230.666,280.138,231.767,281.238,233.143,281.238L233.143,281.238z
			 M194.614,290.87h-9.356c0.825,1.102,1.651,2.477,2.202,4.128c-1.102,0-2.202,0.275-3.578,0.551
			c-1.377-3.853-3.303-6.33-5.504-6.33h-0.826c0.826-0.55,1.927-1.101,3.027-1.101c1.377,0,2.752,0.551,3.854,1.927l9.906-3.578
			v4.403H194.614z M194.614,290.87"/>
		<g>
			<defs>
				<rect id="SVGID_56_" x="156.286" y="246.824" width="81.039" height="77.439"/>
			</defs>
			<clipPath id="SVGID_7_">
				<use xlink:href="#SVGID_56_"  overflow="visible"/>
			</clipPath>
			<path clip-path="url(#SVGID_7_)" fill="#145BAA" d="M174.524,301.603c-0.825-0.55-1.65-0.55-2.477,0
				c-0.826,0.551-1.101,1.376-1.101,2.202s0.55,1.651,1.101,2.201c0.826,0.551,1.651,0.551,2.477,0
				c0.826-0.55,1.102-1.375,1.102-2.201C175.901,302.704,175.351,301.878,174.524,301.603L174.524,301.603z M174.524,301.603"/>
			<path clip-path="url(#SVGID_7_)" fill="#145BAA" d="M189.937,292.521c-1.377-2.201-5.229-2.477-9.908-1.101
				c-1.375-4.678-3.852-7.706-6.604-7.706c-2.753,0-4.954,3.027-6.605,7.706c-4.679-1.376-8.531-1.101-9.908,1.101
				c-1.65,2.477,0,6.88,3.854,11.284c-3.854,4.403-5.504,8.806-3.854,11.283c1.377,2.202,5.229,2.477,9.908,1.101
				c1.377,4.678,3.853,7.706,6.605,7.706c2.752,0,4.953-3.027,6.604-7.706c4.68,1.376,8.531,1.101,9.908-1.101
				c1.65-2.478,0-6.88-3.854-11.283C189.937,299.126,191.587,294.998,189.937,292.521L189.937,292.521z M159.664,312.886
				c-0.825-1.375,0.275-4.127,3.302-7.155c0.826,0.826,1.652,1.376,2.477,2.202c0.276,1.926,0.552,3.578,0.826,5.229
				C162.966,313.987,160.489,314.262,159.664,312.886L159.664,312.886z M164.894,303.805
				C165.168,303.805,165.168,303.529,164.894,303.805C165.168,303.805,165.168,303.805,164.894,303.805
				C165.168,303.805,165.168,303.805,164.894,303.805L164.894,303.805z M165.168,299.401c-0.825,0.825-1.651,1.376-2.477,2.202
				c-2.752-3.027-4.128-5.779-3.303-7.155c0.825-1.102,3.303-1.102,6.33-0.275C165.719,295.824,165.442,297.476,165.168,299.401
				L165.168,299.401z M178.103,296.925C178.103,296.925,177.827,296.925,178.103,296.925c-0.551-0.275-1.102-0.55-1.375-1.101
				c0.549-0.275,0.824-0.275,1.375-0.551C177.827,295.824,177.827,296.375,178.103,296.925L178.103,296.925z M173.425,287.018
				c1.375,0,2.752,1.926,3.852,5.229c-1.1,0.55-2.477,1.1-3.852,1.651c-1.377-0.551-2.478-1.101-3.854-1.651
				C170.397,289.219,171.772,287.018,173.425,287.018L173.425,287.018z M168.745,295.273c0.275,0.275,0.826,0.275,1.377,0.551
				c-0.551,0.275-1.102,0.55-1.377,0.825V295.273z M168.745,310.41c0.551,0.275,1.102,0.55,1.377,1.101
				c-0.551,0.275-0.826,0.275-1.377,0.55V310.41z M173.425,320.042c-1.377,0-2.753-1.926-3.854-5.229
				c1.101-0.551,2.477-1.101,3.854-1.651c1.375,0.55,2.477,1.1,3.852,1.651C176.177,318.115,174.8,320.042,173.425,320.042
				L173.425,320.042z M177.827,312.061c-0.275-0.275-0.826-0.275-1.377-0.55c0.551-0.275,1.102-0.551,1.377-0.826V312.061z
				 M178.378,306.282c-0.826,0.55-1.377,1.101-2.201,1.651c-1.102,0.55-1.928,1.375-2.752,1.926
				c-0.826-0.551-1.928-1.101-2.753-1.926c-0.825-0.551-1.376-1.101-2.201-1.651v-5.504c0.825-0.551,1.376-1.101,2.201-1.651
				c1.101-0.55,1.927-1.376,2.753-1.926c0.824,0.55,1.926,1.101,2.752,1.926c0.824,0.55,1.375,1.1,2.201,1.651V306.282z
				 M186.909,312.886c-0.826,1.101-3.303,1.101-6.33,0.276c0.275-1.651,0.551-3.303,0.826-5.229c0.826-0.826,1.65-1.376,2.477-2.202
				C186.634,308.759,188.01,311.511,186.909,312.886L186.909,312.886z M181.68,303.805
				C181.68,303.529,181.68,303.805,181.68,303.805L181.68,303.805z M183.882,301.603c-0.826-0.825-1.65-1.376-2.477-2.202
				c-0.275-1.926-0.551-3.577-0.826-5.229c3.303-1.101,5.504-1.101,6.33,0.275C188.01,295.824,186.634,298.576,183.882,301.603
				L183.882,301.603z M183.882,301.603"/>
		</g>
		<path fill="#145BAA" d="M233.693,273.258c1.651,0,1.927-1.376,1.927-2.753v-10.457c0-0.275,0-0.275-0.275-0.551
			c0-0.275-0.275-0.275-0.275-0.55c0-0.275-0.275-0.275-0.275-0.275c-0.275,0-0.275-0.275-0.551-0.275s-0.275-0.275-0.55-0.275
			l-30.823-11.008c-0.275-0.275-0.824-0.275-1.375-0.275s-0.826,0-1.377,0.275l-30.822,11.008c-0.275,0-0.275,0-0.551,0.275
			c-0.274,0-0.274,0.275-0.549,0.275c-0.276,0-0.276,0.275-0.276,0.275c0,0.275-0.275,0.275-0.275,0.55c0,0.275,0,0.275-0.274,0.551
			v11.008c0,1.651,0.55,2.751,1.926,2.751s1.651-1.375,1.651-2.751v-2.752h18.163v6.054l-19.814,6.879c-0.275,0-0.275,0-0.551,0.275
			c-0.274,0-0.274,0.276-0.549,0.276c-0.276,0-0.276,0.275-0.276,0.275c0,0.275-0.275,0.275-0.275,0.55c0,0.275,0,0.275-0.274,0.55
			v3.302c1.65-2.751,3.852-4.128,6.055-4.128c1.65,0,2.752-1.101,4.127,0.275l11.559-4.128v7.431h-9.357
			c1.102,1.376,0.551,2.201,1.377,4.128c4.953-1.101,9.082-0.275,10.732,2.202c0.826,1.376,3.303,3.027,2.752,4.954l3.854,3.302
			l-7.155,5.779c1.101,1.651,2.201,2.201,2.751,3.853l7.432-6.055l25.318,19.815h0.825c0.275,0,0.275,0,0.55,0.275h1.928
			c0,0,0.274,0,0.274-0.275l0.275-0.275l0.275-0.275c0,0,0-0.275,0.274-0.275c0.275-0.275,0.275-0.275,0.275-0.55v-2.202
			l-14.86-29.722h15.411v3.302c0,1.651,0.551,2.752,2.201,2.752c1.651,0,1.651-1.376,1.651-2.752V283.44
			c0-0.276,0-0.276-0.274-0.551c0-0.275-0.275-0.275-0.275-0.55c0-0.275-0.275-0.275-0.275-0.275c-0.275,0-0.275-0.275-0.551-0.275
			s-0.275-0.276-0.551-0.276l-19.814-6.88v-6.054h17.889v2.752C231.491,272.156,232.042,273.258,233.693,273.258L233.693,273.258z
			 M191.587,263.35h-20.64v-1.926l20.64-6.88V263.35z M195.716,254.819v-1.376l5.229-2.477l5.229,2.477v9.907H195.44v-8.531H195.716
			z M194.614,267.753h13.484v3.853l-4.953-1.651c-0.551-0.275-1.1-0.55-1.926-0.55c-0.551,0-1.376,0.275-1.927,0.55l-4.954,1.651
			v-3.853H194.614z M193.238,276.285l8.257-3.027l8.256,3.027v8.807h-16.237v-8.807H193.238z M201.22,297.2l-8.807-7.155v-0.275
			h17.613c0.825,0,0,0.275,0,0.275L201.22,297.2z M226.538,318.115l-22.291-18.163l7.98-6.605
			C212.228,292.521,216.905,300.778,226.538,318.115L226.538,318.115z M230.941,283.99l-0.275,1.651h-17.063v-7.431L230.941,283.99z
			 M210.852,263.625v-8.806l20.64,6.88v1.926H210.852z M210.852,263.625"/>
	</g>
	<g>
		<g>
			<defs>
				<rect id="SVGID_58_" x="169.075" y="480.981" width="59.711" height="70.933"/>
			</defs>
			<clipPath id="SVGID_8_">
				<use xlink:href="#SVGID_58_"  overflow="visible"/>
			</clipPath>
			<path clip-path="url(#SVGID_8_)" fill="#D0342A" d="M209.906,511.707c-7.08-7.866-7.08-17.307-7.08-30.681
				c-21.962,8.654-16.521,32.254-17.308,40.121c-5.506-4.721-7.08-15.733-7.08-15.733c-6.227,3.146-9.375,11.013-9.375,17.307
				c0,15.733,13.375,29.107,29.829,29.107c16.455,0,29.829-12.587,29.829-29.107c0-9.44-7.08-14.16-7.08-26.747
				C211.479,499.12,209.906,506.986,209.906,511.707L209.906,511.707z M209.906,511.707"/>
		</g>
		<path fill="#E2B51E" d="M198.237,518.394c10.555,4,8.129,15.209,8.129,18.356c2.426-2.426,3.213-7.211,3.213-7.211
			c2.425,1.573,4.064,4.785,4.064,7.997c0,7.212-6.49,13.57-13.768,13.57s-13.768-6.425-13.768-13.57
			C186.896,530.391,198.237,524.818,198.237,518.394L198.237,518.394z M198.237,518.394"/>
	</g>
	<g opacity="0.6">
		<g>
			<defs>
				<rect id="SVGID_60_" x="745.182" y="384.18" width="85.784" height="85.877"/>
			</defs>
			<clipPath id="SVGID_9_">
				<use xlink:href="#SVGID_60_"  overflow="visible"/>
			</clipPath>
			<path clip-path="url(#SVGID_9_)" fill="#5CB7DF" d="M788.028,469.952c-23.572,0-42.859-19.286-42.859-42.858
				c0-23.571,19.287-42.858,42.859-42.858c23.571,0,42.857,19.287,42.857,42.858C830.886,450.666,811.6,469.952,788.028,469.952
				L788.028,469.952z M788.028,469.952"/>
		</g>
		<path fill="#2991B1" d="M830.676,431.294l-37.849-16.922c0,0-3.235-1.45-6.944-0.768c-4.14,0.76-11.922,3.925-11.916,13.226
			c0.004,5.689,2.143,8.619,2.143,8.619l10.382,34.463c0.511,0.02,1.021,0.04,1.537,0.04
			C810.182,469.952,828.549,452.913,830.676,431.294L830.676,431.294z M830.676,431.294"/>
		<path fill="#EDB822" d="M777.015,435.884c-1.855-2.334-2.966-5.288-2.966-8.502c0-7.548,6.12-13.667,13.667-13.667
			c7.549,0,13.669,6.119,13.669,13.667c0,7.549-6.12,13.668-13.669,13.668c-1.891,0-3.694-0.385-5.333-1.08"/>
		<path fill="#474341" d="M787.716,441.608c-1.924,0-3.793-0.379-5.551-1.125c-0.284-0.12-0.416-0.447-0.296-0.731
			c0.12-0.283,0.447-0.415,0.729-0.295c1.621,0.688,3.343,1.035,5.117,1.035c7.229,0,13.109-5.882,13.109-13.109
			c0-7.229-5.88-13.111-13.109-13.111s-13.108,5.883-13.108,13.111c0,2.994,0.983,5.814,2.844,8.153
			c0.192,0.24,0.15,0.593-0.09,0.783c-0.241,0.192-0.592,0.152-0.784-0.089c-2.018-2.538-3.086-5.599-3.086-8.848
			c0-7.845,6.382-14.226,14.225-14.226c7.845,0,14.226,6.381,14.226,14.226C801.942,435.227,795.562,441.608,787.716,441.608
			 M791.997,406.183c-0.163,0-0.317-0.071-0.424-0.193c-0.107-0.123-0.152-0.286-0.128-0.448l0.431-2.843
			c0.046-0.304,0.335-0.515,0.635-0.468c0.146,0.023,0.277,0.103,0.365,0.222c0.088,0.118,0.124,0.267,0.102,0.413l-0.432,2.843
			C792.506,405.98,792.272,406.182,791.997,406.183 M791.205,411.417c-0.164,0-0.319-0.07-0.425-0.193s-0.152-0.286-0.128-0.447
			l0.502-3.315c0.046-0.303,0.331-0.517,0.635-0.466c0.305,0.047,0.514,0.33,0.468,0.634l-0.502,3.315
			C791.713,411.216,791.479,411.416,791.205,411.417 M775.739,409.979c-0.176,0.001-0.343-0.085-0.448-0.228l-1.567-2.127
			c-0.088-0.119-0.125-0.268-0.103-0.413c0.022-0.146,0.102-0.278,0.22-0.365c0.118-0.089,0.269-0.126,0.415-0.104
			c0.146,0.022,0.278,0.103,0.365,0.223l1.566,2.126c0.087,0.118,0.125,0.269,0.103,0.414c-0.021,0.145-0.101,0.278-0.22,0.364
			C775.975,409.939,775.859,409.979,775.739,409.979 M779.018,414.43c-0.177,0-0.343-0.085-0.448-0.229l-1.846-2.506
			c-0.088-0.118-0.124-0.267-0.103-0.414c0.021-0.146,0.102-0.275,0.221-0.365c0.247-0.185,0.596-0.13,0.779,0.119l1.847,2.506
			c0.086,0.119,0.125,0.268,0.102,0.414c-0.021,0.146-0.101,0.278-0.22,0.364C779.249,414.394,779.133,414.43,779.018,414.43
			 M806.019,414.904c-0.177,0-0.343-0.086-0.447-0.229c-0.089-0.119-0.125-0.269-0.104-0.414c0.021-0.146,0.102-0.278,0.221-0.364
			l2.506-1.848c0.119-0.088,0.268-0.124,0.413-0.102c0.147,0.021,0.279,0.1,0.366,0.219c0.089,0.119,0.124,0.269,0.103,0.415
			c-0.022,0.146-0.103,0.278-0.222,0.365l-2.505,1.847C806.255,414.865,806.138,414.904,806.019,414.904 M801.948,417.903
			c-0.178,0-0.345-0.084-0.449-0.228c-0.087-0.119-0.125-0.268-0.103-0.413c0.022-0.147,0.103-0.278,0.221-0.366l2.128-1.566
			c0.119-0.089,0.269-0.126,0.414-0.104c0.147,0.022,0.279,0.103,0.365,0.222c0.089,0.119,0.125,0.268,0.103,0.414
			c-0.021,0.146-0.103,0.278-0.221,0.365l-2.127,1.567C802.183,417.865,802.067,417.903,801.948,417.903"/>
		<path fill="#B1771F" d="M796.956,421.312c0.496,0.738,0.939,1.508,1.352,2.294c0.236,0.447,0.916,0.05,0.68-0.396
			c-0.414-0.788-0.856-1.558-1.352-2.296C797.354,420.497,796.672,420.891,796.956,421.312 M793.041,418.371
			c1.111,0.266,2.045,0.852,2.853,1.651c0.361,0.355,0.918-0.2,0.557-0.557c-0.899-0.889-1.965-1.558-3.2-1.854
			C792.758,417.494,792.547,418.252,793.041,418.371"/>
		<path fill="#474341" d="M784.167,452.602c-0.028,0-0.057-0.003-0.083-0.007c-0.146-0.022-0.278-0.101-0.366-0.22
			s-0.125-0.269-0.103-0.414l0.431-2.843c0.028-0.2,0.161-0.369,0.349-0.443c0.186-0.073,0.397-0.04,0.555,0.085
			c0.156,0.126,0.232,0.326,0.2,0.525l-0.432,2.844C784.676,452.399,784.442,452.601,784.167,452.602 M784.888,447.839
			c-0.161,0-0.315-0.07-0.422-0.193c-0.105-0.124-0.153-0.286-0.13-0.447l0.503-3.315c0.046-0.305,0.335-0.515,0.635-0.468
			c0.146,0.022,0.277,0.102,0.366,0.22c0.087,0.12,0.124,0.269,0.102,0.415l-0.502,3.315
			C785.397,447.636,785.165,447.839,784.888,447.839 M802.421,448.09c-0.178,0-0.343-0.086-0.448-0.229l-1.567-2.126
			c-0.183-0.248-0.131-0.598,0.117-0.78c0.119-0.088,0.269-0.125,0.414-0.103c0.146,0.022,0.278,0.102,0.366,0.222l1.566,2.127
			c0.087,0.118,0.125,0.267,0.103,0.413c-0.022,0.146-0.102,0.278-0.22,0.365C802.656,448.051,802.541,448.09,802.421,448.09
			 M799.422,444.02c-0.177,0-0.344-0.086-0.448-0.229l-1.847-2.506c-0.087-0.119-0.124-0.269-0.103-0.415
			c0.021-0.146,0.102-0.276,0.221-0.364c0.118-0.089,0.269-0.125,0.415-0.104c0.146,0.022,0.277,0.102,0.364,0.223l1.847,2.505
			c0.086,0.119,0.124,0.27,0.102,0.415c-0.021,0.146-0.102,0.277-0.22,0.364C799.652,443.982,799.538,444.02,799.422,444.02
			 M768.068,442.884c-0.177,0.001-0.343-0.083-0.449-0.227c-0.088-0.118-0.124-0.268-0.103-0.414
			c0.022-0.146,0.102-0.276,0.221-0.365l2.506-1.847c0.247-0.184,0.596-0.129,0.78,0.118c0.086,0.119,0.124,0.269,0.101,0.415
			c-0.021,0.146-0.101,0.276-0.22,0.364l-2.506,1.847C768.304,442.846,768.187,442.885,768.068,442.884 M772.519,439.605
			c-0.178,0-0.344-0.085-0.449-0.228c-0.088-0.119-0.124-0.269-0.103-0.413c0.022-0.146,0.101-0.278,0.221-0.366l2.128-1.567
			c0.247-0.184,0.595-0.129,0.779,0.119c0.183,0.248,0.128,0.596-0.118,0.779l-2.128,1.567
			C772.753,439.567,772.638,439.605,772.519,439.605 M770.089,425.766c-0.028,0-0.057-0.003-0.085-0.007l-2.843-0.431
			c-0.146-0.022-0.277-0.102-0.365-0.221s-0.124-0.268-0.103-0.413c0.047-0.305,0.335-0.517,0.635-0.469l2.843,0.433
			c0.21-0.002,0.403,0.115,0.499,0.303c0.096,0.185,0.079,0.411-0.043,0.58C770.503,425.711,770.296,425.798,770.089,425.766
			 M765.326,425.044c-0.027,0-0.055-0.002-0.083-0.006l-3.315-0.503c-0.146-0.022-0.278-0.102-0.367-0.22
			c-0.086-0.119-0.124-0.268-0.101-0.414c0.045-0.305,0.337-0.519,0.633-0.468l3.316,0.502c0.209,0,0.4,0.116,0.497,0.303
			c0.096,0.187,0.079,0.41-0.044,0.58C765.74,424.989,765.533,425.075,765.326,425.044 M813.612,431.745
			c-0.028,0-0.056-0.002-0.085-0.007l-2.844-0.432c-0.146-0.021-0.276-0.101-0.364-0.22c-0.089-0.12-0.125-0.269-0.103-0.414
			c0.047-0.305,0.336-0.515,0.635-0.468l2.843,0.432c0.146,0.021,0.277,0.102,0.366,0.221c0.087,0.118,0.123,0.268,0.102,0.413
			C814.121,431.543,813.887,431.745,813.612,431.745 M808.85,431.023c-0.028,0-0.056-0.002-0.083-0.007l-3.315-0.503
			c-0.146-0.021-0.279-0.1-0.365-0.22c-0.089-0.119-0.126-0.268-0.104-0.414c0.047-0.305,0.335-0.516,0.635-0.467l3.315,0.503
			c0.209-0.001,0.401,0.116,0.497,0.303c0.096,0.185,0.079,0.409-0.043,0.58C809.263,430.967,809.057,431.056,808.85,431.023
			 M772.052,418.932c-0.115,0-0.23-0.035-0.33-0.108l-2.313-1.708c-0.249-0.183-0.302-0.533-0.119-0.779
			c0.182-0.248,0.532-0.301,0.779-0.118l2.314,1.707c0.119,0.089,0.199,0.22,0.219,0.365c0.022,0.146-0.015,0.296-0.102,0.414
			C772.396,418.847,772.229,418.932,772.052,418.932 M804.605,438.672c-0.111,0-0.218-0.034-0.311-0.094l-2.394-1.595
			c-0.256-0.171-0.324-0.517-0.153-0.773c0.17-0.254,0.516-0.324,0.771-0.155l2.394,1.595c0.123,0.081,0.209,0.21,0.237,0.354
			s-0.001,0.295-0.082,0.417C804.965,438.578,804.791,438.672,804.605,438.672 M767.988,432.766c-0.275,0-0.51-0.201-0.551-0.475
			c-0.021-0.146,0.014-0.294,0.104-0.413c0.088-0.12,0.218-0.198,0.365-0.221l2.843-0.429c0.303-0.044,0.588,0.164,0.635,0.469
			c0.046,0.305-0.164,0.589-0.469,0.635l-2.843,0.43C768.045,432.764,768.017,432.766,767.988,432.766 M804.989,423.843
			c-0.286-0.001-0.527-0.218-0.556-0.504c-0.028-0.285,0.165-0.544,0.446-0.601l2.819-0.564c0.304-0.063,0.596,0.134,0.657,0.436
			c0.061,0.302-0.135,0.596-0.437,0.656l-2.82,0.567C805.063,423.839,805.025,423.843,804.989,423.843 M776.913,445.718
			c-0.115,0-0.23-0.034-0.331-0.108c-0.119-0.089-0.198-0.219-0.22-0.366c-0.022-0.146,0.015-0.296,0.104-0.414l1.706-2.313
			c0.089-0.119,0.22-0.198,0.365-0.22c0.146-0.023,0.296,0.015,0.414,0.102c0.119,0.089,0.2,0.221,0.221,0.366
			c0.022,0.147-0.015,0.295-0.103,0.415l-1.708,2.313C777.257,445.635,777.091,445.718,776.913,445.718 M796.767,413.245
			c-0.11,0-0.218-0.033-0.31-0.094c-0.123-0.083-0.208-0.21-0.237-0.354c-0.029-0.146,0-0.296,0.083-0.419l1.594-2.394
			c0.171-0.257,0.516-0.324,0.773-0.154c0.256,0.17,0.324,0.516,0.154,0.772l-1.594,2.394
			C797.127,413.151,796.953,413.245,796.767,413.245 M793.822,447.802c-0.275,0-0.509-0.202-0.549-0.476l-0.43-2.844
			c-0.022-0.146,0.015-0.294,0.103-0.413c0.088-0.12,0.219-0.198,0.364-0.221c0.303-0.042,0.591,0.164,0.637,0.468l0.427,2.846
			c0.024,0.16-0.023,0.322-0.128,0.445C794.14,447.73,793.984,447.802,793.822,447.802 M784.899,410.801
			c-0.265,0-0.494-0.188-0.546-0.447l-0.566-2.819c-0.029-0.145,0-0.295,0.083-0.418c0.082-0.123,0.209-0.21,0.355-0.239
			c0.145-0.028,0.294,0.001,0.418,0.082c0.123,0.083,0.209,0.21,0.237,0.355l0.565,2.82c0.061,0.302-0.136,0.596-0.438,0.657
			C784.974,410.797,784.936,410.801,784.899,410.801"/>
	</g>
	<g>
		<polyline opacity="0.6" fill="#FCFCFC" points="436.928,647.362 436.418,724.699 488.254,731.182 489.76,724.771 503.711,719.651 
			516.551,720.361 516.87,713.335 519.017,712.33 519.545,709.949 526.039,710.767 526.132,654.449 517.171,653.876 
			516.125,649.121 489.851,650.021 488.497,645.895 436.928,647.362 		"/>
		<g>
			<path fill="#515151" d="M488.497,645.895v84.44l-51.452-6.442l0.543-76.12L488.497,645.895z M489.827,644.983l-1.396,0.055
				l-50.91,1.877l-1.247,0.044l-0.006,0.813l-0.545,76.126v0.715l1.07,0.132l51.46,6.437l1.563,0.196L489.827,644.983"/>
			<path fill="#515151" d="M487.669,731.345l-50.741-6.605v-77.377l50.741-1.43V731.345z M438.249,724.035l48.091,6.261v-83.463
				l-48.091,1.354V724.035z M489.107,725.569v-61.075l23.439-1.976c0.421-0.725,0.394-1.527-0.074-2.238
				c-0.769-1.131-2.756-1.982-3.192-2.157l-19.82,0.994l-0.05-0.432l20.027-1.004l0.084,0.038c0.117,0.037,2.608,0.987,3.562,2.386
				c0.569,0.847,0.578,1.808,0.024,2.658v52.487L489.107,725.569z M489.76,664.876v59.896l22.68-9.744v-52.066L489.76,664.876z
				 M489.76,664.876"/>
			<path fill="#515151" d="M516.209,714.171v-54.038l0.327-0.005c0.024,0,2.958-0.056,6.888-0.486
				c1.905-0.213,1.99-1.114,1.932-1.484c-0.108-0.804-0.995-1.541-1.881-1.529c-1.615,0.01-6.838,0.551-6.889,0.557l-0.102-0.426
				c0.218-0.021,5.325-0.546,6.99-0.563h0.015c1.338,0,2.41,1.011,2.534,1.921c0.151,1.032-0.785,1.765-2.491,1.949
				c-1.332,0.149-2.674,0.266-4.021,0.35l0.177,52.138L516.209,714.171z M516.87,660.553v52.782l2.146-1.005l-0.174-51.87
				C518.186,660.499,517.528,660.529,516.87,660.553L516.87,660.553z M491.072,664.521h0.652v53.551h-0.652V664.521z
				 M493.58,664.521h0.652v52.443h-0.652V664.521z M496.104,664.085h0.66v52.176h-0.66V664.085z M498.747,663.861h0.659v51.29
				h-0.659V663.861z M501.229,663.861h0.662v50.57h-0.662V663.861z M503.928,663.184h0.663v50.189h-0.663V663.184z M509.296,663.147
				h0.66v48.271h-0.66V663.147z M506.495,663.184h0.661v49.175h-0.661V663.184z M506.495,663.184"/>
			<path fill="#515151" d="M435.739,690.683c0,0.568,0.585,1.033,1.306,1.033c0.719,0,1.311-0.465,1.311-1.033
				c0-0.567-0.586-1.036-1.311-1.036C436.324,689.641,435.739,690.11,435.739,690.683L435.739,690.683z M435.739,690.683"/>
			<path fill="#515151" d="M437.045,691.928c-0.895,0-1.639-0.563-1.639-1.249c0-0.694,0.734-1.251,1.639-1.251
				c0.902,0,1.637,0.563,1.637,1.251C438.682,691.371,437.947,691.928,437.045,691.928L437.045,691.928z M437.045,689.854
				c-0.537,0-0.978,0.364-0.978,0.824c0,0.447,0.44,0.813,0.978,0.813c0.543,0,0.976-0.365,0.976-0.813
				C438.021,690.225,437.588,689.854,437.045,689.854L437.045,689.854z M437.045,689.854"/>
			<path fill="#515151" d="M435.739,670.179c0,0.566,0.585,1.032,1.306,1.032c0.719,0,1.304-0.46,1.304-1.032
				c0-0.574-0.585-1.038-1.304-1.038C436.324,669.141,435.739,669.604,435.739,670.179L435.739,670.179z M435.739,670.179"/>
			<path fill="#515151" d="M437.045,671.427c-0.904,0-1.639-0.561-1.639-1.248c0-0.688,0.734-1.251,1.639-1.251
				c0.902,0,1.637,0.563,1.637,1.251C438.682,670.866,437.947,671.427,437.045,671.427L437.045,671.427z M437.045,669.358
				c-0.537,0-0.978,0.366-0.978,0.82c0,0.452,0.44,0.818,0.978,0.818c0.543,0,0.976-0.366,0.976-0.818
				C438.021,669.725,437.588,669.358,437.045,669.358L437.045,669.358z M435.739,709.201c0,0.568,0.585,1.032,1.306,1.032
				c0.719,0,1.304-0.464,1.304-1.032c0-0.573-0.585-1.03-1.304-1.03C436.324,708.171,435.739,708.628,435.739,709.201
				L435.739,709.201z M465.525,655.416c-0.004,0.377-0.475,0.682-1.052,0.682h-3.395c-0.577,0-1.054-0.306-1.054-0.682
				c0-0.378,0.468-0.688,1.054-0.688h3.395C465.049,654.728,465.525,655.033,465.525,655.416L465.525,655.416z M440.12,656.098
				c0,0.377-0.466,0.683-1.045,0.683h-3.401c-0.578,0-1.044-0.306-1.044-0.683c0-0.376,0.466-0.682,1.044-0.682h3.401
				C439.65,655.416,440.12,655.722,440.12,656.098L440.12,656.098z M444.191,651.91c0,0.377-0.353,0.689-0.777,0.689h-2.516
				c-0.435,0-0.778-0.313-0.778-0.689c0-0.376,0.352-0.682,0.778-0.682h2.516C443.839,651.229,444.191,651.534,444.191,651.91
				L444.191,651.91z M451.959,652.331c0,0.376-0.353,0.683-0.778,0.683h-2.516c-0.427,0-0.777-0.307-0.777-0.683
				s0.351-0.683,0.777-0.683h2.516C451.614,651.648,451.959,651.955,451.959,652.331L451.959,652.331z M456.663,656.414
				c0,0.377-0.343,0.688-0.769,0.688h-2.515c-0.435,0-0.779-0.312-0.779-0.688c0-0.376,0.353-0.682,0.779-0.682h2.515
				C456.32,655.727,456.663,656.038,456.663,656.414L456.663,656.414z M456.663,661.24c0,0.377-0.343,0.683-0.769,0.683h-2.515
				c-0.435,0-0.779-0.306-0.779-0.683c0-0.376,0.353-0.682,0.779-0.682h2.515C456.32,660.559,456.663,660.864,456.663,661.24
				L456.663,661.24z M439.678,661.415c0,0.378-0.468,0.684-1.047,0.684h-3.402c-0.575,0-1.043-0.306-1.043-0.684
				c0-0.377,0.468-0.683,1.043-0.683h3.402C439.21,660.732,439.678,661.038,439.678,661.415L439.678,661.415z M444.669,665.204
				c-0.005,0.379-0.476,0.683-1.055,0.683h-3.402c-0.576,0-1.044-0.306-1.044-0.683c0-0.376,0.468-0.683,1.044-0.683h3.394
				C444.191,664.521,444.669,664.828,444.669,665.204L444.669,665.204z M451.832,666.116c0,0.376-0.284,0.682-0.643,0.682h-2.099
				c-0.358,0-0.652-0.306-0.652-0.682c0-0.377,0.294-0.683,0.652-0.683h2.099C451.548,665.434,451.832,665.739,451.832,666.116
				L451.832,666.116z M469.287,653.02c0,0.376-0.283,0.682-0.634,0.682h-2.06c-0.349,0-0.634-0.306-0.634-0.682
				c0-0.377,0.285-0.688,0.634-0.688h2.06C469.004,652.331,469.287,652.637,469.287,653.02L469.287,653.02z M478.015,653.177
				c0,0.377-0.361,0.683-0.818,0.683h-2.659c-0.451,0-0.819-0.306-0.819-0.683c0-0.376,0.368-0.682,0.819-0.682h2.659
				C477.653,652.495,478.015,652.801,478.015,653.177L478.015,653.177z M481.266,657.19c0,0.377-0.392,0.682-0.878,0.682h-2.874
				c-0.494,0-0.888-0.305-0.888-0.682c0-0.378,0.402-0.684,0.888-0.684h2.874C480.874,656.502,481.266,656.807,481.266,657.19
				L481.266,657.19z M481.266,662.611c0,0.382-0.392,0.688-0.878,0.688h-2.874c-0.494,0-0.888-0.307-0.888-0.688
				c0-0.377,0.402-0.683,0.888-0.683h2.874C480.874,661.923,481.266,662.234,481.266,662.611L481.266,662.611z M477.296,666.805
				c0,0.376-0.402,0.683-0.887,0.683h-2.875c-0.494,0-0.887-0.307-0.887-0.683c0-0.378,0.4-0.684,0.887-0.684h2.866
				C476.894,666.116,477.296,666.423,477.296,666.805L477.296,666.805z M464.682,660.433c0,0.382-0.478,0.688-1.053,0.688h-3.396
				c-0.578,0-1.048-0.307-1.048-0.685c0-0.379,0.47-0.686,1.048-0.686h3.396c0.282,0,0.543,0.071,0.743,0.202
				C464.572,660.078,464.684,660.251,464.682,660.433L464.682,660.433z M467.43,666.116c0,0.377-0.465,0.682-1.044,0.682h-3.402
				c-0.575,0-1.044-0.305-1.044-0.682s0.469-0.683,1.044-0.683h3.402C466.956,665.434,467.43,665.739,467.43,666.116L467.43,666.116
				z M467.43,666.116"/>
			<path fill="#515151" d="M440.362,710.665c0.263-0.135,0.426-0.335,0.453-0.552c0.033-0.218-0.067-0.436-0.275-0.606
				c-0.448-0.344-1.233-0.394-1.774-0.114l-2.448,1.311c-0.538,0.288-0.617,0.806-0.177,1.157c0.442,0.352,1.235,0.403,1.773,0.115
				L440.362,710.665z M447.804,707.308c0.535-0.289,0.616-0.807,0.175-1.158c-0.439-0.352-1.233-0.402-1.771-0.113l-2.451,1.314
				c-0.259,0.138-0.424,0.339-0.457,0.555c-0.032,0.217,0.066,0.434,0.282,0.603c0.444,0.348,1.232,0.398,1.771,0.115
				L447.804,707.308z M440.772,715.884c0.507-0.294,0.57-0.797,0.144-1.141c-0.433-0.344-1.204-0.397-1.74-0.126l-2.457,1.311
				c-0.261,0.138-0.425,0.337-0.458,0.555c-0.032,0.218,0.069,0.435,0.283,0.603c0.442,0.348,1.232,0.398,1.771,0.115
				L440.772,715.884z M442.854,721.671c0.26-0.138,0.423-0.338,0.455-0.556c0.033-0.217-0.067-0.434-0.279-0.602
				c-0.446-0.345-1.231-0.396-1.773-0.114l-2.457,1.314c-0.263,0.139-0.427,0.339-0.46,0.559c-0.035,0.218,0.069,0.437,0.285,0.606
				c0.446,0.343,1.231,0.394,1.771,0.113L442.854,721.671z M452.05,722.332c0.261-0.139,0.423-0.34,0.452-0.558
				c0.033-0.217-0.066-0.432-0.277-0.601c-0.445-0.344-1.23-0.396-1.772-0.114l-2.457,1.315c-0.535,0.288-0.611,0.806-0.171,1.155
				c0.441,0.349,1.231,0.399,1.769,0.111L452.05,722.332z M455.938,716.496c0.535-0.289,0.614-0.807,0.175-1.158
				c-0.441-0.352-1.235-0.402-1.772-0.114l-2.458,1.314c-0.518,0.293-0.588,0.8-0.159,1.148c0.439,0.345,1.218,0.397,1.757,0.119
				L455.938,716.496z M455.387,710.949c0.248-0.138,0.417-0.345,0.451-0.563c0.031-0.218-0.069-0.431-0.285-0.601
				c-0.208-0.168-0.511-0.276-0.844-0.299c-0.332-0.022-0.662,0.043-0.921,0.179l-2.457,1.322c-0.259,0.131-0.426,0.333-0.461,0.551
				c-0.033,0.218,0.067,0.438,0.286,0.601c0.443,0.349,1.229,0.399,1.771,0.115L455.387,710.949z M462.308,713.864
				c0.562-0.258,0.7-0.761,0.318-1.131c-0.18-0.179-0.462-0.305-0.785-0.349c-0.32-0.045-0.656-0.003-0.93,0.113l-2.642,1.146
				c-0.277,0.122-0.472,0.311-0.535,0.526c-0.105,0.325,0.103,0.662,0.531,0.848c0.421,0.185,0.977,0.185,1.4-0.003L462.308,713.864
				z M470.742,709.583c0.55-0.256,0.69-0.751,0.318-1.118c-0.382-0.368-1.135-0.476-1.716-0.246l-2.641,1.146
				c-0.285,0.12-0.479,0.317-0.536,0.53c-0.059,0.212,0,0.436,0.187,0.616c0.385,0.375,1.162,0.476,1.738,0.224L470.742,709.583z
				 M476.936,711.834c0.278-0.122,0.47-0.312,0.527-0.526c0.071-0.212,0.004-0.436-0.184-0.616c-0.183-0.184-0.473-0.31-0.804-0.349
				c-0.326-0.041-0.665,0.003-0.946,0.12l-2.638,1.151c-0.277,0.124-0.472,0.311-0.544,0.524c-0.06,0.213,0,0.438,0.184,0.617
				c0.384,0.377,1.17,0.48,1.745,0.229L476.936,711.834z M479.511,716.796c0.564-0.254,0.715-0.757,0.334-1.13
				c-0.382-0.376-1.156-0.482-1.738-0.24l-2.633,1.151c-0.281,0.122-0.475,0.313-0.534,0.529c-0.102,0.327,0.107,0.659,0.532,0.844
				c0.424,0.186,0.975,0.184,1.398-0.002L479.511,716.796z M478.015,722.889c0.389-0.156,0.609-0.44,0.576-0.738
				c-0.025-0.3-0.292-0.566-0.702-0.692s-0.895-0.109-1.271,0.066l-2.641,1.146c-0.376,0.164-0.589,0.445-0.559,0.739
				c0.029,0.295,0.297,0.555,0.701,0.686c0.406,0.131,0.889,0.11,1.261-0.055L478.015,722.889z M471.68,725.279
				c0.275-0.119,0.466-0.307,0.533-0.519c0.065-0.218,0-0.436-0.192-0.617c-0.184-0.182-0.469-0.31-0.794-0.354
				c-0.331-0.038-0.67,0.007-0.952,0.126l-2.634,1.146c-0.286,0.12-0.478,0.316-0.535,0.53c-0.059,0.212,0,0.436,0.184,0.616
				c0.386,0.375,1.162,0.475,1.74,0.224L471.68,725.279z M464.146,723.887c0.552-0.262,0.696-0.759,0.317-1.13
				c-0.375-0.371-1.144-0.48-1.722-0.24l-2.64,1.146c-0.378,0.162-0.593,0.443-0.562,0.737c0.024,0.294,0.291,0.557,0.693,0.688
				c0.402,0.126,0.879,0.109,1.256-0.054L464.146,723.887z M461.563,719.58c0.277-0.121,0.471-0.308,0.536-0.521
				c0.066-0.214,0-0.435-0.185-0.615c-0.181-0.182-0.468-0.309-0.795-0.353c-0.326-0.044-0.667-0.003-0.943,0.118l-2.643,1.151
				c-0.579,0.253-0.734,0.763-0.351,1.142c0.184,0.181,0.469,0.306,0.796,0.35c0.328,0.043,0.666-0.001,0.943-0.121L461.563,719.58z
				 M459.548,650.852c-0.901,0-1.638-0.563-1.638-1.25c0-0.688,0.736-1.251,1.638-1.251c0.904,0,1.639,0.563,1.639,1.251
				C461.187,650.289,460.452,650.852,459.548,650.852L459.548,650.852z M459.548,648.782c-0.536,0-0.978,0.367-0.978,0.819
				c0,0.453,0.441,0.818,0.978,0.818s0.979-0.365,0.979-0.818C460.527,649.149,460.084,648.782,459.548,648.782L459.548,648.782z
				 M459.548,648.782"/>
			<path fill="#515151" d="M517.848,721.376l-14.137-1.725l0.234-0.824l12.605,1.534l-0.426-71.24l-26.274,0.9l-0.059-0.841
				l27.613-0.943L517.848,721.376z M517.848,721.376"/>
			<g>
				<defs>
					<rect id="SVGID_62_" x="434.186" y="644.919" width="95.338" height="86.565"/>
				</defs>
				<clipPath id="SVGID_10_">
					<use xlink:href="#SVGID_62_"  overflow="visible"/>
				</clipPath>
				<path clip-path="url(#SVGID_10_)" fill="#515151" d="M527.571,710.959l-8.026-1.01l0.24-0.83l6.491,0.819l-0.145-55.489
					l-8.894,0.272l-0.067-0.846l10.256-0.311L527.571,710.959z M527.571,710.959"/>
				<path clip-path="url(#SVGID_10_)" fill="#515151" d="M529.032,696.918c0.146,0.199,0.16,0.427,0.045,0.634
					c-0.115,0.206-0.357,0.374-0.664,0.464l-43.285,12.644c-0.645,0.18-1.392-0.016-1.672-0.437
					c-0.291-0.418-0.015-0.911,0.619-1.108l43.286-12.633c0.312-0.089,0.661-0.091,0.974-0.009
					C528.65,696.556,528.901,696.715,529.032,696.918L529.032,696.918z M529.249,683.029c0.186,0.448-0.172,0.906-0.828,1.026
					l-44.37,8.102c-0.678,0.106-1.362-0.159-1.539-0.601c-0.184-0.441,0.175-0.905,0.836-1.026l44.389-8.102
					C528.38,682.313,529.057,682.582,529.249,683.029L529.249,683.029z M529.518,668.229c0.051,0.464-0.435,0.868-1.078,0.895
					l-44.291,2.009c-0.643,0.027-1.218-0.322-1.268-0.791c-0.043-0.464,0.441-0.862,1.076-0.896l44.299-2.009
					C528.891,667.409,529.467,667.765,529.518,668.229L529.518,668.229z M529.518,668.229"/>
			</g>
			<path fill="#515151" d="M470.049,722.67c-3.746,0-6.798-2.681-6.798-5.983c0-3.304,3.052-5.983,6.798-5.983
				c3.745,0,6.795,2.68,6.795,5.983C476.844,719.989,473.803,722.67,470.049,722.67L470.049,722.67z M470.049,711.358
				c-3.204,0-5.803,2.391-5.803,5.333c0,2.943,2.599,5.335,5.803,5.335c3.202,0,5.8-2.392,5.8-5.335
				C475.849,713.749,473.251,711.358,470.049,711.358L470.049,711.358z M470.049,711.358"/>
			<path fill="#515151" d="M470.559,724.761c-5.142,0-9.321-3.701-9.321-8.255c0-4.553,4.18-8.254,9.321-8.254
				c5.141,0,9.311,3.701,9.311,8.254C479.869,721.06,475.699,724.761,470.559,724.761L470.559,724.761z M470.559,708.885
				c-4.608,0-8.352,3.424-8.352,7.621c0,4.198,3.743,7.621,8.352,7.621c4.604,0,8.351-3.423,8.351-7.621
				C478.909,712.309,475.163,708.885,470.559,708.885L470.559,708.885z M447.059,719.924c-3.744,0-6.796-2.68-6.796-5.983
				c0-3.303,3.052-5.988,6.796-5.988c3.745,0,6.796,2.686,6.796,5.988C453.854,717.244,450.804,719.924,447.059,719.924
				L447.059,719.924z M447.059,708.606c-3.201,0-5.802,2.392-5.802,5.34c0,2.947,2.601,5.333,5.802,5.333
				c3.202,0,5.803-2.391,5.803-5.333S450.261,708.606,447.059,708.606L447.059,708.606z M447.059,708.606"/>
			<path fill="#515151" d="M447.568,722.01c-5.141,0-9.319-3.701-9.319-8.249c0-4.554,4.179-8.255,9.319-8.255
				c5.143,0,9.322,3.701,9.322,8.255C456.891,718.309,452.711,722.01,447.568,722.01L447.568,722.01z M447.568,706.14
				c-4.605,0-8.35,3.422-8.35,7.621c0,4.197,3.744,7.621,8.35,7.621c4.608,0,8.352-3.418,8.352-7.621
				C455.92,709.557,452.177,706.14,447.568,706.14L447.568,706.14z M472.647,665.908c-3.745,0-6.795-2.686-6.795-5.982
				c0-3.298,3.05-5.984,6.795-5.984c3.744,0,6.795,2.687,6.795,5.984C479.442,663.223,476.392,665.908,472.647,665.908
				L472.647,665.908z M472.647,654.592c-3.202,0-5.803,2.391-5.803,5.334c0,2.941,2.601,5.332,5.803,5.332
				c3.201,0,5.803-2.391,5.803-5.332C478.45,656.982,475.849,654.592,472.647,654.592L472.647,654.592z M472.647,654.592"/>
			<path fill="#515151" d="M473.149,667.999c-5.139,0-9.322-3.701-9.322-8.253c0-4.548,4.184-8.256,9.322-8.256
				c5.132,0,9.312,3.701,9.312,8.256C482.471,664.298,478.29,667.999,473.149,667.999L473.149,667.999z M473.149,652.129
				c-4.605,0-8.35,3.417-8.35,7.621s3.744,7.622,8.35,7.622s8.35-3.418,8.35-7.622S477.755,652.129,473.149,652.129L473.149,652.129
				z M447.534,665.346c-3.753,0-6.804-2.687-6.804-5.983c0-3.296,3.051-5.983,6.804-5.983c3.746,0,6.798,2.688,6.798,5.983
				C454.332,662.659,451.287,665.346,447.534,665.346L447.534,665.346z M447.534,654.029c-3.201,0-5.808,2.392-5.808,5.333
				c0,2.942,2.606,5.334,5.808,5.334c3.203,0,5.802-2.392,5.802-5.334C453.336,656.421,450.737,654.029,447.534,654.029
				L447.534,654.029z M447.534,654.029"/>
			<path fill="#515151" d="M448.046,667.438c-5.141,0-9.32-3.702-9.32-8.256c0-4.552,4.18-8.254,9.32-8.254s9.32,3.702,9.32,8.254
				C457.366,663.735,453.187,667.438,448.046,667.438L448.046,667.438z M448.046,651.561c-4.606,0-8.352,3.417-8.352,7.621
				s3.745,7.623,8.352,7.623c4.605,0,8.352-3.419,8.352-7.623S452.651,651.561,448.046,651.561L448.046,651.561z M448.046,651.561"
				/>
			<path fill="#515151" d="M452.318,674.054l-10.886-1.146v-3.686l10.886,0.584V674.054z M442.402,672.373l8.944,0.944v-2.927
				l-8.944-0.48V672.373z M478.858,676.723l-12.422-1.446v-4.596l12.422,0.736V676.723z M467.599,674.644l10.098,1.174v-3.706
				l-10.098-0.606V674.644z M467.599,674.644"/>
		</g>
	</g>
	<g>
		<g>
			<defs>
				<rect id="SVGID_64_" x="160.184" y="653.437" width="75.971" height="64.438"/>
			</defs>
			<clipPath id="SVGID_11_">
				<use xlink:href="#SVGID_64_"  overflow="visible"/>
			</clipPath>
			<path clip-path="url(#SVGID_11_)" fill="#505050" d="M224.18,706.058h6.089c2.086,0,4.015,1.112,5.058,2.92
				c1.044,1.808,1.044,4.033,0,5.84c-1.043,1.808-2.972,2.921-5.058,2.921h-64.245c-2.085,0-4.014-1.113-5.058-2.921
				c-1.043-1.807-1.043-4.032,0-5.84c1.044-1.808,2.973-2.92,5.058-2.92h6.089c-0.638,1.814-0.018,3.833,1.529,4.977
				c1.547,1.143,3.659,1.143,5.206,0c1.547-1.144,2.168-3.162,1.529-4.977h6.337c-0.64,1.814-0.019,3.833,1.529,4.977
				c1.547,1.143,3.658,1.143,5.205,0c1.547-1.144,2.168-3.162,1.529-4.977h6.337c-0.639,1.814-0.019,3.833,1.529,4.977
				c1.547,1.143,3.658,1.143,5.205,0c1.548-1.144,2.168-3.162,1.53-4.977h6.337c-0.64,1.814-0.019,3.833,1.529,4.977
				c1.547,1.143,3.658,1.143,5.205,0C224.197,709.891,224.818,707.872,224.18,706.058L224.18,706.058z M174.784,653.493
				c0.774,0,1.518,0.308,2.065,0.855s0.854,1.29,0.854,2.065c2.207,3.401,3.233,7.434,2.921,11.476c0,5.637-5.841,9.17-5.841,14.806
				c-0.31,4.106,0.716,8.203,2.92,11.681c0,1.613-1.307,2.92-2.92,2.92c-1.612,0-2.919-1.307-2.919-2.92
				c-2.203-3.489-3.227-7.594-2.921-11.71c0-5.636,5.84-9.169,5.84-14.776c0.313-4.042-0.713-8.074-2.919-11.476
				c0-0.775,0.307-1.518,0.854-2.065S174.01,653.493,174.784,653.493L174.784,653.493z M189.386,653.493
				c0.773,0,1.517,0.308,2.064,0.855s0.855,1.29,0.855,2.065c2.206,3.401,3.232,7.434,2.92,11.476c0,5.637-5.84,9.17-5.84,14.806
				c-0.31,4.106,0.715,8.203,2.92,11.681c0,1.613-1.308,2.92-2.92,2.92c-1.613,0-2.92-1.307-2.92-2.92
				c-2.202-3.489-3.226-7.594-2.921-11.71c0-5.636,5.841-9.169,5.841-14.776c0.313-4.042-0.714-8.074-2.92-11.476
				c0-0.775,0.308-1.518,0.855-2.065S188.61,653.493,189.386,653.493L189.386,653.493z M203.986,653.493
				c0.774,0,1.518,0.308,2.064,0.855c0.549,0.548,0.856,1.29,0.856,2.065c2.205,3.401,3.232,7.434,2.919,11.476
				c0,5.637-5.84,9.17-5.84,14.806c-0.31,4.106,0.715,8.203,2.921,11.681c0,1.613-1.308,2.92-2.921,2.92
				c-1.612,0-2.92-1.307-2.92-2.92c-2.202-3.489-3.226-7.594-2.921-11.71c0-5.636,5.841-9.169,5.841-14.776
				c0.313-4.042-0.713-8.074-2.92-11.476c0-0.775,0.308-1.518,0.855-2.065S203.213,653.493,203.986,653.493L203.986,653.493z
				 M218.588,653.493c0.773,0,1.517,0.308,2.064,0.855s0.854,1.29,0.854,2.065c2.208,3.401,3.233,7.434,2.921,11.476
				c0,5.637-5.84,9.17-5.84,14.806c-0.31,4.106,0.715,8.203,2.919,11.681c0,1.613-1.307,2.92-2.919,2.92
				c-1.613,0-2.92-1.307-2.92-2.92c-2.203-3.489-3.226-7.594-2.921-11.71c0-5.636,5.841-9.169,5.841-14.776
				c0.312-4.042-0.714-8.074-2.92-11.476c0-0.775,0.307-1.518,0.854-2.065S217.813,653.493,218.588,653.493L218.588,653.493z
				 M218.588,653.493"/>
		</g>
	</g>
</g>
<g id="文字">
	<rect x="341.302" y="52.758" fill="none" width="122.936" height="27.523"/>
	<text transform="matrix(1 0 0 1 380.77 71.6641)" fill="#595757" font-family="'SimHei'" font-size="22">供电</text>
	<rect x="725.433" y="352.386" fill="none" width="122.936" height="27.523"/>
	<text transform="matrix(1 0 0 1 764.9004 371.2925)" fill="#595757" font-family="'SimHei'" font-size="22">供热</text>
	<rect x="417.577" y="440.666" fill="none" width="122.936" height="27.522"/>
	<text transform="matrix(1 0 0 1 435.0454 459.5723)" fill="#595757" font-family="'SimHei'" font-size="22">燃气锅炉</text>
	<rect x="136.338" y="438.835" fill="none" width="122.936" height="27.522"/>
	<text transform="matrix(1 0 0 1 153.8057 457.7402)" fill="#595757" font-family="'SimHei'" font-size="22">市政燃气</text>
	<rect x="135.776" y="209.221" fill="none" width="122.936" height="27.523"/>
	<text transform="matrix(1 0 0 1 153.2441 228.1274)" fill="#595757" font-family="'SimHei'" font-size="22">市政电网</text>
	<rect x="683.376" y="156.604" fill="none" width="161.503" height="27.523"/>
	<text transform="matrix(1 0 0 1 687.127 175.5098)" fill="#595757" font-family="'SimHei'" font-size="22">离心式冷水机组</text>
	<rect x="708.079" y="290.935" fill="none" width="114.824" height="27.523"/>
	<text transform="matrix(1 0 0 1 732.4912 309.8408)" fill="#595757" font-family="'SimHei'" font-size="22">7000kW</text>
	<rect x="421.478" y="567.992" fill="none" width="114.824" height="27.523"/>
	<text transform="matrix(1 0 0 1 445.8896 586.8984)" fill="#595757" font-family="'SimHei'" font-size="22">9000kW</text>
	<rect x="409.32" y="610.875" fill="none" width="139.449" height="27.522"/>
	<text transform="matrix(1 0 0 1 424.0449 629.7813)" fill="#595757" font-family="'SimHei'" font-size="22">板式换热器</text>
	<rect x="136.338" y="609.044" fill="none" width="122.936" height="27.522"/>
	<text transform="matrix(1 0 0 1 153.8057 627.9492)" fill="#595757" font-family="'SimHei'" font-size="22">市政蒸汽</text>
	<rect x="421.478" y="741.865" fill="none" width="114.824" height="27.523"/>
	<text transform="matrix(1 0 0 1 445.8896 760.7715)" fill="#595757" font-family="'SimHei'" font-size="22">5000kW</text>
	<rect x="1038.586" y="52.758" fill="none" width="107.375" height="27.523"/>
	<text transform="matrix(1 0 0 1 1070.2734 71.6641)" fill="#595757" font-family="'SimHei'" font-size="22">供冷</text>
</g>
</svg>
