<?xml version="1.0" encoding="utf-8"?>
<!-- Generator: Adobe Illustrator 16.0.0, SVG Export Plug-In . SVG Version: 6.00 Build 0)  -->
<!DOCTYPE svg PUBLIC "-//W3C//DTD SVG 1.1//EN" "http://www.w3.org/Graphics/SVG/1.1/DTD/svg11.dtd">
<svg version="1.1" xmlns="http://www.w3.org/2000/svg" xmlns:xlink="http://www.w3.org/1999/xlink" x="0px" y="0px"
	 width="1190.55px" height="841.89px" viewBox="0 0 1190.55 841.89" enable-background="new 0 0 1190.55 841.89"
	 xml:space="preserve">
<g id="参考图片">
</g>
<g id="底图" display="none">
</g>
<g id="线">
	<polyline fill="none" stroke="#E71F19" stroke-width="8" stroke-miterlimit="10" points="556.742,358.012 556.742,486.18 
		711.061,486.18 	"/>
	
		<line fill="none" stroke="#F4BA19" stroke-width="8" stroke-miterlimit="10" x1="345.806" y1="141.868" x2="345.806" y2="362.051"/>
	
		<line fill="none" stroke="#F4BA19" stroke-width="8" stroke-miterlimit="10" x1="616.105" y1="202.106" x2="345.823" y2="202.106"/>
	
		<line fill="none" stroke="#F4BA19" stroke-width="8" stroke-miterlimit="10" x1="422.982" y1="301.894" x2="345.823" y2="301.894"/>
	
		<line fill="none" stroke="#5893C9" stroke-width="9" stroke-miterlimit="10" x1="1031.618" y1="202.106" x2="808.272" y2="202.106"/>
	
		<line fill="none" stroke="#5893C9" stroke-width="9" stroke-miterlimit="10" x1="1038.409" y1="301.894" x2="616.151" y2="301.894"/>
	
		<line fill="none" stroke="#5893C9" stroke-width="9" stroke-miterlimit="10" x1="1037.323" y1="471.353" x2="972.562" y2="471.353"/>
	
		<line fill="none" stroke="#5893C9" stroke-width="9" stroke-miterlimit="10" x1="1035.096" y1="146.187" x2="1035.096" y2="597.367"/>
	<line fill="none" stroke="#E71F19" stroke-width="8" stroke-miterlimit="10" x1="710.568" y1="447.596" x2="710.568" y2="819"/>
	
		<line fill="none" stroke="#F4BA19" stroke-width="8" stroke-miterlimit="10" x1="345.806" y1="247.481" x2="193.175" y2="247.481"/>
	
		<line fill="none" stroke="#E71F19" stroke-width="8" stroke-miterlimit="10" x1="518.602" y1="690.562" x2="711.979" y2="690.562"/>
	<line fill="none" stroke="#763992" stroke-width="8" stroke-miterlimit="10" x1="193.175" y1="526.353" x2="326.01" y2="526.353"/>
	<polygon fill="#F4BA19" stroke="#FFFFFF" stroke-width="3" stroke-miterlimit="10" points="326.01,172.236 345.806,155.545 
		365.601,172.236 	"/>
	<polygon fill="#E71F19" stroke="#FFFFFF" stroke-width="3" stroke-miterlimit="10" points="606.552,670.766 623.243,690.562 
		606.552,710.357 	"/>
	<line fill="none" stroke="#E71F19" stroke-width="8" stroke-miterlimit="10" x1="710.568" y1="645.745" x2="803.95" y2="645.745"/>
	<polygon fill="#E71F19" stroke="#FFFFFF" stroke-width="3" stroke-miterlimit="10" points="765.792,625.416 782.483,645.212 
		765.792,665.008 	"/>
	<polygon fill="#E71F19" stroke="#FFFFFF" stroke-width="3" stroke-miterlimit="10" points="759.011,665.007 742.319,645.211 
		759.011,625.415 	"/>
	
		<line fill="none" stroke="#E71F19" stroke-width="8" stroke-miterlimit="10" x1="518.602" y1="527.353" x2="711.979" y2="527.353"/>
	<polygon fill="#E71F19" stroke="#FFFFFF" stroke-width="3" stroke-miterlimit="10" points="620.882,507.557 637.573,527.353 
		620.882,547.148 	"/>
	<polygon fill="#E71F19" stroke="#FFFFFF" stroke-width="3" stroke-miterlimit="10" points="623.779,464.999 640.471,484.795 
		623.779,504.591 	"/>
	<polygon fill="#763992" stroke="#FFFFFF" stroke-width="3" stroke-miterlimit="10" points="264.117,505.557 280.809,525.353 
		264.117,545.148 	"/>
	<line fill="none" stroke="#6EA647" stroke-width="8" stroke-miterlimit="10" x1="193.175" y1="688.562" x2="326.01" y2="688.562"/>
	<polygon fill="#6EA647" stroke="#FFFFFF" stroke-width="3" stroke-miterlimit="10" points="264.117,667.766 280.809,687.562 
		264.117,707.357 	"/>
	<polygon fill="#E71F19" stroke="#FFFFFF" stroke-width="3" stroke-miterlimit="10" points="691.129,606.1 710.925,589.408 
		730.721,606.1 	"/>
	<polygon fill="#E71F19" stroke="#FFFFFF" stroke-width="3" stroke-miterlimit="10" points="691.129,471.634 710.925,454.942 
		730.721,471.634 	"/>
	<polygon fill="#F4BA19" stroke="#FFFFFF" stroke-width="3" stroke-miterlimit="10" points="272.463,227.686 289.154,247.481 
		272.463,267.277 	"/>
	<polygon fill="#F4BA19" stroke="#FFFFFF" stroke-width="3" stroke-miterlimit="10" points="383.104,282.098 399.796,301.894 
		383.104,321.689 	"/>
	<polygon fill="#F4BA19" stroke="#FFFFFF" stroke-width="3" stroke-miterlimit="10" points="590.48,183.236 607.172,203.032 
		590.48,222.828 	"/>
	<polygon fill="#5893C9" stroke="#FFFFFF" stroke-width="3" stroke-miterlimit="10" points="985.841,183.236 1002.532,203.032 
		985.841,222.828 	"/>
	<polygon fill="#5893C9" stroke="#FFFFFF" stroke-width="3" stroke-miterlimit="10" points="949.804,282.098 966.495,301.894 
		949.804,321.689 	"/>
	<polygon fill="#5893C9" stroke="#FFFFFF" stroke-width="3" stroke-miterlimit="10" points="1006.675,451.557 1023.366,471.352 
		1006.675,491.148 	"/>
	<polygon fill="#5893C9" stroke="#FFFFFF" stroke-width="3" stroke-miterlimit="10" points="1000.978,491.148 984.286,471.354 
		1000.978,451.557 	"/>
	<polygon fill="#5893C9" stroke="#FFFFFF" stroke-width="3" stroke-miterlimit="10" points="891.267,183.236 907.958,203.032 
		891.267,222.828 	"/>
	<polygon fill="#5893C9" stroke="#FFFFFF" stroke-width="3" stroke-miterlimit="10" points="799.506,282.098 816.197,301.894 
		799.506,321.689 	"/>
	<polygon fill="#5893C9" stroke="#FFFFFF" stroke-width="3" stroke-miterlimit="10" points="1015.322,173.166 1035.119,156.475 
		1054.914,173.166 	"/>
	<polygon fill="#F4BA19" stroke="#FFFFFF" stroke-width="3" stroke-miterlimit="10" points="450.114,183.236 466.806,203.032 
		450.114,222.828 	"/>
</g>
<g id="框底">
	<g opacity="0.8">
		
			<image overflow="visible" opacity="0.75" width="547" height="547" xlink:href="7BD28DB.png"  transform="matrix(0.24 0 0 0.24 85.5166 190.8501)">
		</image>
		<g>
			<path fill="#EFEFEF" d="M193.175,288.177c0,5.707-4.625,10.333-10.332,10.333h-77.494c-5.707,0-10.332-4.626-10.332-10.333
				v-77.494c0-5.707,4.625-10.333,10.332-10.333h77.494c5.707,0,10.332,4.626,10.332,10.333V288.177z"/>
			<path fill="none" stroke="#3E3A39" stroke-width="3" stroke-miterlimit="10" d="M193.175,288.177
				c0,5.707-4.625,10.333-10.332,10.333h-77.494c-5.707,0-10.332-4.626-10.332-10.333v-77.494c0-5.707,4.625-10.333,10.332-10.333
				h77.494c5.707,0,10.332,4.626,10.332,10.333V288.177z"/>
		</g>
	</g>
	<g opacity="0.8">
		
			<image overflow="visible" opacity="0.75" width="547" height="547" xlink:href="7BD28D9.png"  transform="matrix(0.24 0 0 0.24 86.2021 463.8682)">
		</image>
		<g>
			<path fill="#EFEFEF" d="M193.861,561.194c0,5.707-4.626,10.332-10.333,10.332h-77.494c-5.706,0-10.332-4.625-10.332-10.332V483.7
				c0-5.707,4.626-10.332,10.332-10.332h77.494c5.707,0,10.333,4.625,10.333,10.332V561.194z"/>
			<path fill="none" stroke="#3E3A39" stroke-width="3" stroke-miterlimit="10" d="M193.861,561.194
				c0,5.707-4.626,10.332-10.333,10.332h-77.494c-5.706,0-10.332-4.625-10.332-10.332V483.7c0-5.707,4.626-10.332,10.332-10.332
				h77.494c5.707,0,10.333,4.625,10.333,10.332V561.194z"/>
		</g>
	</g>
	<g opacity="0.8">
		
			<image overflow="visible" opacity="0.75" width="547" height="547" xlink:href="7BD28DF.png"  transform="matrix(0.24 0 0 0.24 652.626 340.6621)">
		</image>
		<g>
			<path fill="#EFEFEF" d="M760.284,437.988c0,5.707-4.625,10.332-10.332,10.332h-77.494c-5.707,0-10.332-4.625-10.332-10.332
				v-77.494c0-5.707,4.625-10.332,10.332-10.332h77.494c5.707,0,10.332,4.625,10.332,10.332V437.988z"/>
			<path fill="none" stroke="#3E3A39" stroke-width="3" stroke-miterlimit="10" d="M760.284,437.988
				c0,5.707-4.625,10.332-10.332,10.332h-77.494c-5.707,0-10.332-4.625-10.332-10.332v-77.494c0-5.707,4.625-10.332,10.332-10.332
				h77.494c5.707,0,10.332,4.625,10.332,10.332V437.988z"/>
		</g>
	</g>
	<g opacity="0.8">
		
			<image overflow="visible" opacity="0.75" width="547" height="547" xlink:href="7BD28D8.png"  transform="matrix(0.24 0 0 0.24 290.1924 35.5278)">
		</image>
		<g>
			<path fill="#EFEFEF" d="M397.851,132.854c0,5.707-4.625,10.332-10.332,10.332h-77.494c-5.707,0-10.332-4.625-10.332-10.332V55.36
				c0-5.707,4.625-10.332,10.332-10.332h77.494c5.707,0,10.332,4.625,10.332,10.332V132.854z"/>
			<path fill="none" stroke="#3E3A39" stroke-width="3" stroke-miterlimit="10" d="M397.851,132.854
				c0,5.707-4.625,10.332-10.332,10.332h-77.494c-5.707,0-10.332-4.625-10.332-10.332V55.36c0-5.707,4.625-10.332,10.332-10.332
				h77.494c5.707,0,10.332,4.625,10.332,10.332V132.854z"/>
		</g>
	</g>
	<g opacity="0.8">
		
			<image overflow="visible" opacity="0.75" width="547" height="547" xlink:href="7BD28D6.png"  transform="matrix(0.24 0 0 0.24 974.7861 35.5278)">
		</image>
		<g>
			<path fill="#EFEFEF" d="M1082.444,132.854c0,5.707-4.625,10.332-10.332,10.332h-77.494c-5.707,0-10.332-4.625-10.332-10.332
				V55.36c0-5.707,4.625-10.332,10.332-10.332h77.494c5.707,0,10.332,4.625,10.332,10.332V132.854z"/>
			<path fill="none" stroke="#3E3A39" stroke-width="3" stroke-miterlimit="10" d="M1082.444,132.854
				c0,5.707-4.625,10.332-10.332,10.332h-77.494c-5.707,0-10.332-4.625-10.332-10.332V55.36c0-5.707,4.625-10.332,10.332-10.332
				h77.494c5.707,0,10.332,4.625,10.332,10.332V132.854z"/>
		</g>
	</g>
	<g opacity="0.1">
		
			<image overflow="visible" opacity="0.75" width="937" height="547" xlink:href="7BD28D7.png"  transform="matrix(0.24 0 0 0.24 606.6055 143.5269)">
		</image>
		<g>
			<radialGradient id="SVGID_1_" cx="711.9785" cy="202.1064" r="76.159" gradientUnits="userSpaceOnUse">
				<stop  offset="0.5744" style="stop-color:#000000;stop-opacity:0"/>
				<stop  offset="0.7977" style="stop-color:#000000;stop-opacity:0.6512"/>
				<stop  offset="1" style="stop-color:#000000;stop-opacity:0.95"/>
			</radialGradient>
			<path fill="url(#SVGID_1_)" d="M807.852,240.854c0,5.707-9.035,10.332-20.184,10.332h-151.38
				c-11.148,0-20.183-4.625-20.183-10.332v-77.495c0-5.707,9.034-10.332,20.183-10.332h151.38c11.148,0,20.184,4.625,20.184,10.332
				V240.854z"/>
			<path fill="none" stroke="#3E3A39" stroke-width="3" stroke-miterlimit="10" d="M807.852,240.854
				c0,5.707-9.035,10.332-20.184,10.332h-151.38c-11.148,0-20.183-4.625-20.183-10.332v-77.495c0-5.707,9.034-10.332,20.183-10.332
				h151.38c11.148,0,20.184,4.625,20.184,10.332V240.854z"/>
		</g>
	</g>
	<g opacity="0.1">
		
			<image overflow="visible" opacity="0.75" width="940" height="547" xlink:href="7BD28E7.png"  transform="matrix(0.24 0 0 0.24 316.5098 465.2949)">
		</image>
		<g>
			
				<radialGradient id="SVGID_2_" cx="-117.8057" cy="523.874" r="49.0786" gradientTransform="matrix(1.9621 0 0 1 653.4524 0)" gradientUnits="userSpaceOnUse">
				<stop  offset="0.5744" style="stop-color:#000000;stop-opacity:0"/>
				<stop  offset="0.7977" style="stop-color:#000000;stop-opacity:0.6512"/>
				<stop  offset="1" style="stop-color:#000000;stop-opacity:0.95"/>
			</radialGradient>
			<path fill="url(#SVGID_2_)" d="M518.602,562.621c0,5.707-9.074,10.332-20.271,10.332H346.282
				c-11.197,0-20.272-4.625-20.272-10.332v-77.494c0-5.707,9.075-10.332,20.272-10.332H498.33c11.197,0,20.271,4.625,20.271,10.332
				V562.621z"/>
			<path fill="none" stroke="#3E3A39" stroke-width="3" stroke-miterlimit="10" d="M518.602,562.621
				c0,5.707-9.074,10.332-20.271,10.332H346.282c-11.197,0-20.272-4.625-20.272-10.332v-77.494c0-5.707,9.075-10.332,20.272-10.332
				H498.33c11.197,0,20.271,4.625,20.271,10.332V562.621z"/>
		</g>
	</g>
	<path opacity="0.8" fill="none" stroke="#3E3A39" stroke-width="3" stroke-miterlimit="10" d="M807.77,241.394
		c0,6.439-9.706,11.659-21.681,11.659h-148.22c-11.975,0-21.681-5.22-21.681-11.659v-79.708c0-6.439,9.706-11.659,21.681-11.659
		h148.22c11.975,0,21.681,5.22,21.681,11.659V241.394z"/>
	<path opacity="0.8" fill="none" stroke="#3E3A39" stroke-width="3" stroke-miterlimit="10" d="M518.602,562.769
		c0,6.199-9.689,11.224-21.643,11.224H349.006c-11.953,0-21.643-5.024-21.643-11.224v-76.737c0-6.199,9.689-11.224,21.643-11.224
		h147.953c11.953,0,21.643,5.024,21.643,11.224V562.769z"/>
	<g opacity="0.1">
		
			<image overflow="visible" opacity="0.75" width="940" height="547" xlink:href="7BD28E9.png"  transform="matrix(0.24 0 0 0.24 412.8057 246.3145)">
		</image>
		<g>
			
				<radialGradient id="SVGID_3_" cx="-68.7275" cy="304.8936" r="49.0786" gradientTransform="matrix(1.9621 0 0 1 653.4524 0)" gradientUnits="userSpaceOnUse">
				<stop  offset="0.5744" style="stop-color:#000000;stop-opacity:0"/>
				<stop  offset="0.7977" style="stop-color:#000000;stop-opacity:0.6512"/>
				<stop  offset="1" style="stop-color:#000000;stop-opacity:0.95"/>
			</radialGradient>
			<path fill="url(#SVGID_3_)" d="M614.897,343.641c0,5.707-9.074,10.332-20.271,10.332H442.578
				c-11.197,0-20.272-4.625-20.272-10.332v-77.494c0-5.707,9.075-10.332,20.272-10.332h152.048c11.197,0,20.271,4.625,20.271,10.332
				V343.641z"/>
			<path fill="none" stroke="#3E3A39" stroke-width="3" stroke-miterlimit="10" d="M614.897,343.641
				c0,5.707-9.074,10.332-20.271,10.332H442.578c-11.197,0-20.272-4.625-20.272-10.332v-77.494c0-5.707,9.075-10.332,20.272-10.332
				h152.048c11.197,0,20.271,4.625,20.271,10.332V343.641z"/>
		</g>
	</g>
	<path opacity="0.8" fill="none" stroke="#3E3A39" stroke-width="3" stroke-miterlimit="10" d="M614.897,343.788
		c0,6.199-9.689,11.224-21.643,11.224H445.302c-11.953,0-21.643-5.024-21.643-11.224v-76.737c0-6.199,9.689-11.224,21.643-11.224
		h147.953c11.953,0,21.643,5.024,21.643,11.224V343.788z"/>
	<g opacity="0.8">
		
			<image overflow="visible" opacity="0.75" width="547" height="547" xlink:href="7BD28EB.png"  transform="matrix(0.24 0 0 0.24 86.2021 633.0771)">
		</image>
		<g>
			<path fill="#EFEFEF" d="M193.861,730.403c0,5.707-4.626,10.332-10.333,10.332h-77.494c-5.706,0-10.332-4.625-10.332-10.332
				v-77.494c0-5.707,4.626-10.332,10.332-10.332h77.494c5.707,0,10.333,4.625,10.333,10.332V730.403z"/>
			<path fill="none" stroke="#3E3A39" stroke-width="3" stroke-miterlimit="10" d="M193.861,730.403
				c0,5.707-4.626,10.332-10.333,10.332h-77.494c-5.706,0-10.332-4.625-10.332-10.332v-77.494c0-5.707,4.626-10.332,10.332-10.332
				h77.494c5.707,0,10.333,4.625,10.333,10.332V730.403z"/>
		</g>
	</g>
	<g opacity="0.1">
		
			<image overflow="visible" opacity="0.75" width="940" height="547" xlink:href="1E56E7B8.png"  transform="matrix(0.24 0 0 0.24 316.5098 634.5039)">
		</image>
		<g>
			
				<radialGradient id="SVGID_4_" cx="-117.8057" cy="693.083" r="49.0786" gradientTransform="matrix(1.9621 0 0 1 653.4524 0)" gradientUnits="userSpaceOnUse">
				<stop  offset="0.5744" style="stop-color:#000000;stop-opacity:0"/>
				<stop  offset="0.7977" style="stop-color:#000000;stop-opacity:0.6512"/>
				<stop  offset="1" style="stop-color:#000000;stop-opacity:0.95"/>
			</radialGradient>
			<path fill="url(#SVGID_4_)" d="M518.602,731.83c0,5.707-9.074,10.332-20.271,10.332H346.282
				c-11.197,0-20.272-4.625-20.272-10.332v-77.494c0-5.707,9.075-10.332,20.272-10.332H498.33c11.197,0,20.271,4.625,20.271,10.332
				V731.83z"/>
			<path fill="none" stroke="#3E3A39" stroke-width="3" stroke-miterlimit="10" d="M518.602,731.83
				c0,5.707-9.074,10.332-20.271,10.332H346.282c-11.197,0-20.272-4.625-20.272-10.332v-77.494c0-5.707,9.075-10.332,20.272-10.332
				H498.33c11.197,0,20.271,4.625,20.271,10.332V731.83z"/>
		</g>
	</g>
	<path opacity="0.8" fill="none" stroke="#3E3A39" stroke-width="3" stroke-miterlimit="10" d="M518.602,731.978
		c0,6.199-9.689,11.224-21.643,11.224H349.006c-11.953,0-21.643-5.024-21.643-11.224V655.24c0-6.199,9.689-11.224,21.643-11.224
		h147.953c11.953,0,21.643,5.024,21.643,11.224V731.978z"/>
	<g opacity="0.1">
		
			<image overflow="visible" opacity="0.75" width="940" height="547" xlink:href="1E56E7BF.png"  transform="matrix(0.24 0 0 0.24 794.4502 585.5742)">
		</image>
		<g>
			
				<radialGradient id="SVGID_5_" cx="125.7803" cy="644.1533" r="49.0786" gradientTransform="matrix(1.9621 0 0 1 653.4524 0)" gradientUnits="userSpaceOnUse">
				<stop  offset="0.5744" style="stop-color:#000000;stop-opacity:0"/>
				<stop  offset="0.7977" style="stop-color:#000000;stop-opacity:0.6512"/>
				<stop  offset="1" style="stop-color:#000000;stop-opacity:0.95"/>
			</radialGradient>
			<path fill="url(#SVGID_5_)" d="M996.542,682.9c0,5.707-9.074,10.332-20.271,10.332H824.223c-11.197,0-20.272-4.625-20.272-10.332
				v-77.494c0-5.707,9.075-10.332,20.272-10.332h152.048c11.197,0,20.271,4.625,20.271,10.332V682.9z"/>
			<path fill="none" stroke="#3E3A39" stroke-width="3" stroke-miterlimit="10" d="M996.542,682.9
				c0,5.707-9.074,10.332-20.271,10.332H824.223c-11.197,0-20.272-4.625-20.272-10.332v-77.494c0-5.707,9.075-10.332,20.272-10.332
				h152.048c11.197,0,20.271,4.625,20.271,10.332V682.9z"/>
		</g>
	</g>
	<path opacity="0.8" fill="none" stroke="#3E3A39" stroke-width="3" stroke-miterlimit="10" d="M996.542,683.048
		c0,6.199-9.689,11.224-21.643,11.224H826.946c-11.953,0-21.643-5.024-21.643-11.224v-76.737c0-6.199,9.689-11.224,21.643-11.224
		h147.953c11.953,0,21.643,5.024,21.643,11.224V683.048z"/>
	<g opacity="0.1">
		
			<image overflow="visible" opacity="0.75" width="940" height="547" xlink:href="1E56E7B9.png"  transform="matrix(0.24 0 0 0.24 769.6104 414.7559)">
		</image>
		<g>
			
				<radialGradient id="SVGID_6_" cx="113.1211" cy="473.335" r="49.0781" gradientTransform="matrix(1.9621 0 0 1 653.4524 0)" gradientUnits="userSpaceOnUse">
				<stop  offset="0.5744" style="stop-color:#000000;stop-opacity:0"/>
				<stop  offset="0.7977" style="stop-color:#000000;stop-opacity:0.6512"/>
				<stop  offset="1" style="stop-color:#000000;stop-opacity:0.95"/>
			</radialGradient>
			<path fill="url(#SVGID_6_)" d="M971.702,512.082c0,5.707-9.074,10.332-20.271,10.332H799.383
				c-11.197,0-20.272-4.625-20.272-10.332v-77.494c0-5.707,9.075-10.332,20.272-10.332h152.048c11.197,0,20.271,4.625,20.271,10.332
				V512.082z"/>
			<path fill="none" stroke="#3E3A39" stroke-width="3" stroke-miterlimit="10" d="M971.702,512.082
				c0,5.707-9.074,10.332-20.271,10.332H799.383c-11.197,0-20.272-4.625-20.272-10.332v-77.494c0-5.707,9.075-10.332,20.272-10.332
				h152.048c11.197,0,20.271,4.625,20.271,10.332V512.082z"/>
		</g>
	</g>
	<path opacity="0.8" fill="none" stroke="#3E3A39" stroke-width="3" stroke-miterlimit="10" d="M971.702,512.229
		c0,6.199-9.689,11.224-21.643,11.224H802.106c-11.953,0-21.643-5.024-21.643-11.224v-76.737c0-6.199,9.689-11.224,21.643-11.224
		H950.06c11.953,0,21.643,5.024,21.643,11.224V512.229z"/>
	<g>
		<polygon opacity="0.6" fill="#FCFCFC" points="869.503,631.019 869.503,631.333 869.503,640.928 862.268,641.556 856.999,644.163 
			853.381,647.689 850.629,653.745 850.157,661.295 853.224,667.9 860.302,673.405 869.503,674.735 870.367,682.292 878.86,681.63 
			878.86,673.799 920.934,674.113 920.618,682.292 929.269,682.292 929.269,675.243 939.1,674.192 945.784,671.204 948.3,667.035 
			950.738,661.767 951.682,656.826 949.008,649.263 941.223,642.735 932.703,642.027 933.134,631.019 929.427,631.019 
			929.348,641.556 904.419,641.949 904.419,631.019 900.408,631.019 900.408,642.027 873.355,642.027 872.806,631.019 		"/>
		<g>
			<path fill="#515151" d="M938.234,675.83H863.62v-35.637h74.614V675.83z M867.067,672.382h67.719v-28.741h-67.719V672.382z
				 M867.067,672.382"/>
			<path fill="#515151" d="M864.663,675.886l-0.698-0.06c-4.067-0.336-7.841-2.345-10.625-5.65
				c-2.784-3.308-4.316-7.618-4.316-12.137c0-4.52,1.532-8.828,4.316-12.137c2.784-3.308,6.558-5.314,10.625-5.651l0.698-0.058
				V675.886z M862.559,643.661c-6.456,0.88-11.431,7.068-11.431,14.378s4.975,13.498,11.431,14.377V643.661z M937.071,675.856
				v-35.691l0.698,0.059c4.069,0.337,7.842,2.345,10.626,5.651c2.783,3.308,4.316,7.618,4.316,12.137
				c0,4.518-1.533,8.828-4.316,12.136c-2.784,3.307-6.557,5.315-10.626,5.652L937.071,675.856z M939.185,643.655v28.712
				c6.447-0.878,11.413-7.057,11.413-14.355C950.598,650.711,945.632,644.534,939.185,643.655L939.185,643.655z M874.187,641.486
				h-6.032V630.14h6.032V641.486z M870.524,640.193h1.294v-8.761h-1.294V640.193z M905.576,641.486h-6.032V630.14h6.032V641.486z
				 M901.915,640.193h1.292v-8.761h-1.292V640.193z M934.339,641.486h-6.033V630.14h6.033V641.486z M930.677,640.193h1.291v-8.761
				h-1.291V640.193z M880.262,682.922h-11.288v-8.187h11.288V682.922z M871.415,680.89h6.406v-4.121h-6.406V680.89z M871.415,680.89
				"/>
			<path fill="#515151" d="M882.561,685.436H866.26v-3.806h16.301V685.436z M867.552,683.806h13.716v-0.545h-13.716V683.806z
				 M930.836,682.922h-11.288v-8.187h11.288V682.922z M921.989,680.89h6.406v-4.121h-6.406V680.89z M921.989,680.89"/>
			<path fill="#515151" d="M933.134,685.436h-16.301v-3.806h16.301V685.436z M918.124,683.806h13.717v-0.545h-13.717V683.806z
				 M918.124,683.806"/>
			<rect x="843.135" y="651.611" fill="#515151" width="3.544" height="12.799"/>
			<rect x="846.331" y="656.826" fill="#515151" width="3.016" height="3.34"/>
			<path fill="#515151" d="M938.177,675.243h-10.948v-15.508h10.948V675.243z M928.737,673.95h6.721v-12.923h-6.721V673.95z
				 M928.737,673.95"/>
			<path fill="#515151" d="M900.384,624.964c1.026,0.57,2.18,0.607,2.949,0.085c0.716-0.481,0.542-1.039-0.522-1.689
				c-3.593-2.181-4.044-4.896-1.244-7.512c0.764-0.714,1.587-1.405,2.297-2.138c1.249-1.293,2.175-2.669,2.218-3.829
				c0.005-1.928-1.984-4.633-3.866-5.649c-0.701-0.377-1.826-0.377-2.511,0c-0.703,0.392-0.769,0.866-0.168,1.432
				c0.493,0.462,1.01,0.907,1.502,1.37c1.629,1.496,1.815,3.07,0.451,4.656c-0.885,1.028-1.918,2-2.981,2.958
				C894.675,618.078,895.407,622.194,900.384,624.964L900.384,624.964z M922.91,625.122c0.876,0.468,2.041,0.384,2.708-0.122
				c0.62-0.469,0.488-0.984-0.376-1.508c-3.998-2.396-4.364-5.114-1.168-7.938c1.095-0.968,2.158-1.966,2.975-3.029
				c2.597-3.39,0.998-5.438-2.583-8.263c-0.601-0.469-1.857-0.426-2.565-0.024c-0.669,0.381-0.723,0.884-0.128,1.437
				c0.492,0.457,1.005,0.913,1.497,1.369c1.574,1.454,1.792,2.992,0.499,4.544c-0.872,1.052-1.93,2.044-2.992,3.022
				c-1.526,1.388-2.501,2.873-2.543,4.777C918.396,621.611,920.013,623.577,922.91,625.122L922.91,625.122z M877.617,624.635
				c0.343,0.216,0.703,0.432,1.112,0.601c0.816,0.336,1.898,0.216,2.47-0.235c0.56-0.438,0.427-1.003-0.337-1.478
				c-0.211-0.133-0.426-0.252-0.624-0.392c-3.233-2.132-3.589-4.734-0.993-7.191c0.902-0.854,1.863-1.688,2.691-2.566
				c1.119-1.196,1.941-2.464,1.919-3.901c0-2.127-1.924-3.701-3.882-5.24c-0.564-0.444-1.809-0.377-2.496,0
				c-0.672,0.374-0.731,0.896-0.148,1.443c0.492,0.457,0.998,0.913,1.497,1.369c1.64,1.497,1.783,3.072,0.427,4.652
				c-0.879,1.028-1.912,2.006-2.976,2.962C872.623,617.951,873.111,621.78,877.617,624.635L877.617,624.635z"/>
		</g>
	</g>
</g>
<g id="图元">
	<rect x="400.852" y="501.557" opacity="0.6" fill="#FCFCFC" width="35" height="33.262"/>
	<g>
		<g>
			<defs>
				<rect id="SVGID_34_" x="304.453" y="48.997" width="86.997" height="87.09"/>
			</defs>
			<clipPath id="SVGID_7_">
				<use xlink:href="#SVGID_34_"  overflow="visible"/>
			</clipPath>
			<path clip-path="url(#SVGID_7_)" fill="#B1B1B1" d="M347.905,135.981c-24.006,0-43.465-19.459-43.465-43.464
				s19.459-43.464,43.465-43.464c24.004,0,43.463,19.459,43.463,43.464S371.909,135.981,347.905,135.981L347.905,135.981z
				 M347.905,130.548c21.004,0,38.031-17.027,38.031-38.031c0-21.004-17.027-38.031-38.031-38.031
				c-21.005,0-38.031,17.027-38.031,38.031C309.874,113.521,326.9,130.548,347.905,130.548L347.905,130.548z M347.905,130.548"/>
		</g>
		<path fill="#626262" d="M364.177,59.918L326.173,97.95h16.299l-10.866,27.165l43.465-38.042h-21.732L364.177,59.918z
			 M364.177,59.918"/>
	</g>
	<g>
		<path fill="#5CB7DF" d="M1057.428,79.745c-0.525-0.917-1.7-1.232-2.617-0.697l-5.521,3.19v-5.511c0-0.631-0.516-1.147-1.146-1.147
			c-0.63,0-1.146,0.517-1.146,1.147v6.839l-11.683,6.745V76.812l5.923-3.42c0.554-0.315,0.735-1.021,0.419-1.565
			c-0.314-0.555-1.021-0.736-1.565-0.42l-4.776,2.76v-6.372c0-1.06-0.86-1.919-1.92-1.919c-1.061,0-1.92,0.859-1.92,1.919v6.372
			l-4.776-2.76c-0.554-0.315-1.252-0.134-1.567,0.42c-0.315,0.553-0.134,1.25,0.421,1.565l5.923,3.42v13.499l-11.683-6.745v-6.839
			c0-0.631-0.517-1.147-1.147-1.147s-1.146,0.517-1.146,1.147v5.511l-5.541-3.2c-0.918-0.525-2.092-0.22-2.617,0.698
			c-0.525,0.917-0.22,2.092,0.696,2.618l5.522,3.19l-4.776,2.761c-0.554,0.315-0.735,1.022-0.42,1.566
			c0.21,0.373,0.602,0.573,0.992,0.573c0.191,0,0.393-0.047,0.574-0.152l5.923-3.42l11.682,6.744l-11.682,6.745l-5.923-3.42
			c-0.554-0.315-1.252-0.134-1.566,0.42c-0.315,0.554-0.134,1.251,0.42,1.567l4.776,2.76l-5.522,3.191
			c-0.916,0.525-1.232,1.7-0.696,2.617c0.353,0.612,1.003,0.956,1.662,0.956c0.324,0,0.659-0.086,0.955-0.258l5.521-3.19v5.512
			c0,0.63,0.517,1.146,1.147,1.146c0.629,0,1.146-0.516,1.146-1.146v-6.84l11.682-6.744v13.498l-5.923,3.42
			c-0.553,0.315-0.734,1.022-0.42,1.567c0.211,0.373,0.602,0.573,0.994,0.573c0.191,0,0.392-0.048,0.573-0.153l4.775-2.761v6.372
			c0,1.06,0.86,1.919,1.921,1.919c1.06,0,1.92-0.859,1.92-1.919v-6.372l4.777,2.761c0.181,0.104,0.382,0.153,0.572,0.153
			c0.402,0,0.783-0.21,0.994-0.573c0.315-0.555,0.134-1.251-0.421-1.567l-5.923-3.42V96.949l11.692,6.744v6.84
			c0,0.63,0.517,1.146,1.147,1.146c0.629,0,1.146-0.516,1.146-1.146v-5.512l5.522,3.19c0.305,0.172,0.629,0.257,0.955,0.257
			c0.658,0,1.309-0.344,1.661-0.955c0.526-0.917,0.22-2.092-0.696-2.617l-5.521-3.191l4.775-2.761
			c0.555-0.315,0.736-1.022,0.421-1.566c-0.315-0.554-1.023-0.735-1.567-0.42l-5.922,3.419l-11.684-6.744l11.684-6.744l5.922,3.42
			c0.182,0.105,0.382,0.152,0.574,0.152c0.401,0,0.782-0.21,0.993-0.573c0.315-0.554,0.134-1.251-0.421-1.566l-4.775-2.761
			l5.521-3.19C1057.647,81.836,1057.953,80.662,1057.428,79.745L1057.428,79.745z M1057.428,79.745"/>
		<path fill="#B1B1B1" d="M1033.096,137.572c-24.004,0-43.464-19.46-43.464-43.465s19.46-43.464,43.464-43.464
			c24.005,0,43.465,19.459,43.465,43.464S1057.101,137.572,1033.096,137.572L1033.096,137.572z M1033.096,132.138
			c21.004,0,38.031-17.027,38.031-38.031c0-21.004-17.027-38.031-38.031-38.031s-38.031,17.027-38.031,38.031
			C995.064,115.111,1012.092,132.138,1033.096,132.138L1033.096,132.138z M1033.096,132.138"/>
	</g>
	<g opacity="0.6">
		<path fill="#546479" d="M710.508,180.589h59.132c0.453,0,0.888-0.145,0.888-0.888v-14.357c0-0.453-0.452-0.743-0.888-0.743
			h-69.283l-15.97,1.939c0,0-17.168-2.084-17.168,16.876v9.699h-26.14v32.103h135.722v-32.103h-66.293V180.589z M678.113,183.417
			c0,0,1.197-5.221,6.127-5.075h0.146v0.145l15.97,2.085h1.342v12.544h-23.585V183.417z M779.482,193.116h2.991v32.248h-2.991
			V193.116z M635.097,193.116h2.991v32.248h-2.991V193.116z M635.097,193.116"/>
		<rect x="742.158" y="174.318" fill="#EEEEEF" width="19.56" height="22.695"/>
		<g>
			<defs>
				<rect id="SVGID_36_" x="632.125" y="158.989" width="153.333" height="76.428"/>
			</defs>
			<clipPath id="SVGID_8_">
				<use xlink:href="#SVGID_36_"  overflow="visible"/>
			</clipPath>
			<path clip-path="url(#SVGID_8_)" fill="#384253" d="M663.775,188.203h17.312v2.085h-17.312V188.203z M641.079,230.187v-40.044
				h-2.991v39.7l-1.993,2.411h-2.629v2.972h11.802v-2.972h-2.483L641.079,230.187z M779.482,229.842v-39.7h-2.972v39.917
				l-1.939,2.194h-2.394v2.972h11.801v-2.972h-2.483L779.482,229.842z M700.356,187.605h11.801v2.393h-11.801V187.605z
				 M683.479,165.199h1.486v14.628h-1.486V165.199z M766.195,162.208h1.486v20.448h-1.486V162.208z M701.48,180.735v-14.792h3.136
				v-6.87h-5.837v6.87h1.196v14.792H701.48z M701.48,180.735"/>
			<path clip-path="url(#SVGID_8_)" fill="#384253" d="M785.465,192.082v-0.906h-0.743v-1.033h-2.99v38.068h2.99v-0.744h0.743
				v-0.888h-0.743v-1.649h0.743v-0.906h-0.743v-1.341h0.743v-0.888h-0.743v-1.341h0.743v-0.907h-0.743v-1.341h0.743v-0.889h-0.743
				v-1.649h0.743v-0.889h-0.743v-1.504h0.743v-0.888h-0.743v-1.341h0.743v-0.906h-0.743v-1.632h0.743V207.6h-0.743v-1.342h0.743
				v-0.888h-0.743v-1.342h0.743v-0.907h-0.743v-1.341h0.743v-0.889h-0.743v-1.649h0.743v-0.888h-0.743v-1.504h0.743v-0.889h-0.743
				v-1.341h0.743v-0.906h-0.743v-1.632H785.465z M635.858,228.211v-38.068h-2.99v1.033h-0.743v0.906h0.743v1.632h-0.743v0.906h0.743
				v1.341h-0.743v0.889h0.743v1.504h-0.743v0.888h0.743v1.649h-0.743v0.889h0.743v1.341h-0.743v0.907h0.743v1.342h-0.743v0.888
				h0.743v1.342h-0.743v0.906h0.743v1.632h-0.743v0.906h0.743v1.341h-0.743v0.888h0.743v1.504h-0.743v0.889h0.743v1.649h-0.743
				v0.889h0.743v1.341h-0.743v0.907h0.743v1.341h-0.743v0.888h0.743v1.341h-0.743v0.906h0.743v1.649h-0.743v0.888h0.743v0.744
				H635.858z M742.158,197.158h19.56v2.991h-19.56V197.158z M742.158,197.158"/>
		</g>
		<rect x="747.542" y="181.478" fill="#C9CACA" width="8.81" height="8.811"/>
	</g>
	<g>
		<g>
			<defs>
				<rect id="SVGID_38_" x="361.317" y="485.933" width="108.755" height="71.602"/>
			</defs>
			<clipPath id="SVGID_9_">
				<use xlink:href="#SVGID_38_"  overflow="visible"/>
			</clipPath>
			<path clip-path="url(#SVGID_9_)" fill="#515151" d="M393.757,515.381c0.595-13.793-3.02-25.109-8.066-25.278
				c-4.751-0.159-9.08,9.608-10.072,22.261l-5.762-0.088c0,0-8.556,0.469-8.556,10.169h9.868c0,0-0.366-3.226,1.39-3.854
				l2.851,0.191c0.203,11.923,3.578,21.127,8.133,21.276C388.584,540.223,393.165,529.176,393.757,515.381L393.757,515.381z
				 M381.657,522.734c-0.924,0-1.743-1.542-2.144-3.805l2.463,0.089l0.022-6.504l-2.516-0.05c0.41-2.381,1.229-3.994,2.177-3.994
				c1.334,0,2.414,3.195,2.414,7.13C384.074,519.538,382.991,522.734,381.657,522.734L381.657,522.734z M381.657,522.734"/>
		</g>
		<path fill="#515151" d="M461.662,543.878v-9.312c4.9-2.878,8.306-9.148,8.306-16.413c0-9.669-6.014-17.56-13.602-18.073v-0.026
			l-13.5-1.814v-4.188h-4.621v3.561l-10.975-1.865v-4.488h-4.938v3.827l-19.193-3.039v-6.107h-5.396v5.382l-8.605-1.154v0.021
			c4.928,0.577,8.398,11.729,7.814,25.265c-0.586,13.537-5.02,24.432-9.98,24.689l7.094-0.2v2.82l-12.939,0.572v4.693l30.15-2.154
			l0.115,1.794l-14.076,0.828l0.051,8.913l70.115-7.496v-5.901l-2.842-0.319L461.662,543.878z M399.978,542.491l0.676-2.753
			l10.184-0.289l0.174,2.56L399.978,542.491z M403.893,519.596c0.001-4.744,2.533-9.127,6.643-11.501
			c4.108-2.371,9.171-2.37,13.28,0.003c4.107,2.372,6.639,6.757,6.639,11.502c-0.002,7.335-5.948,13.28-13.283,13.277
			C409.837,532.876,403.892,526.931,403.893,519.596L403.893,519.596z M429.735,538.725v2.255l-13.098,0.639v-2.425L429.735,538.725
			z M416.651,547.128l-0.014-1.901l21.897-1.757v-2.869l-3.542,0.159l0.4-2.194l18.861-1.036l1.294,6.588L416.651,547.128z
			 M416.651,547.128"/>
		<path fill="#727171" d="M421.769,515.69l-0.09-0.024c0.125,0.619,0.088,1.251-0.116,1.9c-0.306,0.97-0.495,0.97-0.823,2.027
			c-0.066-0.096-0.499-0.757-0.131-2.031c0.281-1.475-0.445-2.952-1.46-4.469c-0.983-1.476-2.429-2.586-3.794-2.865h-0.068
			l0.023,0.07c0.445,2.248-0.82,3.418-2.313,4.728c-1.49,1.308-3.124,2.813-3.371,5.749c-0.319,3.857,2.207,6.566,3.735,7.821
			c0.093,0.066,0.183,0.091,0.286,0.091c0.158,0,0.283-0.068,0.375-0.187c0.086-0.129,0.096-0.291,0.025-0.428
			c-1.206-3.15,1.262-5.182,2.05-5.737c-0.647,3.838,2.541,6.854,3.253,6.606c2.926-1.022,4.813-3.087,5.281-5.875
			C425.132,520.084,423.868,516.781,421.769,515.69L421.769,515.69z M421.769,515.69"/>
	</g>
	<g opacity="0.9">
		<path fill="#C0E1F7" d="M178.994,244.238c1.376,0,2.478-1.1,2.478-2.477v-9.632c0,0,0-0.275-0.275-0.275l-0.275-0.275
			l-0.275-0.275c0,0-0.275-0.276-0.551-0.276l-27.244-9.632c-0.275-0.275-0.826-0.275-1.102-0.275s-0.825,0-1.1,0.275l-27.246,9.632
			c-0.275,0-0.275,0-0.551,0.276l-0.273,0.275l-0.277,0.275l-0.273,0.275v9.632c0,1.376,1.1,2.477,2.477,2.477
			c1.375,0,2.477-1.1,2.477-2.477v-2.477h14.311v5.229l-17.338,6.055c-0.275,0-0.275,0-0.551,0.275l-0.275,0.275l-0.275,0.275
			l-0.273,0.275v1.926c-0.826,1.101-1.652,2.751-2.203,4.678c-3.853-1.101-7.154-0.825-8.53,0.826c-1.376,2.202,0,5.779,3.302,9.357
			c-3.302,3.578-4.678,7.43-3.302,9.357c1.376,1.926,4.403,1.926,8.53,0.826c1.377,3.853,3.303,6.33,5.504,6.33
			c2.203,0,4.129-2.477,5.505-6.33c3.853,1.101,7.155,0.825,8.53-0.826c1.377-2.202,0-5.779-3.302-9.357
			c3.302-3.578,4.679-7.43,3.302-9.357c-0.825-1.376-2.751-1.651-4.953-1.651c4.403-0.826,7.981-0.275,9.357,1.926
			c0.825,1.101,0.825,2.477,0.55,4.128l3.853,3.027l-6.329,4.954c1.101,1.651,1.927,3.028,2.202,4.403l7.98-6.329l22.291,17.613
			h3.303c0,0,0.275,0,0.275-0.275h0.274c0,0,0.275,0,0.275-0.275v-2.752l-12.935-26.144h12.109v3.027
			c0,1.376,1.102,2.476,2.477,2.476c1.376,0,2.477-1.1,2.477-2.476v-9.632c0,0,0-0.275-0.275-0.275l-0.275-0.275l-0.275-0.275
			c0,0-0.274-0.275-0.55-0.275l-17.337-6.054v-5.229h14.31v2.477C176.518,243.138,177.618,244.238,178.994,244.238L178.994,244.238z
			 M140.466,253.87h-9.356c0.825,1.102,1.651,2.477,2.202,4.128c-1.102,0-2.202,0.275-3.578,0.551
			c-1.377-3.853-3.303-6.33-5.504-6.33h-0.826c0.826-0.55,1.927-1.101,3.027-1.101c1.377,0,2.752,0.551,3.854,1.927l9.906-3.578
			v4.403H140.466z M140.466,253.87"/>
		<g>
			<defs>
				<rect id="SVGID_40_" x="102.138" y="209.824" width="81.039" height="77.439"/>
			</defs>
			<clipPath id="SVGID_10_">
				<use xlink:href="#SVGID_40_"  overflow="visible"/>
			</clipPath>
			<path clip-path="url(#SVGID_10_)" fill="#145BAA" d="M120.376,264.603c-0.825-0.55-1.65-0.55-2.477,0
				c-0.826,0.551-1.101,1.376-1.101,2.202s0.55,1.651,1.101,2.201c0.826,0.551,1.651,0.551,2.477,0
				c0.826-0.55,1.102-1.375,1.102-2.201C121.753,265.704,121.202,264.878,120.376,264.603L120.376,264.603z M120.376,264.603"/>
			<path clip-path="url(#SVGID_10_)" fill="#145BAA" d="M135.788,255.521c-1.377-2.201-5.229-2.477-9.908-1.101
				c-1.375-4.678-3.852-7.706-6.604-7.706c-2.753,0-4.954,3.027-6.605,7.706c-4.679-1.376-8.531-1.101-9.908,1.101
				c-1.65,2.477,0,6.88,3.854,11.284c-3.854,4.403-5.504,8.806-3.854,11.283c1.377,2.202,5.229,2.477,9.908,1.101
				c1.377,4.678,3.853,7.706,6.605,7.706c2.752,0,4.953-3.027,6.604-7.706c4.68,1.376,8.531,1.101,9.908-1.101
				c1.65-2.478,0-6.88-3.854-11.283C135.788,262.126,137.438,257.998,135.788,255.521L135.788,255.521z M105.516,275.886
				c-0.825-1.375,0.275-4.127,3.302-7.155c0.826,0.826,1.652,1.376,2.477,2.202c0.276,1.926,0.552,3.578,0.826,5.229
				C108.817,276.987,106.341,277.262,105.516,275.886L105.516,275.886z M110.745,266.805
				C111.02,266.805,111.02,266.529,110.745,266.805C111.02,266.805,111.02,266.805,110.745,266.805
				C111.02,266.805,111.02,266.805,110.745,266.805L110.745,266.805z M111.02,262.401c-0.825,0.825-1.651,1.376-2.477,2.202
				c-2.752-3.027-4.128-5.779-3.303-7.155c0.825-1.102,3.303-1.102,6.33-0.275C111.57,258.824,111.294,260.476,111.02,262.401
				L111.02,262.401z M123.954,259.925C123.954,259.925,123.679,259.925,123.954,259.925c-0.551-0.275-1.102-0.55-1.375-1.101
				c0.549-0.275,0.824-0.275,1.375-0.551C123.679,258.824,123.679,259.375,123.954,259.925L123.954,259.925z M119.276,250.018
				c1.375,0,2.752,1.926,3.852,5.229c-1.1,0.55-2.477,1.1-3.852,1.651c-1.377-0.551-2.478-1.101-3.854-1.651
				C116.249,252.219,117.624,250.018,119.276,250.018L119.276,250.018z M114.597,258.273c0.275,0.275,0.826,0.275,1.377,0.551
				c-0.551,0.275-1.102,0.55-1.377,0.825V258.273z M114.597,273.41c0.551,0.275,1.102,0.55,1.377,1.101
				c-0.551,0.275-0.826,0.275-1.377,0.55V273.41z M119.276,283.042c-1.377,0-2.753-1.926-3.854-5.229
				c1.101-0.551,2.477-1.101,3.854-1.651c1.375,0.55,2.477,1.1,3.852,1.651C122.028,281.115,120.651,283.042,119.276,283.042
				L119.276,283.042z M123.679,275.061c-0.275-0.275-0.826-0.275-1.377-0.55c0.551-0.275,1.102-0.551,1.377-0.826V275.061z
				 M124.229,269.282c-0.826,0.55-1.377,1.101-2.201,1.651c-1.102,0.55-1.928,1.375-2.752,1.926
				c-0.826-0.551-1.928-1.101-2.753-1.926c-0.825-0.551-1.376-1.101-2.201-1.651v-5.504c0.825-0.551,1.376-1.101,2.201-1.651
				c1.101-0.55,1.927-1.376,2.753-1.926c0.824,0.55,1.926,1.101,2.752,1.926c0.824,0.55,1.375,1.1,2.201,1.651V269.282z
				 M132.761,275.886c-0.826,1.101-3.303,1.101-6.33,0.276c0.275-1.651,0.551-3.303,0.826-5.229c0.826-0.826,1.65-1.376,2.477-2.202
				C132.485,271.759,133.861,274.511,132.761,275.886L132.761,275.886z M127.531,266.805
				C127.531,266.529,127.531,266.805,127.531,266.805L127.531,266.805z M129.733,264.603c-0.826-0.825-1.65-1.376-2.477-2.202
				c-0.275-1.926-0.551-3.577-0.826-5.229c3.303-1.101,5.504-1.101,6.33,0.275C133.861,258.824,132.485,261.576,129.733,264.603
				L129.733,264.603z M129.733,264.603"/>
		</g>
		<path fill="#145BAA" d="M179.545,236.258c1.651,0,1.927-1.376,1.927-2.753v-10.457c0-0.275,0-0.275-0.275-0.551
			c0-0.275-0.275-0.275-0.275-0.55c0-0.275-0.275-0.275-0.275-0.275c-0.275,0-0.275-0.275-0.551-0.275s-0.275-0.275-0.55-0.275
			l-30.823-11.008c-0.275-0.275-0.824-0.275-1.375-0.275s-0.826,0-1.377,0.275l-30.822,11.008c-0.275,0-0.275,0-0.551,0.275
			c-0.274,0-0.274,0.275-0.549,0.275c-0.276,0-0.276,0.275-0.276,0.275c0,0.275-0.275,0.275-0.275,0.55c0,0.275,0,0.275-0.274,0.551
			v11.008c0,1.651,0.55,2.751,1.926,2.751s1.651-1.375,1.651-2.751v-2.752h18.163v6.054l-19.814,6.879c-0.275,0-0.275,0-0.551,0.275
			c-0.274,0-0.274,0.276-0.549,0.276c-0.276,0-0.276,0.275-0.276,0.275c0,0.275-0.275,0.275-0.275,0.55c0,0.275,0,0.275-0.274,0.55
			v3.302c1.65-2.751,3.852-4.128,6.055-4.128c1.65,0,2.752-1.101,4.127,0.275l11.559-4.128v7.431h-9.357
			c1.102,1.376,0.551,2.201,1.377,4.128c4.953-1.101,9.082-0.275,10.732,2.202c0.826,1.376,3.303,3.027,2.752,4.954l3.854,3.302
			l-7.155,5.779c1.101,1.651,2.201,2.201,2.751,3.853l7.432-6.055l25.318,19.815h0.825c0.275,0,0.275,0,0.55,0.275h1.928
			c0,0,0.274,0,0.274-0.275l0.275-0.275l0.275-0.275c0,0,0-0.275,0.274-0.275c0.275-0.275,0.275-0.275,0.275-0.55v-2.202
			l-14.86-29.722h15.411v3.302c0,1.651,0.551,2.752,2.201,2.752c1.651,0,1.651-1.376,1.651-2.752V246.44
			c0-0.276,0-0.276-0.274-0.551c0-0.275-0.275-0.275-0.275-0.55c0-0.275-0.275-0.275-0.275-0.275c-0.275,0-0.275-0.275-0.551-0.275
			s-0.275-0.276-0.551-0.276l-19.814-6.88v-6.054h17.889v2.752C177.343,235.156,177.894,236.258,179.545,236.258L179.545,236.258z
			 M137.438,226.35h-20.64v-1.926l20.64-6.88V226.35z M141.567,217.819v-1.376l5.229-2.477l5.229,2.477v9.907h-10.732v-8.531
			H141.567z M140.466,230.753h13.484v3.853l-4.953-1.651c-0.551-0.275-1.1-0.55-1.926-0.55c-0.551,0-1.376,0.275-1.927,0.55
			l-4.954,1.651v-3.853H140.466z M139.09,239.285l8.257-3.027l8.256,3.027v8.807h-16.237v-8.807H139.09z M147.071,260.2
			l-8.807-7.155v-0.275h17.613c0.825,0,0,0.275,0,0.275L147.071,260.2z M172.39,281.115l-22.291-18.163l7.98-6.605
			C158.079,255.521,162.757,263.778,172.39,281.115L172.39,281.115z M176.793,246.99l-0.275,1.651h-17.063v-7.431L176.793,246.99z
			 M156.703,226.625v-8.806l20.64,6.88v1.926H156.703z M156.703,226.625"/>
	</g>
	<g>
		<g>
			<defs>
				<rect id="SVGID_42_" x="114.927" y="486.981" width="59.711" height="70.933"/>
			</defs>
			<clipPath id="SVGID_11_">
				<use xlink:href="#SVGID_42_"  overflow="visible"/>
			</clipPath>
			<path clip-path="url(#SVGID_11_)" fill="#D0342A" d="M155.758,517.707c-7.08-7.866-7.08-17.307-7.08-30.681
				c-21.962,8.654-16.521,32.254-17.308,40.121c-5.506-4.721-7.08-15.733-7.08-15.733c-6.227,3.146-9.375,11.013-9.375,17.307
				c0,15.733,13.375,29.107,29.829,29.107c16.455,0,29.829-12.587,29.829-29.107c0-9.44-7.08-14.16-7.08-26.747
				C157.331,505.12,155.758,512.986,155.758,517.707L155.758,517.707z M155.758,517.707"/>
		</g>
		<path fill="#E2B51E" d="M144.089,524.394c10.555,4,8.129,15.209,8.129,18.356c2.426-2.426,3.213-7.211,3.213-7.211
			c2.425,1.573,4.064,4.785,4.064,7.997c0,7.212-6.49,13.57-13.768,13.57s-13.768-6.425-13.768-13.57
			C132.747,536.391,144.089,530.818,144.089,524.394L144.089,524.394z M144.089,524.394"/>
	</g>
	<g opacity="0.6">
		<g>
			<defs>
				<rect id="SVGID_44_" x="668.033" y="356.303" width="85.784" height="85.877"/>
			</defs>
			<clipPath id="SVGID_12_">
				<use xlink:href="#SVGID_44_"  overflow="visible"/>
			</clipPath>
			<path clip-path="url(#SVGID_12_)" fill="#5CB7DF" d="M710.88,442.075c-23.572,0-42.859-19.286-42.859-42.858
				c0-23.571,19.287-42.858,42.859-42.858c23.571,0,42.857,19.287,42.857,42.858C753.737,422.789,734.451,442.075,710.88,442.075
				L710.88,442.075z M710.88,442.075"/>
		</g>
		<path fill="#2991B1" d="M753.527,403.417l-37.849-16.922c0,0-3.235-1.45-6.944-0.768c-4.14,0.76-11.922,3.925-11.916,13.226
			c0.004,5.689,2.143,8.619,2.143,8.619l10.382,34.463c0.511,0.02,1.021,0.04,1.537,0.04
			C733.033,442.075,751.4,425.036,753.527,403.417L753.527,403.417z M753.527,403.417"/>
		<path fill="#EDB822" d="M699.866,408.007c-1.855-2.334-2.966-5.288-2.966-8.502c0-7.548,6.12-13.667,13.667-13.667
			c7.549,0,13.669,6.119,13.669,13.667c0,7.549-6.12,13.668-13.669,13.668c-1.891,0-3.694-0.385-5.333-1.08"/>
		<path fill="#474341" d="M710.567,413.731c-1.924,0-3.793-0.379-5.551-1.125c-0.284-0.12-0.416-0.447-0.296-0.731
			c0.12-0.283,0.447-0.415,0.729-0.295c1.621,0.688,3.343,1.035,5.117,1.035c7.229,0,13.109-5.882,13.109-13.109
			c0-7.229-5.88-13.111-13.109-13.111s-13.108,5.883-13.108,13.111c0,2.994,0.983,5.814,2.844,8.153
			c0.192,0.24,0.15,0.593-0.09,0.783c-0.241,0.192-0.592,0.152-0.784-0.089c-2.018-2.538-3.086-5.599-3.086-8.848
			c0-7.845,6.382-14.226,14.225-14.226c7.845,0,14.226,6.381,14.226,14.226C724.794,407.35,718.413,413.731,710.567,413.731
			 M714.849,378.306c-0.163,0-0.317-0.071-0.424-0.193c-0.107-0.123-0.152-0.286-0.128-0.448l0.431-2.843
			c0.046-0.304,0.335-0.515,0.635-0.468c0.146,0.023,0.277,0.103,0.365,0.222c0.088,0.118,0.124,0.267,0.102,0.413l-0.432,2.843
			C715.357,378.104,715.124,378.305,714.849,378.306 M714.057,383.54c-0.164,0-0.319-0.07-0.425-0.193s-0.152-0.286-0.128-0.447
			l0.502-3.315c0.046-0.303,0.331-0.517,0.635-0.466c0.305,0.047,0.514,0.33,0.468,0.634l-0.502,3.315
			C714.564,383.339,714.331,383.539,714.057,383.54 M698.591,382.102c-0.176,0.001-0.343-0.085-0.448-0.228l-1.567-2.127
			c-0.088-0.119-0.125-0.268-0.103-0.413c0.022-0.146,0.102-0.278,0.22-0.365c0.118-0.089,0.269-0.126,0.415-0.104
			c0.146,0.022,0.278,0.103,0.365,0.223l1.566,2.126c0.087,0.118,0.125,0.269,0.103,0.414c-0.021,0.145-0.101,0.278-0.22,0.364
			C698.826,382.063,698.711,382.102,698.591,382.102 M701.869,386.553c-0.177,0-0.343-0.085-0.448-0.229l-1.846-2.506
			c-0.088-0.118-0.124-0.267-0.103-0.414c0.021-0.146,0.102-0.275,0.221-0.365c0.247-0.185,0.596-0.13,0.779,0.119l1.847,2.506
			c0.086,0.119,0.125,0.268,0.102,0.414c-0.021,0.146-0.101,0.278-0.22,0.364C702.101,386.517,701.984,386.553,701.869,386.553
			 M728.87,387.027c-0.177,0-0.343-0.086-0.447-0.229c-0.089-0.119-0.125-0.269-0.104-0.414c0.021-0.146,0.102-0.278,0.221-0.364
			l2.506-1.848c0.119-0.088,0.268-0.124,0.413-0.102c0.147,0.021,0.279,0.1,0.366,0.219c0.089,0.119,0.124,0.269,0.103,0.415
			c-0.022,0.146-0.103,0.278-0.222,0.365l-2.505,1.847C729.106,386.988,728.989,387.027,728.87,387.027 M724.8,390.026
			c-0.178,0-0.345-0.084-0.449-0.228c-0.087-0.119-0.125-0.268-0.103-0.413c0.022-0.147,0.103-0.278,0.221-0.366l2.128-1.566
			c0.119-0.089,0.269-0.126,0.414-0.104c0.147,0.022,0.279,0.103,0.365,0.222c0.089,0.119,0.125,0.268,0.103,0.414
			c-0.021,0.146-0.103,0.278-0.221,0.365l-2.127,1.567C725.034,389.988,724.919,390.026,724.8,390.026"/>
		<path fill="#B1771F" d="M719.808,393.435c0.496,0.738,0.939,1.508,1.352,2.294c0.236,0.447,0.916,0.05,0.68-0.396
			c-0.414-0.788-0.856-1.558-1.352-2.296C720.205,392.62,719.523,393.014,719.808,393.435 M715.893,390.494
			c1.111,0.266,2.045,0.852,2.853,1.651c0.361,0.355,0.918-0.2,0.557-0.557c-0.899-0.889-1.965-1.558-3.2-1.854
			C715.609,389.617,715.398,390.375,715.893,390.494"/>
		<path fill="#474341" d="M707.019,424.725c-0.028,0-0.057-0.003-0.083-0.007c-0.146-0.022-0.278-0.101-0.366-0.22
			s-0.125-0.269-0.103-0.414l0.431-2.843c0.028-0.2,0.161-0.369,0.349-0.443c0.186-0.073,0.397-0.04,0.555,0.085
			c0.156,0.126,0.232,0.326,0.2,0.525l-0.432,2.844C707.527,424.522,707.294,424.724,707.019,424.725 M707.739,419.962
			c-0.161,0-0.315-0.07-0.422-0.193c-0.105-0.124-0.153-0.286-0.13-0.447l0.503-3.315c0.046-0.305,0.335-0.515,0.635-0.468
			c0.146,0.022,0.277,0.102,0.366,0.22c0.087,0.12,0.124,0.269,0.102,0.415l-0.502,3.315
			C708.249,419.759,708.017,419.962,707.739,419.962 M725.272,420.213c-0.178,0-0.343-0.086-0.448-0.229l-1.567-2.126
			c-0.183-0.248-0.131-0.598,0.117-0.78c0.119-0.088,0.269-0.125,0.414-0.103c0.146,0.022,0.278,0.102,0.366,0.222l1.566,2.127
			c0.087,0.118,0.125,0.267,0.103,0.413c-0.022,0.146-0.102,0.278-0.22,0.365C725.508,420.174,725.393,420.213,725.272,420.213
			 M722.273,416.143c-0.177,0-0.344-0.086-0.448-0.229l-1.847-2.506c-0.087-0.119-0.124-0.269-0.103-0.415
			c0.021-0.146,0.102-0.276,0.221-0.364c0.118-0.089,0.269-0.125,0.415-0.104c0.146,0.022,0.277,0.102,0.364,0.223l1.847,2.505
			c0.086,0.119,0.124,0.27,0.102,0.415c-0.021,0.146-0.102,0.277-0.22,0.364C722.504,416.105,722.39,416.143,722.273,416.143
			 M690.92,415.007c-0.177,0.001-0.343-0.083-0.449-0.227c-0.088-0.118-0.124-0.268-0.103-0.414
			c0.022-0.146,0.102-0.276,0.221-0.365l2.506-1.847c0.247-0.184,0.596-0.129,0.78,0.118c0.086,0.119,0.124,0.269,0.101,0.415
			c-0.021,0.146-0.101,0.276-0.22,0.364l-2.506,1.847C691.155,414.969,691.038,415.008,690.92,415.007 M695.37,411.729
			c-0.178,0-0.344-0.085-0.449-0.228c-0.088-0.119-0.124-0.269-0.103-0.413c0.022-0.146,0.101-0.278,0.221-0.366l2.128-1.567
			c0.247-0.184,0.595-0.129,0.779,0.119c0.183,0.248,0.128,0.596-0.118,0.779l-2.128,1.567
			C695.604,411.69,695.489,411.729,695.37,411.729 M692.94,397.889c-0.028,0-0.057-0.003-0.085-0.007l-2.843-0.431
			c-0.146-0.022-0.277-0.102-0.365-0.221s-0.124-0.268-0.103-0.413c0.047-0.305,0.335-0.517,0.635-0.469l2.843,0.433
			c0.21-0.002,0.403,0.115,0.499,0.303c0.096,0.185,0.079,0.411-0.043,0.58C693.354,397.834,693.147,397.921,692.94,397.889
			 M688.178,397.167c-0.027,0-0.055-0.002-0.083-0.006l-3.315-0.503c-0.146-0.022-0.278-0.102-0.367-0.22
			c-0.086-0.119-0.124-0.268-0.101-0.414c0.045-0.305,0.337-0.519,0.633-0.468l3.316,0.502c0.209,0,0.4,0.116,0.497,0.303
			c0.096,0.187,0.079,0.41-0.044,0.58C688.592,397.112,688.385,397.198,688.178,397.167 M736.464,403.868
			c-0.028,0-0.056-0.002-0.085-0.007l-2.844-0.432c-0.146-0.021-0.276-0.101-0.364-0.22c-0.089-0.12-0.125-0.269-0.103-0.414
			c0.047-0.305,0.336-0.515,0.635-0.468l2.843,0.432c0.146,0.021,0.277,0.102,0.366,0.221c0.087,0.118,0.123,0.268,0.102,0.413
			C736.973,403.666,736.738,403.868,736.464,403.868 M731.701,403.146c-0.028,0-0.056-0.002-0.083-0.007l-3.315-0.503
			c-0.146-0.021-0.279-0.1-0.365-0.22c-0.089-0.119-0.126-0.268-0.104-0.414c0.047-0.305,0.335-0.516,0.635-0.467l3.315,0.503
			c0.209-0.001,0.401,0.116,0.497,0.303c0.096,0.185,0.079,0.409-0.043,0.58C732.114,403.09,731.908,403.179,731.701,403.146
			 M694.903,391.055c-0.115,0-0.23-0.035-0.33-0.108l-2.313-1.708c-0.249-0.183-0.302-0.533-0.119-0.779
			c0.182-0.248,0.532-0.301,0.779-0.118l2.314,1.707c0.119,0.089,0.199,0.22,0.219,0.365c0.022,0.146-0.015,0.296-0.102,0.414
			C695.248,390.97,695.08,391.055,694.903,391.055 M727.457,410.795c-0.111,0-0.218-0.034-0.311-0.094l-2.394-1.595
			c-0.256-0.171-0.324-0.517-0.153-0.773c0.17-0.254,0.516-0.324,0.771-0.155l2.394,1.595c0.123,0.081,0.209,0.21,0.237,0.354
			s-0.001,0.295-0.082,0.417C727.816,410.701,727.643,410.795,727.457,410.795 M690.84,404.889c-0.275,0-0.51-0.201-0.551-0.475
			c-0.021-0.146,0.014-0.294,0.104-0.413c0.088-0.12,0.218-0.198,0.365-0.221l2.843-0.429c0.303-0.044,0.588,0.164,0.635,0.469
			c0.046,0.305-0.164,0.589-0.469,0.635l-2.843,0.43C690.896,404.887,690.868,404.889,690.84,404.889 M727.841,395.966
			c-0.286-0.001-0.527-0.218-0.556-0.504c-0.028-0.285,0.165-0.544,0.446-0.601l2.819-0.564c0.304-0.063,0.596,0.134,0.657,0.436
			c0.061,0.302-0.135,0.596-0.437,0.656l-2.82,0.567C727.914,395.962,727.877,395.966,727.841,395.966 M699.765,417.841
			c-0.115,0-0.23-0.034-0.331-0.108c-0.119-0.089-0.198-0.219-0.22-0.366c-0.022-0.146,0.015-0.296,0.104-0.414l1.706-2.313
			c0.089-0.119,0.22-0.198,0.365-0.22c0.146-0.023,0.296,0.015,0.414,0.102c0.119,0.089,0.2,0.221,0.221,0.366
			c0.022,0.147-0.015,0.295-0.103,0.415l-1.708,2.313C700.108,417.758,699.942,417.841,699.765,417.841 M719.618,385.368
			c-0.11,0-0.218-0.033-0.31-0.094c-0.123-0.083-0.208-0.21-0.237-0.354c-0.029-0.146,0-0.296,0.083-0.419l1.594-2.394
			c0.171-0.257,0.516-0.324,0.773-0.154c0.256,0.17,0.324,0.516,0.154,0.772l-1.594,2.394
			C719.979,385.274,719.805,385.368,719.618,385.368 M716.674,419.925c-0.275,0-0.509-0.202-0.549-0.476l-0.43-2.844
			c-0.022-0.146,0.015-0.294,0.103-0.413c0.088-0.12,0.219-0.198,0.364-0.221c0.303-0.042,0.591,0.164,0.637,0.468l0.427,2.846
			c0.024,0.16-0.023,0.322-0.128,0.445C716.991,419.854,716.836,419.925,716.674,419.925 M707.751,382.924
			c-0.265,0-0.494-0.188-0.546-0.447l-0.566-2.819c-0.029-0.145,0-0.295,0.083-0.418c0.082-0.123,0.209-0.21,0.355-0.239
			c0.145-0.028,0.294,0.001,0.418,0.082c0.123,0.083,0.209,0.21,0.237,0.355l0.565,2.82c0.061,0.302-0.136,0.596-0.438,0.657
			C707.825,382.92,707.787,382.924,707.751,382.924"/>
	</g>
	<g>
		<polyline opacity="0.6" fill="#FCFCFC" points="382.779,652.362 382.27,729.699 434.105,736.182 435.611,729.771 449.563,724.651 
			462.402,725.361 462.722,718.335 464.868,717.33 465.396,714.949 471.891,715.767 471.983,659.449 463.022,658.876 
			461.977,654.121 435.702,655.021 434.349,650.895 382.779,652.362 		"/>
		<g>
			<path fill="#515151" d="M434.349,650.895v84.44l-51.452-6.442l0.543-76.12L434.349,650.895z M435.679,649.983l-1.396,0.055
				l-50.91,1.877l-1.247,0.044l-0.006,0.813l-0.545,76.126v0.715l1.07,0.132l51.46,6.437l1.563,0.196L435.679,649.983"/>
			<path fill="#515151" d="M433.521,736.345l-50.741-6.605v-77.377l50.741-1.43V736.345z M384.101,729.035l48.091,6.261v-83.463
				l-48.091,1.354V729.035z M434.959,730.569v-61.075l23.439-1.976c0.421-0.725,0.394-1.527-0.074-2.238
				c-0.769-1.131-2.756-1.982-3.192-2.157l-19.82,0.994l-0.05-0.432l20.027-1.004l0.084,0.038c0.117,0.037,2.608,0.987,3.562,2.386
				c0.569,0.847,0.578,1.808,0.024,2.658v52.487L434.959,730.569z M435.611,669.876v59.896l22.68-9.744v-52.066L435.611,669.876z
				 M435.611,669.876"/>
			<path fill="#515151" d="M462.061,719.171v-54.038l0.327-0.005c0.024,0,2.958-0.056,6.888-0.486
				c1.905-0.213,1.99-1.114,1.932-1.484c-0.108-0.804-0.995-1.541-1.881-1.529c-1.615,0.01-6.838,0.551-6.889,0.557l-0.102-0.426
				c0.218-0.021,5.325-0.546,6.99-0.563h0.015c1.338,0,2.41,1.011,2.534,1.921c0.151,1.032-0.785,1.765-2.491,1.949
				c-1.332,0.149-2.674,0.266-4.021,0.35l0.177,52.138L462.061,719.171z M462.722,665.553v52.782l2.146-1.005l-0.174-51.87
				C464.037,665.499,463.38,665.529,462.722,665.553L462.722,665.553z M436.924,669.521h0.652v53.551h-0.652V669.521z
				 M439.432,669.521h0.652v52.443h-0.652V669.521z M441.956,669.085h0.66v52.176h-0.66V669.085z M444.599,668.861h0.659v51.29
				h-0.659V668.861z M447.081,668.861h0.662v50.57h-0.662V668.861z M449.779,668.184h0.663v50.189h-0.663V668.184z M455.147,668.147
				h0.66v48.271h-0.66V668.147z M452.347,668.184h0.661v49.175h-0.661V668.184z M452.347,668.184"/>
			<path fill="#515151" d="M381.591,695.683c0,0.568,0.585,1.033,1.306,1.033c0.719,0,1.311-0.465,1.311-1.033
				c0-0.567-0.586-1.036-1.311-1.036C382.176,694.641,381.591,695.11,381.591,695.683L381.591,695.683z M381.591,695.683"/>
			<path fill="#515151" d="M382.896,696.928c-0.895,0-1.639-0.563-1.639-1.249c0-0.694,0.734-1.251,1.639-1.251
				c0.902,0,1.637,0.563,1.637,1.251C384.533,696.371,383.799,696.928,382.896,696.928L382.896,696.928z M382.896,694.854
				c-0.537,0-0.978,0.364-0.978,0.824c0,0.447,0.44,0.813,0.978,0.813c0.543,0,0.976-0.365,0.976-0.813
				C383.872,695.225,383.439,694.854,382.896,694.854L382.896,694.854z M382.896,694.854"/>
			<path fill="#515151" d="M381.591,675.179c0,0.566,0.585,1.032,1.306,1.032c0.719,0,1.304-0.46,1.304-1.032
				c0-0.574-0.585-1.038-1.304-1.038C382.176,674.141,381.591,674.604,381.591,675.179L381.591,675.179z M381.591,675.179"/>
			<path fill="#515151" d="M382.896,676.427c-0.904,0-1.639-0.561-1.639-1.248c0-0.688,0.734-1.251,1.639-1.251
				c0.902,0,1.637,0.563,1.637,1.251C384.533,675.866,383.799,676.427,382.896,676.427L382.896,676.427z M382.896,674.358
				c-0.537,0-0.978,0.366-0.978,0.82c0,0.452,0.44,0.818,0.978,0.818c0.543,0,0.976-0.366,0.976-0.818
				C383.872,674.725,383.439,674.358,382.896,674.358L382.896,674.358z M381.591,714.201c0,0.568,0.585,1.032,1.306,1.032
				c0.719,0,1.304-0.464,1.304-1.032c0-0.573-0.585-1.03-1.304-1.03C382.176,713.171,381.591,713.628,381.591,714.201
				L381.591,714.201z M411.377,660.416c-0.004,0.377-0.475,0.682-1.052,0.682h-3.395c-0.577,0-1.054-0.306-1.054-0.682
				c0-0.378,0.468-0.688,1.054-0.688h3.395C410.9,659.728,411.377,660.033,411.377,660.416L411.377,660.416z M385.972,661.098
				c0,0.377-0.466,0.683-1.045,0.683h-3.401c-0.578,0-1.044-0.306-1.044-0.683c0-0.376,0.466-0.682,1.044-0.682h3.401
				C385.502,660.416,385.972,660.722,385.972,661.098L385.972,661.098z M390.043,656.91c0,0.377-0.353,0.689-0.777,0.689h-2.516
				c-0.435,0-0.778-0.313-0.778-0.689c0-0.376,0.352-0.682,0.778-0.682h2.516C389.69,656.229,390.043,656.534,390.043,656.91
				L390.043,656.91z M397.811,657.331c0,0.376-0.353,0.683-0.778,0.683h-2.516c-0.427,0-0.777-0.307-0.777-0.683
				s0.351-0.683,0.777-0.683h2.516C397.466,656.648,397.811,656.955,397.811,657.331L397.811,657.331z M402.515,661.414
				c0,0.377-0.343,0.688-0.769,0.688h-2.515c-0.435,0-0.779-0.312-0.779-0.688c0-0.376,0.353-0.682,0.779-0.682h2.515
				C402.172,660.727,402.515,661.038,402.515,661.414L402.515,661.414z M402.515,666.24c0,0.377-0.343,0.683-0.769,0.683h-2.515
				c-0.435,0-0.779-0.306-0.779-0.683c0-0.376,0.353-0.682,0.779-0.682h2.515C402.172,665.559,402.515,665.864,402.515,666.24
				L402.515,666.24z M385.529,666.415c0,0.378-0.468,0.684-1.047,0.684h-3.402c-0.575,0-1.043-0.306-1.043-0.684
				c0-0.377,0.468-0.683,1.043-0.683h3.402C385.062,665.732,385.529,666.038,385.529,666.415L385.529,666.415z M390.521,670.204
				c-0.005,0.379-0.476,0.683-1.055,0.683h-3.402c-0.576,0-1.044-0.306-1.044-0.683c0-0.376,0.468-0.683,1.044-0.683h3.394
				C390.043,669.521,390.521,669.828,390.521,670.204L390.521,670.204z M397.684,671.116c0,0.376-0.284,0.682-0.643,0.682h-2.099
				c-0.358,0-0.652-0.306-0.652-0.682c0-0.377,0.294-0.683,0.652-0.683h2.099C397.399,670.434,397.684,670.739,397.684,671.116
				L397.684,671.116z M415.139,658.02c0,0.376-0.283,0.682-0.634,0.682h-2.06c-0.349,0-0.634-0.306-0.634-0.682
				c0-0.377,0.285-0.688,0.634-0.688h2.06C414.855,657.331,415.139,657.637,415.139,658.02L415.139,658.02z M423.866,658.177
				c0,0.377-0.361,0.683-0.818,0.683h-2.659c-0.451,0-0.819-0.306-0.819-0.683c0-0.376,0.368-0.682,0.819-0.682h2.659
				C423.505,657.495,423.866,657.801,423.866,658.177L423.866,658.177z M427.117,662.19c0,0.377-0.392,0.682-0.878,0.682h-2.874
				c-0.494,0-0.888-0.305-0.888-0.682c0-0.378,0.402-0.684,0.888-0.684h2.874C426.726,661.502,427.117,661.807,427.117,662.19
				L427.117,662.19z M427.117,667.611c0,0.382-0.392,0.688-0.878,0.688h-2.874c-0.494,0-0.888-0.307-0.888-0.688
				c0-0.377,0.402-0.683,0.888-0.683h2.874C426.726,666.923,427.117,667.234,427.117,667.611L427.117,667.611z M423.147,671.805
				c0,0.376-0.402,0.683-0.887,0.683h-2.875c-0.494,0-0.887-0.307-0.887-0.683c0-0.378,0.4-0.684,0.887-0.684h2.866
				C422.745,671.116,423.147,671.423,423.147,671.805L423.147,671.805z M410.533,665.433c0,0.382-0.478,0.688-1.053,0.688h-3.396
				c-0.578,0-1.048-0.307-1.048-0.685c0-0.379,0.47-0.686,1.048-0.686h3.396c0.282,0,0.543,0.071,0.743,0.202
				C410.424,665.078,410.535,665.251,410.533,665.433L410.533,665.433z M413.281,671.116c0,0.377-0.465,0.682-1.044,0.682h-3.402
				c-0.575,0-1.044-0.305-1.044-0.682s0.469-0.683,1.044-0.683h3.402C412.808,670.434,413.281,670.739,413.281,671.116
				L413.281,671.116z M413.281,671.116"/>
			<path fill="#515151" d="M386.214,715.665c0.263-0.135,0.426-0.335,0.453-0.552c0.033-0.218-0.067-0.436-0.275-0.606
				c-0.448-0.344-1.233-0.394-1.774-0.114l-2.448,1.311c-0.538,0.288-0.617,0.806-0.177,1.157c0.442,0.352,1.235,0.403,1.773,0.115
				L386.214,715.665z M393.655,712.308c0.535-0.289,0.616-0.807,0.175-1.158c-0.439-0.352-1.233-0.402-1.771-0.113l-2.451,1.314
				c-0.259,0.138-0.424,0.339-0.457,0.555c-0.032,0.217,0.066,0.434,0.282,0.603c0.444,0.348,1.232,0.398,1.771,0.115
				L393.655,712.308z M386.624,720.884c0.507-0.294,0.57-0.797,0.144-1.141c-0.433-0.344-1.204-0.397-1.74-0.126l-2.457,1.311
				c-0.261,0.138-0.425,0.337-0.458,0.555c-0.032,0.218,0.069,0.435,0.283,0.603c0.442,0.348,1.232,0.398,1.771,0.115
				L386.624,720.884z M388.706,726.671c0.26-0.138,0.423-0.338,0.455-0.556c0.033-0.217-0.067-0.434-0.279-0.602
				c-0.446-0.345-1.231-0.396-1.773-0.114l-2.457,1.314c-0.263,0.139-0.427,0.339-0.46,0.559c-0.035,0.218,0.069,0.437,0.285,0.606
				c0.446,0.343,1.231,0.394,1.771,0.113L388.706,726.671z M397.901,727.332c0.261-0.139,0.423-0.34,0.452-0.558
				c0.033-0.217-0.066-0.432-0.277-0.601c-0.445-0.344-1.23-0.396-1.772-0.114l-2.457,1.315c-0.535,0.288-0.611,0.806-0.171,1.155
				c0.441,0.349,1.231,0.399,1.769,0.111L397.901,727.332z M401.79,721.496c0.535-0.289,0.614-0.807,0.175-1.158
				c-0.441-0.352-1.235-0.402-1.772-0.114l-2.458,1.314c-0.518,0.293-0.588,0.8-0.159,1.148c0.439,0.345,1.218,0.397,1.757,0.119
				L401.79,721.496z M401.238,715.949c0.248-0.138,0.417-0.345,0.451-0.563c0.031-0.218-0.069-0.431-0.285-0.601
				c-0.208-0.168-0.511-0.276-0.844-0.299c-0.332-0.022-0.662,0.043-0.921,0.179l-2.457,1.322c-0.259,0.131-0.426,0.333-0.461,0.551
				c-0.033,0.218,0.067,0.438,0.286,0.601c0.443,0.349,1.229,0.399,1.771,0.115L401.238,715.949z M408.159,718.864
				c0.562-0.258,0.7-0.761,0.318-1.131c-0.18-0.179-0.462-0.305-0.785-0.349c-0.32-0.045-0.656-0.003-0.93,0.113l-2.642,1.146
				c-0.277,0.122-0.472,0.311-0.535,0.526c-0.105,0.325,0.103,0.662,0.531,0.848c0.421,0.185,0.977,0.185,1.4-0.003L408.159,718.864
				z M416.594,714.583c0.55-0.256,0.69-0.751,0.318-1.118c-0.382-0.368-1.135-0.476-1.716-0.246l-2.641,1.146
				c-0.285,0.12-0.479,0.317-0.536,0.53c-0.059,0.212,0,0.436,0.187,0.616c0.385,0.375,1.162,0.476,1.738,0.224L416.594,714.583z
				 M422.787,716.834c0.278-0.122,0.47-0.312,0.527-0.526c0.071-0.212,0.004-0.436-0.184-0.616c-0.183-0.184-0.473-0.31-0.804-0.349
				c-0.326-0.041-0.665,0.003-0.946,0.12l-2.638,1.151c-0.277,0.124-0.472,0.311-0.544,0.524c-0.06,0.213,0,0.438,0.184,0.617
				c0.384,0.377,1.17,0.48,1.745,0.229L422.787,716.834z M425.362,721.796c0.564-0.254,0.715-0.757,0.334-1.13
				c-0.382-0.376-1.156-0.482-1.738-0.24l-2.633,1.151c-0.281,0.122-0.475,0.313-0.534,0.529c-0.102,0.327,0.107,0.659,0.532,0.844
				c0.424,0.186,0.975,0.184,1.398-0.002L425.362,721.796z M423.866,727.889c0.389-0.156,0.609-0.44,0.576-0.738
				c-0.025-0.3-0.292-0.566-0.702-0.692s-0.895-0.109-1.271,0.066l-2.641,1.146c-0.376,0.164-0.589,0.445-0.559,0.739
				c0.029,0.295,0.297,0.555,0.701,0.686c0.406,0.131,0.889,0.11,1.261-0.055L423.866,727.889z M417.531,730.279
				c0.275-0.119,0.466-0.307,0.533-0.519c0.065-0.218,0-0.436-0.192-0.617c-0.184-0.182-0.469-0.31-0.794-0.354
				c-0.331-0.038-0.67,0.007-0.952,0.126l-2.634,1.146c-0.286,0.12-0.478,0.316-0.535,0.53c-0.059,0.212,0,0.436,0.184,0.616
				c0.386,0.375,1.162,0.475,1.74,0.224L417.531,730.279z M409.997,728.887c0.552-0.262,0.696-0.759,0.317-1.13
				c-0.375-0.371-1.144-0.48-1.722-0.24l-2.64,1.146c-0.378,0.162-0.593,0.443-0.562,0.737c0.024,0.294,0.291,0.557,0.693,0.688
				c0.402,0.126,0.879,0.109,1.256-0.054L409.997,728.887z M407.414,724.58c0.277-0.121,0.471-0.308,0.536-0.521
				c0.066-0.214,0-0.435-0.185-0.615c-0.181-0.182-0.468-0.309-0.795-0.353c-0.326-0.044-0.667-0.003-0.943,0.118l-2.643,1.151
				c-0.579,0.253-0.734,0.763-0.351,1.142c0.184,0.181,0.469,0.306,0.796,0.35c0.328,0.043,0.666-0.001,0.943-0.121L407.414,724.58z
				 M405.399,655.852c-0.901,0-1.638-0.563-1.638-1.25c0-0.688,0.736-1.251,1.638-1.251c0.904,0,1.639,0.563,1.639,1.251
				C407.038,655.289,406.304,655.852,405.399,655.852L405.399,655.852z M405.399,653.782c-0.536,0-0.978,0.367-0.978,0.819
				c0,0.453,0.441,0.818,0.978,0.818s0.979-0.365,0.979-0.818C406.379,654.149,405.936,653.782,405.399,653.782L405.399,653.782z
				 M405.399,653.782"/>
			<path fill="#515151" d="M463.699,726.376l-14.137-1.725l0.234-0.824l12.605,1.534l-0.426-71.24l-26.274,0.9l-0.059-0.841
				l27.613-0.943L463.699,726.376z M463.699,726.376"/>
			<g>
				<defs>
					<rect id="SVGID_46_" x="380.037" y="649.919" width="95.338" height="86.565"/>
				</defs>
				<clipPath id="SVGID_13_">
					<use xlink:href="#SVGID_46_"  overflow="visible"/>
				</clipPath>
				<path clip-path="url(#SVGID_13_)" fill="#515151" d="M473.423,715.959l-8.026-1.01l0.24-0.83l6.491,0.819l-0.145-55.489
					l-8.894,0.272l-0.067-0.846l10.256-0.311L473.423,715.959z M473.423,715.959"/>
				<path clip-path="url(#SVGID_13_)" fill="#515151" d="M474.884,701.918c0.146,0.199,0.16,0.427,0.045,0.634
					c-0.115,0.206-0.357,0.374-0.664,0.464l-43.285,12.644c-0.645,0.18-1.392-0.016-1.672-0.437
					c-0.291-0.418-0.015-0.911,0.619-1.108l43.286-12.633c0.312-0.089,0.661-0.091,0.974-0.009
					C474.502,701.556,474.753,701.715,474.884,701.918L474.884,701.918z M475.101,688.029c0.186,0.448-0.172,0.906-0.828,1.026
					l-44.37,8.102c-0.678,0.106-1.362-0.159-1.539-0.601c-0.184-0.441,0.175-0.905,0.836-1.026l44.389-8.102
					C474.231,687.313,474.908,687.582,475.101,688.029L475.101,688.029z M475.369,673.229c0.051,0.464-0.435,0.868-1.078,0.895
					L430,676.133c-0.643,0.027-1.218-0.322-1.268-0.791c-0.043-0.464,0.441-0.862,1.076-0.896l44.299-2.009
					C474.742,672.409,475.318,672.765,475.369,673.229L475.369,673.229z M475.369,673.229"/>
			</g>
			<path fill="#515151" d="M415.9,727.67c-3.746,0-6.798-2.681-6.798-5.983c0-3.304,3.052-5.983,6.798-5.983
				c3.745,0,6.795,2.68,6.795,5.983C422.695,724.989,419.654,727.67,415.9,727.67L415.9,727.67z M415.9,716.358
				c-3.204,0-5.803,2.391-5.803,5.333c0,2.943,2.599,5.335,5.803,5.335c3.202,0,5.8-2.392,5.8-5.335
				C421.7,718.749,419.103,716.358,415.9,716.358L415.9,716.358z M415.9,716.358"/>
			<path fill="#515151" d="M416.41,729.761c-5.142,0-9.321-3.701-9.321-8.255c0-4.553,4.18-8.254,9.321-8.254
				c5.141,0,9.311,3.701,9.311,8.254C425.721,726.06,421.551,729.761,416.41,729.761L416.41,729.761z M416.41,713.885
				c-4.608,0-8.352,3.424-8.352,7.621c0,4.198,3.743,7.621,8.352,7.621c4.604,0,8.351-3.423,8.351-7.621
				C424.761,717.309,421.015,713.885,416.41,713.885L416.41,713.885z M392.91,724.924c-3.744,0-6.796-2.68-6.796-5.983
				c0-3.303,3.052-5.988,6.796-5.988c3.745,0,6.796,2.686,6.796,5.988C399.706,722.244,396.655,724.924,392.91,724.924
				L392.91,724.924z M392.91,713.606c-3.201,0-5.802,2.392-5.802,5.34c0,2.947,2.601,5.333,5.802,5.333
				c3.202,0,5.803-2.391,5.803-5.333S396.112,713.606,392.91,713.606L392.91,713.606z M392.91,713.606"/>
			<path fill="#515151" d="M393.42,727.01c-5.141,0-9.319-3.701-9.319-8.249c0-4.554,4.179-8.255,9.319-8.255
				c5.143,0,9.322,3.701,9.322,8.255C402.742,723.309,398.563,727.01,393.42,727.01L393.42,727.01z M393.42,711.14
				c-4.605,0-8.35,3.422-8.35,7.621c0,4.197,3.744,7.621,8.35,7.621c4.608,0,8.352-3.418,8.352-7.621
				C401.771,714.557,398.028,711.14,393.42,711.14L393.42,711.14z M418.499,670.908c-3.745,0-6.795-2.686-6.795-5.982
				c0-3.298,3.05-5.984,6.795-5.984c3.744,0,6.795,2.687,6.795,5.984C425.294,668.223,422.243,670.908,418.499,670.908
				L418.499,670.908z M418.499,659.592c-3.202,0-5.803,2.391-5.803,5.334c0,2.941,2.601,5.332,5.803,5.332
				c3.201,0,5.803-2.391,5.803-5.332C424.302,661.982,421.7,659.592,418.499,659.592L418.499,659.592z M418.499,659.592"/>
			<path fill="#515151" d="M419.001,672.999c-5.139,0-9.322-3.701-9.322-8.253c0-4.548,4.184-8.256,9.322-8.256
				c5.132,0,9.312,3.701,9.312,8.256C428.322,669.298,424.142,672.999,419.001,672.999L419.001,672.999z M419.001,657.129
				c-4.605,0-8.35,3.417-8.35,7.621s3.744,7.622,8.35,7.622s8.35-3.418,8.35-7.622S423.606,657.129,419.001,657.129L419.001,657.129
				z M393.386,670.346c-3.753,0-6.804-2.687-6.804-5.983c0-3.296,3.051-5.983,6.804-5.983c3.746,0,6.798,2.688,6.798,5.983
				C400.184,667.659,397.139,670.346,393.386,670.346L393.386,670.346z M393.386,659.029c-3.201,0-5.808,2.392-5.808,5.333
				c0,2.942,2.606,5.334,5.808,5.334c3.203,0,5.802-2.392,5.802-5.334C399.188,661.421,396.589,659.029,393.386,659.029
				L393.386,659.029z M393.386,659.029"/>
			<path fill="#515151" d="M393.897,672.438c-5.141,0-9.32-3.702-9.32-8.256c0-4.552,4.18-8.254,9.32-8.254s9.32,3.702,9.32,8.254
				C403.218,668.735,399.038,672.438,393.897,672.438L393.897,672.438z M393.897,656.561c-4.606,0-8.352,3.417-8.352,7.621
				s3.745,7.623,8.352,7.623c4.605,0,8.352-3.419,8.352-7.623S398.503,656.561,393.897,656.561L393.897,656.561z M393.897,656.561"
				/>
			<path fill="#515151" d="M398.17,679.054l-10.886-1.146v-3.686l10.886,0.584V679.054z M388.254,677.373l8.944,0.944v-2.927
				l-8.944-0.48V677.373z M424.71,681.723l-12.422-1.446v-4.596l12.422,0.736V681.723z M413.45,679.644l10.098,1.174v-3.706
				l-10.098-0.606V679.644z M413.45,679.644"/>
		</g>
	</g>
	<g>
		<g>
			<defs>
				<rect id="SVGID_48_" x="106.035" y="658.437" width="75.971" height="64.438"/>
			</defs>
			<clipPath id="SVGID_14_">
				<use xlink:href="#SVGID_48_"  overflow="visible"/>
			</clipPath>
			<path clip-path="url(#SVGID_14_)" fill="#505050" d="M170.031,711.058h6.089c2.086,0,4.015,1.112,5.058,2.92
				c1.044,1.808,1.044,4.033,0,5.84c-1.043,1.808-2.972,2.921-5.058,2.921h-64.245c-2.085,0-4.014-1.113-5.058-2.921
				c-1.043-1.807-1.043-4.032,0-5.84c1.044-1.808,2.973-2.92,5.058-2.92h6.089c-0.638,1.814-0.018,3.833,1.529,4.977
				c1.547,1.143,3.659,1.143,5.206,0c1.547-1.144,2.168-3.162,1.529-4.977h6.337c-0.64,1.814-0.019,3.833,1.529,4.977
				c1.547,1.143,3.658,1.143,5.205,0c1.547-1.144,2.168-3.162,1.529-4.977h6.337c-0.639,1.814-0.019,3.833,1.529,4.977
				c1.547,1.143,3.658,1.143,5.205,0c1.548-1.144,2.168-3.162,1.53-4.977h6.337c-0.64,1.814-0.019,3.833,1.529,4.977
				c1.547,1.143,3.658,1.143,5.205,0C170.049,714.891,170.67,712.872,170.031,711.058L170.031,711.058z M120.636,658.493
				c0.774,0,1.518,0.308,2.065,0.855s0.854,1.29,0.854,2.065c2.207,3.401,3.233,7.434,2.921,11.476c0,5.637-5.841,9.17-5.841,14.806
				c-0.31,4.106,0.716,8.203,2.92,11.681c0,1.613-1.307,2.92-2.92,2.92c-1.612,0-2.919-1.307-2.919-2.92
				c-2.203-3.489-3.227-7.594-2.921-11.71c0-5.636,5.84-9.169,5.84-14.776c0.313-4.042-0.713-8.074-2.919-11.476
				c0-0.775,0.307-1.518,0.854-2.065S119.861,658.493,120.636,658.493L120.636,658.493z M135.237,658.493
				c0.773,0,1.517,0.308,2.064,0.855s0.855,1.29,0.855,2.065c2.206,3.401,3.232,7.434,2.92,11.476c0,5.637-5.84,9.17-5.84,14.806
				c-0.31,4.106,0.715,8.203,2.92,11.681c0,1.613-1.308,2.92-2.92,2.92c-1.613,0-2.92-1.307-2.92-2.92
				c-2.202-3.489-3.226-7.594-2.921-11.71c0-5.636,5.841-9.169,5.841-14.776c0.313-4.042-0.714-8.074-2.92-11.476
				c0-0.775,0.308-1.518,0.855-2.065S134.462,658.493,135.237,658.493L135.237,658.493z M149.838,658.493
				c0.774,0,1.518,0.308,2.064,0.855c0.549,0.548,0.856,1.29,0.856,2.065c2.205,3.401,3.232,7.434,2.919,11.476
				c0,5.637-5.84,9.17-5.84,14.806c-0.31,4.106,0.715,8.203,2.921,11.681c0,1.613-1.308,2.92-2.921,2.92
				c-1.612,0-2.92-1.307-2.92-2.92c-2.202-3.489-3.226-7.594-2.921-11.71c0-5.636,5.841-9.169,5.841-14.776
				c0.313-4.042-0.713-8.074-2.92-11.476c0-0.775,0.308-1.518,0.855-2.065S149.064,658.493,149.838,658.493L149.838,658.493z
				 M164.439,658.493c0.773,0,1.517,0.308,2.064,0.855s0.854,1.29,0.854,2.065c2.208,3.401,3.233,7.434,2.921,11.476
				c0,5.637-5.84,9.17-5.84,14.806c-0.31,4.106,0.715,8.203,2.919,11.681c0,1.613-1.307,2.92-2.919,2.92
				c-1.613,0-2.92-1.307-2.92-2.92c-2.203-3.489-3.226-7.594-2.921-11.71c0-5.636,5.841-9.169,5.841-14.776
				c0.312-4.042-0.714-8.074-2.92-11.476c0-0.775,0.307-1.518,0.854-2.065S163.665,658.493,164.439,658.493L164.439,658.493z
				 M164.439,658.493"/>
		</g>
	</g>
	<g>
		<g>
			<defs>
				<rect id="SVGID_66_" x="833.557" y="429.619" width="86.841" height="85.679"/>
			</defs>
			<clipPath id="SVGID_15_">
				<use xlink:href="#SVGID_66_"  overflow="visible"/>
			</clipPath>
			<path clip-path="url(#SVGID_15_)" fill="#515151" d="M899.402,479.061c-0.249-0.43-0.666-0.678-1.146-0.678h-3.021l0.612-0.611
				c0.477-0.479,0.625-1.132,0.386-1.709c-0.228-0.559-0.772-0.923-1.376-0.923c-0.414,0-0.821,0.176-1.143,0.499l-2.746,2.744
				h-4.992c-0.133-0.619-0.348-1.214-0.641-1.773l4.066-4.066h3.804c0.099,0.019,0.198,0.028,0.296,0.028
				c0.487,0,0.918-0.243,1.154-0.651c0.252-0.438,0.243-1.018-0.021-1.478c-0.273-0.471-0.775-0.753-1.347-0.753h-1.033l1.852-1.855
				c0.484-0.48,0.633-1.148,0.389-1.737c-0.221-0.535-0.731-0.895-1.272-0.895c-0.407,0-0.783,0.198-1.047,0.548l-2.055,2.054
				v-1.284c0-0.777-0.616-1.362-1.429-1.362c-0.813,0-1.426,0.585-1.426,1.362v4.002c-0.035,0.071-0.064,0.146-0.088,0.223
				l-3.671,3.675c-0.896-0.705-1.953-1.179-3.075-1.378v-5.69l2.994-2.99c0.477-0.479,0.625-1.135,0.387-1.711
				c-0.229-0.56-0.772-0.925-1.376-0.925c-0.415,0-0.822,0.178-1.144,0.503c-0.282,0.275-0.57,0.549-0.861,0.817v-2.134
				c0.067-0.336,0.004-0.668-0.187-0.934c-0.245-0.339-0.661-0.534-1.146-0.534c-0.865,0-1.521,0.587-1.521,1.366v2.003
				c-0.207-0.191-0.409-0.388-0.611-0.585c-0.325-0.327-0.736-0.506-1.156-0.506c-0.656,0-1.238,0.419-1.422,1.02
				c-0.159,0.522,0.035,1.071,0.493,1.414l2.696,2.7v6.233c-0.748,0.165-1.464,0.449-2.118,0.845
				c-1.651-1.543-3.311-3.153-4.964-4.782v-3.771c0.069-0.335,0.005-0.667-0.188-0.932c-0.244-0.341-0.661-0.533-1.146-0.533
				c-0.866,0-1.519,0.585-1.519,1.363v1.034l-1.063-1.062c-0.267-0.351-0.648-0.549-1.063-0.549c-0.576,0-1.146,0.395-1.38,0.963
				c-0.209,0.507-0.109,1.051,0.262,1.425l1.607,1.606h-1.43c-0.086-0.019-0.174-0.028-0.262-0.028
				c-0.398,0-0.755,0.195-0.977,0.536c-0.15,0.231-0.229,0.516-0.229,0.824c0,0.865,0.588,1.52,1.364,1.52h4.385l4.438,4.437
				c-0.485,0.729-0.829,1.541-1.014,2.397h-5.472c-0.16-0.169-0.32-0.343-0.488-0.523c-0.693-0.749-1.408-1.523-2.257-2.213
				c-0.261-0.326-0.624-0.509-1.017-0.509c-0.538,0-1.049,0.359-1.272,0.894c-0.244,0.589-0.095,1.255,0.389,1.739l0.612,0.611
				h-2.774c-0.78,0-1.364,0.666-1.364,1.552c0,0.883,0.584,1.551,1.364,1.551h2.745c-0.191,0.208-0.385,0.41-0.583,0.612
				c-0.483,0.481-0.633,1.147-0.389,1.737c0.222,0.534,0.732,0.894,1.272,0.894c0.393,0,0.756-0.183,1.016-0.506
				c0.85-0.692,1.567-1.468,2.26-2.218c0.166-0.178,0.327-0.353,0.486-0.521h5.473c0.197,0.915,0.578,1.778,1.117,2.542l-3.55,3.548
				h-3.787c-0.085-0.019-0.173-0.027-0.259-0.027c-0.688,0-1.206,0.587-1.206,1.362c0,0.867,0.587,1.519,1.364,1.519h1.037
				l-2.352,2.353c-0.399,0.397-0.509,0.98-0.281,1.523c0.241,0.585,0.814,0.979,1.426,0.979c0.301,0,0.599-0.094,0.864-0.271
				l0.066-0.042l2.655-2.656v1.184c-0.069,0.334-0.005,0.666,0.188,0.932c0.245,0.338,0.662,0.533,1.146,0.533
				c0.865,0,1.52-0.586,1.52-1.364v-4.138l3.411-3.411c0.605,0.339,1.256,0.585,1.932,0.733v5.985l-2.745,2.743
				c-0.474,0.475-0.622,1.082-0.396,1.62c0.226,0.544,0.805,0.91,1.442,0.91c0.341,0,0.675-0.103,0.967-0.296l0.065-0.044
				l0.667-0.667v2.028c0,0.806,0.671,1.459,1.492,1.459c0.372,0,0.714-0.139,0.966-0.396c0.181-0.188,0.396-0.523,0.396-1.063
				v-2.278l0.916,0.917l0.066,0.044c0.292,0.193,0.625,0.296,0.965,0.296c0.64,0,1.219-0.366,1.443-0.91
				c0.225-0.542,0.077-1.146-0.396-1.62l-2.994-2.992v-5.688c0.884-0.16,1.73-0.487,2.492-0.968l3.598,3.597v4.037
				c-0.07,0.334-0.005,0.666,0.185,0.932c0.246,0.341,0.664,0.534,1.148,0.534c0.865,0,1.518-0.587,1.518-1.363v-1.284l2.353,2.351
				c0.253,0.254,0.598,0.396,0.957,0.396c0.56,0,1.097-0.329,1.369-0.839c0.266-0.497,0.23-1.082-0.094-1.569l-0.044-0.064
				l-2.407-2.406h0.934c0.089,0.018,0.177,0.025,0.262,0.025l0,0c0.419,0,0.797-0.221,1.012-0.593
				c0.268-0.462,0.257-1.125-0.026-1.611c-0.247-0.431-0.666-0.677-1.143-0.677h-3.89l-3.6-3.598
				c0.481-0.762,0.811-1.606,0.969-2.492h4.693l2.996,2.994c0.32,0.321,0.727,0.499,1.143,0.499c0.604,0,1.147-0.363,1.376-0.922
				c0.239-0.579,0.091-1.232-0.388-1.711l-0.857-0.86h3.166c0.087,0.019,0.174,0.028,0.262,0.028c0.417,0,0.797-0.223,1.01-0.594
				C899.697,480.203,899.688,479.555,899.402,479.061L899.402,479.061z M883.044,479.935c0,2.305-1.607,3.913-3.913,3.913
				c-2.304,0-3.912-1.608-3.912-3.913s1.608-3.913,3.912-3.913C881.437,476.021,883.044,477.63,883.044,479.935L883.044,479.935z
				 M883.044,479.935"/>
			<path clip-path="url(#SVGID_15_)" fill="#515151" d="M906.763,432.173c-7.986-1.614-18.58-2.504-29.832-2.504
				c-11.255,0-21.85,0.89-29.836,2.504c-9.119,1.844-13.552,4.324-13.552,7.59v64.495c0,0,1.181,0.563,2.383,0
				c0.975-0.457,0.934-1.292,0.934-1.99v-58.2c2.247,1.269,5.648,2.357,10.235,3.284c7.986,1.615,18.581,2.505,29.834,2.505
				c11.254,0,21.848-0.89,29.834-2.505c4.586-0.927,7.987-2.016,10.235-3.284v58.23c-20.605,11.202-41.324,10.578-55.159,8.045
				c-2.982-0.547-5.939-1.228-8.861-2.042c-2.92-0.813-1.462,0.176-1.592,1.509c-0.13,1.331,1.592,1.936,1.592,1.936
				c2.691,0.72,5.41,1.333,8.149,1.839c5.025,0.927,10.925,1.61,17.392,1.609c12.308,0,26.667-2.476,40.945-10.471l0.85-0.473
				v-64.487C920.313,436.497,915.882,434.017,906.763,432.173L906.763,432.173z M906.106,444.102
				c-7.779,1.572-18.138,2.438-29.176,2.438c-11.041,0-21.402-0.866-29.178-2.438c-9.043-1.828-10.891-3.887-10.891-4.338
				c0-0.454,1.846-2.513,10.891-4.34c7.775-1.572,18.137-2.438,29.178-2.438c11.038,0,21.396,0.866,29.176,2.438
				c9.042,1.827,10.892,3.886,10.892,4.339C916.998,440.214,915.148,442.273,906.106,444.102L906.106,444.102z M906.106,444.102"/>
		</g>
	</g>
</g>
<g id="文字">
	<rect x="287.153" y="18.758" fill="none" width="122.936" height="27.523"/>
	<text transform="matrix(1 0 0 1 326.6211 37.6641)" fill="#595757" font-family="'SimHei'" font-size="22">供电</text>
	<rect x="648.284" y="324.509" fill="none" width="122.936" height="27.523"/>
	<text transform="matrix(1 0 0 1 687.752 343.4155)" fill="#595757" font-family="'SimHei'" font-size="22">供热</text>
	<rect x="363.429" y="446.666" fill="none" width="122.936" height="27.522"/>
	<text transform="matrix(1 0 0 1 380.8965 465.5723)" fill="#595757" font-family="'SimHei'" font-size="22">燃气锅炉</text>
	<rect x="82.189" y="444.835" fill="none" width="122.936" height="27.522"/>
	<text transform="matrix(1 0 0 1 99.6572 463.7412)" fill="#595757" font-family="'SimHei'" font-size="22">市政燃气</text>
	<rect x="81.628" y="172.221" fill="none" width="122.936" height="27.523"/>
	<text transform="matrix(1 0 0 1 99.0957 191.1274)" fill="#595757" font-family="'SimHei'" font-size="22">市政电网</text>
	<rect x="629.228" y="119.604" fill="none" width="161.503" height="27.523"/>
	<text transform="matrix(1 0 0 1 632.9785 138.5098)" fill="#595757" font-family="'SimHei'" font-size="22">离心式冷水机组</text>
	<rect x="653.931" y="253.935" fill="none" width="114.824" height="27.523"/>
	<text transform="matrix(1 0 0 1 678.3428 272.8408)" fill="#595757" font-family="'SimHei'" font-size="22">3000kW</text>
	<rect x="367.329" y="573.992" fill="none" width="114.824" height="27.523"/>
	<text transform="matrix(1 0 0 1 391.7412 592.8984)" fill="#595757" font-family="'SimHei'" font-size="22">3000kW</text>
	<rect x="459.725" y="227.686" fill="none" width="122.936" height="27.522"/>
	<text transform="matrix(1 0 0 1 477.1924 246.5918)" fill="#595757" font-family="'SimHei'" font-size="22">水源热泵</text>
	<rect x="460.625" y="355.012" fill="none" width="114.824" height="27.523"/>
	<text transform="matrix(1 0 0 1 485.0371 373.918)" fill="#595757" font-family="'SimHei'" font-size="22">1800kW</text>
	<rect x="355.172" y="615.875" fill="none" width="139.449" height="27.522"/>
	<text transform="matrix(1 0 0 1 369.8965 634.7813)" fill="#595757" font-family="'SimHei'" font-size="22">板式换热器</text>
	<rect x="82.189" y="614.044" fill="none" width="122.936" height="27.522"/>
	<text transform="matrix(1 0 0 1 99.6572 632.9502)" fill="#595757" font-family="'SimHei'" font-size="22">市政蒸汽</text>
	<rect x="367.329" y="746.865" fill="none" width="114.824" height="27.523"/>
	<text transform="matrix(1 0 0 1 391.7412 765.7715)" fill="#595757" font-family="'SimHei'" font-size="22">8000kW</text>
	<rect x="833.112" y="566.945" fill="none" width="139.449" height="27.522"/>
	<text transform="matrix(1 0 0 1 847.8369 585.8516)" fill="#595757" font-family="'SimHei'" font-size="22">蓄热电锅炉</text>
	<rect x="845.27" y="697.936" fill="none" width="114.824" height="27.523"/>
	<text transform="matrix(1 0 0 1 864.1816 716.8418)" fill="#595757" font-family="'SimHei'" font-size="22">4000kWh</text>
	<rect x="808.272" y="396.127" fill="none" width="139.449" height="27.522"/>
	<text transform="matrix(1 0 0 1 822.9971 415.0332)" fill="#595757" font-family="'SimHei'" font-size="22">水蓄冷空调</text>
	<rect x="820.43" y="527.117" fill="none" width="114.824" height="27.523"/>
	<text transform="matrix(1 0 0 1 833.8418 546.0234)" fill="#595757" font-family="'SimHei'" font-size="22">17100kWh</text>
	<rect x="980.431" y="15.758" fill="none" width="107.375" height="27.523"/>
	<text transform="matrix(1 0 0 1 1012.1182 34.6641)" fill="#595757" font-family="'SimHei'" font-size="22">供冷</text>
	<g>
		<path fill="#D4D5D5" d="M494.964,264.472l-24.389,8.546l76.056,3.167l16.361-9.018L494.964,264.472z M494.964,264.472"/>
		<path fill="#FFFFFF" d="M470.575,272.451v68.541l75.495,6.783l0.93-71.956L470.575,272.451z M470.575,272.451"/>
		<path fill="#AEAEAE" d="M562.821,267.211l-16.111,8.539l-0.81,72.162l16.921-13.294V267.211z M562.821,267.211"/>
		<path fill="#F2F2F2" d="M518.509,272.689c14.373,0,26.021-1.352,26.021-3.019v-5.114c-11.189,1.394-19.863,2.091-26.021,2.091
			c-7.805,0-16.481-0.725-26.021-2.176v5.199C492.487,271.337,504.135,272.689,518.509,272.689L518.509,272.689z M518.509,272.689"
			/>
		<path fill="#D4D5D5" d="M492.487,264.472c0,1.22,4.96,2.348,13.011,2.958c8.052,0.61,17.971,0.61,26.021,0
			c8.051-0.61,13.011-1.737,13.011-2.958c0-1.886-11.649-3.416-26.021-3.416C504.138,261.056,492.487,262.585,492.487,264.472
			L492.487,264.472z M492.487,264.472"/>
		<path fill="#E6B75F" d="M476.055,278.165l58.888,2.648v60.726l-58.888-5.852V278.165z M476.055,278.165"/>
		<path fill="#D4D5D5" d="M541.107,290.503c1.893,0,3.427-2.146,3.427-4.792s-1.537-4.792-3.427-4.792c-0.157,0-1.216-0.03-1.366,0
			c-1.677,0.317-2.06,2.368-2.06,4.792c0,2.336,0.475,4.372,2.053,4.792c0.212,0.058,1.147,0,1.37,0H541.107z M541.107,290.503"/>
		<path fill="#E9EBE9" d="M536.314,285.711c0,2.647,1.533,4.792,3.424,4.792c1.89,0,3.422-2.146,3.422-4.792
			c0-2.646-1.532-4.792-3.422-4.792C537.848,280.918,536.314,283.064,536.314,285.711L536.314,285.711z M536.314,285.711"/>
		<path fill="#E6B75F" d="M540.908,282.481l-0.939,3.321l-0.476-0.173L540.908,282.481z M538.566,288.917l1.332-2.92l-0.475-0.173
			L538.566,288.917z M538.566,288.917"/>
		<path fill="#ED7038" d="M536.527,284.532c-0.418,1.147-0.191,2.43,0.593,3.365c0.785,0.936,2.008,1.38,3.21,1.168
			s2.199-1.049,2.617-2.196c0.417-1.147,0.19-2.429-0.594-3.364c-0.784-0.935-2.008-1.38-3.21-1.169
			C537.942,282.548,536.945,283.386,536.527,284.532L536.527,284.532z M536.527,284.532"/>
		<path fill="#ED7038" d="M536.527,284.532c-0.418,1.147-0.191,2.43,0.593,3.365c0.785,0.936,2.008,1.38,3.21,1.168
			s2.199-1.049,2.617-2.196c0.417-1.147,0.19-2.429-0.594-3.364c-0.784-0.935-2.008-1.38-3.21-1.169
			C537.942,282.548,536.945,283.386,536.527,284.532L536.527,284.532z M536.527,284.532"/>
		<path fill="#D4D5D5" d="M541.107,304.2c1.893,0,3.427-2.145,3.427-4.792c0-2.647-1.537-4.792-3.427-4.792
			c-0.157,0-1.216-0.031-1.366,0c-1.677,0.318-2.06,2.368-2.06,4.792c0,2.336,0.475,4.372,2.053,4.792c0.212,0.059,1.147,0,1.37,0
			H541.107z M541.107,304.2"/>
		<path fill="#E9EBE9" d="M536.314,299.408c0,2.647,1.533,4.792,3.424,4.792c1.89,0,3.422-2.145,3.422-4.792
			s-1.532-4.792-3.422-4.792C537.848,294.616,536.314,296.761,536.314,299.408L536.314,299.408z M536.314,299.408"/>
		<path fill="#E6B75F" d="M540.909,296.176l-0.939,3.322l-0.476-0.173L540.909,296.176z M538.567,302.611l1.331-2.921l-0.475-0.173
			L538.567,302.611z M538.567,302.611"/>
		<path fill="#ED7038" d="M536.528,298.227c-0.418,1.147-0.191,2.43,0.593,3.365c0.784,0.935,2.008,1.38,3.21,1.168
			c1.202-0.211,2.199-1.049,2.616-2.196c0.418-1.146,0.191-2.429-0.593-3.364c-0.785-0.935-2.008-1.379-3.21-1.168
			C537.942,296.243,536.945,297.081,536.528,298.227L536.528,298.227z M536.528,298.227"/>
		<path fill="#566574" d="M551.349,322.906l1.175-0.705c0.782-0.471,1.409-0.314,1.879,0.468l0.349,0.58
			c0.47,0.783,0.313,1.409-0.469,1.88l-1.174,0.706c-0.783,0.471-1.409,0.314-1.88-0.468l-0.349-0.58
			C550.409,324.003,550.565,323.377,551.349,322.906L551.349,322.906z M551.349,322.906"/>
		<path fill="#566574" d="M557.749,319.241l1.174-0.706c0.783-0.47,1.41-0.314,1.881,0.468l0.349,0.58
			c0.47,0.783,0.313,1.409-0.47,1.879l-1.174,0.706c-0.782,0.47-1.409,0.314-1.88-0.468l-0.348-0.58
			C556.811,320.337,556.967,319.711,557.749,319.241L557.749,319.241z M557.749,319.241"/>
	</g>
	<g>
		<g>
			<defs>
				<rect id="SVGID_102_" x="1077.896" y="646.113" width="48.441" height="52.649"/>
			</defs>
			<clipPath id="SVGID_16_">
				<use xlink:href="#SVGID_102_"  overflow="visible"/>
			</clipPath>
		</g>
	</g>
</g>
</svg>
