<?xml version="1.0" encoding="utf-8"?>
<!-- Generator: Adobe Illustrator 16.0.0, SVG Export Plug-In . SVG Version: 6.00 Build 0)  -->
<!DOCTYPE svg PUBLIC "-//W3C//DTD SVG 1.1//EN" "http://www.w3.org/Graphics/SVG/1.1/DTD/svg11.dtd">
<svg version="1.1" xmlns="http://www.w3.org/2000/svg" xmlns:xlink="http://www.w3.org/1999/xlink" x="0px" y="0px"
	 width="1190.55px" height="841.89px" viewBox="0 0 1190.55 841.89" enable-background="new 0 0 1190.55 841.89"
	 xml:space="preserve">
<g id="参考图片">
</g>
<g id="底图" display="none">
</g>
<g id="线">
	
		<line fill="none" stroke="#F4BA19" stroke-width="8" stroke-miterlimit="10" x1="399.954" y1="200.762" x2="399.954" y2="420.945"/>
	<line fill="none" stroke="#F4BA19" stroke-width="8" stroke-miterlimit="10" x1="670.254" y1="249" x2="399.972" y2="249"/>
	
		<line fill="none" stroke="#5893C9" stroke-width="9" stroke-miterlimit="10" x1="1095.202" y1="366.493" x2="696.854" y2="366.493"/>
	<line fill="none" stroke="#5893C9" stroke-width="9" stroke-miterlimit="10" x1="1095.202" y1="249" x2="862" y2="249"/>
	<line fill="none" stroke="#5893C9" stroke-width="9" stroke-miterlimit="10" x1="1095.202" y1="202.08" x2="1095.202" y2="431.1"/>
	
		<line fill="none" stroke="#E71F19" stroke-width="8" stroke-miterlimit="10" x1="787.717" y1="521.357" x2="787.717" y2="736.366"/>
	
		<line fill="none" stroke="#F4BA19" stroke-width="8" stroke-miterlimit="10" x1="399.954" y1="306.375" x2="247.324" y2="306.375"/>
	
		<line fill="none" stroke="#F4BA19" stroke-width="8" stroke-miterlimit="10" x1="504.262" y1="366.591" x2="399.973" y2="366.591"/>
	<polyline fill="none" stroke="#E71F19" stroke-width="8" stroke-miterlimit="10" points="601.418,415.282 601.418,584.357 
		786.9,584.357 	"/>
	<line fill="none" stroke="#E71F19" stroke-width="8" stroke-miterlimit="10" x1="572.75" y1="636.034" x2="788.354" y2="636.034"/>
	
		<line fill="none" stroke="#763992" stroke-width="8" stroke-miterlimit="10" x1="247.324" y1="638.034" x2="380.158" y2="638.034"/>
	<polygon fill="#F4BA19" stroke="#FFFFFF" stroke-width="3" stroke-miterlimit="10" points="380.158,290.656 399.954,273.965 
		419.75,290.656 	"/>
	<polygon fill="#F4BA19" stroke="#FFFFFF" stroke-width="3" stroke-miterlimit="10" points="380.158,231.13 399.954,214.438 
		419.75,231.13 	"/>
	<polygon fill="#E71F19" stroke="#FFFFFF" stroke-width="3" stroke-miterlimit="10" points="749.489,616.238 766.181,636.034 
		749.489,655.83 	"/>
	<polygon fill="#E71F19" stroke="#FFFFFF" stroke-width="3" stroke-miterlimit="10" points="649.488,616.238 666.18,636.034 
		649.488,655.83 	"/>
	<polygon fill="#763992" stroke="#FFFFFF" stroke-width="3" stroke-miterlimit="10" points="318.266,617.238 334.957,637.034 
		318.266,656.83 	"/>
	<polygon fill="#E71F19" stroke="#FFFFFF" stroke-width="3" stroke-miterlimit="10" points="621.214,478.501 601.419,495.192 
		581.622,478.501 	"/>
	<polygon fill="#E71F19" stroke="#FFFFFF" stroke-width="3" stroke-miterlimit="10" points="768.277,543.465 788.073,526.773 
		807.869,543.465 	"/>
	<polygon fill="#E71F19" stroke="#FFFFFF" stroke-width="3" stroke-miterlimit="10" points="750.387,565.348 767.078,585.144 
		750.387,604.939 	"/>
	<polygon fill="#F4BA19" stroke="#FFFFFF" stroke-width="3" stroke-miterlimit="10" points="326.611,286.579 343.303,306.375 
		326.611,326.171 	"/>
	<polygon fill="#F4BA19" stroke="#FFFFFF" stroke-width="3" stroke-miterlimit="10" points="644.629,230.13 661.32,249.926 
		644.629,269.722 	"/>
	<polygon fill="#5893C9" stroke="#FFFFFF" stroke-width="3" stroke-miterlimit="10" points="1047.989,230.13 1064.681,249.926 
		1047.989,269.722 	"/>
	<polygon fill="#5893C9" stroke="#FFFFFF" stroke-width="3" stroke-miterlimit="10" points="945.415,230.13 962.106,249.926 
		945.415,269.722 	"/>
	<polygon fill="#5893C9" stroke="#FFFFFF" stroke-width="3" stroke-miterlimit="10" points="1047.989,347.775 1064.681,367.571 
		1047.989,387.367 	"/>
	<polygon fill="#5893C9" stroke="#FFFFFF" stroke-width="3" stroke-miterlimit="10" points="928.724,347.775 945.415,367.571 
		928.724,387.367 	"/>
	<polygon fill="#5893C9" stroke="#FFFFFF" stroke-width="3" stroke-miterlimit="10" points="783.77,347.775 800.461,367.571 
		783.77,387.367 	"/>
	<polygon fill="#5893C9" stroke="#FFFFFF" stroke-width="3" stroke-miterlimit="10" points="1075.429,229.06 1095.226,212.368 
		1115.021,229.06 	"/>
	<polygon fill="#F4BA19" stroke="#FFFFFF" stroke-width="3" stroke-miterlimit="10" points="504.262,230.13 520.954,249.926 
		504.262,269.722 	"/>
	<polygon fill="#F4BA19" stroke="#FFFFFF" stroke-width="3" stroke-miterlimit="10" points="444.261,345.615 460.952,365.411 
		444.261,385.207 	"/>
</g>
<g id="框底">
	<g opacity="0.8">
		
			<image overflow="visible" opacity="0.75" width="547" height="547" xlink:href="F7B39AD.png"  transform="matrix(0.24 0 0 0.24 139.6646 249.7437)">
		</image>
		<g>
			<path fill="#EFEFEF" d="M247.324,347.07c0,5.707-4.626,10.333-10.333,10.333h-77.494c-5.707,0-10.333-4.626-10.333-10.333
				v-77.494c0-5.707,4.626-10.333,10.333-10.333h77.494c5.707,0,10.333,4.626,10.333,10.333V347.07z"/>
			<path fill="none" stroke="#3E3A39" stroke-width="3" stroke-miterlimit="10" d="M247.324,347.07
				c0,5.707-4.626,10.333-10.333,10.333h-77.494c-5.707,0-10.333-4.626-10.333-10.333v-77.494c0-5.707,4.626-10.333,10.333-10.333
				h77.494c5.707,0,10.333,4.626,10.333,10.333V347.07z"/>
		</g>
	</g>
	<g opacity="0.8">
		
			<image overflow="visible" opacity="0.75" width="547" height="547" xlink:href="F7B39AF.png"  transform="matrix(0.24 0 0 0.24 140.3506 579.5498)">
		</image>
		<g>
			<path fill="#EFEFEF" d="M248.01,676.876c0,5.707-4.626,10.332-10.333,10.332h-77.494c-5.707,0-10.333-4.625-10.333-10.332
				v-77.494c0-5.707,4.626-10.332,10.333-10.332h77.494c5.707,0,10.333,4.625,10.333,10.332V676.876z"/>
			<path fill="none" stroke="#3E3A39" stroke-width="3" stroke-miterlimit="10" d="M248.01,676.876
				c0,5.707-4.626,10.332-10.333,10.332h-77.494c-5.707,0-10.333-4.625-10.333-10.332v-77.494c0-5.707,4.626-10.332,10.333-10.332
				h77.494c5.707,0,10.333,4.625,10.333,10.332V676.876z"/>
		</g>
	</g>
	<g opacity="0.8">
		
			<image overflow="visible" opacity="0.75" width="547" height="547" xlink:href="F7B39AA.png"  transform="matrix(0.24 0 0 0.24 729.7744 413.6992)">
		</image>
		<g>
			<path fill="#EFEFEF" d="M837.433,511.025c0,5.707-4.625,10.332-10.332,10.332h-77.494c-5.707,0-10.332-4.625-10.332-10.332
				v-77.494c0-5.707,4.625-10.332,10.332-10.332h77.494c5.707,0,10.332,4.625,10.332,10.332V511.025z"/>
			<path fill="none" stroke="#3E3A39" stroke-width="3" stroke-miterlimit="10" d="M837.433,511.025
				c0,5.707-4.625,10.332-10.332,10.332h-77.494c-5.707,0-10.332-4.625-10.332-10.332v-77.494c0-5.707,4.625-10.332,10.332-10.332
				h77.494c5.707,0,10.332,4.625,10.332,10.332V511.025z"/>
		</g>
	</g>
	<g opacity="0.8">
		
			<image overflow="visible" opacity="0.75" width="547" height="547" xlink:href="F7B39AB.png"  transform="matrix(0.24 0 0 0.24 344.3403 94.4214)">
		</image>
		<g>
			<path fill="#EFEFEF" d="M451.999,191.748c0,5.707-4.625,10.332-10.332,10.332h-77.494c-5.707,0-10.332-4.625-10.332-10.332
				v-77.495c0-5.707,4.625-10.332,10.332-10.332h77.494c5.707,0,10.332,4.625,10.332,10.332V191.748z"/>
			<path fill="none" stroke="#3E3A39" stroke-width="3" stroke-miterlimit="10" d="M451.999,191.748
				c0,5.707-4.625,10.332-10.332,10.332h-77.494c-5.707,0-10.332-4.625-10.332-10.332v-77.495c0-5.707,4.625-10.332,10.332-10.332
				h77.494c5.707,0,10.332,4.625,10.332,10.332V191.748z"/>
		</g>
	</g>
	<g opacity="0.8">
		
			<image overflow="visible" opacity="0.75" width="547" height="547" xlink:href="F7B39B5.png"  transform="matrix(0.24 0 0 0.24 1034.8926 94.4214)">
		</image>
		<g>
			<path fill="#EFEFEF" d="M1142.551,191.748c0,5.707-4.625,10.332-10.332,10.332h-77.494c-5.707,0-10.332-4.625-10.332-10.332
				v-77.495c0-5.707,4.625-10.332,10.332-10.332h77.494c5.707,0,10.332,4.625,10.332,10.332V191.748z"/>
			<path fill="none" stroke="#3E3A39" stroke-width="3" stroke-miterlimit="10" d="M1142.551,191.748
				c0,5.707-4.625,10.332-10.332,10.332h-77.494c-5.707,0-10.332-4.625-10.332-10.332v-77.495c0-5.707,4.625-10.332,10.332-10.332
				h77.494c5.707,0,10.332,4.625,10.332,10.332V191.748z"/>
		</g>
	</g>
	<g opacity="0.1">
		
			<image overflow="visible" opacity="0.75" width="937" height="547" xlink:href="F7B39B7.png"  transform="matrix(0.24 0 0 0.24 660.7539 190.4204)">
		</image>
		<g>
			<radialGradient id="SVGID_1_" cx="766.127" cy="249" r="76.159" gradientUnits="userSpaceOnUse">
				<stop  offset="0.5744" style="stop-color:#000000;stop-opacity:0"/>
				<stop  offset="0.7977" style="stop-color:#000000;stop-opacity:0.6512"/>
				<stop  offset="1" style="stop-color:#000000;stop-opacity:0.95"/>
			</radialGradient>
			<path fill="url(#SVGID_1_)" d="M862,287.747c0,5.707-9.035,10.332-20.184,10.332h-151.38c-11.148,0-20.183-4.625-20.183-10.332
				v-77.495c0-5.707,9.034-10.332,20.183-10.332h151.38c11.148,0,20.184,4.625,20.184,10.332V287.747z"/>
			<path fill="none" stroke="#3E3A39" stroke-width="3" stroke-miterlimit="10" d="M862,287.747c0,5.707-9.035,10.332-20.184,10.332
				h-151.38c-11.148,0-20.183-4.625-20.183-10.332v-77.495c0-5.707,9.034-10.332,20.183-10.332h151.38
				c11.148,0,20.184,4.625,20.184,10.332V287.747z"/>
		</g>
	</g>
	<g opacity="0.1">
		
			<image overflow="visible" opacity="0.75" width="940" height="547" xlink:href="F7B39BA.png"  transform="matrix(0.24 0 0 0.24 494.7617 307.9136)">
		</image>
		<g>
			
				<radialGradient id="SVGID_2_" cx="1166.688" cy="366.4932" r="49.0791" gradientTransform="matrix(1.9621 0 0 1 -1688.5537 0)" gradientUnits="userSpaceOnUse">
				<stop  offset="0.5744" style="stop-color:#000000;stop-opacity:0"/>
				<stop  offset="0.7977" style="stop-color:#000000;stop-opacity:0.6512"/>
				<stop  offset="1" style="stop-color:#000000;stop-opacity:0.95"/>
			</radialGradient>
			<path fill="url(#SVGID_2_)" d="M696.854,405.24c0,5.707-9.074,10.332-20.271,10.332H524.534
				c-11.197,0-20.272-4.625-20.272-10.332v-77.495c0-5.707,9.075-10.332,20.272-10.332h152.048c11.197,0,20.271,4.625,20.271,10.332
				V405.24z"/>
			<path fill="none" stroke="#3E3A39" stroke-width="3" stroke-miterlimit="10" d="M696.854,405.24
				c0,5.707-9.074,10.332-20.271,10.332H524.534c-11.197,0-20.272-4.625-20.272-10.332v-77.495c0-5.707,9.075-10.332,20.272-10.332
				h152.048c11.197,0,20.271,4.625,20.271,10.332V405.24z"/>
		</g>
	</g>
	<g opacity="0.1">
		
			<image overflow="visible" opacity="0.75" width="940" height="547" xlink:href="F7B39BB.png"  transform="matrix(0.24 0 0 0.24 370.6582 580.9766)">
		</image>
		<g>
			
				<radialGradient id="SVGID_3_" cx="1103.4365" cy="639.5557" r="49.0789" gradientTransform="matrix(1.9621 0 0 1 -1688.5537 0)" gradientUnits="userSpaceOnUse">
				<stop  offset="0.5744" style="stop-color:#000000;stop-opacity:0"/>
				<stop  offset="0.7977" style="stop-color:#000000;stop-opacity:0.6512"/>
				<stop  offset="1" style="stop-color:#000000;stop-opacity:0.95"/>
			</radialGradient>
			<path fill="url(#SVGID_3_)" d="M572.75,678.303c0,5.707-9.074,10.332-20.271,10.332H400.431
				c-11.197,0-20.272-4.625-20.272-10.332v-77.494c0-5.707,9.075-10.332,20.272-10.332h152.048c11.197,0,20.271,4.625,20.271,10.332
				V678.303z"/>
			<path fill="none" stroke="#3E3A39" stroke-width="3" stroke-miterlimit="10" d="M572.75,678.303
				c0,5.707-9.074,10.332-20.271,10.332H400.431c-11.197,0-20.272-4.625-20.272-10.332v-77.494c0-5.707,9.075-10.332,20.272-10.332
				h152.048c11.197,0,20.271,4.625,20.271,10.332V678.303z"/>
		</g>
	</g>
	<path opacity="0.8" fill="none" stroke="#3E3A39" stroke-width="3" stroke-miterlimit="10" d="M696.854,405.388
		c0,6.199-9.689,11.224-21.643,11.224H527.258c-11.953,0-21.643-5.025-21.643-11.224v-76.737c0-6.199,9.689-11.224,21.643-11.224
		h147.953c11.953,0,21.643,5.025,21.643,11.224V405.388z"/>
	<path opacity="0.8" fill="none" stroke="#3E3A39" stroke-width="3" stroke-miterlimit="10" d="M861.918,288.287
		c0,6.439-9.706,11.659-21.681,11.659h-148.22c-11.975,0-21.681-5.22-21.681-11.659v-79.708c0-6.439,9.706-11.659,21.681-11.659
		h148.22c11.975,0,21.681,5.22,21.681,11.659V288.287z"/>
	<path opacity="0.8" fill="none" stroke="#3E3A39" stroke-width="3" stroke-miterlimit="10" d="M572.75,678.45
		c0,6.199-9.689,11.224-21.643,11.224H403.154c-11.953,0-21.643-5.024-21.643-11.224v-76.737c0-6.199,9.689-11.224,21.643-11.224
		h147.953c11.953,0,21.643,5.024,21.643,11.224V678.45z"/>
</g>
<g id="图元">
	<rect x="455" y="617.238" opacity="0.6" fill="#FCFCFC" width="35" height="33.262"/>
	<g>
		<g>
			<defs>
				<rect id="SVGID_22_" x="358.602" y="107.891" width="86.997" height="87.09"/>
			</defs>
			<clipPath id="SVGID_4_">
				<use xlink:href="#SVGID_22_"  overflow="visible"/>
			</clipPath>
			<path clip-path="url(#SVGID_4_)" fill="#B1B1B1" d="M402.053,194.875c-24.005,0-43.464-19.459-43.464-43.464
				s19.459-43.464,43.464-43.464c24.004,0,43.464,19.459,43.464,43.464S426.058,194.875,402.053,194.875L402.053,194.875z
				 M402.053,189.441c21.004,0,38.031-17.027,38.031-38.031c0-21.004-17.027-38.031-38.031-38.031
				c-21.004,0-38.031,17.027-38.031,38.031C364.022,172.414,381.049,189.441,402.053,189.441L402.053,189.441z M402.053,189.441"/>
		</g>
		<path fill="#626262" d="M418.325,118.812l-38.004,38.032h16.298l-10.866,27.165l43.465-38.042h-21.732L418.325,118.812z
			 M418.325,118.812"/>
	</g>
	<g>
		<path fill="#5CB7DF" d="M1117.534,138.639c-0.525-0.917-1.7-1.232-2.617-0.697l-5.521,3.19v-5.511
			c0-0.631-0.516-1.147-1.146-1.147c-0.63,0-1.146,0.517-1.146,1.147v6.839l-11.683,6.745v-13.499l5.923-3.42
			c0.554-0.315,0.735-1.021,0.419-1.565c-0.314-0.555-1.021-0.736-1.565-0.42l-4.776,2.76v-6.372c0-1.06-0.86-1.919-1.92-1.919
			c-1.061,0-1.92,0.859-1.92,1.919v6.372l-4.776-2.76c-0.554-0.315-1.252-0.134-1.567,0.42c-0.315,0.553-0.134,1.25,0.421,1.565
			l5.923,3.42v13.499l-11.683-6.745v-6.839c0-0.631-0.517-1.147-1.147-1.147s-1.146,0.517-1.146,1.147v5.511l-5.541-3.2
			c-0.918-0.525-2.092-0.22-2.617,0.698c-0.525,0.917-0.22,2.092,0.696,2.618l5.522,3.19l-4.776,2.761
			c-0.554,0.315-0.735,1.022-0.42,1.566c0.21,0.373,0.602,0.573,0.992,0.573c0.191,0,0.393-0.047,0.574-0.152l5.923-3.42
			l11.682,6.744l-11.682,6.745l-5.923-3.42c-0.554-0.315-1.252-0.134-1.566,0.42c-0.315,0.554-0.134,1.251,0.42,1.567l4.776,2.76
			l-5.522,3.191c-0.916,0.525-1.232,1.7-0.696,2.617c0.353,0.612,1.003,0.956,1.662,0.956c0.324,0,0.659-0.086,0.955-0.258
			l5.521-3.19v5.512c0,0.63,0.517,1.146,1.147,1.146c0.629,0,1.146-0.516,1.146-1.146v-6.84l11.682-6.744v13.498l-5.923,3.42
			c-0.553,0.315-0.734,1.022-0.42,1.567c0.211,0.373,0.602,0.573,0.994,0.573c0.191,0,0.392-0.048,0.573-0.153l4.775-2.761v6.372
			c0,1.06,0.86,1.919,1.921,1.919c1.06,0,1.92-0.859,1.92-1.919v-6.372l4.777,2.761c0.181,0.104,0.382,0.153,0.572,0.153
			c0.402,0,0.783-0.21,0.994-0.573c0.315-0.555,0.134-1.251-0.421-1.567l-5.923-3.42v-13.479l11.692,6.744v6.84
			c0,0.63,0.517,1.146,1.147,1.146c0.629,0,1.146-0.516,1.146-1.146v-5.512l5.522,3.19c0.305,0.172,0.629,0.257,0.955,0.257
			c0.658,0,1.309-0.344,1.661-0.955c0.526-0.917,0.22-2.092-0.696-2.617l-5.521-3.191l4.775-2.761
			c0.555-0.315,0.736-1.022,0.421-1.566c-0.315-0.554-1.023-0.735-1.567-0.42l-5.922,3.419l-11.684-6.744l11.684-6.744l5.922,3.42
			c0.182,0.105,0.382,0.152,0.574,0.152c0.401,0,0.782-0.21,0.993-0.573c0.315-0.554,0.134-1.251-0.421-1.566l-4.775-2.761
			l5.521-3.19C1117.754,140.73,1118.06,139.555,1117.534,138.639L1117.534,138.639z M1117.534,138.639"/>
		<path fill="#B1B1B1" d="M1093.202,196.465c-24.004,0-43.464-19.46-43.464-43.465s19.46-43.464,43.464-43.464
			c24.005,0,43.465,19.459,43.465,43.464S1117.207,196.465,1093.202,196.465L1093.202,196.465z M1093.202,191.032
			c21.004,0,38.031-17.027,38.031-38.031c0-21.004-17.027-38.031-38.031-38.031s-38.031,17.027-38.031,38.031
			C1055.171,174.004,1072.198,191.032,1093.202,191.032L1093.202,191.032z M1093.202,191.032"/>
	</g>
	<g opacity="0.6">
		<path fill="#546479" d="M764.656,227.483h59.132c0.453,0,0.888-0.145,0.888-0.888v-14.357c0-0.453-0.452-0.743-0.888-0.743
			h-69.283l-15.97,1.939c0,0-17.168-2.084-17.168,16.876v9.699h-26.14v32.103h135.722V240.01h-66.293V227.483z M732.262,230.311
			c0,0,1.197-5.221,6.127-5.075h0.146v0.145l15.97,2.085h1.342v12.544h-23.585V230.311z M833.631,240.01h2.991v32.248h-2.991V240.01
			z M689.245,240.01h2.991v32.248h-2.991V240.01z M689.245,240.01"/>
		<rect x="796.307" y="221.211" fill="#EEEEEF" width="19.56" height="22.695"/>
		<g>
			<defs>
				<rect id="SVGID_24_" x="686.273" y="205.883" width="153.333" height="76.428"/>
			</defs>
			<clipPath id="SVGID_5_">
				<use xlink:href="#SVGID_24_"  overflow="visible"/>
			</clipPath>
			<path clip-path="url(#SVGID_5_)" fill="#384253" d="M717.924,235.097h17.312v2.085h-17.312V235.097z M695.228,277.08v-40.044
				h-2.991v39.7l-1.993,2.411h-2.629v2.972h11.802v-2.972h-2.483L695.228,277.08z M833.631,276.736v-39.7h-2.972v39.917
				l-1.939,2.194h-2.394v2.972h11.801v-2.972h-2.483L833.631,276.736z M754.505,234.499h11.801v2.393h-11.801V234.499z
				 M737.628,212.093h1.486v14.628h-1.486V212.093z M820.344,209.102h1.486v20.448h-1.486V209.102z M755.629,227.628v-14.792h3.136
				v-6.87h-5.837v6.87h1.196v14.792H755.629z M755.629,227.628"/>
			<path clip-path="url(#SVGID_5_)" fill="#384253" d="M839.613,238.976v-0.906h-0.743v-1.033h-2.99v38.068h2.99v-0.744h0.743
				v-0.888h-0.743v-1.649h0.743v-0.906h-0.743v-1.341h0.743v-0.888h-0.743v-1.341h0.743v-0.907h-0.743v-1.341h0.743v-0.889h-0.743
				v-1.649h0.743v-0.889h-0.743v-1.504h0.743v-0.888h-0.743v-1.341h0.743v-0.906h-0.743v-1.632h0.743v-0.906h-0.743v-1.342h0.743
				v-0.888h-0.743v-1.342h0.743v-0.907h-0.743v-1.341h0.743v-0.889h-0.743v-1.649h0.743v-0.888h-0.743v-1.504h0.743v-0.889h-0.743
				v-1.341h0.743v-0.906h-0.743v-1.632H839.613z M690.007,275.104v-38.068h-2.99v1.033h-0.743v0.906h0.743v1.632h-0.743v0.906h0.743
				v1.341h-0.743v0.889h0.743v1.504h-0.743v0.888h0.743v1.649h-0.743v0.889h0.743v1.341h-0.743v0.907h0.743v1.342h-0.743v0.888
				h0.743v1.342h-0.743v0.906h0.743v1.632h-0.743v0.906h0.743v1.341h-0.743v0.888h0.743v1.504h-0.743v0.889h0.743v1.649h-0.743
				v0.889h0.743v1.341h-0.743v0.907h0.743v1.341h-0.743v0.888h0.743v1.341h-0.743v0.906h0.743v1.649h-0.743v0.888h0.743v0.744
				H690.007z M796.307,244.052h19.56v2.991h-19.56V244.052z M796.307,244.052"/>
		</g>
		<rect x="801.69" y="228.371" fill="#C9CACA" width="8.81" height="8.811"/>
	</g>
	<g>
		<g>
			<defs>
				<rect id="SVGID_26_" x="415.465" y="601.614" width="108.755" height="71.602"/>
			</defs>
			<clipPath id="SVGID_6_">
				<use xlink:href="#SVGID_26_"  overflow="visible"/>
			</clipPath>
			<path clip-path="url(#SVGID_6_)" fill="#515151" d="M447.905,631.063c0.595-13.793-3.02-25.109-8.065-25.278
				c-4.751-0.159-9.081,9.608-10.073,22.261l-5.762-0.088c0,0-8.555,0.469-8.555,10.169h9.869c0,0-0.367-3.226,1.389-3.854
				l2.85,0.191c0.203,11.923,3.579,21.127,8.133,21.276C442.732,655.904,447.313,644.857,447.905,631.063L447.905,631.063z
				 M435.805,638.416c-0.924,0-1.743-1.542-2.143-3.805l2.463,0.089l0.022-6.504l-2.516-0.05c0.41-2.381,1.229-3.994,2.177-3.994
				c1.334,0,2.414,3.195,2.414,7.13C438.223,635.22,437.14,638.416,435.805,638.416L435.805,638.416z M435.805,638.416"/>
		</g>
		<path fill="#515151" d="M515.811,659.56v-9.312c4.9-2.878,8.306-9.148,8.306-16.413c0-9.669-6.014-17.56-13.601-18.073v-0.026
			l-13.501-1.814v-4.188h-4.62v3.561l-10.975-1.865v-4.488h-4.937v3.827l-19.194-3.039v-6.107h-5.396v5.382l-8.605-1.154v0.021
			c4.927,0.577,8.397,11.729,7.813,25.265c-0.585,13.537-5.019,24.432-9.98,24.689l7.094-0.2v2.82l-12.939,0.572v4.693l30.149-2.154
			l0.116,1.794l-14.076,0.828l0.05,8.913l70.116-7.496v-5.901l-2.841-0.319L515.811,659.56z M454.126,658.173l0.675-2.753
			l10.184-0.289l0.174,2.56L454.126,658.173z M458.041,635.277c0.001-4.744,2.533-9.127,6.643-11.501
			c4.109-2.371,9.171-2.37,13.28,0.003c4.108,2.372,6.639,6.757,6.639,11.502c-0.002,7.335-5.948,13.28-13.283,13.277
			C463.986,648.558,458.041,642.612,458.041,635.277L458.041,635.277z M483.884,654.406v2.255l-13.098,0.639v-2.425L483.884,654.406
			z M470.8,662.81l-0.013-1.901l21.897-1.757v-2.869l-3.542,0.159l0.401-2.194l18.86-1.036l1.294,6.588L470.8,662.81z M470.8,662.81
			"/>
		<path fill="#727171" d="M475.917,631.372l-0.091-0.024c0.125,0.619,0.088,1.251-0.116,1.9c-0.306,0.97-0.496,0.97-0.823,2.027
			c-0.066-0.096-0.5-0.757-0.132-2.031c0.282-1.475-0.445-2.952-1.459-4.469c-0.983-1.476-2.429-2.586-3.794-2.865h-0.068
			l0.024,0.07c0.444,2.248-0.821,3.418-2.313,4.728c-1.49,1.308-3.124,2.813-3.372,5.749c-0.319,3.857,2.207,6.566,3.736,7.821
			c0.092,0.066,0.183,0.091,0.286,0.091c0.159,0,0.284-0.068,0.376-0.187c0.085-0.129,0.095-0.291,0.024-0.428
			c-1.206-3.15,1.263-5.182,2.05-5.737c-0.648,3.838,2.541,6.854,3.253,6.606c2.926-1.022,4.813-3.087,5.281-5.875
			C479.28,635.766,478.017,632.463,475.917,631.372L475.917,631.372z M475.917,631.372"/>
	</g>
	<g opacity="0.9">
		<path fill="#C0E1F7" d="M233.143,303.131c1.376,0,2.477-1.1,2.477-2.477v-9.632c0,0,0-0.275-0.275-0.275l-0.275-0.275
			l-0.275-0.275c0,0-0.275-0.276-0.55-0.276l-27.245-9.632c-0.275-0.275-0.826-0.275-1.101-0.275c-0.275,0-0.826,0-1.101,0.275
			l-27.245,9.632c-0.275,0-0.275,0-0.551,0.276l-0.274,0.275l-0.276,0.275l-0.274,0.275v9.632c0,1.376,1.101,2.477,2.477,2.477
			s2.477-1.1,2.477-2.477v-2.477h14.311v5.229l-17.338,6.055c-0.275,0-0.275,0-0.55,0.275l-0.275,0.275l-0.275,0.275l-0.274,0.275
			v1.926c-0.826,1.101-1.651,2.751-2.202,4.678c-3.853-1.101-7.155-0.825-8.531,0.826c-1.376,2.202,0,5.779,3.302,9.357
			c-3.302,3.578-4.678,7.43-3.302,9.357c1.375,1.926,4.403,1.926,8.531,0.826c1.376,3.853,3.302,6.33,5.504,6.33
			c2.202,0,4.128-2.477,5.504-6.33c3.853,1.101,7.155,0.825,8.531-0.826c1.376-2.202,0-5.779-3.302-9.357
			c3.302-3.578,4.679-7.43,3.302-9.357c-0.826-1.376-2.751-1.651-4.953-1.651c4.403-0.826,7.981-0.275,9.356,1.926
			c0.826,1.101,0.826,2.477,0.55,4.128l3.853,3.027l-6.33,4.954c1.101,1.651,1.926,3.028,2.202,4.403l7.981-6.329l22.291,17.613
			h3.302c0,0,0.275,0,0.275-0.275h0.275c0,0,0.275,0,0.275-0.275v-2.752l-12.935-26.144h12.109v3.027
			c0,1.376,1.102,2.476,2.477,2.476c1.376,0,2.477-1.1,2.477-2.476v-9.632c0,0,0-0.275-0.275-0.275l-0.275-0.275l-0.275-0.275
			c0,0-0.275-0.275-0.55-0.275l-17.337-6.054v-5.229h14.31v2.477C230.666,302.031,231.767,303.131,233.143,303.131L233.143,303.131z
			 M194.615,312.764h-9.357c0.826,1.102,1.651,2.477,2.202,4.128c-1.101,0-2.202,0.275-3.578,0.551
			c-1.376-3.853-3.302-6.33-5.504-6.33h-0.826c0.826-0.55,1.926-1.101,3.027-1.101c1.376,0,2.751,0.551,3.853,1.927l9.907-3.578
			v4.403H194.615z M194.615,312.764"/>
		<g>
			<defs>
				<rect id="SVGID_28_" x="156.286" y="268.718" width="81.04" height="77.439"/>
			</defs>
			<clipPath id="SVGID_7_">
				<use xlink:href="#SVGID_28_"  overflow="visible"/>
			</clipPath>
			<path clip-path="url(#SVGID_7_)" fill="#145BAA" d="M174.525,323.497c-0.826-0.55-1.651-0.55-2.477,0
				c-0.826,0.551-1.101,1.376-1.101,2.202s0.55,1.651,1.101,2.201c0.826,0.551,1.651,0.551,2.477,0
				c0.826-0.55,1.101-1.375,1.101-2.201C175.901,324.598,175.351,323.771,174.525,323.497L174.525,323.497z M174.525,323.497"/>
			<path clip-path="url(#SVGID_7_)" fill="#145BAA" d="M189.936,314.415c-1.376-2.201-5.229-2.477-9.907-1.101
				c-1.376-4.678-3.853-7.706-6.604-7.706c-2.752,0-4.954,3.027-6.605,7.706c-4.679-1.376-8.531-1.101-9.908,1.101
				c-1.651,2.477,0,6.88,3.854,11.284c-3.854,4.403-5.505,8.806-3.854,11.283c1.376,2.202,5.229,2.477,9.908,1.101
				c1.376,4.678,3.853,7.706,6.605,7.706c2.752,0,4.954-3.027,6.604-7.706c4.679,1.376,8.531,1.101,9.907-1.101
				c1.651-2.478,0-6.88-3.853-11.283C189.936,321.02,191.587,316.892,189.936,314.415L189.936,314.415z M159.664,334.78
				c-0.826-1.375,0.275-4.127,3.302-7.155c0.826,0.826,1.651,1.376,2.477,2.202c0.276,1.926,0.551,3.578,0.826,5.229
				C162.966,335.881,160.489,336.156,159.664,334.78L159.664,334.78z M164.893,325.699
				C165.168,325.699,165.168,325.423,164.893,325.699C165.168,325.699,165.168,325.699,164.893,325.699
				C165.168,325.699,165.168,325.699,164.893,325.699L164.893,325.699z M165.168,321.295c-0.825,0.825-1.651,1.376-2.477,2.202
				c-2.752-3.027-4.128-5.779-3.303-7.155c0.825-1.102,3.303-1.102,6.33-0.275C165.719,317.718,165.443,319.369,165.168,321.295
				L165.168,321.295z M178.102,318.818C178.102,318.818,177.827,318.818,178.102,318.818c-0.55-0.275-1.101-0.55-1.375-1.101
				c0.55-0.275,0.825-0.275,1.375-0.551C177.827,317.718,177.827,318.268,178.102,318.818L178.102,318.818z M173.424,308.911
				c1.376,0,2.752,1.926,3.853,5.229c-1.101,0.55-2.477,1.1-3.853,1.651c-1.376-0.551-2.477-1.101-3.853-1.651
				C170.397,311.113,171.773,308.911,173.424,308.911L173.424,308.911z M168.746,317.167c0.275,0.275,0.826,0.275,1.376,0.551
				c-0.551,0.275-1.101,0.55-1.376,0.825V317.167z M168.746,332.304c0.55,0.275,1.101,0.55,1.376,1.101
				c-0.551,0.275-0.826,0.275-1.376,0.55V332.304z M173.424,341.935c-1.376,0-2.752-1.926-3.853-5.229
				c1.101-0.551,2.477-1.101,3.853-1.651c1.376,0.55,2.477,1.1,3.853,1.651C176.176,340.009,174.8,341.935,173.424,341.935
				L173.424,341.935z M177.827,333.954c-0.275-0.275-0.826-0.275-1.376-0.55c0.551-0.275,1.102-0.551,1.376-0.826V333.954z
				 M178.378,328.175c-0.826,0.55-1.376,1.101-2.202,1.651c-1.101,0.55-1.927,1.375-2.752,1.926
				c-0.826-0.551-1.927-1.101-2.752-1.926c-0.825-0.551-1.376-1.101-2.201-1.651v-5.504c0.825-0.551,1.376-1.101,2.201-1.651
				c1.101-0.55,1.927-1.376,2.752-1.926c0.825,0.55,1.926,1.101,2.752,1.926c0.825,0.55,1.376,1.1,2.202,1.651V328.175z
				 M186.909,334.78c-0.826,1.101-3.302,1.101-6.33,0.276c0.275-1.651,0.55-3.303,0.825-5.229c0.826-0.826,1.651-1.376,2.477-2.202
				C186.633,330.652,188.01,333.404,186.909,334.78L186.909,334.78z M181.68,325.699C181.68,325.423,181.68,325.699,181.68,325.699
				L181.68,325.699z M183.882,323.497c-0.826-0.825-1.651-1.376-2.477-2.202c-0.275-1.926-0.55-3.577-0.825-5.229
				c3.302-1.101,5.504-1.101,6.33,0.275C188.01,317.718,186.633,320.47,183.882,323.497L183.882,323.497z M183.882,323.497"/>
		</g>
		<path fill="#145BAA" d="M233.693,295.151c1.651,0,1.926-1.376,1.926-2.753v-10.457c0-0.275,0-0.275-0.275-0.551
			c0-0.275-0.275-0.275-0.275-0.55c0-0.275-0.275-0.275-0.275-0.275c-0.275,0-0.275-0.275-0.55-0.275
			c-0.275,0-0.275-0.275-0.55-0.275l-30.823-11.008c-0.275-0.275-0.825-0.275-1.376-0.275c-0.55,0-0.826,0-1.376,0.275
			l-30.823,11.008c-0.275,0-0.275,0-0.55,0.275c-0.275,0-0.275,0.275-0.55,0.275c-0.276,0-0.276,0.275-0.276,0.275
			c0,0.275-0.275,0.275-0.275,0.55c0,0.275,0,0.275-0.275,0.551v11.008c0,1.651,0.55,2.751,1.926,2.751s1.651-1.375,1.651-2.751
			v-2.752h18.164v6.054l-19.815,6.879c-0.275,0-0.275,0-0.55,0.275c-0.275,0-0.275,0.276-0.55,0.276
			c-0.276,0-0.276,0.275-0.276,0.275c0,0.275-0.275,0.275-0.275,0.55c0,0.275,0,0.275-0.275,0.55v3.302
			c1.651-2.751,3.853-4.128,6.055-4.128c1.651,0,2.752-1.101,4.128,0.275l11.559-4.128v7.431h-9.357
			c1.101,1.376,0.551,2.201,1.376,4.128c4.954-1.101,9.082-0.275,10.732,2.202c0.826,1.376,3.303,3.027,2.752,4.954l3.853,3.302
			l-7.155,5.779c1.1,1.651,2.201,2.201,2.751,3.853l7.431-6.055l25.319,19.815h0.825c0.275,0,0.275,0,0.55,0.275h1.927
			c0,0,0.275,0,0.275-0.275l0.275-0.275l0.275-0.275c0,0,0-0.275,0.275-0.275c0.275-0.275,0.275-0.275,0.275-0.55v-2.202
			l-14.86-29.722h15.411v3.302c0,1.651,0.55,2.752,2.202,2.752c1.651,0,1.651-1.376,1.651-2.752v-10.457
			c0-0.276,0-0.276-0.275-0.551c0-0.275-0.275-0.275-0.275-0.55c0-0.275-0.275-0.275-0.275-0.275c-0.275,0-0.275-0.275-0.551-0.275
			c-0.275,0-0.275-0.276-0.55-0.276l-19.814-6.88v-6.054h17.888v2.752C231.491,294.05,232.042,295.151,233.693,295.151
			L233.693,295.151z M191.587,285.244h-20.64v-1.926l20.64-6.88V285.244z M195.715,276.713v-1.376l5.229-2.477l5.229,2.477v9.907
			H195.44v-8.531H195.715z M194.615,289.647h13.484v3.853l-4.953-1.651c-0.551-0.275-1.101-0.55-1.927-0.55
			c-0.55,0-1.375,0.275-1.926,0.55l-4.954,1.651v-3.853H194.615z M193.238,298.178l8.256-3.027l8.256,3.027v8.807h-16.237v-8.807
			H193.238z M201.219,319.094l-8.807-7.155v-0.275h17.613c0.826,0,0,0.275,0,0.275L201.219,319.094z M226.538,340.009
			l-22.291-18.163l7.981-6.605C212.228,314.415,216.906,322.671,226.538,340.009L226.538,340.009z M230.941,305.884l-0.275,1.651
			h-17.063v-7.431L230.941,305.884z M210.852,285.519v-8.806l20.64,6.88v1.926H210.852z M210.852,285.519"/>
	</g>
	<g>
		<g>
			<defs>
				<rect id="SVGID_30_" x="169.075" y="602.663" width="59.711" height="70.933"/>
			</defs>
			<clipPath id="SVGID_8_">
				<use xlink:href="#SVGID_30_"  overflow="visible"/>
			</clipPath>
			<path clip-path="url(#SVGID_8_)" fill="#D0342A" d="M209.906,633.389c-7.08-7.866-7.08-17.307-7.08-30.681
				c-21.961,8.654-16.521,32.254-17.307,40.121c-5.507-4.721-7.08-15.733-7.08-15.733c-6.228,3.146-9.375,11.013-9.375,17.307
				c0,15.733,13.374,29.107,29.829,29.107c16.455,0,29.829-12.587,29.829-29.107c0-9.44-7.08-14.16-7.08-26.747
				C211.479,620.802,209.906,628.668,209.906,633.389L209.906,633.389z M209.906,633.389"/>
		</g>
		<path fill="#E2B51E" d="M198.237,640.075c10.555,4,8.129,15.209,8.129,18.356c2.426-2.426,3.212-7.211,3.212-7.211
			c2.425,1.573,4.064,4.785,4.064,7.997c0,7.212-6.49,13.57-13.767,13.57s-13.767-6.425-13.767-13.57
			C186.896,652.072,198.237,646.5,198.237,640.075L198.237,640.075z M198.237,640.075"/>
	</g>
	<g>
		<path opacity="0.6" fill="#FFFFFF" d="M640.387,366.242c0,3.18-5.373,5.758-12,5.758h-55.936c-6.628,0-12-2.578-12-5.758V339.4
			c0-3.18,5.372-5.758,12-5.758h55.936c6.627,0,12,2.578,12,5.758V366.242z"/>
		<g>
			<path fill="#515151" d="M632.893,331.671h-62.988c-5.301,0-9.646,4.298-9.646,9.586v22.731c0.011,5.318,4.327,9.624,9.646,9.623
				h63.027c5.316,0.001,9.635-4.304,9.645-9.623v-22.731C642.527,335.944,638.203,331.666,632.893,331.671L632.893,331.671z
				 M638.191,364.894c0,2.56-2.027,4.669-4.514,4.669h-64.812c-2.481,0-4.507-2.106-4.507-4.669V340.68
				c0-2.563,2.025-4.669,4.507-4.669h64.812c2.484,0,4.514,2.106,4.514,4.669V364.894z M630.285,352.62H570.77
				c-0.956,0.004-1.731,0.778-1.737,1.734c0,0.951,0.786,1.737,1.737,1.737h59.515c0.959-0.006,1.729-0.781,1.736-1.737
				c-0.008-0.954-0.777-1.727-1.732-1.734H630.285z M630.285,359.603H570.77c-0.956,0.003-1.729,0.776-1.737,1.73
				c0,0.952,0.786,1.738,1.737,1.738h59.515c0.957-0.006,1.729-0.779,1.736-1.734c-0.008-0.956-0.777-1.729-1.732-1.737
				L630.285,359.603z M579.503,381.999c-1.117-3.014-3.849-4.09-4.18-4.212c-0.432-0.162-0.909-0.145-1.328,0.048
				c-0.419,0.191-0.744,0.542-0.903,0.974v0.011c-0.332,0.892,0.12,1.883,1.011,2.22l0.022,0.012c0,0,1.527,0.618,2.108,2.148
				c0.5,1.32,0.123,3.097-1.033,5.206c-4.056,7.15-0.375,11.735,2.151,13.179c0.262,0.158,0.562,0.244,0.866,0.25
				c0.794,0.012,1.498-0.512,1.713-1.276c0.217-0.763-0.109-1.578-0.793-1.982l-0.008-0.006c-0.412-0.25-4.097-2.688-0.824-8.431
				C579.958,387.082,580.373,384.354,579.503,381.999L579.503,381.999z M602.681,381.999c-1.115-3.014-3.85-4.09-4.182-4.212
				c-0.432-0.162-0.91-0.145-1.327,0.048c-0.42,0.191-0.744,0.542-0.903,0.974l-0.003,0.011c-0.329,0.892,0.121,1.882,1.01,2.22
				l0.022,0.012c0,0,1.533,0.618,2.112,2.148c0.496,1.32,0.122,3.097-1.036,5.206c-4.053,7.15-0.369,11.735,2.151,13.179
				c0.263,0.159,0.565,0.244,0.872,0.25c0.796,0.014,1.5-0.512,1.716-1.277c0.216-0.767-0.112-1.583-0.8-1.985l-0.005-0.003
				c-0.415-0.25-4.099-2.688-0.828-8.431C603.135,387.082,603.552,384.354,602.681,381.999L602.681,381.999z M591.422,384.233
				c-1.2-3.226-4.306-4.423-4.427-4.466c-0.432-0.162-0.91-0.145-1.33,0.048c-0.418,0.192-0.742,0.544-0.901,0.977v0.008
				c-0.333,0.888,0.107,1.881,0.991,2.231c0.883,0.35,1.777,0.704,2.358,2.441c0.539,1.487,0.122,3.386-1.161,5.703
				c-5.379,9.543,2.195,14.005,2.277,14.047c0.264,0.158,0.563,0.244,0.871,0.248c0.795,0.013,1.5-0.511,1.716-1.276
				c0.216-0.768-0.113-1.583-0.8-1.985l-0.006-0.003c-0.499-0.29-4.556-2.978-0.953-9.299
				C591.88,389.6,592.333,386.711,591.422,384.233L591.422,384.233z M629.434,387.766c1.045-0.576,1.43-1.889,0.861-2.938
				l-0.064-0.103c-0.281-0.507-0.754-0.88-1.311-1.039c-0.559-0.156-1.158-0.084-1.662,0.202l-0.072,0.042
				c-0.68,0.396-1.092,1.129-1.078,1.916l-3.275,1.918v-3.883c0-0.045,0.045-0.045,0.045-0.094c0.682-0.379,1.109-1.091,1.125-1.871
				c0.016-1.224-0.963-2.228-2.186-2.245h-0.063c-0.59-0.01-1.156,0.215-1.578,0.625c-0.422,0.411-0.664,0.971-0.67,1.559v0.06
				c0,0.937,0.563,1.732,1.355,2.059v4.115l-3.84-2.198c0.002-0.784-0.408-1.512-1.079-1.917c-1.063-0.604-2.414-0.252-3.047,0.794
				c-0.602,1.063-0.249,2.412,0.798,3.043c0.702,0.42,1.548,0.326,2.203,0l3.47,1.964l-3.47,1.964c-0.681-0.397-1.522-0.397-2.203,0
				c-1.046,0.578-1.429,1.892-0.856,2.942l0.059,0.101c0.283,0.507,0.757,0.879,1.314,1.036c0.559,0.157,1.156,0.084,1.661-0.201
				l0.071-0.039c0.68-0.398,1.092-1.132,1.079-1.919l3.84-2.199v4.076c-0.828,0.348-1.363,1.16-1.355,2.057
				c0,1.264,0.984,2.245,2.248,2.245c0.598,0.008,1.172-0.226,1.598-0.648c0.422-0.421,0.654-0.996,0.65-1.594
				c0-0.808-0.451-1.549-1.17-1.918v-3.889l3.277,1.919c0,0.747,0.375,1.496,1.08,1.917c1.063,0.599,2.41,0.248,3.041-0.796
				c0.604-1.061,0.252-2.41-0.793-3.04c-0.703-0.426-1.547-0.329-2.201,0l-3.467-1.964l3.467-1.967
				c0.654,0.234,1.496,0.326,2.203-0.094H629.434z M629.434,387.766"/>
		</g>
	</g>
	<g opacity="0.6">
		<g>
			<defs>
				<rect id="SVGID_32_" x="745.182" y="429.34" width="85.784" height="85.877"/>
			</defs>
			<clipPath id="SVGID_9_">
				<use xlink:href="#SVGID_32_"  overflow="visible"/>
			</clipPath>
			<path clip-path="url(#SVGID_9_)" fill="#5CB7DF" d="M788.028,515.112c-23.572,0-42.859-19.286-42.859-42.858
				c0-23.571,19.287-42.858,42.859-42.858c23.571,0,42.857,19.287,42.857,42.858C830.886,495.826,811.6,515.112,788.028,515.112
				L788.028,515.112z M788.028,515.112"/>
		</g>
		<path fill="#2991B1" d="M830.676,476.454l-37.849-16.922c0,0-3.235-1.45-6.944-0.768c-4.14,0.76-11.922,3.925-11.916,13.226
			c0.004,5.689,2.143,8.619,2.143,8.619l10.382,34.463c0.511,0.02,1.021,0.04,1.537,0.04
			C810.182,515.112,828.549,498.073,830.676,476.454L830.676,476.454z M830.676,476.454"/>
		<path fill="#EDB822" d="M777.015,481.044c-1.855-2.334-2.966-5.288-2.966-8.502c0-7.548,6.12-13.667,13.667-13.667
			c7.549,0,13.669,6.119,13.669,13.667c0,7.549-6.12,13.668-13.669,13.668c-1.891,0-3.694-0.385-5.333-1.08"/>
		<path fill="#474341" d="M787.716,486.769c-1.924,0-3.793-0.379-5.551-1.125c-0.284-0.12-0.416-0.447-0.296-0.731
			c0.12-0.283,0.447-0.415,0.729-0.295c1.621,0.688,3.343,1.035,5.117,1.035c7.229,0,13.109-5.882,13.109-13.109
			c0-7.229-5.88-13.111-13.109-13.111s-13.108,5.883-13.108,13.111c0,2.994,0.983,5.814,2.844,8.153
			c0.192,0.24,0.15,0.593-0.09,0.783c-0.241,0.192-0.592,0.152-0.784-0.089c-2.018-2.538-3.086-5.599-3.086-8.848
			c0-7.845,6.382-14.226,14.225-14.226c7.845,0,14.226,6.381,14.226,14.226C801.942,480.387,795.562,486.769,787.716,486.769
			 M791.997,451.343c-0.163,0-0.317-0.071-0.424-0.193c-0.107-0.123-0.152-0.286-0.128-0.448l0.431-2.843
			c0.046-0.304,0.335-0.515,0.635-0.468c0.146,0.023,0.277,0.103,0.365,0.222c0.088,0.118,0.124,0.267,0.102,0.413l-0.432,2.843
			C792.506,451.141,792.272,451.342,791.997,451.343 M791.205,456.577c-0.164,0-0.319-0.07-0.425-0.193s-0.152-0.286-0.128-0.447
			l0.502-3.315c0.046-0.303,0.331-0.517,0.635-0.466c0.305,0.047,0.514,0.33,0.468,0.634l-0.502,3.315
			C791.713,456.376,791.479,456.576,791.205,456.577 M775.739,455.139c-0.176,0.001-0.343-0.085-0.448-0.228l-1.567-2.127
			c-0.088-0.119-0.125-0.268-0.103-0.413c0.022-0.146,0.102-0.278,0.22-0.365c0.118-0.089,0.269-0.126,0.415-0.104
			c0.146,0.022,0.278,0.103,0.365,0.223l1.566,2.126c0.087,0.118,0.125,0.269,0.103,0.414c-0.021,0.145-0.101,0.278-0.22,0.364
			C775.975,455.1,775.859,455.139,775.739,455.139 M779.018,459.59c-0.177,0-0.343-0.085-0.448-0.229l-1.846-2.506
			c-0.088-0.118-0.124-0.267-0.103-0.414c0.021-0.146,0.102-0.275,0.221-0.365c0.247-0.185,0.596-0.13,0.779,0.119l1.847,2.506
			c0.086,0.119,0.125,0.268,0.102,0.414c-0.021,0.146-0.101,0.278-0.22,0.364C779.249,459.554,779.133,459.59,779.018,459.59
			 M806.019,460.064c-0.177,0-0.343-0.086-0.447-0.229c-0.089-0.119-0.125-0.269-0.104-0.414c0.021-0.146,0.102-0.278,0.221-0.364
			l2.506-1.848c0.119-0.088,0.268-0.124,0.413-0.102c0.147,0.021,0.279,0.1,0.366,0.219c0.089,0.119,0.124,0.269,0.103,0.415
			c-0.022,0.146-0.103,0.278-0.222,0.365l-2.505,1.847C806.255,460.025,806.138,460.064,806.019,460.064 M801.948,463.063
			c-0.178,0-0.345-0.084-0.449-0.228c-0.087-0.119-0.125-0.268-0.103-0.413c0.022-0.147,0.103-0.278,0.221-0.366l2.128-1.566
			c0.119-0.089,0.269-0.126,0.414-0.104c0.147,0.022,0.279,0.103,0.365,0.222c0.089,0.119,0.125,0.268,0.103,0.414
			c-0.021,0.146-0.103,0.278-0.221,0.365l-2.127,1.567C802.183,463.025,802.067,463.063,801.948,463.063"/>
		<path fill="#B1771F" d="M796.956,466.472c0.496,0.738,0.939,1.508,1.352,2.294c0.236,0.447,0.916,0.05,0.68-0.396
			c-0.414-0.788-0.856-1.558-1.352-2.296C797.354,465.657,796.672,466.051,796.956,466.472 M793.041,463.531
			c1.111,0.266,2.045,0.852,2.853,1.651c0.361,0.355,0.918-0.2,0.557-0.557c-0.899-0.889-1.965-1.558-3.2-1.854
			C792.758,462.654,792.547,463.412,793.041,463.531"/>
		<path fill="#474341" d="M784.167,497.762c-0.028,0-0.057-0.003-0.083-0.007c-0.146-0.022-0.278-0.101-0.366-0.22
			s-0.125-0.269-0.103-0.414l0.431-2.843c0.028-0.2,0.161-0.369,0.349-0.443c0.186-0.073,0.397-0.04,0.555,0.085
			c0.156,0.126,0.232,0.326,0.2,0.525l-0.432,2.844C784.676,497.56,784.442,497.761,784.167,497.762 M784.888,492.999
			c-0.161,0-0.315-0.07-0.422-0.193c-0.105-0.124-0.153-0.286-0.13-0.447l0.503-3.315c0.046-0.305,0.335-0.515,0.635-0.468
			c0.146,0.022,0.277,0.102,0.366,0.22c0.087,0.12,0.124,0.269,0.102,0.415l-0.502,3.315
			C785.397,492.796,785.165,492.999,784.888,492.999 M802.421,493.25c-0.178,0-0.343-0.086-0.448-0.229l-1.567-2.126
			c-0.183-0.248-0.131-0.598,0.117-0.78c0.119-0.088,0.269-0.125,0.414-0.103c0.146,0.022,0.278,0.102,0.366,0.222l1.566,2.127
			c0.087,0.118,0.125,0.267,0.103,0.413c-0.022,0.146-0.102,0.278-0.22,0.365C802.656,493.211,802.541,493.25,802.421,493.25
			 M799.422,489.18c-0.177,0-0.344-0.086-0.448-0.229l-1.847-2.506c-0.087-0.119-0.124-0.269-0.103-0.415
			c0.021-0.146,0.102-0.276,0.221-0.364c0.118-0.089,0.269-0.125,0.415-0.104c0.146,0.022,0.277,0.102,0.364,0.223l1.847,2.505
			c0.086,0.119,0.124,0.27,0.102,0.415c-0.021,0.146-0.102,0.277-0.22,0.364C799.652,489.143,799.538,489.18,799.422,489.18
			 M768.068,488.044c-0.177,0.001-0.343-0.083-0.449-0.227c-0.088-0.118-0.124-0.268-0.103-0.414
			c0.022-0.146,0.102-0.276,0.221-0.365l2.506-1.847c0.247-0.184,0.596-0.129,0.78,0.118c0.086,0.119,0.124,0.269,0.101,0.415
			c-0.021,0.146-0.101,0.276-0.22,0.364l-2.506,1.847C768.304,488.006,768.187,488.045,768.068,488.044 M772.519,484.766
			c-0.178,0-0.344-0.085-0.449-0.228c-0.088-0.119-0.124-0.269-0.103-0.413c0.022-0.146,0.101-0.278,0.221-0.366l2.128-1.567
			c0.247-0.184,0.595-0.129,0.779,0.119c0.183,0.248,0.128,0.596-0.118,0.779l-2.128,1.567
			C772.753,484.728,772.638,484.766,772.519,484.766 M770.089,470.926c-0.028,0-0.057-0.003-0.085-0.007l-2.843-0.431
			c-0.146-0.022-0.277-0.102-0.365-0.221s-0.124-0.268-0.103-0.413c0.047-0.305,0.335-0.517,0.635-0.469l2.843,0.433
			c0.21-0.002,0.403,0.115,0.499,0.303c0.096,0.185,0.079,0.411-0.043,0.58C770.503,470.871,770.296,470.958,770.089,470.926
			 M765.326,470.204c-0.027,0-0.055-0.002-0.083-0.006l-3.315-0.503c-0.146-0.022-0.278-0.102-0.367-0.22
			c-0.086-0.119-0.124-0.268-0.101-0.414c0.045-0.305,0.337-0.519,0.633-0.468l3.316,0.502c0.209,0,0.4,0.116,0.497,0.303
			c0.096,0.187,0.079,0.41-0.044,0.58C765.74,470.149,765.533,470.235,765.326,470.204 M813.612,476.905
			c-0.028,0-0.056-0.002-0.085-0.007l-2.844-0.432c-0.146-0.021-0.276-0.101-0.364-0.22c-0.089-0.12-0.125-0.269-0.103-0.414
			c0.047-0.305,0.336-0.515,0.635-0.468l2.843,0.432c0.146,0.021,0.277,0.102,0.366,0.221c0.087,0.118,0.123,0.268,0.102,0.413
			C814.121,476.703,813.887,476.905,813.612,476.905 M808.85,476.184c-0.028,0-0.056-0.002-0.083-0.007l-3.315-0.503
			c-0.146-0.021-0.279-0.1-0.365-0.22c-0.089-0.119-0.126-0.268-0.104-0.414c0.047-0.305,0.335-0.516,0.635-0.467l3.315,0.503
			c0.209-0.001,0.401,0.116,0.497,0.303c0.096,0.185,0.079,0.409-0.043,0.58C809.263,476.127,809.057,476.216,808.85,476.184
			 M772.052,464.092c-0.115,0-0.23-0.035-0.33-0.108l-2.313-1.708c-0.249-0.183-0.302-0.533-0.119-0.779
			c0.182-0.248,0.532-0.301,0.779-0.118l2.314,1.707c0.119,0.089,0.199,0.22,0.219,0.365c0.022,0.146-0.015,0.296-0.102,0.414
			C772.396,464.007,772.229,464.092,772.052,464.092 M804.605,483.832c-0.111,0-0.218-0.034-0.311-0.094l-2.394-1.595
			c-0.256-0.171-0.324-0.517-0.153-0.773c0.17-0.254,0.516-0.324,0.771-0.155l2.394,1.595c0.123,0.081,0.209,0.21,0.237,0.354
			s-0.001,0.295-0.082,0.417C804.965,483.738,804.791,483.832,804.605,483.832 M767.988,477.926c-0.275,0-0.51-0.201-0.551-0.475
			c-0.021-0.146,0.014-0.294,0.104-0.413c0.088-0.12,0.218-0.198,0.365-0.221l2.843-0.429c0.303-0.044,0.588,0.164,0.635,0.469
			c0.046,0.305-0.164,0.589-0.469,0.635l-2.843,0.43C768.045,477.924,768.017,477.926,767.988,477.926 M804.989,469.003
			c-0.286-0.001-0.527-0.218-0.556-0.504c-0.028-0.285,0.165-0.544,0.446-0.601l2.819-0.564c0.304-0.063,0.596,0.134,0.657,0.436
			c0.061,0.302-0.135,0.596-0.437,0.656l-2.82,0.567C805.063,468.999,805.025,469.003,804.989,469.003 M776.913,490.878
			c-0.115,0-0.23-0.034-0.331-0.108c-0.119-0.089-0.198-0.219-0.22-0.366c-0.022-0.146,0.015-0.296,0.104-0.414l1.706-2.313
			c0.089-0.119,0.22-0.198,0.365-0.22c0.146-0.023,0.296,0.015,0.414,0.102c0.119,0.089,0.2,0.221,0.221,0.366
			c0.022,0.147-0.015,0.295-0.103,0.415l-1.708,2.313C777.257,490.795,777.091,490.878,776.913,490.878 M796.767,458.405
			c-0.11,0-0.218-0.033-0.31-0.094c-0.123-0.083-0.208-0.21-0.237-0.354c-0.029-0.146,0-0.296,0.083-0.419l1.594-2.394
			c0.171-0.257,0.516-0.324,0.773-0.154c0.256,0.17,0.324,0.516,0.154,0.772l-1.594,2.394
			C797.127,458.312,796.953,458.405,796.767,458.405 M793.822,492.962c-0.275,0-0.509-0.202-0.549-0.476l-0.43-2.844
			c-0.022-0.146,0.015-0.294,0.103-0.413c0.088-0.12,0.219-0.198,0.364-0.221c0.303-0.042,0.591,0.164,0.637,0.468l0.427,2.846
			c0.024,0.16-0.023,0.322-0.128,0.445C794.14,492.891,793.984,492.962,793.822,492.962 M784.899,455.961
			c-0.265,0-0.494-0.188-0.546-0.447l-0.566-2.819c-0.029-0.145,0-0.295,0.083-0.418c0.082-0.123,0.209-0.21,0.355-0.239
			c0.145-0.028,0.294,0.001,0.418,0.082c0.123,0.083,0.209,0.21,0.237,0.355l0.565,2.82c0.061,0.302-0.136,0.596-0.438,0.657
			C784.974,455.957,784.936,455.961,784.899,455.961"/>
	</g>
</g>
<g id="文字">
	<rect x="341.302" y="74.651" fill="none" width="122.936" height="27.523"/>
	<text transform="matrix(1 0 0 1 380.77 93.5576)" fill="#595757" font-family="'SimHei'" font-size="22">供电</text>
	<rect x="725.433" y="397.546" fill="none" width="122.936" height="27.523"/>
	<text transform="matrix(1 0 0 1 764.9009 416.4526)" fill="#595757" font-family="'SimHei'" font-size="22">供热</text>
	<rect x="417.578" y="562.348" fill="none" width="122.936" height="27.522"/>
	<text transform="matrix(1 0 0 1 435.0454 581.2539)" fill="#595757" font-family="'SimHei'" font-size="22">燃气锅炉</text>
	<rect x="135.338" y="560.517" fill="none" width="122.936" height="27.522"/>
	<text transform="matrix(1 0 0 1 152.8052 579.4219)" fill="#595757" font-family="'SimHei'" font-size="22">市政燃气</text>
	<rect x="135.776" y="231.115" fill="none" width="122.936" height="27.523"/>
	<text transform="matrix(1 0 0 1 153.2446 250.021)" fill="#595757" font-family="'SimHei'" font-size="22">市政电网</text>
	<rect x="539.951" y="289.185" fill="none" width="122.935" height="27.523"/>
	<text transform="matrix(1 0 0 1 557.4185 308.0908)" fill="#595757" font-family="'SimHei'" font-size="22">中央空调</text>
	<rect x="683.376" y="166.497" fill="none" width="161.503" height="27.523"/>
	<text transform="matrix(1 0 0 1 687.1274 185.4033)" fill="#595757" font-family="'SimHei'" font-size="22">离心式冷水机组</text>
	<rect x="707.079" y="300.828" fill="none" width="114.824" height="27.523"/>
	<text transform="matrix(1 0 0 1 731.4912 319.7344)" fill="#595757" font-family="'SimHei'" font-size="22">1600kW</text>
	<rect x="495.595" y="417.338" fill="none" width="114.824" height="27.523"/>
	<text transform="matrix(1 0 0 1 520.0068 436.2441)" fill="#595757" font-family="'SimHei'" font-size="22">4000kW</text>
	<rect x="417.431" y="691.338" fill="none" width="114.824" height="27.523"/>
	<text transform="matrix(1 0 0 1 441.8428 710.2441)" fill="#595757" font-family="'SimHei'" font-size="22">3400kW</text>
	<rect x="1038.586" y="74.651" fill="none" width="107.375" height="27.523"/>
	<text transform="matrix(1 0 0 1 1070.2734 93.5576)" fill="#595757" font-family="'SimHei'" font-size="22">供冷</text>
</g>
</svg>
