<?xml version="1.0" encoding="utf-8"?>
<!-- Generator: Adobe Illustrator 16.0.0, SVG Export Plug-In . SVG Version: 6.00 Build 0)  -->
<!DOCTYPE svg PUBLIC "-//W3C//DTD SVG 1.1//EN" "http://www.w3.org/Graphics/SVG/1.1/DTD/svg11.dtd">
<svg version="1.1" id="图层_1" xmlns="http://www.w3.org/2000/svg" xmlns:xlink="http://www.w3.org/1999/xlink" x="0px" y="0px"
	 width="1190.551px" height="841.891px" viewBox="0 0 1190.551 841.891" enable-background="new 0 0 1190.551 841.891"
	 xml:space="preserve">
<line fill="none" stroke="#F3B919" stroke-width="8" stroke-miterlimit="10" x1="345.968" y1="143.868" x2="345.968" y2="596.468"/>
<g id="参考图片">
</g>
<g id="底图" display="none">
</g>
<polyline fill="none" stroke="#E71F19" stroke-width="8" stroke-miterlimit="10" points="556.742,358.012 556.742,486.18 
	711.061,486.18 "/>
<line fill="none" stroke="#F4BA19" stroke-width="8" stroke-miterlimit="10" x1="616.105" y1="202.106" x2="345.823" y2="202.106"/>
<line fill="none" stroke="#F4BA19" stroke-width="8" stroke-miterlimit="10" x1="422.982" y1="301.894" x2="345.823" y2="301.894"/>
<line fill="none" stroke="#5893C9" stroke-width="9" stroke-miterlimit="10" x1="1031.618" y1="202.106" x2="808.272" y2="202.106"/>
<line fill="none" stroke="#5893C9" stroke-width="9" stroke-miterlimit="10" x1="1038.409" y1="301.894" x2="616.151" y2="301.894"/>
<line fill="none" stroke="#5893C9" stroke-width="9" stroke-miterlimit="10" x1="1037.323" y1="471.353" x2="972.562" y2="471.353"/>
<line fill="none" stroke="#5893C9" stroke-width="9" stroke-miterlimit="10" x1="1035.096" y1="146.187" x2="1035.096" y2="597.367"/>
<line fill="none" stroke="#E71F19" stroke-width="8" stroke-miterlimit="10" x1="710.568" y1="447.596" x2="710.568" y2="819"/>
<line fill="none" stroke="#F4BA19" stroke-width="8" stroke-miterlimit="10" x1="345.806" y1="247.481" x2="193.175" y2="247.481"/>
<line display="none" fill="none" stroke="#E71F19" stroke-width="8" stroke-miterlimit="10" x1="518.602" y1="690.562" x2="711.979" y2="690.562"/>
<line display="none" fill="none" stroke="#763992" stroke-width="8" stroke-miterlimit="10" x1="193.175" y1="526.353" x2="326.01" y2="526.353"/>
<polygon fill="#F4BA19" stroke="#FFFFFF" stroke-width="3" stroke-miterlimit="10" points="326.01,172.236 345.806,155.545 
	365.601,172.236 "/>
<polygon display="none" fill="#E71F19" stroke="#FFFFFF" stroke-width="3" stroke-miterlimit="10" points="606.552,670.766 
	623.243,690.562 606.552,710.357 "/>
<line display="none" fill="none" stroke="#E71F19" stroke-width="8" stroke-miterlimit="10" x1="710.568" y1="645.745" x2="803.95" y2="645.745"/>
<polygon display="none" fill="#E71F19" stroke="#FFFFFF" stroke-width="3" stroke-miterlimit="10" points="765.793,625.416 
	782.483,645.213 765.793,665.009 "/>
<polygon display="none" fill="#E71F19" stroke="#FFFFFF" stroke-width="3" stroke-miterlimit="10" points="759.011,665.008 
	742.319,645.212 759.011,625.415 "/>
<line display="none" fill="none" stroke="#E71F19" stroke-width="8" stroke-miterlimit="10" x1="518.602" y1="527.353" x2="711.979" y2="527.353"/>
<polygon display="none" fill="#E71F19" stroke="#FFFFFF" stroke-width="3" stroke-miterlimit="10" points="620.883,507.557 
	637.573,527.353 620.883,547.148 "/>
<polygon fill="#E71F19" stroke="#FFFFFF" stroke-width="3" stroke-miterlimit="10" points="623.779,464.999 640.471,484.796 
	623.779,504.592 "/>
<polygon display="none" fill="#763992" stroke="#FFFFFF" stroke-width="3" stroke-miterlimit="10" points="264.117,505.557 
	280.809,525.353 264.117,545.148 "/>
<line display="none" fill="none" stroke="#6EA647" stroke-width="8" stroke-miterlimit="10" x1="193.175" y1="688.562" x2="326.01" y2="688.562"/>
<polygon display="none" fill="#6EA647" stroke="#FFFFFF" stroke-width="3" stroke-miterlimit="10" points="264.117,667.766 
	280.809,687.562 264.117,707.357 "/>
<polygon fill="#E71F19" stroke="#FFFFFF" stroke-width="3" stroke-miterlimit="10" points="691.13,606.1 710.926,589.408 
	730.721,606.1 "/>
<polygon fill="#E71F19" stroke="#FFFFFF" stroke-width="3" stroke-miterlimit="10" points="691.13,471.635 710.926,454.942 
	730.721,471.635 "/>
<polygon fill="#F4BA19" stroke="#FFFFFF" stroke-width="3" stroke-miterlimit="10" points="272.463,227.686 289.154,247.481 
	272.463,267.277 "/>
<polygon fill="#F4BA19" stroke="#FFFFFF" stroke-width="3" stroke-miterlimit="10" points="383.104,282.098 399.796,301.894 
	383.104,321.689 "/>
<polygon fill="#F4BA19" stroke="#FFFFFF" stroke-width="3" stroke-miterlimit="10" points="590.48,183.236 607.173,203.032 
	590.48,222.828 "/>
<polygon fill="#5893C9" stroke="#FFFFFF" stroke-width="3" stroke-miterlimit="10" points="985.842,183.236 1002.532,203.032 
	985.842,222.828 "/>
<polygon fill="#5893C9" stroke="#FFFFFF" stroke-width="3" stroke-miterlimit="10" points="949.804,282.098 966.495,301.894 
	949.804,321.689 "/>
<polygon fill="#5893C9" stroke="#FFFFFF" stroke-width="3" stroke-miterlimit="10" points="1006.676,451.557 1023.366,471.352 
	1006.676,491.148 "/>
<polygon fill="#5893C9" stroke="#FFFFFF" stroke-width="3" stroke-miterlimit="10" points="1000.978,491.148 984.286,471.354 
	1000.978,451.557 "/>
<polygon fill="#5893C9" stroke="#FFFFFF" stroke-width="3" stroke-miterlimit="10" points="891.267,183.236 907.959,203.032 
	891.267,222.828 "/>
<polygon fill="#5893C9" stroke="#FFFFFF" stroke-width="3" stroke-miterlimit="10" points="799.507,282.098 816.197,301.894 
	799.507,321.689 "/>
<polygon fill="#5893C9" stroke="#FFFFFF" stroke-width="3" stroke-miterlimit="10" points="1015.322,173.166 1035.119,156.475 
	1054.914,173.166 "/>
<polygon fill="#F4BA19" stroke="#FFFFFF" stroke-width="3" stroke-miterlimit="10" points="450.114,183.236 466.806,203.032 
	450.114,222.828 "/>
<g opacity="0.8">
	<g>
		<path fill="#EFEFEF" d="M193.175,288.177c0,5.706-4.625,10.333-10.332,10.333h-77.493c-5.707,0-10.332-4.627-10.332-10.333
			v-77.494c0-5.707,4.625-10.333,10.332-10.333h77.493c5.707,0,10.332,4.626,10.332,10.333V288.177z"/>
		<path fill="none" stroke="#3E3A39" stroke-width="3" stroke-miterlimit="10" d="M193.175,288.177
			c0,5.706-4.625,10.333-10.332,10.333h-77.493c-5.707,0-10.332-4.627-10.332-10.333v-77.494c0-5.707,4.625-10.333,10.332-10.333
			h77.493c5.707,0,10.332,4.626,10.332,10.333V288.177z"/>
	</g>
</g>
<g display="none" opacity="0.8">
	<g display="inline">
		<path fill="#EFEFEF" d="M193.861,561.194c0,5.707-4.626,10.332-10.333,10.332h-77.494c-5.706,0-10.332-4.625-10.332-10.332V483.7
			c0-5.707,4.626-10.332,10.332-10.332h77.494c5.707,0,10.333,4.625,10.333,10.332V561.194z"/>
		<path fill="none" stroke="#3E3A39" stroke-width="3" stroke-miterlimit="10" d="M193.861,561.194
			c0,5.707-4.626,10.332-10.333,10.332h-77.494c-5.706,0-10.332-4.625-10.332-10.332V483.7c0-5.707,4.626-10.332,10.332-10.332
			h77.494c5.707,0,10.333,4.625,10.333,10.332V561.194z"/>
	</g>
</g>
<g opacity="0.8">
	<g>
		<path fill="#EFEFEF" d="M760.284,437.988c0,5.707-4.625,10.332-10.332,10.332h-77.493c-5.707,0-10.332-4.625-10.332-10.332
			v-77.494c0-5.707,4.625-10.332,10.332-10.332h77.493c5.707,0,10.332,4.625,10.332,10.332V437.988z"/>
		<path fill="none" stroke="#3E3A39" stroke-width="3" stroke-miterlimit="10" d="M760.284,437.988
			c0,5.707-4.625,10.332-10.332,10.332h-77.493c-5.707,0-10.332-4.625-10.332-10.332v-77.494c0-5.707,4.625-10.332,10.332-10.332
			h77.493c5.707,0,10.332,4.625,10.332,10.332V437.988z"/>
	</g>
</g>
<g opacity="0.8">
	<g>
		<path fill="#EFEFEF" d="M397.851,132.854c0,5.707-4.625,10.332-10.332,10.332h-77.494c-5.707,0-10.332-4.625-10.332-10.332V55.36
			c0-5.707,4.625-10.332,10.332-10.332h77.494c5.707,0,10.332,4.625,10.332,10.332V132.854L397.851,132.854z"/>
		<path fill="none" stroke="#3E3A39" stroke-width="3" stroke-miterlimit="10" d="M397.851,132.854
			c0,5.707-4.625,10.332-10.332,10.332h-77.494c-5.707,0-10.332-4.625-10.332-10.332V55.36c0-5.707,4.625-10.332,10.332-10.332
			h77.494c5.707,0,10.332,4.625,10.332,10.332V132.854L397.851,132.854z"/>
	</g>
</g>
<g opacity="0.8">
	<g>
		<path fill="#EFEFEF" d="M1082.444,132.854c0,5.707-4.625,10.332-10.332,10.332h-77.494c-5.707,0-10.332-4.625-10.332-10.332V55.36
			c0-5.707,4.625-10.332,10.332-10.332h77.494c5.707,0,10.332,4.625,10.332,10.332V132.854z"/>
		<path fill="none" stroke="#3E3A39" stroke-width="3" stroke-miterlimit="10" d="M1082.444,132.854
			c0,5.707-4.625,10.332-10.332,10.332h-77.494c-5.707,0-10.332-4.625-10.332-10.332V55.36c0-5.707,4.625-10.332,10.332-10.332
			h77.494c5.707,0,10.332,4.625,10.332,10.332V132.854z"/>
	</g>
</g>
<g opacity="0.1">
	<g>
		
			<radialGradient id="SVGID_1_" cx="711.9939" cy="639.4822" r="76.1594" gradientTransform="matrix(1 0 0 -1 -0.0151 841.5894)" gradientUnits="userSpaceOnUse">
			<stop  offset="0.5744" style="stop-color:#000000;stop-opacity:0"/>
			<stop  offset="0.7977" style="stop-color:#000000;stop-opacity:0.6512"/>
			<stop  offset="1" style="stop-color:#000000;stop-opacity:0.95"/>
		</radialGradient>
		<path fill="url(#SVGID_1_)" d="M807.852,240.854c0,5.707-9.035,10.332-20.185,10.332h-151.38
			c-11.147,0-20.183-4.625-20.183-10.332v-77.495c0-5.707,9.034-10.332,20.183-10.332h151.38c11.148,0,20.185,4.625,20.185,10.332
			V240.854z"/>
		<path fill="none" stroke="#3E3A39" stroke-width="3" stroke-miterlimit="10" d="M807.852,240.854
			c0,5.707-9.035,10.332-20.185,10.332h-151.38c-11.147,0-20.183-4.625-20.183-10.332v-77.495c0-5.707,9.034-10.332,20.183-10.332
			h151.38c11.148,0,20.185,4.625,20.185,10.332V240.854z"/>
	</g>
</g>
<g display="none" opacity="0.1">
	<g display="inline">
		
			<radialGradient id="SVGID_2_" cx="-32.0979" cy="317.7151" r="49.0784" gradientTransform="matrix(1.9621 0 0 -1 485.2861 841.5894)" gradientUnits="userSpaceOnUse">
			<stop  offset="0.5744" style="stop-color:#000000;stop-opacity:0"/>
			<stop  offset="0.7977" style="stop-color:#000000;stop-opacity:0.6512"/>
			<stop  offset="1" style="stop-color:#000000;stop-opacity:0.95"/>
		</radialGradient>
		<path fill="url(#SVGID_2_)" d="M518.602,562.621c0,5.707-9.074,10.332-20.271,10.332H346.282
			c-11.197,0-20.271-4.625-20.271-10.332v-77.494c0-5.706,9.074-10.331,20.271-10.331H498.33c11.197,0,20.271,4.625,20.271,10.331
			L518.602,562.621L518.602,562.621z"/>
		<path fill="none" stroke="#3E3A39" stroke-width="3" stroke-miterlimit="10" d="M518.602,562.621
			c0,5.707-9.074,10.332-20.271,10.332H346.282c-11.197,0-20.271-4.625-20.271-10.332v-77.494c0-5.706,9.074-10.331,20.271-10.331
			H498.33c11.197,0,20.271,4.625,20.271,10.331L518.602,562.621L518.602,562.621z"/>
	</g>
</g>
<path opacity="0.8" fill="none" stroke="#3E3A39" stroke-width="3" stroke-miterlimit="10" enable-background="new    " d="
	M807.77,241.394c0,6.438-9.706,11.659-21.681,11.659H637.869c-11.975,0-21.681-5.221-21.681-11.659v-79.708
	c0-6.439,9.706-11.659,21.681-11.659H786.09c11.975,0,21.681,5.22,21.681,11.659V241.394z"/>
<path display="none" opacity="0.8" fill="none" stroke="#3E3A39" stroke-width="3" stroke-miterlimit="10" enable-background="new    " d="
	M518.602,562.769c0,6.199-9.689,11.224-21.644,11.224H349.006c-11.952,0-21.643-5.023-21.643-11.224v-76.737
	c0-6.199,9.689-11.224,21.643-11.224H496.96c11.952,0,21.643,5.023,21.643,11.224V562.769z"/>
<g opacity="0.1">
	<g>
		
			<radialGradient id="SVGID_3_" cx="16.9802" cy="536.6951" r="49.0784" gradientTransform="matrix(1.9621 0 0 -1 485.2861 841.5894)" gradientUnits="userSpaceOnUse">
			<stop  offset="0.5744" style="stop-color:#000000;stop-opacity:0"/>
			<stop  offset="0.7977" style="stop-color:#000000;stop-opacity:0.6512"/>
			<stop  offset="1" style="stop-color:#000000;stop-opacity:0.95"/>
		</radialGradient>
		<path fill="url(#SVGID_3_)" d="M614.897,343.641c0,5.707-9.074,10.332-20.271,10.332H442.578
			c-11.196,0-20.271-4.625-20.271-10.332v-77.494c0-5.707,9.075-10.332,20.271-10.332h152.049c11.196,0,20.271,4.625,20.271,10.332
			V343.641z"/>
		<path fill="none" stroke="#3E3A39" stroke-width="3" stroke-miterlimit="10" d="M614.897,343.641
			c0,5.707-9.074,10.332-20.271,10.332H442.578c-11.196,0-20.271-4.625-20.271-10.332v-77.494c0-5.707,9.075-10.332,20.271-10.332
			h152.049c11.196,0,20.271,4.625,20.271,10.332V343.641z"/>
	</g>
</g>
<path opacity="0.8" fill="none" stroke="#3E3A39" stroke-width="3" stroke-miterlimit="10" enable-background="new    " d="
	M614.897,343.788c0,6.199-9.689,11.225-21.643,11.225H445.302c-11.953,0-21.644-5.024-21.644-11.225v-76.737
	c0-6.198,9.689-11.224,21.644-11.224h147.953c11.953,0,21.643,5.024,21.643,11.224L614.897,343.788L614.897,343.788z"/>
<g display="none" opacity="0.8">
	<g display="inline">
		<path fill="#EFEFEF" d="M193.861,730.403c0,5.707-4.626,10.332-10.333,10.332h-77.494c-5.706,0-10.332-4.625-10.332-10.332
			v-77.494c0-5.707,4.626-10.332,10.332-10.332h77.494c5.707,0,10.333,4.625,10.333,10.332V730.403z"/>
		<path fill="none" stroke="#3E3A39" stroke-width="3" stroke-miterlimit="10" d="M193.861,730.403
			c0,5.707-4.626,10.332-10.333,10.332h-77.494c-5.706,0-10.332-4.625-10.332-10.332v-77.494c0-5.707,4.626-10.332,10.332-10.332
			h77.494c5.707,0,10.333,4.625,10.333,10.332V730.403z"/>
	</g>
</g>
<g display="none" opacity="0.1">
	<g display="inline">
		
			<radialGradient id="SVGID_4_" cx="-32.0979" cy="148.5061" r="49.0784" gradientTransform="matrix(1.9621 0 0 -1 485.2861 841.5894)" gradientUnits="userSpaceOnUse">
			<stop  offset="0.5744" style="stop-color:#000000;stop-opacity:0"/>
			<stop  offset="0.7977" style="stop-color:#000000;stop-opacity:0.6512"/>
			<stop  offset="1" style="stop-color:#000000;stop-opacity:0.95"/>
		</radialGradient>
		<path fill="url(#SVGID_4_)" d="M518.602,731.83c0,5.707-9.074,10.332-20.271,10.332H346.282c-11.197,0-20.271-4.625-20.271-10.332
			v-77.493c0-5.707,9.074-10.332,20.271-10.332H498.33c11.197,0,20.271,4.625,20.271,10.332L518.602,731.83L518.602,731.83z"/>
		<path fill="none" stroke="#3E3A39" stroke-width="3" stroke-miterlimit="10" d="M518.602,731.83
			c0,5.707-9.074,10.332-20.271,10.332H346.282c-11.197,0-20.271-4.625-20.271-10.332v-77.493c0-5.707,9.074-10.332,20.271-10.332
			H498.33c11.197,0,20.271,4.625,20.271,10.332L518.602,731.83L518.602,731.83z"/>
	</g>
</g>
<path display="none" opacity="0.8" fill="none" stroke="#3E3A39" stroke-width="3" stroke-miterlimit="10" enable-background="new    " d="
	M518.602,731.978c0,6.199-9.689,11.224-21.644,11.224H349.006c-11.952,0-21.643-5.023-21.643-11.224V655.24
	c0-6.199,9.689-11.224,21.643-11.224H496.96c11.952,0,21.643,5.023,21.643,11.224V731.978z"/>
<g display="none" opacity="0.1">
	<g display="inline">
		
			<radialGradient id="SVGID_5_" cx="211.4885" cy="197.4363" r="49.0786" gradientTransform="matrix(1.9621 0 0 -1 485.2861 841.5894)" gradientUnits="userSpaceOnUse">
			<stop  offset="0.5744" style="stop-color:#000000;stop-opacity:0"/>
			<stop  offset="0.7977" style="stop-color:#000000;stop-opacity:0.6512"/>
			<stop  offset="1" style="stop-color:#000000;stop-opacity:0.95"/>
		</radialGradient>
		<path fill="url(#SVGID_5_)" d="M996.543,682.9c0,5.707-9.074,10.332-20.271,10.332H824.223c-11.197,0-20.272-4.625-20.272-10.332
			v-77.494c0-5.707,9.075-10.332,20.272-10.332h152.048c11.197,0,20.271,4.625,20.271,10.332V682.9z"/>
		<path fill="none" stroke="#3E3A39" stroke-width="3" stroke-miterlimit="10" d="M996.543,682.9
			c0,5.707-9.074,10.332-20.271,10.332H824.223c-11.197,0-20.272-4.625-20.272-10.332v-77.494c0-5.707,9.075-10.332,20.272-10.332
			h152.048c11.197,0,20.271,4.625,20.271,10.332V682.9z"/>
	</g>
</g>
<path display="none" opacity="0.8" fill="none" stroke="#3E3A39" stroke-width="3" stroke-miterlimit="10" enable-background="new    " d="
	M996.543,683.049c0,6.198-9.689,11.224-21.644,11.224H826.946c-11.953,0-21.643-5.024-21.643-11.224v-76.737
	c0-6.199,9.688-11.224,21.643-11.224h147.953c11.953,0,21.644,5.023,21.644,11.224V683.049z"/>
<g opacity="0.1">
	<g>
		
			<radialGradient id="SVGID_6_" cx="198.8284" cy="368.2542" r="49.0781" gradientTransform="matrix(1.9621 0 0 -1 485.2861 841.5894)" gradientUnits="userSpaceOnUse">
			<stop  offset="0.5744" style="stop-color:#000000;stop-opacity:0"/>
			<stop  offset="0.7977" style="stop-color:#000000;stop-opacity:0.6512"/>
			<stop  offset="1" style="stop-color:#000000;stop-opacity:0.95"/>
		</radialGradient>
		<path fill="url(#SVGID_6_)" d="M971.702,512.082c0,5.707-9.073,10.332-20.271,10.332H799.384
			c-11.197,0-20.272-4.625-20.272-10.332v-77.493c0-5.707,9.075-10.332,20.272-10.332h152.048c11.197,0,20.271,4.625,20.271,10.332
			V512.082z"/>
		<path fill="none" stroke="#3E3A39" stroke-width="3" stroke-miterlimit="10" d="M971.702,512.082
			c0,5.707-9.073,10.332-20.271,10.332H799.384c-11.197,0-20.272-4.625-20.272-10.332v-77.493c0-5.707,9.075-10.332,20.272-10.332
			h152.048c11.197,0,20.271,4.625,20.271,10.332V512.082z"/>
	</g>
</g>
<path opacity="0.8" fill="none" stroke="#3E3A39" stroke-width="3" stroke-miterlimit="10" enable-background="new    " d="
	M971.702,512.229c0,6.199-9.688,11.224-21.643,11.224H802.106c-11.953,0-21.643-5.023-21.643-11.224v-76.737
	c0-6.198,9.688-11.224,21.643-11.224H950.06c11.953,0,21.643,5.024,21.643,11.224L971.702,512.229L971.702,512.229z"/>
<g display="none">
	<polygon display="inline" opacity="0.6" fill="#FCFCFC" enable-background="new    " points="869.504,631.019 869.504,631.334 
		869.504,640.928 862.268,641.556 857,644.163 853.382,647.689 850.63,653.745 850.157,661.296 853.224,667.9 860.302,673.405 
		869.504,674.735 870.367,682.293 878.86,681.631 878.86,673.8 920.934,674.113 920.618,682.293 929.269,682.293 929.269,675.243 
		939.1,674.192 945.784,671.204 948.301,667.035 950.738,661.767 951.682,656.826 949.009,649.263 941.223,642.735 932.703,642.027 
		933.135,631.019 929.427,631.019 929.348,641.556 904.42,641.949 904.42,631.019 900.408,631.019 900.408,642.027 873.355,642.027 
		872.806,631.019 	"/>
	<g display="inline">
		<path fill="#515151" d="M938.234,675.83H863.62v-35.637h74.614V675.83z M867.067,672.383h67.719v-28.741h-67.719V672.383z"/>
		<path fill="#515151" d="M864.663,675.886l-0.697-0.061c-4.067-0.336-7.841-2.345-10.625-5.649
			c-2.784-3.309-4.316-7.618-4.316-12.138s1.532-8.828,4.316-12.137c2.784-3.308,6.558-5.314,10.625-5.651l0.697-0.058V675.886z
			 M862.559,643.661c-6.456,0.88-11.431,7.068-11.431,14.378c0,7.311,4.975,13.498,11.431,14.377V643.661L862.559,643.661z
			 M937.071,675.856v-35.69l0.698,0.059c4.069,0.337,7.842,2.345,10.626,5.651c2.783,3.308,4.315,7.617,4.315,12.137
			c0,4.518-1.532,8.828-4.315,12.136c-2.784,3.307-6.557,5.315-10.626,5.652L937.071,675.856z M939.185,643.655v28.712
			c6.447-0.878,11.413-7.057,11.413-14.354C950.598,650.712,945.633,644.534,939.185,643.655L939.185,643.655z M874.187,641.486
			h-6.032V630.14h6.032V641.486z M870.524,640.193h1.294v-8.761h-1.294V640.193z M905.576,641.486h-6.031V630.14h6.031V641.486z
			 M901.915,640.193h1.292v-8.761h-1.292V640.193z M934.34,641.486h-6.033V630.14h6.033V641.486z M930.677,640.193h1.291v-8.761
			h-1.291V640.193z M880.262,682.923h-11.288v-8.188h11.288V682.923z M871.415,680.89h6.406v-4.121h-6.406V680.89z"/>
		<path fill="#515151" d="M882.561,685.436H866.26v-3.806h16.301V685.436L882.561,685.436z M867.552,683.806h13.716v-0.545h-13.716
			V683.806z M930.837,682.923h-11.288v-8.188h11.288V682.923z M921.989,680.89h6.406v-4.121h-6.406V680.89z"/>
		<path fill="#515151" d="M933.135,685.436h-16.302v-3.806h16.302V685.436z M918.125,683.806h13.717v-0.545h-13.717V683.806z"/>
		<rect x="843.135" y="651.611" fill="#515151" width="3.544" height="12.799"/>
		<rect x="846.331" y="656.826" fill="#515151" width="3.017" height="3.34"/>
		<path fill="#515151" d="M938.177,675.243h-10.948v-15.508h10.948V675.243z M928.737,673.95h6.722v-12.923h-6.722V673.95z"/>
		<path fill="#515151" d="M900.385,624.965c1.025,0.569,2.18,0.606,2.948,0.085c0.717-0.481,0.542-1.039-0.521-1.689
			c-3.593-2.181-4.044-4.896-1.244-7.512c0.764-0.714,1.587-1.405,2.297-2.138c1.249-1.294,2.175-2.67,2.218-3.829
			c0.006-1.929-1.983-4.634-3.865-5.649c-0.701-0.377-1.826-0.377-2.512,0c-0.703,0.393-0.769,0.866-0.168,1.432
			c0.493,0.463,1.011,0.907,1.502,1.37c1.629,1.496,1.815,3.07,0.451,4.656c-0.885,1.028-1.918,2-2.98,2.958
			C894.676,618.078,895.407,622.194,900.385,624.965L900.385,624.965z M922.91,625.122c0.876,0.469,2.041,0.385,2.708-0.122
			c0.62-0.469,0.488-0.983-0.376-1.508c-3.998-2.396-4.363-5.113-1.168-7.938c1.096-0.968,2.158-1.966,2.976-3.029
			c2.597-3.39,0.998-5.438-2.583-8.263c-0.602-0.469-1.857-0.426-2.565-0.024c-0.669,0.381-0.723,0.884-0.128,1.438
			c0.492,0.457,1.005,0.913,1.497,1.369c1.574,1.453,1.792,2.991,0.499,4.544c-0.872,1.052-1.93,2.044-2.992,3.021
			c-1.525,1.388-2.501,2.873-2.543,4.777C918.396,621.611,920.013,623.577,922.91,625.122L922.91,625.122z M877.617,624.635
			c0.344,0.216,0.703,0.432,1.112,0.601c0.816,0.336,1.898,0.216,2.47-0.234c0.561-0.438,0.428-1.004-0.337-1.479
			c-0.211-0.133-0.426-0.252-0.624-0.392c-3.232-2.133-3.589-4.734-0.993-7.191c0.902-0.854,1.863-1.688,2.691-2.565
			c1.119-1.196,1.94-2.465,1.919-3.901c0-2.127-1.924-3.701-3.882-5.24c-0.564-0.444-1.81-0.377-2.496,0
			c-0.672,0.374-0.731,0.896-0.148,1.443c0.492,0.457,0.998,0.913,1.497,1.369c1.641,1.497,1.783,3.071,0.428,4.651
			c-0.88,1.028-1.912,2.006-2.977,2.962C872.623,617.951,873.111,621.78,877.617,624.635L877.617,624.635z"/>
	</g>
</g>
<rect x="400.852" y="501.557" display="none" opacity="0.6" fill="#FCFCFC" enable-background="new    " width="35" height="33.262"/>
<g>
	<g>
		<g>
			<defs>
				<rect id="SVGID_7_" x="304.453" y="48.997" width="86.997" height="87.09"/>
			</defs>
			<clipPath id="SVGID_8_">
				<use xlink:href="#SVGID_7_"  overflow="visible"/>
			</clipPath>
			<path clip-path="url(#SVGID_8_)" fill="#B1B1B1" d="M347.905,135.981c-24.006,0-43.465-19.459-43.465-43.464
				s19.459-43.464,43.465-43.464c24.004,0,43.463,19.459,43.463,43.464S371.909,135.981,347.905,135.981L347.905,135.981z
				 M347.905,130.548c21.004,0,38.031-17.026,38.031-38.03s-17.027-38.031-38.031-38.031c-21.005,0-38.031,17.027-38.031,38.031
				S326.9,130.548,347.905,130.548L347.905,130.548z"/>
		</g>
	</g>
	<path fill="#626262" d="M364.177,59.918L326.173,97.95h16.3l-10.866,27.165l43.465-38.042h-21.732L364.177,59.918z"/>
</g>
<g>
	<path fill="#5CB7DF" d="M1057.428,79.745c-0.525-0.917-1.7-1.231-2.617-0.697l-5.521,3.19v-5.511c0-0.631-0.517-1.147-1.146-1.147
		s-1.146,0.518-1.146,1.147v6.839l-11.683,6.745V76.812l5.923-3.42c0.555-0.315,0.735-1.021,0.419-1.565
		c-0.313-0.555-1.021-0.736-1.564-0.42l-4.776,2.76v-6.372c0-1.06-0.859-1.919-1.92-1.919s-1.92,0.859-1.92,1.919v6.372l-4.776-2.76
		c-0.554-0.315-1.252-0.134-1.566,0.42c-0.315,0.553-0.135,1.25,0.421,1.565l5.923,3.42v13.499l-11.683-6.745v-6.839
		c0-0.631-0.518-1.147-1.147-1.147s-1.146,0.518-1.146,1.147v5.511l-5.541-3.2c-0.919-0.524-2.093-0.22-2.617,0.698
		c-0.525,0.917-0.221,2.092,0.695,2.618l5.522,3.189l-4.776,2.762c-0.554,0.314-0.734,1.021-0.42,1.565
		c0.21,0.373,0.603,0.573,0.992,0.573c0.191,0,0.393-0.047,0.574-0.152l5.923-3.42l11.682,6.744l-11.682,6.745l-5.923-3.42
		c-0.555-0.315-1.252-0.134-1.566,0.42s-0.134,1.251,0.42,1.567l4.776,2.76l-5.522,3.19c-0.916,0.525-1.231,1.7-0.695,2.617
		c0.353,0.612,1.003,0.956,1.662,0.956c0.323,0,0.658-0.086,0.955-0.258l5.521-3.19v5.513c0,0.63,0.517,1.146,1.147,1.146
		c0.629,0,1.146-0.516,1.146-1.146v-6.84l11.682-6.744v13.498l-5.923,3.42c-0.553,0.314-0.733,1.021-0.42,1.566
		c0.211,0.373,0.603,0.573,0.994,0.573c0.191,0,0.392-0.048,0.573-0.153l4.774-2.761v6.372c0,1.06,0.86,1.919,1.922,1.919
		c1.06,0,1.92-0.859,1.92-1.919v-6.372l4.776,2.761c0.182,0.104,0.382,0.153,0.572,0.153c0.402,0,0.783-0.21,0.994-0.573
		c0.314-0.555,0.134-1.251-0.421-1.566l-5.923-3.42V96.949l11.691,6.744v6.84c0,0.63,0.518,1.146,1.147,1.146
		c0.629,0,1.146-0.517,1.146-1.146v-5.512l5.522,3.189c0.305,0.172,0.629,0.258,0.955,0.258c0.657,0,1.309-0.345,1.66-0.955
		c0.526-0.917,0.221-2.093-0.695-2.617l-5.521-3.191l4.775-2.761c0.555-0.315,0.736-1.022,0.421-1.566
		c-0.315-0.554-1.022-0.734-1.567-0.42l-5.922,3.419l-11.684-6.744l11.684-6.743l5.922,3.42c0.183,0.104,0.383,0.151,0.574,0.151
		c0.401,0,0.782-0.21,0.993-0.572c0.315-0.555,0.134-1.251-0.421-1.566l-4.775-2.761l5.521-3.19
		C1057.647,81.836,1057.953,80.662,1057.428,79.745L1057.428,79.745z"/>
	<path fill="#B1B1B1" d="M1033.096,137.572c-24.004,0-43.464-19.46-43.464-43.465s19.46-43.464,43.464-43.464
		c24.005,0,43.465,19.459,43.465,43.464S1057.101,137.572,1033.096,137.572L1033.096,137.572z M1033.096,132.138
		c21.004,0,38.03-17.027,38.03-38.031s-17.026-38.031-38.03-38.031s-38.031,17.027-38.031,38.031
		C995.064,115.111,1012.093,132.138,1033.096,132.138L1033.096,132.138z"/>
</g>
<g opacity="0.6">
	<path fill="#546479" d="M710.509,180.589h59.132c0.453,0,0.888-0.145,0.888-0.888v-14.356c0-0.453-0.452-0.743-0.888-0.743h-69.283
		l-15.97,1.938c0,0-17.168-2.084-17.168,16.876v9.699h-26.141v32.104h135.723v-32.104h-66.293V180.589L710.509,180.589z
		 M678.113,183.417c0,0,1.197-5.221,6.127-5.075h0.146v0.146l15.97,2.085h1.342v12.544h-23.585V183.417L678.113,183.417z
		 M779.482,193.116h2.991v32.248h-2.991V193.116z M635.097,193.116h2.991v32.248h-2.991V193.116z"/>
	<rect x="742.158" y="174.318" fill="#EEEEEF" width="19.561" height="22.695"/>
	<g>
		<g>
			<defs>
				<rect id="SVGID_9_" x="632.125" y="158.989" width="153.334" height="76.428"/>
			</defs>
			<clipPath id="SVGID_10_">
				<use xlink:href="#SVGID_9_"  overflow="visible"/>
			</clipPath>
			<path clip-path="url(#SVGID_10_)" fill="#384253" d="M663.775,188.203h17.313v2.085h-17.313V188.203z M641.079,230.187v-40.044
				h-2.99v39.7l-1.993,2.41h-2.629v2.973h11.802v-2.973h-2.483L641.079,230.187z M779.482,229.842v-39.699h-2.972v39.917
				l-1.939,2.193h-2.394v2.973h11.801v-2.973h-2.483L779.482,229.842z M700.356,187.605h11.801v2.393h-11.801V187.605z
				 M683.479,165.199h1.486v14.628h-1.486V165.199z M766.195,162.208h1.486v20.448h-1.486V162.208z M701.48,180.735v-14.792h3.136
				v-6.87h-5.837v6.87h1.196v14.792H701.48z"/>
		</g>
		<g>
			<defs>
				<rect id="SVGID_11_" x="632.125" y="158.989" width="153.334" height="76.428"/>
			</defs>
			<clipPath id="SVGID_12_">
				<use xlink:href="#SVGID_11_"  overflow="visible"/>
			</clipPath>
			<path clip-path="url(#SVGID_12_)" fill="#384253" d="M785.466,192.082v-0.906h-0.743v-1.032h-2.99v38.067h2.99v-0.744h0.743
				v-0.888h-0.743v-1.648h0.743v-0.906h-0.743v-1.341h0.743v-0.889h-0.743v-1.341h0.743v-0.907h-0.743v-1.341h0.743v-0.889h-0.743
				v-1.649h0.743v-0.889h-0.743v-1.504h0.743v-0.888h-0.743v-1.342h0.743v-0.905h-0.743v-1.633h0.743V207.6h-0.743v-1.343h0.743
				v-0.888h-0.743v-1.342h0.743v-0.907h-0.743v-1.341h0.743v-0.889h-0.743v-1.649h0.743v-0.888h-0.743v-1.504h0.743v-0.89h-0.743
				v-1.341h0.743v-0.906h-0.743v-1.632H785.466L785.466,192.082z M635.858,228.211v-38.067h-2.99v1.033h-0.743v0.905h0.743v1.632
				h-0.743v0.906h0.743v1.341h-0.743v0.89h0.743v1.504h-0.743v0.888h0.743v1.649h-0.743v0.889h0.743v1.341h-0.743v0.907h0.743v1.342
				h-0.743v0.889h0.743v1.342h-0.743v0.905h0.743v1.633h-0.743v0.905h0.743v1.342h-0.743v0.888h0.743v1.504h-0.743v0.889h0.743
				v1.649h-0.743v0.889h0.743v1.341h-0.743v0.907h0.743v1.341h-0.743v0.889h0.743v1.341h-0.743v0.906h0.743v1.648h-0.743v0.889
				h0.743v0.743h2.99V228.211z M742.158,197.158h19.561v2.991h-19.561V197.158z"/>
		</g>
	</g>
	<rect x="747.543" y="181.478" fill="#C9CACA" width="8.81" height="8.811"/>
</g>
<g display="none">
	<g display="inline">
		<g>
			<defs>
				<rect id="SVGID_13_" x="361.317" y="485.933" width="108.755" height="71.602"/>
			</defs>
			<clipPath id="SVGID_14_">
				<use xlink:href="#SVGID_13_"  overflow="visible"/>
			</clipPath>
			<path clip-path="url(#SVGID_14_)" fill="#515151" d="M393.757,515.382c0.596-13.793-3.02-25.109-8.065-25.278
				c-4.751-0.159-9.08,9.608-10.072,22.261l-5.762-0.088c0,0-8.557,0.469-8.557,10.169h9.868c0,0-0.365-3.226,1.391-3.854
				l2.851,0.19c0.203,11.923,3.578,21.127,8.133,21.276C388.584,540.223,393.165,529.177,393.757,515.382L393.757,515.382z
				 M381.657,522.734c-0.924,0-1.743-1.542-2.144-3.805l2.463,0.089l0.021-6.504l-2.516-0.05c0.41-2.382,1.229-3.994,2.177-3.994
				c1.334,0,2.414,3.194,2.414,7.13C384.074,519.538,382.991,522.734,381.657,522.734L381.657,522.734z"/>
		</g>
	</g>
	<path display="inline" fill="#515151" d="M461.662,543.879v-9.313c4.9-2.878,8.307-9.148,8.307-16.413
		c0-9.669-6.015-17.56-13.603-18.073v-0.025l-13.5-1.814v-4.188h-4.621v3.561l-10.975-1.865v-4.487h-4.938v3.827l-19.192-3.039
		v-6.107h-5.396v5.382l-8.604-1.153v0.021c4.928,0.577,8.397,11.729,7.813,25.265c-0.586,13.537-5.02,24.433-9.979,24.689l7.094-0.2
		v2.82l-12.939,0.572v4.692l30.15-2.154l0.115,1.795l-14.076,0.827l0.051,8.913l70.115-7.496v-5.9l-2.842-0.319L461.662,543.879z
		 M399.978,542.491l0.676-2.753l10.184-0.289l0.175,2.561L399.978,542.491z M403.893,519.596c0.001-4.744,2.532-9.127,6.643-11.501
		c4.108-2.371,9.171-2.37,13.28,0.003c4.107,2.372,6.639,6.757,6.639,11.502c-0.002,7.335-5.947,13.28-13.283,13.276
		C409.837,532.877,403.892,526.931,403.893,519.596L403.893,519.596z M429.735,538.725v2.255l-13.098,0.639v-2.425L429.735,538.725z
		 M416.651,547.129l-0.014-1.901l21.896-1.757v-2.869l-3.542,0.159l0.4-2.194l18.861-1.036l1.294,6.588L416.651,547.129z"/>
	<path display="inline" fill="#727171" d="M421.769,515.69l-0.09-0.024c0.125,0.619,0.088,1.252-0.116,1.9
		c-0.306,0.97-0.495,0.97-0.823,2.027c-0.066-0.097-0.499-0.757-0.131-2.031c0.281-1.475-0.445-2.952-1.46-4.469
		c-0.983-1.477-2.429-2.586-3.794-2.865h-0.068l0.023,0.07c0.444,2.248-0.82,3.418-2.313,4.728c-1.49,1.309-3.124,2.813-3.371,5.749
		c-0.318,3.857,2.207,6.566,3.735,7.821c0.093,0.065,0.183,0.091,0.286,0.091c0.158,0,0.283-0.068,0.375-0.187
		c0.086-0.13,0.096-0.291,0.024-0.429c-1.206-3.149,1.263-5.182,2.051-5.736c-0.647,3.838,2.541,6.854,3.253,6.605
		c2.926-1.021,4.813-3.087,5.281-5.875C425.133,520.084,423.868,516.781,421.769,515.69L421.769,515.69z"/>
</g>
<g opacity="0.9">
	<path fill="#C0E1F7" d="M178.994,244.238c1.376,0,2.479-1.1,2.479-2.477v-9.633c0,0,0-0.274-0.275-0.274l-0.275-0.275l-0.274-0.274
		c0,0-0.275-0.276-0.551-0.276l-27.244-9.632c-0.275-0.275-0.826-0.275-1.103-0.275c-0.275,0-0.825,0-1.1,0.275l-27.246,9.632
		c-0.275,0-0.275,0-0.551,0.276l-0.273,0.274l-0.276,0.275l-0.273,0.274v9.633c0,1.376,1.1,2.477,2.477,2.477
		c1.375,0,2.478-1.1,2.478-2.477v-2.478h14.311v5.229l-17.338,6.055c-0.274,0-0.274,0-0.551,0.274l-0.275,0.275l-0.274,0.275
		l-0.273,0.274v1.926c-0.826,1.102-1.651,2.752-2.203,4.679c-3.853-1.102-7.153-0.825-8.529,0.826c-1.376,2.201,0,5.778,3.302,9.356
		c-3.302,3.578-4.678,7.43-3.302,9.357c1.376,1.926,4.402,1.926,8.529,0.826c1.377,3.853,3.304,6.329,5.504,6.329
		c2.203,0,4.13-2.477,5.506-6.329c3.853,1.101,7.154,0.824,8.529-0.826c1.377-2.202,0-5.779-3.302-9.357
		c3.302-3.578,4.679-7.43,3.302-9.356c-0.824-1.376-2.751-1.651-4.953-1.651c4.403-0.826,7.981-0.275,9.357,1.926
		c0.825,1.102,0.825,2.478,0.55,4.128l3.854,3.027l-6.329,4.954c1.101,1.65,1.927,3.027,2.202,4.402l7.979-6.328l22.291,17.612
		h3.303c0,0,0.275,0,0.275-0.274h0.274c0,0,0.274,0,0.274-0.275v-2.752l-12.935-26.144h12.108v3.026
		c0,1.376,1.103,2.477,2.478,2.477c1.376,0,2.477-1.101,2.477-2.477v-9.632c0,0,0-0.275-0.274-0.275l-0.275-0.274l-0.275-0.275
		c0,0-0.273-0.274-0.55-0.274l-17.337-6.055v-5.229h14.311v2.477C176.518,243.138,177.618,244.238,178.994,244.238L178.994,244.238z
		 M140.466,253.87h-9.355c0.825,1.103,1.651,2.478,2.202,4.128c-1.103,0-2.202,0.275-3.578,0.551
		c-1.377-3.853-3.303-6.329-5.504-6.329h-0.826c0.826-0.551,1.927-1.102,3.027-1.102c1.377,0,2.752,0.551,3.854,1.927l9.906-3.578
		v4.403H140.466z"/>
	<g>
		<g>
			<defs>
				<rect id="SVGID_15_" x="102.138" y="209.824" width="81.039" height="77.439"/>
			</defs>
			<clipPath id="SVGID_16_">
				<use xlink:href="#SVGID_15_"  overflow="visible"/>
			</clipPath>
			<path clip-path="url(#SVGID_16_)" fill="#145BAA" d="M120.376,264.603c-0.825-0.55-1.649-0.55-2.477,0
				c-0.826,0.551-1.102,1.376-1.102,2.202c0,0.825,0.551,1.65,1.102,2.2c0.826,0.552,1.65,0.552,2.477,0
				c0.826-0.55,1.103-1.375,1.103-2.2C121.753,265.704,121.202,264.878,120.376,264.603L120.376,264.603z"/>
		</g>
		<g>
			<defs>
				<rect id="SVGID_17_" x="102.138" y="209.824" width="81.039" height="77.439"/>
			</defs>
			<clipPath id="SVGID_18_">
				<use xlink:href="#SVGID_17_"  overflow="visible"/>
			</clipPath>
			<path clip-path="url(#SVGID_18_)" fill="#145BAA" d="M135.788,255.521c-1.377-2.201-5.229-2.478-9.908-1.102
				c-1.375-4.678-3.852-7.706-6.604-7.706c-2.753,0-4.954,3.027-6.605,7.706c-4.679-1.376-8.53-1.101-9.907,1.102
				c-1.65,2.477,0,6.88,3.854,11.284c-3.854,4.402-5.504,8.806-3.854,11.282c1.377,2.202,5.229,2.478,9.907,1.102
				c1.377,4.678,3.854,7.706,6.605,7.706s4.953-3.027,6.604-7.706c4.681,1.376,8.531,1.101,9.908-1.102
				c1.65-2.478,0-6.88-3.854-11.282C135.788,262.126,137.438,257.998,135.788,255.521L135.788,255.521z M105.516,275.886
				c-0.825-1.375,0.274-4.128,3.302-7.155c0.826,0.826,1.652,1.376,2.477,2.202c0.276,1.926,0.553,3.578,0.826,5.229
				C108.817,276.987,106.341,277.262,105.516,275.886L105.516,275.886z M110.745,266.805
				C111.02,266.805,111.02,266.529,110.745,266.805C111.02,266.805,111.02,266.805,110.745,266.805
				C111.02,266.805,111.02,266.805,110.745,266.805L110.745,266.805z M111.02,262.401c-0.825,0.825-1.651,1.376-2.478,2.202
				c-2.752-3.027-4.128-5.779-3.303-7.155c0.825-1.102,3.303-1.102,6.33-0.275C111.57,258.824,111.294,260.476,111.02,262.401
				L111.02,262.401z M123.954,259.925C123.954,259.925,123.679,259.925,123.954,259.925c-0.551-0.274-1.102-0.55-1.375-1.101
				c0.549-0.275,0.824-0.275,1.375-0.551C123.679,258.824,123.679,259.375,123.954,259.925L123.954,259.925z M119.276,250.018
				c1.375,0,2.752,1.926,3.852,5.229c-1.1,0.55-2.477,1.101-3.852,1.651c-1.377-0.551-2.479-1.102-3.854-1.651
				C116.249,252.219,117.624,250.018,119.276,250.018L119.276,250.018z M114.597,258.273c0.274,0.274,0.825,0.274,1.377,0.551
				c-0.552,0.275-1.103,0.55-1.377,0.825V258.273z M114.597,273.41c0.551,0.275,1.102,0.55,1.377,1.102
				c-0.552,0.274-0.826,0.274-1.377,0.55V273.41z M119.276,283.042c-1.377,0-2.753-1.926-3.854-5.229
				c1.102-0.551,2.478-1.102,3.854-1.651c1.375,0.55,2.477,1.101,3.852,1.651C122.028,281.115,120.651,283.042,119.276,283.042
				L119.276,283.042z M123.679,275.061c-0.275-0.275-0.826-0.275-1.377-0.55c0.551-0.275,1.102-0.552,1.377-0.826V275.061z
				 M124.229,269.282c-0.826,0.55-1.377,1.101-2.201,1.651c-1.103,0.55-1.928,1.375-2.752,1.926
				c-0.826-0.551-1.928-1.102-2.753-1.926c-0.825-0.552-1.376-1.102-2.201-1.651v-5.504c0.825-0.551,1.376-1.101,2.201-1.651
				c1.101-0.55,1.927-1.376,2.753-1.926c0.824,0.55,1.926,1.102,2.752,1.926c0.824,0.551,1.375,1.101,2.201,1.651V269.282z
				 M132.761,275.886c-0.826,1.101-3.304,1.101-6.33,0.275c0.274-1.65,0.551-3.303,0.825-5.229c0.826-0.826,1.65-1.376,2.478-2.202
				C132.485,271.759,133.861,274.511,132.761,275.886L132.761,275.886z M127.531,266.805
				C127.531,266.529,127.531,266.805,127.531,266.805L127.531,266.805z M129.733,264.603c-0.826-0.825-1.65-1.376-2.478-2.202
				c-0.274-1.926-0.551-3.577-0.825-5.229c3.303-1.101,5.504-1.101,6.33,0.275C133.861,258.824,132.485,261.576,129.733,264.603
				L129.733,264.603z"/>
		</g>
	</g>
	<path fill="#145BAA" d="M179.545,236.258c1.651,0,1.928-1.376,1.928-2.753v-10.457c0-0.274,0-0.274-0.275-0.551
		c0-0.274-0.275-0.274-0.275-0.55s-0.274-0.275-0.274-0.275c-0.275,0-0.275-0.274-0.551-0.274c-0.276,0-0.275-0.275-0.551-0.275
		l-30.822-11.008c-0.275-0.275-0.824-0.275-1.375-0.275c-0.552,0-0.826,0-1.377,0.275l-30.822,11.008c-0.275,0-0.275,0-0.551,0.275
		c-0.274,0-0.274,0.274-0.55,0.274s-0.275,0.275-0.275,0.275c0,0.275-0.275,0.275-0.275,0.55c0,0.275,0,0.275-0.273,0.551v11.009
		c0,1.65,0.55,2.751,1.926,2.751s1.65-1.375,1.65-2.751v-2.752h18.163v6.054l-19.813,6.879c-0.275,0-0.275,0-0.551,0.275
		c-0.274,0-0.274,0.275-0.55,0.275s-0.275,0.275-0.275,0.275c0,0.274-0.275,0.274-0.275,0.55s0,0.275-0.273,0.55v3.302
		c1.649-2.751,3.852-4.128,6.055-4.128c1.65,0,2.752-1.101,4.127,0.275l11.559-4.128v7.431h-9.356
		c1.102,1.376,0.551,2.201,1.377,4.128c4.953-1.101,9.082-0.274,10.732,2.202c0.825,1.376,3.303,3.027,2.752,4.954l3.854,3.302
		l-7.155,5.779c1.102,1.651,2.201,2.201,2.751,3.853l7.433-6.055l25.317,19.815h0.825c0.275,0,0.275,0,0.55,0.274h1.929
		c0,0,0.273,0,0.273-0.274l0.275-0.275l0.274-0.275c0,0,0-0.274,0.274-0.274c0.275-0.275,0.275-0.275,0.275-0.55v-2.202
		l-14.86-29.722h15.411v3.302c0,1.65,0.551,2.752,2.201,2.752s1.65-1.376,1.65-2.752V246.44c0-0.276,0-0.276-0.273-0.551
		c0-0.275-0.275-0.275-0.275-0.551c0-0.274-0.275-0.274-0.275-0.274c-0.274,0-0.274-0.275-0.551-0.275
		c-0.275,0-0.274-0.275-0.551-0.275l-19.813-6.881v-6.054h17.889v2.752C177.343,235.156,177.894,236.258,179.545,236.258
		L179.545,236.258z M137.438,226.35h-20.641v-1.927l20.641-6.88V226.35z M141.567,217.819v-1.376l5.229-2.478l5.229,2.478v9.907
		h-10.732v-8.531H141.567L141.567,217.819z M140.466,230.753h13.484v3.854l-4.953-1.651c-0.551-0.274-1.1-0.55-1.926-0.55
		c-0.551,0-1.376,0.275-1.927,0.55l-4.954,1.651v-3.854H140.466z M139.09,239.285l8.258-3.027l8.256,3.027v8.807h-16.237v-8.807
		H139.09z M147.071,260.2l-8.807-7.155v-0.274h17.612c0.825,0,0,0.274,0,0.274L147.071,260.2z M172.39,281.115l-22.291-18.163
		l7.979-6.604C158.079,255.521,162.757,263.778,172.39,281.115L172.39,281.115z M176.793,246.99l-0.274,1.651h-17.063v-7.432
		L176.793,246.99z M156.703,226.625v-8.806l20.64,6.88v1.926H156.703z"/>
</g>
<g display="none">
	<g display="inline">
		<g>
			<defs>
				<rect id="SVGID_19_" x="114.927" y="486.981" width="59.711" height="70.933"/>
			</defs>
			<clipPath id="SVGID_20_">
				<use xlink:href="#SVGID_19_"  overflow="visible"/>
			</clipPath>
			<path clip-path="url(#SVGID_20_)" fill="#D0342A" d="M155.758,517.707c-7.079-7.865-7.079-17.307-7.079-30.681
				c-21.963,8.654-16.521,32.254-17.309,40.121c-5.506-4.721-7.08-15.733-7.08-15.733c-6.227,3.146-9.375,11.014-9.375,17.308
				c0,15.732,13.375,29.106,29.829,29.106c16.455,0,29.829-12.587,29.829-29.106c0-9.44-7.08-14.16-7.08-26.747
				C157.331,505.12,155.758,512.986,155.758,517.707L155.758,517.707z"/>
		</g>
	</g>
	<path display="inline" fill="#E2B51E" d="M144.089,524.394c10.556,4,8.129,15.209,8.129,18.355
		c2.427-2.426,3.214-7.211,3.214-7.211c2.425,1.573,4.063,4.785,4.063,7.997c0,7.212-6.49,13.57-13.768,13.57
		c-7.278,0-13.769-6.425-13.769-13.57C132.747,536.391,144.089,530.818,144.089,524.394L144.089,524.394z"/>
</g>
<g opacity="0.6">
	<g>
		<g>
			<defs>
				<rect id="SVGID_21_" x="668.033" y="356.303" width="85.784" height="85.877"/>
			</defs>
			<clipPath id="SVGID_22_">
				<use xlink:href="#SVGID_21_"  overflow="visible"/>
			</clipPath>
			<path clip-path="url(#SVGID_22_)" fill="#5CB7DF" d="M710.881,442.075c-23.572,0-42.859-19.286-42.859-42.857
				s19.287-42.858,42.859-42.858c23.57,0,42.856,19.287,42.856,42.858S734.451,442.075,710.881,442.075L710.881,442.075z"/>
		</g>
	</g>
	<path fill="#2991B1" d="M753.527,403.418l-37.849-16.923c0,0-3.235-1.449-6.944-0.768c-4.14,0.76-11.922,3.925-11.916,13.226
		c0.004,5.689,2.144,8.619,2.144,8.619l10.382,34.463c0.511,0.021,1.021,0.04,1.537,0.04
		C733.033,442.075,751.4,425.036,753.527,403.418L753.527,403.418z"/>
	<path fill="#EDB822" d="M699.866,408.008c-1.854-2.334-2.966-5.288-2.966-8.502c0-7.549,6.12-13.667,13.667-13.667
		c7.549,0,13.669,6.118,13.669,13.667s-6.12,13.668-13.669,13.668c-1.891,0-3.694-0.386-5.333-1.08"/>
	<path fill="#474341" d="M710.567,413.731c-1.924,0-3.793-0.379-5.551-1.125c-0.284-0.12-0.416-0.447-0.296-0.731
		c0.12-0.282,0.447-0.414,0.729-0.295c1.621,0.688,3.344,1.035,5.117,1.035c7.229,0,13.109-5.882,13.109-13.108
		c0-7.229-5.88-13.111-13.109-13.111c-7.229,0-13.107,5.883-13.107,13.111c0,2.993,0.982,5.813,2.844,8.152
		c0.191,0.24,0.149,0.594-0.09,0.783c-0.241,0.192-0.593,0.152-0.784-0.089c-2.019-2.538-3.086-5.599-3.086-8.848
		c0-7.846,6.382-14.227,14.225-14.227c7.845,0,14.226,6.381,14.226,14.227C724.795,407.35,718.413,413.731,710.567,413.731
		 M714.849,378.306c-0.163,0-0.317-0.071-0.424-0.193c-0.107-0.123-0.152-0.286-0.128-0.448l0.431-2.843
		c0.046-0.304,0.335-0.515,0.635-0.468c0.146,0.023,0.277,0.103,0.365,0.222c0.088,0.118,0.124,0.268,0.102,0.413l-0.432,2.843
		C715.357,378.104,715.125,378.305,714.849,378.306 M714.057,383.54c-0.164,0-0.319-0.069-0.425-0.192
		c-0.106-0.123-0.152-0.286-0.128-0.447l0.502-3.314c0.046-0.304,0.331-0.518,0.635-0.467c0.305,0.047,0.514,0.33,0.468,0.635
		l-0.502,3.314C714.564,383.34,714.331,383.539,714.057,383.54 M698.592,382.102c-0.177,0.001-0.344-0.085-0.448-0.229l-1.567-2.127
		c-0.088-0.118-0.125-0.268-0.103-0.413c0.021-0.146,0.102-0.277,0.22-0.364c0.118-0.089,0.27-0.126,0.415-0.104
		c0.146,0.022,0.278,0.104,0.365,0.224l1.565,2.126c0.087,0.117,0.125,0.269,0.104,0.414c-0.021,0.145-0.102,0.277-0.22,0.363
		C698.826,382.063,698.712,382.102,698.592,382.102 M701.869,386.553c-0.177,0-0.343-0.085-0.447-0.229l-1.847-2.506
		c-0.088-0.118-0.124-0.267-0.103-0.414c0.021-0.146,0.102-0.274,0.221-0.365c0.247-0.185,0.596-0.13,0.779,0.119l1.847,2.506
		c0.086,0.119,0.125,0.269,0.103,0.414c-0.021,0.146-0.102,0.278-0.221,0.364C702.101,386.517,701.984,386.553,701.869,386.553
		 M728.87,387.027c-0.177,0-0.343-0.086-0.446-0.229c-0.09-0.119-0.125-0.27-0.104-0.414c0.021-0.146,0.103-0.278,0.221-0.364
		l2.507-1.848c0.118-0.089,0.268-0.124,0.412-0.103c0.147,0.021,0.279,0.101,0.366,0.219c0.089,0.119,0.124,0.27,0.104,0.415
		c-0.022,0.146-0.104,0.278-0.222,0.365l-2.506,1.847C729.106,386.988,728.989,387.027,728.87,387.027 M724.801,390.026
		c-0.179,0-0.346-0.084-0.449-0.228c-0.087-0.119-0.125-0.269-0.104-0.413c0.022-0.147,0.104-0.278,0.222-0.366l2.128-1.566
		c0.119-0.089,0.269-0.126,0.414-0.104c0.146,0.021,0.278,0.103,0.365,0.222c0.089,0.119,0.125,0.269,0.103,0.414
		c-0.021,0.146-0.103,0.278-0.221,0.365l-2.127,1.566C725.034,389.988,724.92,390.026,724.801,390.026"/>
	<path fill="#B1771F" d="M719.808,393.435c0.496,0.738,0.938,1.508,1.352,2.294c0.236,0.447,0.916,0.05,0.681-0.396
		c-0.414-0.788-0.856-1.559-1.353-2.297C720.205,392.62,719.523,393.014,719.808,393.435 M715.893,390.494
		c1.111,0.267,2.045,0.853,2.853,1.651c0.361,0.354,0.918-0.2,0.558-0.557c-0.899-0.89-1.965-1.559-3.2-1.854
		C715.609,389.617,715.398,390.375,715.893,390.494"/>
	<path fill="#474341" d="M707.019,424.725c-0.028,0-0.057-0.003-0.083-0.007c-0.146-0.022-0.278-0.102-0.366-0.221
		c-0.088-0.118-0.125-0.269-0.103-0.413l0.431-2.844c0.028-0.2,0.161-0.369,0.349-0.442c0.187-0.073,0.397-0.04,0.556,0.085
		c0.155,0.126,0.231,0.326,0.199,0.524l-0.432,2.845C707.527,424.522,707.295,424.724,707.019,424.725 M707.739,419.963
		c-0.161,0-0.314-0.07-0.422-0.193c-0.104-0.124-0.153-0.286-0.13-0.447l0.503-3.314c0.046-0.306,0.335-0.516,0.635-0.469
		c0.146,0.022,0.277,0.103,0.366,0.221c0.087,0.12,0.124,0.269,0.103,0.415l-0.503,3.314
		C708.25,419.76,708.017,419.963,707.739,419.963 M725.272,420.214c-0.178,0-0.343-0.086-0.448-0.229l-1.566-2.126
		c-0.184-0.248-0.131-0.598,0.116-0.78c0.119-0.088,0.27-0.125,0.414-0.103c0.146,0.021,0.278,0.102,0.366,0.222l1.566,2.127
		c0.087,0.118,0.125,0.268,0.103,0.413c-0.021,0.146-0.102,0.278-0.22,0.365C725.509,420.175,725.393,420.214,725.272,420.214
		 M722.273,416.143c-0.177,0-0.344-0.086-0.448-0.229l-1.847-2.506c-0.087-0.119-0.124-0.269-0.104-0.415
		c0.021-0.146,0.103-0.275,0.222-0.363c0.118-0.09,0.269-0.125,0.415-0.104c0.146,0.022,0.276,0.102,0.363,0.223l1.848,2.506
		c0.086,0.118,0.124,0.27,0.102,0.414c-0.021,0.146-0.102,0.277-0.22,0.364C722.505,416.105,722.39,416.143,722.273,416.143
		 M690.921,415.008c-0.178,0.001-0.344-0.083-0.449-0.228c-0.088-0.118-0.124-0.268-0.104-0.414
		c0.022-0.146,0.103-0.275,0.222-0.364l2.506-1.848c0.247-0.184,0.596-0.129,0.779,0.118c0.087,0.119,0.125,0.27,0.102,0.415
		c-0.021,0.146-0.102,0.276-0.22,0.364l-2.506,1.847C691.155,414.969,691.038,415.009,690.921,415.008 M695.37,411.729
		c-0.178,0-0.344-0.085-0.448-0.228c-0.088-0.119-0.124-0.27-0.104-0.413c0.022-0.146,0.102-0.278,0.221-0.366l2.129-1.567
		c0.246-0.184,0.595-0.129,0.778,0.119s0.128,0.596-0.118,0.779l-2.128,1.566C695.604,411.69,695.489,411.729,695.37,411.729
		 M692.94,397.889c-0.028,0-0.057-0.003-0.085-0.007l-2.843-0.432c-0.146-0.021-0.277-0.102-0.365-0.221s-0.124-0.268-0.103-0.413
		c0.047-0.305,0.335-0.517,0.635-0.469l2.843,0.433c0.21-0.002,0.403,0.115,0.499,0.304c0.096,0.185,0.079,0.41-0.043,0.579
		C693.354,397.835,693.147,397.922,692.94,397.889 M688.178,397.168c-0.027,0-0.056-0.003-0.083-0.007l-3.315-0.503
		c-0.146-0.021-0.278-0.102-0.367-0.22c-0.086-0.119-0.124-0.268-0.101-0.414c0.045-0.305,0.337-0.519,0.633-0.468l3.316,0.502
		c0.209,0,0.399,0.116,0.497,0.303c0.096,0.188,0.079,0.41-0.044,0.58C688.593,397.112,688.385,397.198,688.178,397.168
		 M736.465,403.868c-0.028,0-0.057-0.002-0.085-0.007l-2.845-0.432c-0.146-0.021-0.275-0.102-0.363-0.22
		c-0.09-0.12-0.125-0.27-0.104-0.414c0.047-0.306,0.336-0.516,0.635-0.469l2.844,0.433c0.146,0.021,0.276,0.102,0.365,0.221
		c0.087,0.118,0.123,0.268,0.103,0.413C736.973,403.666,736.738,403.868,736.465,403.868 M731.701,403.146
		c-0.027,0-0.056-0.002-0.083-0.007l-3.314-0.503c-0.146-0.021-0.279-0.101-0.365-0.221c-0.089-0.118-0.126-0.268-0.104-0.413
		c0.048-0.306,0.336-0.517,0.636-0.468l3.314,0.503c0.209-0.001,0.401,0.116,0.497,0.304c0.097,0.185,0.079,0.408-0.043,0.58
		C732.114,403.091,731.908,403.179,731.701,403.146 M694.903,391.055c-0.115,0-0.229-0.035-0.33-0.108l-2.313-1.708
		c-0.249-0.183-0.302-0.533-0.119-0.778c0.182-0.248,0.532-0.302,0.779-0.118l2.313,1.707c0.119,0.089,0.199,0.22,0.219,0.364
		c0.022,0.146-0.015,0.297-0.102,0.414C695.248,390.97,695.08,391.055,694.903,391.055 M727.457,410.796
		c-0.11,0-0.218-0.034-0.311-0.095l-2.394-1.595c-0.257-0.171-0.324-0.517-0.153-0.772c0.17-0.255,0.516-0.324,0.771-0.155
		l2.395,1.595c0.123,0.081,0.209,0.21,0.237,0.354c0.027,0.144-0.002,0.295-0.082,0.417
		C727.816,410.701,727.643,410.796,727.457,410.796 M690.841,404.889c-0.275,0-0.511-0.201-0.552-0.476
		c-0.021-0.146,0.015-0.294,0.104-0.412c0.088-0.12,0.218-0.198,0.365-0.222l2.843-0.429c0.303-0.044,0.588,0.164,0.635,0.469
		c0.046,0.305-0.164,0.589-0.469,0.635l-2.843,0.431C690.896,404.887,690.868,404.889,690.841,404.889 M727.842,395.967
		c-0.286-0.001-0.527-0.219-0.557-0.504c-0.027-0.285,0.165-0.544,0.446-0.602l2.819-0.563c0.304-0.063,0.596,0.134,0.656,0.436
		c0.062,0.302-0.135,0.596-0.437,0.656l-2.82,0.566C727.914,395.963,727.878,395.967,727.842,395.967 M699.765,417.842
		c-0.115,0-0.23-0.034-0.331-0.108c-0.119-0.089-0.198-0.219-0.22-0.366c-0.022-0.146,0.015-0.296,0.104-0.414l1.706-2.313
		c0.089-0.119,0.22-0.198,0.365-0.22c0.146-0.023,0.296,0.015,0.414,0.102c0.119,0.089,0.2,0.221,0.221,0.366
		c0.022,0.146-0.015,0.295-0.103,0.415l-1.708,2.313C700.108,417.759,699.942,417.842,699.765,417.842 M719.618,385.368
		c-0.109,0-0.218-0.032-0.31-0.094c-0.123-0.083-0.208-0.21-0.237-0.354c-0.028-0.146,0-0.296,0.083-0.419l1.594-2.395
		c0.172-0.257,0.517-0.324,0.773-0.154c0.256,0.17,0.324,0.517,0.154,0.772l-1.595,2.394
		C719.979,385.274,719.805,385.368,719.618,385.368 M716.675,419.926c-0.275,0-0.509-0.202-0.55-0.477l-0.43-2.844
		c-0.021-0.146,0.016-0.294,0.104-0.413c0.088-0.12,0.219-0.198,0.363-0.221c0.304-0.042,0.592,0.164,0.638,0.468l0.427,2.846
		c0.024,0.16-0.023,0.322-0.128,0.445C716.991,419.854,716.837,419.926,716.675,419.926 M707.752,382.925
		c-0.266,0-0.494-0.188-0.547-0.447l-0.565-2.819c-0.029-0.145,0-0.295,0.083-0.418c0.082-0.123,0.209-0.21,0.354-0.238
		s0.294,0.001,0.418,0.082c0.123,0.082,0.209,0.21,0.237,0.354l0.565,2.82c0.061,0.302-0.137,0.596-0.438,0.657
		C707.825,382.921,707.787,382.925,707.752,382.925"/>
</g>
<g display="none">
	<polyline display="inline" opacity="0.6" fill="#FCFCFC" enable-background="new    " points="382.779,652.362 382.27,729.699 
		434.105,736.182 435.611,729.771 449.563,724.651 462.402,725.361 462.722,718.336 464.868,717.33 465.396,714.949 
		471.891,715.767 471.983,659.449 463.022,658.877 461.977,654.121 435.702,655.021 434.349,650.895 382.779,652.362 	"/>
	<g display="inline">
		<path fill="#515151" d="M434.349,650.895v84.44l-51.452-6.442l0.543-76.12L434.349,650.895z M435.679,649.983l-1.396,0.055
			l-50.91,1.877l-1.247,0.044l-0.006,0.813l-0.545,76.126v0.715l1.07,0.132l51.46,6.438l1.563,0.196L435.679,649.983"/>
		<path fill="#515151" d="M433.521,736.345l-50.741-6.605v-77.377l50.741-1.43V736.345z M384.101,729.035l48.091,6.262v-83.464
			l-48.091,1.354V729.035z M434.96,730.569v-61.075l23.438-1.976c0.421-0.726,0.395-1.527-0.074-2.238
			c-0.769-1.131-2.756-1.981-3.191-2.157l-19.82,0.994l-0.05-0.432l20.026-1.004l0.084,0.038c0.117,0.037,2.608,0.986,3.563,2.386
			c0.569,0.847,0.578,1.808,0.024,2.658v52.486L434.96,730.569z M435.611,669.877v59.896l22.68-9.744v-52.065L435.611,669.877z"/>
		<path fill="#515151" d="M462.061,719.172v-54.038l0.327-0.005c0.023,0,2.958-0.057,6.888-0.486
			c1.905-0.213,1.99-1.114,1.933-1.484c-0.108-0.804-0.995-1.541-1.882-1.528c-1.614,0.01-6.838,0.551-6.889,0.557l-0.102-0.426
			c0.218-0.021,5.324-0.546,6.989-0.563h0.016c1.338,0,2.41,1.011,2.533,1.921c0.151,1.032-0.784,1.766-2.49,1.949
			c-1.332,0.149-2.674,0.266-4.021,0.35l0.177,52.139L462.061,719.172z M462.722,665.553v52.782l2.146-1.006l-0.174-51.869
			C464.037,665.5,463.381,665.529,462.722,665.553L462.722,665.553z M436.925,669.521h0.651v53.551h-0.651V669.521z
			 M439.432,669.521h0.652v52.443h-0.652V669.521z M441.956,669.086h0.66v52.176h-0.66V669.086z M444.599,668.861h0.659v51.29
			h-0.659V668.861z M447.081,668.861h0.662v50.57h-0.662V668.861z M449.779,668.184h0.663v50.188h-0.663V668.184z M455.147,668.147
			h0.66v48.271h-0.66V668.147z M452.347,668.184h0.661v49.175h-0.661V668.184z"/>
		<path fill="#515151" d="M381.591,695.683c0,0.568,0.585,1.033,1.307,1.033c0.719,0,1.311-0.465,1.311-1.033
			c0-0.567-0.586-1.036-1.311-1.036C382.176,694.641,381.591,695.11,381.591,695.683L381.591,695.683z"/>
		<path fill="#515151" d="M382.896,696.928c-0.896,0-1.64-0.563-1.64-1.249c0-0.694,0.734-1.251,1.64-1.251
			c0.901,0,1.637,0.563,1.637,1.251C384.533,696.371,383.799,696.928,382.896,696.928L382.896,696.928z M382.896,694.854
			c-0.537,0-0.979,0.364-0.979,0.824c0,0.446,0.44,0.813,0.979,0.813c0.543,0,0.976-0.364,0.976-0.813
			C383.872,695.225,383.439,694.854,382.896,694.854L382.896,694.854z"/>
		<path fill="#515151" d="M381.591,675.179c0,0.565,0.585,1.032,1.307,1.032c0.719,0,1.304-0.46,1.304-1.032
			c0-0.574-0.585-1.038-1.304-1.038C382.176,674.141,381.591,674.604,381.591,675.179L381.591,675.179z"/>
		<path fill="#515151" d="M382.896,676.427c-0.904,0-1.64-0.562-1.64-1.248c0-0.688,0.734-1.251,1.64-1.251
			c0.901,0,1.637,0.563,1.637,1.251C384.533,675.866,383.799,676.427,382.896,676.427L382.896,676.427z M382.896,674.358
			c-0.537,0-0.979,0.366-0.979,0.82c0,0.452,0.44,0.817,0.979,0.817c0.543,0,0.976-0.365,0.976-0.817
			C383.872,674.725,383.439,674.358,382.896,674.358L382.896,674.358z M381.591,714.201c0,0.568,0.585,1.032,1.307,1.032
			c0.719,0,1.304-0.464,1.304-1.032c0-0.572-0.585-1.029-1.304-1.029C382.176,713.172,381.591,713.629,381.591,714.201
			L381.591,714.201z M411.377,660.416c-0.004,0.378-0.475,0.683-1.052,0.683h-3.395c-0.577,0-1.055-0.306-1.055-0.683
			c0-0.378,0.469-0.688,1.055-0.688h3.395C410.9,659.728,411.377,660.033,411.377,660.416L411.377,660.416z M385.972,661.098
			c0,0.377-0.467,0.683-1.046,0.683h-3.4c-0.578,0-1.044-0.306-1.044-0.683c0-0.376,0.466-0.683,1.044-0.683h3.4
			C385.502,660.416,385.972,660.722,385.972,661.098L385.972,661.098z M390.043,656.91c0,0.377-0.353,0.689-0.776,0.689h-2.517
			c-0.435,0-0.777-0.313-0.777-0.689s0.352-0.682,0.777-0.682h2.517C389.69,656.229,390.043,656.534,390.043,656.91L390.043,656.91z
			 M397.811,657.331c0,0.376-0.354,0.684-0.778,0.684h-2.516c-0.428,0-0.777-0.308-0.777-0.684s0.351-0.683,0.777-0.683h2.516
			C397.466,656.648,397.811,656.955,397.811,657.331L397.811,657.331z M402.515,661.414c0,0.377-0.344,0.688-0.77,0.688h-2.515
			c-0.436,0-0.779-0.313-0.779-0.688s0.354-0.682,0.779-0.682h2.515C402.172,660.727,402.515,661.038,402.515,661.414
			L402.515,661.414z M402.515,666.24c0,0.377-0.344,0.684-0.77,0.684h-2.515c-0.436,0-0.779-0.307-0.779-0.684
			c0-0.376,0.354-0.682,0.779-0.682h2.515C402.172,665.559,402.515,665.864,402.515,666.24L402.515,666.24z M385.529,666.415
			c0,0.378-0.468,0.685-1.047,0.685h-3.402c-0.575,0-1.043-0.307-1.043-0.685c0-0.377,0.468-0.683,1.043-0.683h3.402
			C385.062,665.732,385.529,666.038,385.529,666.415L385.529,666.415z M390.521,670.204c-0.005,0.38-0.477,0.684-1.056,0.684h-3.401
			c-0.576,0-1.044-0.307-1.044-0.684c0-0.376,0.468-0.683,1.044-0.683h3.394C390.043,669.521,390.521,669.828,390.521,670.204
			L390.521,670.204z M397.684,671.116c0,0.376-0.284,0.683-0.644,0.683h-2.099c-0.358,0-0.652-0.307-0.652-0.683
			c0-0.377,0.294-0.683,0.652-0.683h2.099C397.399,670.434,397.684,670.739,397.684,671.116L397.684,671.116z M415.139,658.02
			c0,0.376-0.283,0.682-0.635,0.682h-2.06c-0.349,0-0.634-0.306-0.634-0.682c0-0.377,0.285-0.688,0.634-0.688h2.06
			C414.855,657.331,415.139,657.637,415.139,658.02L415.139,658.02z M423.866,658.177c0,0.377-0.36,0.683-0.817,0.683h-2.659
			c-0.451,0-0.819-0.306-0.819-0.683c0-0.376,0.368-0.683,0.819-0.683h2.659C423.506,657.495,423.866,657.802,423.866,658.177
			L423.866,658.177z M427.117,662.19c0,0.377-0.392,0.682-0.878,0.682h-2.874c-0.494,0-0.888-0.305-0.888-0.682
			c0-0.378,0.402-0.684,0.888-0.684h2.874C426.726,661.503,427.117,661.807,427.117,662.19L427.117,662.19z M427.117,667.611
			c0,0.382-0.392,0.688-0.878,0.688h-2.874c-0.494,0-0.888-0.308-0.888-0.688c0-0.377,0.402-0.683,0.888-0.683h2.874
			C426.726,666.924,427.117,667.234,427.117,667.611L427.117,667.611z M423.147,671.805c0,0.376-0.402,0.683-0.887,0.683h-2.875
			c-0.494,0-0.888-0.307-0.888-0.683c0-0.378,0.4-0.685,0.888-0.685h2.866C422.745,671.116,423.147,671.424,423.147,671.805
			L423.147,671.805z M410.533,665.433c0,0.382-0.478,0.688-1.053,0.688h-3.396c-0.578,0-1.048-0.307-1.048-0.685
			c0-0.379,0.47-0.687,1.048-0.687h3.396c0.282,0,0.543,0.071,0.743,0.202C410.424,665.078,410.535,665.252,410.533,665.433
			L410.533,665.433z M413.281,671.116c0,0.377-0.465,0.683-1.044,0.683h-3.402c-0.575,0-1.044-0.306-1.044-0.683
			s0.469-0.683,1.044-0.683h3.402C412.808,670.434,413.281,670.739,413.281,671.116L413.281,671.116z"/>
		<path fill="#515151" d="M386.214,715.665c0.264-0.135,0.427-0.335,0.453-0.552c0.033-0.218-0.066-0.436-0.274-0.605
			c-0.448-0.345-1.233-0.395-1.774-0.114l-2.448,1.311c-0.538,0.288-0.616,0.807-0.177,1.157c0.442,0.352,1.235,0.403,1.773,0.115
			L386.214,715.665z M393.655,712.308c0.535-0.289,0.616-0.807,0.175-1.158c-0.438-0.352-1.232-0.402-1.771-0.113l-2.451,1.314
			c-0.259,0.138-0.424,0.339-0.457,0.555c-0.032,0.217,0.065,0.435,0.282,0.604c0.443,0.348,1.231,0.397,1.771,0.115
			L393.655,712.308z M386.624,720.885c0.507-0.294,0.57-0.797,0.145-1.142c-0.434-0.344-1.204-0.396-1.74-0.126l-2.457,1.312
			c-0.261,0.138-0.425,0.337-0.458,0.555c-0.032,0.218,0.069,0.435,0.283,0.604c0.441,0.348,1.231,0.397,1.771,0.114
			L386.624,720.885z M388.706,726.672c0.26-0.139,0.423-0.338,0.455-0.557c0.033-0.217-0.066-0.434-0.279-0.602
			c-0.445-0.345-1.23-0.396-1.772-0.114l-2.457,1.314c-0.263,0.139-0.427,0.339-0.46,0.559c-0.035,0.218,0.069,0.438,0.285,0.606
			c0.445,0.343,1.23,0.394,1.771,0.112L388.706,726.672z M397.901,727.332c0.261-0.139,0.423-0.34,0.452-0.558
			c0.033-0.217-0.066-0.432-0.277-0.601c-0.445-0.345-1.229-0.396-1.771-0.114l-2.457,1.314c-0.535,0.288-0.611,0.807-0.172,1.155
			c0.441,0.35,1.231,0.399,1.77,0.111L397.901,727.332z M401.79,721.496c0.535-0.289,0.614-0.807,0.175-1.157
			c-0.44-0.353-1.234-0.402-1.771-0.114l-2.458,1.313c-0.519,0.293-0.588,0.801-0.159,1.148c0.439,0.345,1.218,0.396,1.757,0.119
			L401.79,721.496z M401.238,715.949c0.248-0.138,0.417-0.345,0.451-0.563c0.031-0.219-0.069-0.432-0.285-0.602
			c-0.208-0.168-0.511-0.275-0.844-0.299c-0.332-0.021-0.662,0.043-0.921,0.179l-2.457,1.322c-0.26,0.131-0.427,0.333-0.461,0.551
			c-0.033,0.219,0.066,0.438,0.285,0.602c0.443,0.349,1.229,0.398,1.771,0.115L401.238,715.949z M408.159,718.864
			c0.563-0.258,0.7-0.761,0.318-1.131c-0.181-0.179-0.462-0.305-0.785-0.349c-0.32-0.045-0.656-0.003-0.93,0.112l-2.643,1.146
			c-0.277,0.122-0.472,0.311-0.535,0.526c-0.104,0.324,0.104,0.661,0.531,0.848c0.421,0.185,0.977,0.185,1.4-0.003L408.159,718.864z
			 M416.594,714.584c0.55-0.257,0.689-0.752,0.317-1.118c-0.382-0.368-1.135-0.477-1.716-0.246l-2.641,1.146
			c-0.285,0.12-0.479,0.317-0.536,0.53c-0.06,0.212,0,0.437,0.187,0.616c0.385,0.375,1.162,0.476,1.738,0.224L416.594,714.584z
			 M422.787,716.834c0.278-0.121,0.471-0.312,0.527-0.525c0.071-0.212,0.004-0.437-0.184-0.616c-0.184-0.184-0.474-0.31-0.805-0.349
			c-0.325-0.041-0.665,0.003-0.945,0.12l-2.639,1.15c-0.277,0.124-0.472,0.312-0.544,0.524c-0.06,0.213,0,0.438,0.184,0.617
			c0.385,0.377,1.171,0.479,1.745,0.229L422.787,716.834z M425.362,721.797c0.564-0.254,0.715-0.758,0.334-1.131
			c-0.382-0.375-1.156-0.481-1.737-0.239l-2.634,1.15c-0.28,0.122-0.475,0.313-0.534,0.529c-0.102,0.327,0.107,0.659,0.532,0.844
			c0.424,0.187,0.976,0.185,1.398-0.002L425.362,721.797z M423.866,727.889c0.39-0.156,0.609-0.44,0.576-0.738
			c-0.024-0.3-0.292-0.565-0.702-0.692c-0.41-0.126-0.895-0.108-1.271,0.066l-2.642,1.146c-0.376,0.164-0.589,0.444-0.559,0.738
			c0.028,0.295,0.297,0.556,0.701,0.687c0.405,0.131,0.889,0.109,1.261-0.056L423.866,727.889z M417.531,730.279
			c0.275-0.119,0.466-0.307,0.533-0.519c0.064-0.218,0-0.437-0.192-0.617c-0.184-0.182-0.469-0.31-0.794-0.354
			c-0.331-0.037-0.67,0.008-0.952,0.126l-2.634,1.146c-0.286,0.12-0.478,0.315-0.535,0.53c-0.059,0.212,0,0.436,0.185,0.615
			c0.386,0.375,1.162,0.476,1.739,0.225L417.531,730.279z M409.997,728.887c0.552-0.263,0.696-0.759,0.317-1.13
			c-0.375-0.371-1.145-0.48-1.723-0.24l-2.64,1.146c-0.378,0.162-0.593,0.443-0.562,0.737c0.023,0.294,0.291,0.557,0.692,0.688
			c0.402,0.126,0.879,0.108,1.256-0.055L409.997,728.887z M407.414,724.58c0.277-0.12,0.472-0.308,0.536-0.521
			c0.066-0.214,0-0.435-0.185-0.615c-0.182-0.182-0.469-0.309-0.795-0.353s-0.667-0.003-0.943,0.117l-2.644,1.151
			c-0.578,0.253-0.733,0.763-0.351,1.143c0.184,0.181,0.469,0.306,0.796,0.35c0.328,0.043,0.666-0.001,0.943-0.121L407.414,724.58z
			 M405.399,655.852c-0.901,0-1.638-0.563-1.638-1.25c0-0.688,0.735-1.251,1.638-1.251c0.904,0,1.639,0.563,1.639,1.251
			C407.038,655.289,406.304,655.852,405.399,655.852L405.399,655.852z M405.399,653.782c-0.536,0-0.979,0.367-0.979,0.819
			c0,0.453,0.441,0.818,0.979,0.818s0.979-0.365,0.979-0.818C406.379,654.149,405.936,653.782,405.399,653.782L405.399,653.782z"/>
		<path fill="#515151" d="M463.699,726.377l-14.137-1.726l0.234-0.824l12.604,1.534l-0.426-71.24l-26.274,0.9l-0.059-0.841
			l27.613-0.943L463.699,726.377z"/>
		<g>
			<g>
				<defs>
					<rect id="SVGID_23_" x="380.037" y="649.92" width="95.338" height="86.564"/>
				</defs>
				<clipPath id="SVGID_24_">
					<use xlink:href="#SVGID_23_"  overflow="visible"/>
				</clipPath>
				<path clip-path="url(#SVGID_24_)" fill="#515151" d="M473.424,715.959l-8.026-1.01l0.24-0.83l6.491,0.819l-0.146-55.489
					l-8.894,0.272l-0.067-0.847l10.256-0.311L473.424,715.959z"/>
			</g>
			<g>
				<defs>
					<rect id="SVGID_25_" x="380.037" y="649.92" width="95.338" height="86.564"/>
				</defs>
				<clipPath id="SVGID_26_">
					<use xlink:href="#SVGID_25_"  overflow="visible"/>
				</clipPath>
				<path clip-path="url(#SVGID_26_)" fill="#515151" d="M474.885,701.919c0.146,0.198,0.16,0.427,0.045,0.634
					c-0.115,0.206-0.357,0.374-0.664,0.464L430.98,715.66c-0.645,0.181-1.392-0.016-1.672-0.437
					c-0.291-0.418-0.015-0.911,0.619-1.108l43.286-12.633c0.312-0.089,0.661-0.091,0.974-0.009
					C474.503,701.556,474.754,701.716,474.885,701.919L474.885,701.919z M475.101,688.029c0.186,0.448-0.172,0.906-0.828,1.026
					l-44.37,8.102c-0.678,0.106-1.362-0.159-1.539-0.601c-0.184-0.441,0.175-0.905,0.836-1.026l44.39-8.102
					C474.231,687.313,474.908,687.582,475.101,688.029L475.101,688.029z M475.369,673.229c0.052,0.464-0.435,0.868-1.078,0.896
					L430,676.134c-0.643,0.026-1.218-0.322-1.268-0.791c-0.043-0.464,0.441-0.862,1.076-0.896l44.299-2.009
					C474.742,672.409,475.318,672.765,475.369,673.229L475.369,673.229z"/>
			</g>
		</g>
		<path fill="#515151" d="M415.9,727.671c-3.746,0-6.798-2.682-6.798-5.983c0-3.304,3.052-5.983,6.798-5.983
			c3.745,0,6.795,2.681,6.795,5.983C422.695,724.989,419.654,727.671,415.9,727.671L415.9,727.671z M415.9,716.358
			c-3.204,0-5.803,2.391-5.803,5.333c0,2.943,2.599,5.335,5.803,5.335c3.202,0,5.8-2.392,5.8-5.335
			C421.7,718.75,419.103,716.358,415.9,716.358L415.9,716.358z"/>
		<path fill="#515151" d="M416.41,729.761c-5.142,0-9.321-3.701-9.321-8.255s4.181-8.255,9.321-8.255
			c5.142,0,9.312,3.701,9.312,8.255S421.552,729.761,416.41,729.761L416.41,729.761z M416.41,713.885
			c-4.607,0-8.352,3.424-8.352,7.621s3.743,7.62,8.352,7.62c4.604,0,8.352-3.423,8.352-7.62S421.015,713.885,416.41,713.885
			L416.41,713.885z M392.91,724.925c-3.744,0-6.796-2.681-6.796-5.983s3.052-5.988,6.796-5.988c3.745,0,6.796,2.687,6.796,5.988
			C399.706,722.244,396.655,724.925,392.91,724.925L392.91,724.925z M392.91,713.606c-3.201,0-5.802,2.392-5.802,5.34
			c0,2.947,2.601,5.333,5.802,5.333c3.202,0,5.803-2.391,5.803-5.333C398.713,716.005,396.112,713.606,392.91,713.606
			L392.91,713.606z"/>
		<path fill="#515151" d="M393.42,727.01c-5.141,0-9.318-3.701-9.318-8.249c0-4.555,4.179-8.255,9.318-8.255
			c5.144,0,9.322,3.7,9.322,8.255C402.742,723.309,398.563,727.01,393.42,727.01L393.42,727.01z M393.42,711.14
			c-4.604,0-8.35,3.422-8.35,7.621c0,4.197,3.744,7.621,8.35,7.621c4.608,0,8.353-3.418,8.353-7.621
			C401.771,714.557,398.028,711.14,393.42,711.14L393.42,711.14z M418.499,670.908c-3.745,0-6.795-2.686-6.795-5.981
			c0-3.298,3.05-5.984,6.795-5.984c3.744,0,6.796,2.688,6.796,5.984S422.243,670.908,418.499,670.908L418.499,670.908z
			 M418.499,659.593c-3.202,0-5.803,2.391-5.803,5.334c0,2.94,2.601,5.332,5.803,5.332c3.201,0,5.804-2.392,5.804-5.332
			C424.302,661.982,421.7,659.593,418.499,659.593L418.499,659.593z"/>
		<path fill="#515151" d="M419.001,673c-5.139,0-9.321-3.701-9.321-8.254c0-4.548,4.184-8.256,9.321-8.256
			c5.133,0,9.313,3.701,9.313,8.256C428.322,669.299,424.142,673,419.001,673L419.001,673z M419.001,657.13
			c-4.604,0-8.35,3.417-8.35,7.62c0,4.204,3.744,7.622,8.35,7.622c4.606,0,8.351-3.418,8.351-7.622
			C427.351,660.547,423.606,657.13,419.001,657.13L419.001,657.13z M393.386,670.346c-3.754,0-6.805-2.688-6.805-5.983
			s3.051-5.982,6.805-5.982c3.745,0,6.798,2.688,6.798,5.982C400.184,667.659,397.139,670.346,393.386,670.346L393.386,670.346z
			 M393.386,659.029c-3.201,0-5.809,2.393-5.809,5.333c0,2.942,2.606,5.334,5.809,5.334s5.802-2.392,5.802-5.334
			C399.188,661.422,396.589,659.029,393.386,659.029L393.386,659.029z"/>
		<path fill="#515151" d="M393.897,672.438c-5.142,0-9.32-3.702-9.32-8.256c0-4.552,4.18-8.254,9.32-8.254
			c5.14,0,9.319,3.702,9.319,8.254C403.218,668.735,399.038,672.438,393.897,672.438L393.897,672.438z M393.897,656.561
			c-4.606,0-8.353,3.417-8.353,7.621s3.745,7.623,8.353,7.623c4.604,0,8.352-3.419,8.352-7.623S398.503,656.561,393.897,656.561
			L393.897,656.561z"/>
		<path fill="#515151" d="M398.17,679.054l-10.886-1.146v-3.686l10.886,0.584V679.054z M388.254,677.373l8.944,0.944v-2.927
			l-8.944-0.48V677.373z M424.711,681.723l-12.423-1.446v-4.596l12.423,0.736V681.723z M413.45,679.644l10.099,1.174v-3.706
			l-10.099-0.605V679.644z"/>
	</g>
</g>
<g display="none">
	<g display="inline">
		<g>
			<defs>
				<rect id="SVGID_27_" x="106.035" y="658.437" width="75.971" height="64.438"/>
			</defs>
			<clipPath id="SVGID_28_">
				<use xlink:href="#SVGID_27_"  overflow="visible"/>
			</clipPath>
			<path clip-path="url(#SVGID_28_)" fill="#505050" d="M170.031,711.058h6.089c2.086,0,4.016,1.112,5.059,2.92
				c1.044,1.808,1.044,4.033,0,5.84c-1.043,1.809-2.973,2.921-5.059,2.921h-64.245c-2.085,0-4.014-1.112-5.058-2.921
				c-1.043-1.807-1.043-4.032,0-5.84c1.044-1.808,2.973-2.92,5.058-2.92h6.089c-0.638,1.813-0.018,3.833,1.529,4.977
				s3.659,1.144,5.206,0s2.168-3.162,1.529-4.977h6.337c-0.641,1.813-0.02,3.833,1.529,4.977c1.547,1.144,3.657,1.144,5.204,0
				c1.548-1.144,2.168-3.162,1.529-4.977h6.337c-0.639,1.813-0.019,3.833,1.529,4.977c1.547,1.144,3.658,1.144,5.205,0
				c1.548-1.144,2.168-3.162,1.53-4.977h6.337c-0.641,1.813-0.02,3.833,1.528,4.977s3.658,1.144,5.205,0
				C170.049,714.891,170.67,712.872,170.031,711.058L170.031,711.058z M120.636,658.493c0.773,0,1.518,0.309,2.064,0.855
				s0.854,1.29,0.854,2.064c2.207,3.401,3.232,7.435,2.921,11.477c0,5.637-5.842,9.17-5.842,14.806
				c-0.31,4.106,0.717,8.203,2.921,11.682c0,1.612-1.308,2.92-2.921,2.92c-1.611,0-2.919-1.308-2.919-2.92
				c-2.202-3.489-3.227-7.595-2.921-11.711c0-5.636,5.84-9.169,5.84-14.775c0.313-4.042-0.713-8.074-2.919-11.477
				c0-0.774,0.308-1.518,0.854-2.064S119.861,658.493,120.636,658.493L120.636,658.493z M135.237,658.493
				c0.772,0,1.517,0.309,2.063,0.855c0.548,0.547,0.855,1.29,0.855,2.064c2.206,3.401,3.232,7.435,2.92,11.477
				c0,5.637-5.84,9.17-5.84,14.806c-0.311,4.106,0.715,8.203,2.92,11.682c0,1.612-1.308,2.92-2.92,2.92
				c-1.613,0-2.92-1.308-2.92-2.92c-2.202-3.489-3.227-7.595-2.921-11.711c0-5.636,5.841-9.169,5.841-14.775
				c0.313-4.042-0.714-8.074-2.92-11.477c0-0.774,0.308-1.518,0.854-2.064S134.462,658.493,135.237,658.493L135.237,658.493z
				 M149.838,658.493c0.774,0,1.519,0.309,2.064,0.855c0.549,0.548,0.855,1.29,0.855,2.064c2.205,3.401,3.232,7.435,2.92,11.477
				c0,5.637-5.841,9.17-5.841,14.806c-0.31,4.106,0.716,8.203,2.921,11.682c0,1.612-1.308,2.92-2.921,2.92
				c-1.611,0-2.92-1.308-2.92-2.92c-2.202-3.489-3.226-7.595-2.921-11.711c0-5.636,5.841-9.169,5.841-14.775
				c0.313-4.042-0.713-8.074-2.92-11.477c0-0.774,0.309-1.518,0.855-2.064S149.064,658.493,149.838,658.493L149.838,658.493z
				 M164.439,658.493c0.772,0,1.517,0.309,2.063,0.855s0.854,1.29,0.854,2.064c2.208,3.401,3.232,7.435,2.921,11.477
				c0,5.637-5.84,9.17-5.84,14.806c-0.311,4.106,0.715,8.203,2.919,11.682c0,1.612-1.308,2.92-2.919,2.92
				c-1.613,0-2.92-1.308-2.92-2.92c-2.203-3.489-3.227-7.595-2.921-11.711c0-5.636,5.841-9.169,5.841-14.775
				c0.312-4.042-0.714-8.074-2.92-11.477c0-0.774,0.307-1.518,0.854-2.064S163.665,658.493,164.439,658.493L164.439,658.493z"/>
		</g>
	</g>
</g>
<g>
	<g>
		<g>
			<defs>
				<rect id="SVGID_29_" x="833.557" y="429.619" width="86.841" height="85.68"/>
			</defs>
			<clipPath id="SVGID_30_">
				<use xlink:href="#SVGID_29_"  overflow="visible"/>
			</clipPath>
			<path clip-path="url(#SVGID_30_)" fill="#515151" d="M899.402,479.061c-0.249-0.43-0.666-0.678-1.146-0.678h-3.021l0.612-0.611
				c0.477-0.479,0.625-1.132,0.386-1.709c-0.228-0.559-0.771-0.923-1.376-0.923c-0.414,0-0.821,0.176-1.143,0.499l-2.746,2.744
				h-4.992c-0.133-0.619-0.348-1.214-0.641-1.773l4.065-4.065h3.804c0.1,0.019,0.198,0.027,0.297,0.027
				c0.486,0,0.918-0.243,1.153-0.65c0.252-0.438,0.243-1.019-0.021-1.479c-0.273-0.471-0.775-0.753-1.348-0.753h-1.032l1.852-1.854
				c0.484-0.48,0.633-1.148,0.389-1.737c-0.221-0.535-0.73-0.896-1.271-0.896c-0.407,0-0.783,0.198-1.047,0.549l-2.056,2.054v-1.284
				c0-0.777-0.615-1.362-1.429-1.362c-0.813,0-1.426,0.585-1.426,1.362v4.002c-0.035,0.071-0.064,0.146-0.088,0.223l-3.671,3.676
				c-0.896-0.705-1.953-1.18-3.075-1.379v-5.689l2.994-2.99c0.477-0.479,0.625-1.135,0.387-1.711
				c-0.229-0.56-0.772-0.925-1.376-0.925c-0.415,0-0.822,0.178-1.144,0.503c-0.282,0.275-0.57,0.549-0.861,0.817v-2.135
				c0.067-0.336,0.004-0.668-0.188-0.934c-0.245-0.339-0.661-0.534-1.146-0.534c-0.865,0-1.521,0.587-1.521,1.366v2.003
				c-0.207-0.191-0.408-0.388-0.61-0.585c-0.325-0.327-0.736-0.506-1.156-0.506c-0.656,0-1.238,0.419-1.422,1.02
				c-0.159,0.522,0.035,1.071,0.493,1.414l2.695,2.7v6.233c-0.748,0.165-1.464,0.448-2.117,0.845
				c-1.651-1.543-3.312-3.153-4.965-4.782v-3.771c0.069-0.335,0.006-0.667-0.188-0.933c-0.244-0.341-0.661-0.533-1.146-0.533
				c-0.865,0-1.519,0.585-1.519,1.363v1.034l-1.063-1.063c-0.267-0.351-0.647-0.549-1.063-0.549c-0.576,0-1.146,0.396-1.38,0.963
				c-0.209,0.508-0.109,1.052,0.262,1.426l1.607,1.605h-1.431c-0.086-0.019-0.174-0.028-0.262-0.028
				c-0.398,0-0.755,0.195-0.977,0.536c-0.15,0.231-0.229,0.517-0.229,0.824c0,0.865,0.588,1.521,1.364,1.521h4.385l4.438,4.437
				c-0.485,0.729-0.829,1.541-1.015,2.397h-5.472c-0.16-0.169-0.32-0.344-0.488-0.523c-0.692-0.749-1.407-1.522-2.257-2.213
				c-0.261-0.326-0.624-0.509-1.017-0.509c-0.538,0-1.05,0.358-1.272,0.894c-0.244,0.589-0.095,1.255,0.389,1.739l0.612,0.611
				h-2.773c-0.78,0-1.364,0.666-1.364,1.552c0,0.883,0.584,1.551,1.364,1.551h2.745c-0.191,0.208-0.386,0.41-0.584,0.612
				c-0.482,0.48-0.633,1.146-0.389,1.736c0.223,0.534,0.732,0.895,1.272,0.895c0.393,0,0.756-0.184,1.016-0.506
				c0.85-0.692,1.567-1.468,2.26-2.218c0.166-0.179,0.327-0.354,0.486-0.521h5.473c0.197,0.915,0.578,1.778,1.117,2.542l-3.55,3.548
				h-3.787c-0.085-0.019-0.173-0.026-0.259-0.026c-0.688,0-1.206,0.587-1.206,1.361c0,0.867,0.587,1.52,1.364,1.52h1.037
				l-2.353,2.353c-0.398,0.397-0.509,0.98-0.281,1.523c0.241,0.585,0.814,0.979,1.427,0.979c0.301,0,0.599-0.094,0.863-0.271
				l0.066-0.042l2.655-2.656v1.184c-0.069,0.334-0.005,0.666,0.188,0.933c0.245,0.338,0.662,0.533,1.146,0.533
				c0.865,0,1.52-0.587,1.52-1.364v-4.139l3.411-3.41c0.605,0.339,1.256,0.585,1.933,0.732v5.985l-2.745,2.743
				c-0.475,0.475-0.622,1.082-0.396,1.62c0.227,0.544,0.805,0.909,1.442,0.909c0.341,0,0.675-0.103,0.967-0.296l0.064-0.044
				l0.668-0.667v2.028c0,0.806,0.671,1.459,1.491,1.459c0.372,0,0.714-0.139,0.966-0.396c0.182-0.188,0.396-0.522,0.396-1.063
				v-2.278l0.916,0.917l0.066,0.044c0.292,0.193,0.625,0.296,0.965,0.296c0.64,0,1.219-0.365,1.442-0.909
				c0.226-0.542,0.077-1.146-0.396-1.62l-2.994-2.992v-5.688c0.884-0.159,1.73-0.486,2.492-0.968l3.598,3.597v4.037
				c-0.07,0.334-0.005,0.666,0.186,0.933c0.246,0.341,0.664,0.534,1.147,0.534c0.865,0,1.519-0.588,1.519-1.363v-1.284l2.353,2.351
				c0.253,0.255,0.599,0.396,0.957,0.396c0.56,0,1.097-0.329,1.369-0.839c0.266-0.497,0.229-1.082-0.094-1.569l-0.044-0.063
				l-2.407-2.406h0.934c0.089,0.018,0.178,0.024,0.263,0.024l0,0c0.419,0,0.797-0.221,1.012-0.593
				c0.268-0.462,0.257-1.125-0.026-1.61c-0.247-0.432-0.666-0.678-1.143-0.678h-3.89l-3.601-3.598
				c0.481-0.762,0.812-1.606,0.969-2.492h4.693l2.996,2.994c0.32,0.321,0.727,0.499,1.143,0.499c0.604,0,1.147-0.363,1.376-0.922
				c0.239-0.579,0.092-1.232-0.388-1.711l-0.857-0.86h3.166c0.087,0.02,0.175,0.028,0.263,0.028c0.417,0,0.797-0.223,1.01-0.594
				C899.697,480.203,899.688,479.555,899.402,479.061L899.402,479.061z M883.045,479.935c0,2.305-1.607,3.913-3.913,3.913
				c-2.305,0-3.912-1.608-3.912-3.913s1.607-3.913,3.912-3.913C881.437,476.021,883.045,477.631,883.045,479.935L883.045,479.935z"
				/>
		</g>
		<g>
			<defs>
				<rect id="SVGID_31_" x="833.557" y="429.619" width="86.841" height="85.68"/>
			</defs>
			<clipPath id="SVGID_32_">
				<use xlink:href="#SVGID_31_"  overflow="visible"/>
			</clipPath>
			<path clip-path="url(#SVGID_32_)" fill="#515151" d="M906.763,432.174c-7.986-1.614-18.58-2.504-29.832-2.504
				c-11.255,0-21.85,0.89-29.836,2.504c-9.119,1.844-13.552,4.323-13.552,7.59v64.495c0,0,1.181,0.563,2.383,0
				c0.975-0.457,0.934-1.292,0.934-1.99v-58.2c2.247,1.27,5.648,2.357,10.235,3.284c7.986,1.615,18.581,2.505,29.834,2.505
				c11.254,0,21.848-0.89,29.834-2.505c4.586-0.927,7.986-2.016,10.234-3.284v58.23c-20.604,11.201-41.323,10.578-55.158,8.045
				c-2.982-0.547-5.939-1.229-8.861-2.042c-2.92-0.813-1.462,0.176-1.592,1.509c-0.13,1.331,1.592,1.936,1.592,1.936
				c2.691,0.721,5.41,1.333,8.148,1.84c5.025,0.927,10.926,1.609,17.393,1.608c12.308,0,26.667-2.476,40.945-10.471l0.85-0.473
				v-64.487C920.313,436.497,915.883,434.017,906.763,432.174L906.763,432.174z M906.106,444.102
				c-7.779,1.572-18.138,2.438-29.176,2.438c-11.041,0-21.402-0.865-29.178-2.438c-9.044-1.828-10.892-3.887-10.892-4.338
				c0-0.454,1.846-2.513,10.892-4.34c7.774-1.572,18.137-2.438,29.178-2.438c11.038,0,21.396,0.866,29.176,2.438
				c9.042,1.827,10.892,3.886,10.892,4.339C916.998,440.215,915.148,442.273,906.106,444.102L906.106,444.102z"/>
		</g>
	</g>
</g>
<rect x="287.153" y="18.758" fill="none" width="122.936" height="27.523"/>
<text transform="matrix(1 0 0 1 326.6213 37.6648)" fill="#595757" font-family="'SimHei'" font-size="22">供电</text>
<rect x="648.284" y="324.51" fill="none" width="122.937" height="27.522"/>
<text transform="matrix(1 0 0 1 687.7517 343.4158)" fill="#595757" font-family="'SimHei'" font-size="22">供热</text>
<rect x="363.429" y="446.666" display="none" fill="none" width="122.936" height="27.522"/>
<text transform="matrix(1 0 0 1 380.8967 465.573)" display="none" fill="#595757" enable-background="new    " font-family="'SimHei'" font-size="22">燃气锅炉</text>
<rect x="82.189" y="444.836" display="none" fill="none" width="122.936" height="27.521"/>
<text transform="matrix(1 0 0 1 99.6575 463.7419)" display="none" fill="#595757" enable-background="new    " font-family="'SimHei'" font-size="22">市政燃气</text>
<rect x="81.628" y="172.221" fill="none" width="122.937" height="27.522"/>
<text transform="matrix(1 0 0 1 99.0959 191.1277)" fill="#595757" font-family="'SimHei'" font-size="22">市政电网</text>
<rect x="629.228" y="119.604" fill="none" width="161.503" height="27.522"/>
<text transform="matrix(1 0 0 1 632.9783 138.5105)" fill="#595757" font-family="'SimHei'" font-size="22">离心式冷水机组</text>
<rect x="653.931" y="253.935" fill="none" width="114.824" height="27.522"/>
<text transform="matrix(1 0 0 1 678.3435 272.8406)" fill="#595757" font-family="'SimHei'" font-size="22">3000kW</text>
<rect x="367.329" y="573.992" display="none" fill="none" width="114.824" height="27.523"/>
<text transform="matrix(1 0 0 1 391.7415 592.8982)" display="none" fill="#595757" enable-background="new    " font-family="'SimHei'" font-size="22">3000kW</text>
<rect x="459.725" y="227.686" fill="none" width="122.936" height="27.521"/>
<text transform="matrix(1 0 0 1 477.1926 246.5916)" fill="#595757" font-family="'SimHei'" font-size="22">水源热泵</text>
<rect x="460.625" y="355.012" fill="none" width="114.824" height="27.522"/>
<text transform="matrix(1 0 0 1 485.0374 373.9187)" fill="#595757" font-family="'SimHei'" font-size="22">1800kW</text>
<rect x="355.172" y="615.875" display="none" fill="none" width="139.449" height="27.522"/>
<text transform="matrix(1 0 0 1 369.8967 634.782)" display="none" fill="#595757" enable-background="new    " font-family="'SimHei'" font-size="22">板式换热器</text>
<rect x="82.189" y="614.045" display="none" fill="none" width="122.936" height="27.521"/>
<text transform="matrix(1 0 0 1 99.6575 632.9509)" display="none" fill="#595757" enable-background="new    " font-family="'SimHei'" font-size="22">市政蒸汽</text>
<rect x="367.329" y="746.865" display="none" fill="none" width="114.824" height="27.523"/>
<text transform="matrix(1 0 0 1 391.7415 765.7712)" display="none" fill="#595757" enable-background="new    " font-family="'SimHei'" font-size="22">8000kW</text>
<rect x="833.112" y="566.945" display="none" fill="none" width="139.449" height="27.522"/>
<text transform="matrix(1 0 0 1 847.8376 585.8523)" display="none" fill="#595757" enable-background="new    " font-family="'SimHei'" font-size="22">蓄热电锅炉</text>
<rect x="845.27" y="697.936" display="none" fill="none" width="114.824" height="27.522"/>
<text transform="matrix(1 0 0 1 864.1814 716.8416)" display="none" fill="#595757" enable-background="new    " font-family="'SimHei'" font-size="22">4000kWh</text>
<rect x="808.272" y="396.128" fill="none" width="139.449" height="27.521"/>
<text transform="matrix(1 0 0 1 842.9988 415.033)" fill="#595757" font-family="'SimHei'" font-size="22">水蓄冷</text>
<rect x="820.43" y="527.117" fill="none" width="114.824" height="27.523"/>
<text transform="matrix(1 0 0 1 833.8416 546.0232)" fill="#595757" font-family="'SimHei'" font-size="22">17100kWh</text>
<rect x="980.431" y="15.758" fill="none" width="107.375" height="27.523"/>
<text transform="matrix(1 0 0 1 1012.1189 34.6648)" fill="#595757" font-family="'SimHei'" font-size="22">供冷</text>
<g>
	<path fill="#D4D5D5" d="M494.965,264.472l-24.39,8.546l76.057,3.167l16.36-9.019L494.965,264.472z"/>
	<path fill="#FFFFFF" d="M470.575,272.451v68.541l75.495,6.783l0.93-71.956L470.575,272.451z"/>
	<path fill="#AEAEAE" d="M562.821,267.211l-16.11,8.539l-0.811,72.162l16.921-13.294V267.211z"/>
	<path fill="#F2F2F2" d="M518.51,272.689c14.373,0,26.021-1.353,26.021-3.02v-5.113c-11.188,1.394-19.862,2.091-26.021,2.091
		c-7.806,0-16.481-0.726-26.021-2.176v5.198C492.487,271.337,504.135,272.689,518.51,272.689L518.51,272.689z"/>
	<path fill="#D4D5D5" d="M492.487,264.472c0,1.22,4.96,2.348,13.011,2.958c8.053,0.609,17.972,0.609,26.021,0
		c8.051-0.61,13.011-1.737,13.011-2.958c0-1.887-11.648-3.416-26.021-3.416C504.138,261.056,492.487,262.585,492.487,264.472
		L492.487,264.472z"/>
	<path fill="#E6B75F" d="M476.055,278.165l58.888,2.648v60.726l-58.888-5.852V278.165z"/>
	<path fill="#D4D5D5" d="M541.107,290.503c1.893,0,3.427-2.146,3.427-4.792c0-2.646-1.537-4.792-3.427-4.792
		c-0.157,0-1.216-0.029-1.366,0c-1.677,0.317-2.06,2.368-2.06,4.792c0,2.336,0.475,4.372,2.053,4.792c0.212,0.059,1.147,0,1.37,0
		H541.107z"/>
	<path fill="#E9EBE9" d="M536.314,285.711c0,2.647,1.533,4.792,3.424,4.792s3.422-2.146,3.422-4.792
		c0-2.646-1.531-4.792-3.422-4.792C537.848,280.918,536.314,283.064,536.314,285.711L536.314,285.711z"/>
	<path fill="#E6B75F" d="M540.908,282.481l-0.938,3.321l-0.477-0.174L540.908,282.481z M538.566,288.917l1.332-2.92l-0.475-0.173
		L538.566,288.917z"/>
	<path fill="#ED7038" d="M536.527,284.532c-0.418,1.147-0.19,2.43,0.593,3.365c0.785,0.936,2.009,1.38,3.21,1.168
		c1.202-0.212,2.199-1.049,2.617-2.196c0.417-1.146,0.19-2.429-0.594-3.364c-0.784-0.935-2.008-1.38-3.21-1.169
		C537.942,282.548,536.945,283.386,536.527,284.532L536.527,284.532z"/>
	<path fill="#ED7038" d="M536.527,284.532c-0.418,1.147-0.19,2.43,0.593,3.365c0.785,0.936,2.009,1.38,3.21,1.168
		c1.202-0.212,2.199-1.049,2.617-2.196c0.417-1.146,0.19-2.429-0.594-3.364c-0.784-0.935-2.008-1.38-3.21-1.169
		C537.942,282.548,536.945,283.386,536.527,284.532L536.527,284.532z"/>
	<path fill="#D4D5D5" d="M541.107,304.2c1.893,0,3.427-2.145,3.427-4.792c0-2.646-1.537-4.792-3.427-4.792
		c-0.157,0-1.216-0.031-1.366,0c-1.677,0.318-2.06,2.368-2.06,4.792c0,2.336,0.475,4.372,2.053,4.792c0.212,0.06,1.147,0,1.37,0
		H541.107z"/>
	<path fill="#E9EBE9" d="M536.314,299.408c0,2.647,1.533,4.792,3.424,4.792s3.422-2.145,3.422-4.792
		c0-2.646-1.531-4.792-3.422-4.792C537.848,294.616,536.314,296.761,536.314,299.408L536.314,299.408z"/>
	<path fill="#E6B75F" d="M540.909,296.176l-0.938,3.322l-0.477-0.173L540.909,296.176z M538.567,302.611l1.331-2.921l-0.475-0.173
		L538.567,302.611z"/>
	<path fill="#ED7038" d="M536.528,298.227c-0.418,1.146-0.19,2.43,0.593,3.365c0.784,0.935,2.009,1.38,3.211,1.168
		c1.201-0.211,2.198-1.049,2.615-2.196c0.418-1.146,0.191-2.43-0.593-3.364c-0.785-0.935-2.008-1.379-3.21-1.168
		S536.945,297.081,536.528,298.227L536.528,298.227z"/>
	<path fill="#566574" d="M551.349,322.906l1.175-0.705c0.782-0.471,1.409-0.313,1.879,0.469l0.35,0.579
		c0.47,0.783,0.313,1.409-0.47,1.881l-1.174,0.706c-0.783,0.471-1.409,0.313-1.88-0.469l-0.349-0.58
		C550.409,324.004,550.565,323.378,551.349,322.906L551.349,322.906z"/>
	<path fill="#566574" d="M557.75,319.241l1.174-0.706c0.783-0.47,1.41-0.313,1.881,0.469l0.349,0.579
		c0.47,0.783,0.313,1.409-0.47,1.88l-1.174,0.705c-0.782,0.471-1.409,0.314-1.88-0.468l-0.349-0.58
		C556.811,320.338,556.968,319.712,557.75,319.241L557.75,319.241z"/>
</g>
<line fill="none" stroke="#E61F19" stroke-width="8" stroke-miterlimit="10" x1="442.263" y1="647.745" x2="712.14" y2="647.745"/>
<polygon fill="#E61F19" stroke="#FFFFFF" stroke-width="3" stroke-miterlimit="10" points="584.144,627.416 600.836,647.212 
	584.144,667.008 "/>
<polygon fill="#E61F19" stroke="#FFFFFF" stroke-width="3" stroke-miterlimit="10" points="577.363,667.007 560.672,647.211 
	577.363,627.415 "/>
<g opacity="0.1">
	
		<image overflow="visible" opacity="0.75" width="226" height="132" xlink:href="9475C2DE.png"  transform="matrix(1 0 0 1 239.9373 587.4451)">
	</image>
	<g>
		
			<radialGradient id="SVGID_33_" cx="442.866" cy="646.1531" r="49.0786" gradientTransform="matrix(1.9621 0 0 1 -522.9794 0)" gradientUnits="userSpaceOnUse">
			<stop  offset="0.5744" style="stop-color:#1A0B08;stop-opacity:0"/>
			<stop  offset="0.7977" style="stop-color:#1A0B08;stop-opacity:0.6512"/>
			<stop  offset="1" style="stop-color:#1A0B08;stop-opacity:0.95"/>
		</radialGradient>
		<path fill="url(#SVGID_33_)" d="M442.263,684.9c0,5.707-9.074,10.332-20.271,10.332H269.944c-11.197,0-20.272-4.625-20.272-10.332
			v-77.494c0-5.707,9.075-10.332,20.272-10.332h152.048c11.197,0,20.271,4.625,20.271,10.332V684.9z"/>
		<path fill="none" stroke="#3E3A39" stroke-width="3" stroke-miterlimit="10" d="M442.263,684.9
			c0,5.707-9.074,10.332-20.271,10.332H269.944c-11.197,0-20.272-4.625-20.272-10.332v-77.494c0-5.707,9.075-10.332,20.272-10.332
			h152.048c11.197,0,20.271,4.625,20.271,10.332V684.9z"/>
	</g>
</g>
<path opacity="0.8" fill="none" stroke="#3E3A39" stroke-width="3" stroke-miterlimit="10" d="M442.263,685.048
	c0,6.199-9.689,11.224-21.643,11.224H272.668c-11.953,0-21.643-5.024-21.643-11.224V608.31c0-6.199,9.689-11.224,21.643-11.224
	h147.953c11.953,0,21.643,5.024,21.643,11.224V685.048z"/>
<g>
	<polygon opacity="0.6" fill="#FCFCFC" points="315.224,633.018 315.224,633.333 315.224,642.927 307.989,643.555 302.72,646.163 
		299.102,649.689 296.35,655.745 295.879,663.295 298.945,669.9 306.023,675.405 315.224,676.735 316.089,684.292 324.582,683.63 
		324.582,675.799 366.655,676.113 366.34,684.292 374.99,684.292 374.99,677.243 384.821,676.192 391.506,673.204 394.021,669.035 
		396.46,663.766 397.403,658.826 394.729,651.262 386.944,644.735 378.425,644.027 378.855,633.018 375.148,633.018 
		375.069,643.555 350.14,643.949 350.14,633.018 346.13,633.018 346.13,644.027 319.077,644.027 318.527,633.018 	"/>
	<g>
		<path fill="#515151" d="M383.956,677.83h-74.614v-35.637h74.614V677.83z M312.789,674.382h67.719V645.64h-67.719V674.382z
			 M312.789,674.382"/>
		<path fill="#515151" d="M310.385,677.885l-0.698-0.06c-4.067-0.336-7.841-2.345-10.625-5.65
			c-2.784-3.308-4.316-7.618-4.316-12.137c0-4.52,1.532-8.828,4.316-12.137c2.784-3.308,6.558-5.314,10.625-5.651l0.698-0.058
			V677.885z M308.28,645.661c-6.456,0.88-11.431,7.068-11.431,14.378s4.975,13.498,11.431,14.377V645.661z M382.793,677.856v-35.691
			l0.698,0.059c4.069,0.337,7.842,2.345,10.626,5.651c2.783,3.308,4.316,7.618,4.316,12.137c0,4.518-1.533,8.828-4.316,12.136
			c-2.784,3.307-6.557,5.315-10.626,5.652L382.793,677.856z M384.906,645.655v28.712c6.447-0.878,11.413-7.057,11.413-14.355
			C396.319,652.711,391.353,646.534,384.906,645.655L384.906,645.655z M319.908,643.486h-6.032v-11.347h6.032V643.486z
			 M316.246,642.193h1.294v-8.761h-1.294V642.193z M351.298,643.486h-6.032v-11.347h6.032V643.486z M347.636,642.193h1.292v-8.761
			h-1.292V642.193z M380.06,643.486h-6.033v-11.347h6.033V643.486z M376.398,642.193h1.291v-8.761h-1.291V642.193z M325.983,684.922
			h-11.288v-8.187h11.288V684.922z M317.136,682.889h6.406v-4.121h-6.406V682.889z M317.136,682.889"/>
		<path fill="#515151" d="M328.282,687.435h-16.301v-3.806h16.301V687.435z M313.273,685.805h13.716v-0.545h-13.716V685.805z
			 M376.557,684.922h-11.288v-8.187h11.288V684.922z M367.711,682.889h6.406v-4.121h-6.406V682.889z M367.711,682.889"/>
		<path fill="#515151" d="M378.855,687.435h-16.301v-3.806h16.301V687.435z M363.845,685.805h13.717v-0.545h-13.717V685.805z
			 M363.845,685.805"/>
		<rect x="288.856" y="653.611" fill="#515151" width="3.544" height="12.799"/>
		<rect x="292.052" y="658.826" fill="#515151" width="3.016" height="3.34"/>
		<path fill="#515151" d="M383.898,677.243H372.95v-15.508h10.948V677.243z M374.459,675.95h6.721v-12.923h-6.721V675.95z
			 M374.459,675.95"/>
		<path fill="#515151" d="M346.105,626.964c1.026,0.57,2.18,0.607,2.949,0.085c0.716-0.481,0.542-1.039-0.522-1.689
			c-3.593-2.181-4.044-4.896-1.244-7.512c0.764-0.714,1.587-1.405,2.297-2.138c1.249-1.293,2.175-2.669,2.218-3.829
			c0.005-1.928-1.984-4.633-3.866-5.649c-0.701-0.377-1.826-0.377-2.511,0c-0.703,0.392-0.769,0.866-0.168,1.432
			c0.493,0.462,1.01,0.907,1.502,1.37c1.629,1.496,1.815,3.07,0.451,4.656c-0.885,1.028-1.918,2-2.981,2.958
			C340.396,620.078,341.129,624.194,346.105,626.964L346.105,626.964z M368.632,627.122c0.876,0.468,2.041,0.384,2.708-0.122
			c0.62-0.469,0.488-0.984-0.376-1.508c-3.998-2.396-4.364-5.114-1.168-7.938c1.095-0.968,2.158-1.966,2.975-3.029
			c2.597-3.39,0.998-5.438-2.583-8.263c-0.601-0.469-1.857-0.426-2.565-0.024c-0.669,0.381-0.723,0.884-0.128,1.437
			c0.492,0.457,1.005,0.913,1.497,1.369c1.574,1.454,1.792,2.992,0.499,4.544c-0.872,1.052-1.93,2.044-2.992,3.022
			c-1.526,1.388-2.501,2.873-2.543,4.777C364.118,623.611,365.734,625.577,368.632,627.122L368.632,627.122z M323.339,626.635
			c0.343,0.216,0.703,0.432,1.112,0.601c0.816,0.336,1.898,0.216,2.47-0.235c0.56-0.438,0.427-1.003-0.337-1.478
			c-0.211-0.133-0.426-0.252-0.624-0.392c-3.233-2.132-3.589-4.734-0.993-7.191c0.902-0.854,1.863-1.688,2.691-2.566
			c1.119-1.196,1.941-2.464,1.919-3.901c0-2.127-1.924-3.701-3.882-5.24c-0.564-0.444-1.809-0.377-2.496,0
			c-0.672,0.374-0.731,0.896-0.148,1.443c0.492,0.457,0.998,0.913,1.497,1.369c1.64,1.497,1.783,3.072,0.427,4.652
			c-0.879,1.028-1.912,2.006-2.976,2.962C318.344,619.951,318.833,623.78,323.339,626.635L323.339,626.635z"/>
	</g>
</g>
<rect x="209.109" y="568.945" fill="none" width="139.449" height="27.522"/>
<text transform="matrix(1 0 0 1 223.8337 587.8503)" fill="#595757" font-family="'SimHei'" font-size="22">蓄热电锅炉</text>
<rect x="290.991" y="699.935" fill="none" width="114.824" height="27.523"/>
<text transform="matrix(1 0 0 1 309.9031 718.8406)" fill="#595757" font-family="'SimHei'" font-size="22">4000kWh</text>
</svg>
