<?xml version="1.0" encoding="utf-8"?>
<!-- Generator: Adobe Illustrator 22.1.0, SVG Export Plug-In . SVG Version: 6.00 Build 0)  -->
<svg version="1.1" id="图层_1" xmlns="http://www.w3.org/2000/svg" xmlns:xlink="http://www.w3.org/1999/xlink" x="0px" y="0px"
	 viewBox="0 0 346 342" style="enable-background:new 0 0 346 342;" xml:space="preserve">
<style type="text/css">
	.st0{fill:#FFFFFF;}
	.st1{font-family:'PingFangHK-Medium-B5pc-H';}
	.st2{font-size:24px;}
	.st3{fill:#FFFFFF;fill-opacity:0.8;}
	.st4{fill:#FFFFFF;fill-opacity:0.9524;}
	.st5{fill:#FFFFFF;fill-opacity:0.95;}
</style>
<title>编组</title>
<desc>Created with Sketch.</desc>
<g id="Page-1">
	<g id="创投区运行仿真绿中备份-5" transform="translate(-786.000000, -234.000000)">
		<g id="编组" transform="translate(786.000000, 234.000000)">
			
				<image style="overflow:visible;enable-background:new    ;" width="481" height="475" id="组-34" xlink:href="8049BD37A99CCFD6.png"  transform="matrix(0.7193 0 0 0.7193 0 0.158)">
			</image>
			<text transform="matrix(1 0 0 1 45 134)" class="st0 st1 st2">清洁低碳</text>
			<text transform="matrix(1 0 0 1 44 291)" class="st0 st1 st2">开放共享</text>
			<text transform="matrix(1 0 0 1 201 291)" class="st0 st1 st2">灵活智慧</text>
			<text transform="matrix(1 0 0 1 201 133)" class="st0 st1 st2">安全高效</text>
			<g id="zhihuidianli" transform="translate(228.000000, 202.000000)">
				<path id="形状" class="st3" d="M24,55c-5.6,0-8.6-14.2-8.6-27.5S18.4,0,24,0s8.6,14.2,8.6,27.5S29.6,55,24,55z"/>
				<path id="形状_1_" class="st3" d="M42.5,42.4c-5.7,0-14.8-3.5-22.8-8C9.3,28.5,1.4,21.5,0.2,16.8c-0.3-1.2-0.2-2.2,0.3-3.1
					c2.8-4.8,16.5-0.5,27.9,6c10.4,5.9,18.2,12.9,19.5,17.5c0.3,1.2,0.2,2.2-0.3,3.1C46.7,41.8,44.9,42.4,42.5,42.4z"/>
				<path id="形状_2_" class="st3" d="M5.5,42.4c-2.4,0-4.2-0.6-5-2c-0.5-0.9-0.6-1.9-0.3-3.1c1.2-4.6,9.1-11.7,19.5-17.5
					c11.4-6.4,25-10.7,27.9-6c0.5,0.9,0.6,1.9,0.3,3.1c-1.2,4.6-9.1,11.7-19.5,17.5C20.3,38.9,11.2,42.4,5.5,42.4z"/>
			</g>
			<g id="dthb" transform="translate(67.000000, 49.000000)">
				<path id="路径" class="st3" d="M28.5,50c-8.9,0-15.8-2.5-20.9-7.5C2.5,37.5,0,30.6,0,21.8c8.9,0,15.8,2.5,20.9,7.5
					C26,34.3,28.5,41.2,28.5,50c0-8.8,2.5-15.7,7.6-20.7c5.1-5,12-7.5,20.9-7.5c0,8.8-2.5,15.7-7.6,20.7C44.3,47.5,37.4,50,28.5,50z
					"/>
				<path id="路径_1_" class="st3" d="M29,50c7.8-7.8,11.8-16.1,11.8-25S36.8,7.8,29,0c-7.8,7.8-11.8,16.1-11.8,25
					S21.1,42.2,29,50z"/>
			</g>
			<g id="anquan" transform="translate(230.000000, 49.000000)">
				<path id="形状_3_" class="st4" d="M42,4.2v25.5c0,1.5-0.4,3-1,4.6c-0.7,1.5-1.6,3-2.8,4.4c-1.1,1.4-2.4,2.8-3.9,4
					c-1.5,1.3-2.9,2.4-4.4,3.4c-1.5,1-3,1.8-4.4,2.5c-1.4,0.7-2.7,1.1-3.7,1.4L21.3,50l-0.5-0.1c-1.1-0.2-2.4-0.7-3.8-1.4
					s-2.9-1.5-4.5-2.5C11,45.1,9.5,44,8,42.7c-1.5-1.3-2.8-2.6-4-4c-1.2-1.4-2.1-2.9-2.9-4.4c-0.7-1.5-1.1-3-1.1-4.6V4.2l1.7-0.3
					L21,0l19.7,3.9L42,4.2L42,4.2z M21,3.7l-0.2,0L4.2,6.7v16.1H21V3.7L21,3.7z M37.8,22.8H21v22.9c1.1-0.3,2.2-0.7,3.5-1.2
					c1.3-0.6,2.5-1.2,3.7-2c1.2-0.8,2.4-1.6,3.6-2.5c1.1-0.9,2.1-1.9,3-3c0.9-1.1,1.6-2.2,2.1-3.3c0.5-1.1,0.8-2.3,0.8-3.5V22.8
					L37.8,22.8z"/>
			</g>
			<g id="gongxiangtubiaozhuangtaileicaozuolei55" transform="translate(70.000000, 207.000000)">
				<path id="路径_2_" class="st5" d="M36,26.5c0.7,3.4,3.7,5.4,7,5.4c3.7,0,7-3,7-7s-3.3-7.4-7-7.4c-3.3,0-6.3,2.3-7,5.7H20.7
					c0,0-0.3-1.3-0.3-1.7l11.3-9.1c1.3,1,2.7,1.7,4.3,1.7c4,0,7-3.4,7-7c0-4-3.3-7-7-7c-4-0.3-7.3,3-7.3,6.7c0,1,0.3,2,0.7,3
					l-10.7,8.7c-2-2.3-5-4-8-4C4.7,14.4,0,19.1,0,25.2s4.7,10.4,10.3,10.4c3.3,0,6.3-1.7,8-4L30,40.3c-0.3,1-0.7,1.7-0.7,2.7
					c0,4,3.3,7,7,7c4,0,7-3.4,7-7c0-4-3.3-7-7-7c-1.7,0-3.3,0.7-4.7,1.7l-11.3-9.1c0.3-0.7,0.3-2,0.3-2H36z"/>
			</g>
		</g>
	</g>
</g>
</svg>
