<?xml version="1.0" encoding="utf-8"?>
<!-- Generator: Adobe Illustrator 22.1.0, SVG Export Plug-In . SVG Version: 6.00 Build 0)  -->
<svg version="1.1" id="图层_1" xmlns="http://www.w3.org/2000/svg" xmlns:xlink="http://www.w3.org/1999/xlink" x="0px" y="0px"
	 viewBox="0 0 18 18" style="enable-background:new 0 0 18 18;" xml:space="preserve">
<style type="text/css">
	.st0{fill:#3FC9A3;}
</style>
<title>youfanye-xue</title>
<desc>Created with Sketch.</desc>
<g id="Page-1">
	<g id="创投区运行仿真绿中备份-5" transform="translate(-1579.000000, -511.000000)">
		<g id="youfanye-xue" transform="translate(1579.000000, 511.000000)">
			<path id="路径" class="st0" d="M0.3,0.4c0.5-0.5,1.2-0.5,1.7,0l7.7,7.8C9.9,8.4,10,8.7,10,9c0,0.3-0.1,0.7-0.3,0.9L2,17.7
				c-0.5,0.5-1.2,0.5-1.7,0c-0.5-0.5-0.5-1.2,0-1.7l6.9-7L0.3,2C0.1,1.8,0,1.5,0,1.2C0,0.9,0.1,0.6,0.3,0.4L0.3,0.4z"/>
			<path id="路径备份" class="st0" d="M8.3,0.4c0.5-0.5,1.2-0.5,1.7,0l7.7,7.8C17.9,8.4,18,8.7,18,9c0,0.3-0.1,0.7-0.3,0.9
				L10,17.7c-0.5,0.5-1.2,0.5-1.7,0c-0.5-0.5-0.5-1.2,0-1.7l6.9-7L8.3,2C8.1,1.8,8,1.5,8,1.2C8,0.9,8.1,0.6,8.3,0.4L8.3,0.4z"/>
		</g>
	</g>
</g>
</svg>
