<?xml version="1.0" encoding="utf-8"?>
<!-- Generator: Adobe Illustrator 22.0.0, SVG Export Plug-In . SVG Version: 6.00 Build 0)  -->
<svg version="1.1" id="图层_1" xmlns="http://www.w3.org/2000/svg" xmlns:xlink="http://www.w3.org/1999/xlink" x="0px" y="0px"
	 viewBox="0 0 641 494" style="enable-background:new 0 0 641 494;" xml:space="preserve">
<style type="text/css">
	.st0{fill:none;stroke:#F3B919;stroke-width:2;}
	.st1{fill:none;stroke:#E71F19;stroke-width:2;}
	.st2{fill:none;stroke:#F4BA19;stroke-width:2;}
	.st3{fill:none;stroke:#5893C9;stroke-width:2;}
	.st4{fill:#F4BA19;}
	.st5{fill:#E71F19;}
	.st6{fill:#5893C9;}
	.st7{opacity:0.8;}
	.st8{fill:url(#SVGID_1_);stroke:url(#SVGID_2_);stroke-width:2;}
	.st9{fill:url(#SVGID_3_);}
	.st10{fill:none;stroke:url(#SVGID_4_);stroke-width:2;}
	.st11{fill:url(#SVGID_5_);stroke:url(#SVGID_6_);stroke-width:2;}
	.st12{fill:url(#SVGID_8_);stroke:url(#SVGID_10_);stroke-width:2;}
	.st13{opacity:0.1;}
	.st14{fill:none;stroke:#3E3A39;stroke-width:3;}
	.st15{fill:url(#路径_62_);stroke:url(#路径_63_);stroke-width:2;}
	.st16{fill:url(#SVGID_12_);}
	.st17{opacity:0.8;fill:url(#路径_64_);stroke:url(#路径_65_);stroke-width:2;enable-background:new    ;}
	.st18{fill:url(#SVGID_13_);}
	.st19{opacity:0.8;fill:url(#路径_66_);stroke:url(#路径_67_);stroke-width:2;enable-background:new    ;}
	.st20{filter:url(#Adobe_OpacityMaskFilter);}
	.st21{fill:#FFFFFF;}
	.st22{mask:url(#mask-15_1_);fill:none;stroke:#FFFFFF;stroke-width:2;}
	.st23{fill:none;stroke:#FFFFFF;stroke-width:2;}
	.st24{opacity:0.6;}
	.st25{fill:#546479;}
	.st26{fill:#EEEEEF;}
	.st27{filter:url(#Adobe_OpacityMaskFilter_1_);}
	.st28{mask:url(#mask-17_1_);fill:#384253;}
	.st29{filter:url(#Adobe_OpacityMaskFilter_2_);}
	.st30{mask:url(#mask-19_1_);fill:#384253;}
	.st31{fill:#C9CACA;}
	.st32{opacity:0.9;}
	.st33{fill:#C0E1F7;}
	.st34{filter:url(#Adobe_OpacityMaskFilter_3_);}
	.st35{mask:url(#mask-21_1_);fill:#145BAA;}
	.st36{filter:url(#Adobe_OpacityMaskFilter_4_);}
	.st37{mask:url(#mask-23_1_);fill:#0E80FF;}
	.st38{fill:#0E80FF;}
	.st39{filter:url(#Adobe_OpacityMaskFilter_5_);}
	.st40{mask:url(#mask-25_1_);fill:#5CB7DF;}
	.st41{fill:#2991B1;}
	.st42{fill:#EDB822;}
	.st43{fill:#474341;}
	.st44{fill:#B1771F;}
	.st45{filter:url(#Adobe_OpacityMaskFilter_6_);}
	.st46{mask:url(#mask-27_1_);fill:#FFFFFF;}
	.st47{filter:url(#Adobe_OpacityMaskFilter_7_);}
	.st48{mask:url(#mask-29_1_);fill:#FFFFFF;}
	.st49{fill:none;}
	.st50{font-family:'PingFangSC-Medium-GBpc-EUC-H';}
	.st51{font-size:16px;}
	.st52{font-family:'PingFangSC-Regular-GBpc-EUC-H';}
	.st53{font-size:14px;}
	.st54{fill:#D4D5D5;}
	.st55{fill:#AEAEAE;}
	.st56{fill:#F2F2F2;}
	.st57{fill:#E6B75F;}
	.st58{fill:#E9EBE9;}
	.st59{fill:#ED7038;}
	.st60{fill:#566574;}
	.st61{fill:none;stroke:#E61F19;stroke-width:2;}
	.st62{fill:#E61F19;}
	.st63{fill:url(#SVGID_14_);}
	.st64{opacity:0.8;fill:none;stroke:url(#路径_68_);stroke-width:2;enable-background:new    ;}
	.st65{fill:#515151;}
</style>
<title>proposal3</title>
<desc>Created with Sketch.</desc>
<g id="Page-1">
	<g id="创投区运行仿真绿备份-左备份" transform="translate(-680.000000, -172.000000)">
		<g id="编组-5" transform="translate(614.000000, 53.000000)">
			<g id="编组-7" transform="translate(36.000000, 94.000000)">
				<g id="编组-4">
					<g id="proposal3" transform="translate(23.000000, 22.000000)">
						<line id="路径" class="st0" x1="170" y1="89" x2="170" y2="382"/>
						<polyline id="路径_1_" class="st1" points="307,228 307,311 407,311 						"/>
						<line id="路径_2_" class="st2" x1="345" y1="126" x2="170" y2="126"/>
						<line id="路径_3_" class="st2" x1="220" y1="191" x2="170" y2="191"/>
						<line id="路径_4_" class="st3" x1="618" y1="191" x2="345" y2="191"/>
						<line id="路径_5_" class="st3" x1="617" y1="301" x2="576" y2="301"/>
						<line id="路径_6_" class="st3" x1="617" y1="91" x2="617" y2="383"/>
						<line id="路径_7_" class="st1" x1="407" y1="285" x2="407" y2="497"/>
						<line id="路径_8_" class="st2" x1="170" y1="155" x2="71" y2="155"/>
						<polygon id="路径_9_" class="st4" points="164,104 170,96 176,104 						"/>
						<polygon id="路径_10_" class="st5" points="351,305 359,311 351,317 						"/>
						<polygon id="路径_11_" class="st5" points="401,385 407,377 413,385 						"/>
						<polygon id="路径_12_" class="st5" points="401,298 407,290 413,298 						"/>
						<polygon id="路径_13_" class="st4" points="123,149 131,155 123,161 						"/>
						<polygon id="路径_14_" class="st4" points="195,185 203,191 195,197 						"/>
						<polygon id="路径_15_" class="st4" points="329,120 337,126 329,132 						"/>
						<polygon id="路径_16_" class="st6" points="585,120 593,126 585,132 						"/>
						<polygon id="路径_17_" class="st6" points="562,185 570,191 562,197 						"/>
						<polygon id="路径_18_" class="st6" points="599,295 607,301 599,307 						"/>
						<polygon id="路径_19_" class="st6" points="592,307 584,301 592,295 						"/>
						<polygon id="路径_20_" class="st6" points="524,120 532,126 524,132 						"/>
						<polygon id="路径_21_" class="st6" points="464,185 472,191 464,197 						"/>
						<polygon id="路径_22_" class="st6" points="611,105 617,97 623,105 						"/>
						<polygon id="路径_23_" class="st4" points="238,120 246,126 238,132 						"/>
						<g id="编组" transform="translate(8.000000, 125.000000)" class="st7">
							<g id="路径_24_">
								
									<linearGradient id="SVGID_1_" gradientUnits="userSpaceOnUse" x1="301.6619" y1="140.7033" x2="301.6619" y2="139.7033" gradientTransform="matrix(63.455 0 0 -63.457 -19110.2285 8928.8311)">
									<stop  offset="0" style="stop-color:#52FFEA;stop-opacity:0.31"/>
									<stop  offset="1" style="stop-color:#20A0FF;stop-opacity:0.3003"/>
								</linearGradient>
								
									<linearGradient id="SVGID_2_" gradientUnits="userSpaceOnUse" x1="301.6619" y1="140.7033" x2="301.6619" y2="139.7033" gradientTransform="matrix(63.455 0 0 -63.457 -19110.2285 8928.8311)">
									<stop  offset="0" style="stop-color:#52FFEA"/>
									<stop  offset="1" style="stop-color:#20A0FF"/>
								</linearGradient>
								<path class="st8" d="M63.5,57c0,3.7-3,6.7-6.7,6.7H6.7C3,63.7,0,60.7,0,57V6.9c0-3.7,3-6.7,6.7-6.7h50.1
									c3.7,0,6.7,3,6.7,6.7V57z"/>
							</g>
						</g>
						<g id="编组_1_" transform="translate(375.000000, 222.000000)" class="st7">
							<g id="路径_25_">
								
									<linearGradient id="SVGID_3_" gradientUnits="userSpaceOnUse" x1="-65.3381" y1="43.7034" x2="-65.3381" y2="42.7034" gradientTransform="matrix(63.455 0 0 -63.4557 4177.8389 2773.3318)">
									<stop  offset="0" style="stop-color:#52FFEA;stop-opacity:0.1842"/>
									<stop  offset="1" style="stop-color:#20A0FF;stop-opacity:0.2357"/>
								</linearGradient>
								<path class="st9" d="M63.5,56.9c0,3.7-3,6.7-6.7,6.7H6.8c-3.7,0-6.7-3-6.7-6.7V6.8c0-3.7,3-6.7,6.7-6.7h50.1
									c3.7,0,6.7,3,6.7,6.7V56.9z"/>
								
									<linearGradient id="SVGID_4_" gradientUnits="userSpaceOnUse" x1="-65.3381" y1="43.7034" x2="-65.3381" y2="42.7034" gradientTransform="matrix(63.455 0 0 -63.4557 4177.8389 2773.3318)">
									<stop  offset="0" style="stop-color:#52FFEA"/>
									<stop  offset="1" style="stop-color:#20A0FF"/>
								</linearGradient>
								<path class="st10" d="M63.5,56.9c0,3.7-3,6.7-6.7,6.7H6.8c-3.7,0-6.7-3-6.7-6.7V6.8c0-3.7,3-6.7,6.7-6.7h50.1
									c3.7,0,6.7,3,6.7,6.7V56.9z"/>
							</g>
						</g>
						<g id="编组_2_" transform="translate(141.000000, 25.000000)" class="st7">
							<g id="路径_26_">
								
									<linearGradient id="SVGID_5_" gradientUnits="userSpaceOnUse" x1="168.662" y1="240.7034" x2="168.662" y2="239.7034" gradientTransform="matrix(63.4557 0 0 -63.4557 -10670.3838 15274.0137)">
									<stop  offset="0" style="stop-color:#52FFEA;stop-opacity:0.31"/>
									<stop  offset="1" style="stop-color:#20A0FF;stop-opacity:0.3003"/>
								</linearGradient>
								
									<linearGradient id="SVGID_6_" gradientUnits="userSpaceOnUse" x1="168.662" y1="240.7034" x2="168.662" y2="239.7034" gradientTransform="matrix(63.4557 0 0 -63.4557 -10670.3838 15274.0137)">
									<stop  offset="0" style="stop-color:#52FFEA"/>
									<stop  offset="1" style="stop-color:#20A0FF"/>
								</linearGradient>
								<path class="st11" d="M63.9,56.8c0,3.7-3,6.7-6.7,6.7H7.1c-3.7,0-6.7-3-6.7-6.7V6.7C0.4,3,3.4,0,7.1,0h50.1
									c3.7,0,6.7,3,6.7,6.7V56.8L63.9,56.8z"/>
							</g>
						</g>
						<g id="编组_3_" transform="translate(583.000000, 25.000000)" class="st7">
							<g id="路径_27_">
								
									<linearGradient id="SVGID_8_" gradientUnits="userSpaceOnUse" x1="-273.338" y1="240.7034" x2="-273.338" y2="239.7034" gradientTransform="matrix(63.4557 0 0 -63.4557 17376.7617 15274.0137)">
									<stop  offset="0" style="stop-color:#52FFEA;stop-opacity:0.31"/>
									<stop  offset="1" style="stop-color:#20A0FF;stop-opacity:0.3003"/>
								</linearGradient>
								
									<linearGradient id="SVGID_10_" gradientUnits="userSpaceOnUse" x1="-273.338" y1="240.7034" x2="-273.338" y2="239.7034" gradientTransform="matrix(63.4557 0 0 -63.4557 17376.7617 15274.0137)">
									<stop  offset="0" style="stop-color:#52FFEA"/>
									<stop  offset="1" style="stop-color:#20A0FF"/>
								</linearGradient>
								<path class="st12" d="M63.6,56.8c0,3.7-3,6.7-6.7,6.7H6.9c-3.7,0-6.7-3-6.7-6.7V6.7C0.2,3,3.2,0,6.9,0H57
									c3.7,0,6.7,3,6.7,6.7V56.8z"/>
							</g>
						</g>
						<g id="编组_4_" transform="translate(346.000000, 95.000000)" class="st13">
							<g id="路径_28_">
								<path class="st14" d="M123.9,56.8c0,3.7-5.8,6.7-13,6.7H13.1c-7.2,0-13-3-13-6.7V6.7C0.1,3,5.9,0,13.1,0h97.8
									c7.2,0,13,3,13,6.7V56.8z"/>
							</g>
						</g>
						
							<linearGradient id="路径_62_" gradientUnits="userSpaceOnUse" x1="312.0242" y1="265.5075" x2="312.0242" y2="264.5075" gradientTransform="matrix(124 0 0 -67 -38283 17881)">
							<stop  offset="0" style="stop-color:#60AEA5;stop-opacity:0.1382"/>
							<stop  offset="1" style="stop-color:#475763;stop-opacity:0.1448"/>
						</linearGradient>
						
							<linearGradient id="路径_63_" gradientUnits="userSpaceOnUse" x1="312.0242" y1="265.5075" x2="312.0242" y2="264.5075" gradientTransform="matrix(124 0 0 -67 -38283 17881)">
							<stop  offset="0" style="stop-color:#52FFEA"/>
							<stop  offset="1" style="stop-color:#20A0FF"/>
						</linearGradient>
						<path id="路径_29_" class="st15" d="M470,151.4c0,4.2-6.3,7.6-14,7.6H360c-7.8,0-14-3.4-14-7.6V99.6c0-4.2,6.3-7.6,14-7.6
							H456c7.8,0,14,3.4,14,7.6V151.4L470,151.4z"/>
						<g id="编组_5_" transform="translate(220.000000, 161.000000)" class="st13">
							<g id="路径_30_">
								
									<radialGradient id="SVGID_12_" cx="89.662" cy="104.2034" r="0.9829" gradientTransform="matrix(63.4556 0 0 -63.4557 -5626.9893 6644.5503)" gradientUnits="userSpaceOnUse">
									<stop  offset="0.5744" style="stop-color:#000000;stop-opacity:0"/>
									<stop  offset="0.7977" style="stop-color:#000000;stop-opacity:0.6512"/>
									<stop  offset="1" style="stop-color:#000000;stop-opacity:0.95"/>
								</radialGradient>
								<path class="st16" d="M124.9,57.3c0,3.7-5.9,6.7-13.1,6.7H13.3c-7.3,0-13.1-3-13.1-6.7V7.2c0-3.7,5.9-6.7,13.1-6.7h98.5
									c7.3,0,13.1,3,13.1,6.7V57.3L124.9,57.3z"/>
								<path class="st14" d="M124.9,57.3c0,3.7-5.9,6.7-13.1,6.7H13.3c-7.3,0-13.1-3-13.1-6.7V7.2c0-3.7,5.9-6.7,13.1-6.7h98.5
									c7.3,0,13.1,3,13.1,6.7V57.3L124.9,57.3z"/>
							</g>
						</g>
						
							<linearGradient id="路径_64_" gradientUnits="userSpaceOnUse" x1="312.0242" y1="265.6719" x2="312.0242" y2="264.6719" gradientTransform="matrix(124 0 0 -64 -38408 17165)">
							<stop  offset="0" style="stop-color:#52FFEA;stop-opacity:0.2612"/>
							<stop  offset="1" style="stop-color:#20A0FF;stop-opacity:0.2199"/>
						</linearGradient>
						
							<linearGradient id="路径_65_" gradientUnits="userSpaceOnUse" x1="312.0242" y1="265.6719" x2="312.0242" y2="264.6719" gradientTransform="matrix(124 0 0 -64 -38408 17165)">
							<stop  offset="0" style="stop-color:#52FFEA"/>
							<stop  offset="1" style="stop-color:#20A0FF"/>
						</linearGradient>
						<path id="路径_31_" class="st17" d="M345,218.8c0,4-6.3,7.2-14,7.2H235c-7.8,0-14-3.2-14-7.2v-49.5c0-4,6.3-7.2,14-7.2H331
							c7.8,0,14,3.2,14,7.2V218.8L345,218.8z"/>
						<g id="编组_6_" transform="translate(451.000000, 270.000000)" class="st13">
							<g id="路径_32_">
								
									<radialGradient id="SVGID_13_" cx="-141.3381" cy="-4.7966" r="0.9829" gradientTransform="matrix(63.455 0 0 -63.455 9031.0459 -272.4741)" gradientUnits="userSpaceOnUse">
									<stop  offset="0.5744" style="stop-color:#000000;stop-opacity:0"/>
									<stop  offset="0.7977" style="stop-color:#000000;stop-opacity:0.6512"/>
									<stop  offset="1" style="stop-color:#000000;stop-opacity:0.95"/>
								</radialGradient>
								<path class="st18" d="M124.8,56.9c0,3.7-5.9,6.7-13.1,6.7H13.2c-7.3,0-13.1-3-13.1-6.7V6.8c0-3.7,5.9-6.7,13.1-6.7h98.5
									c7.3,0,13.1,3,13.1,6.7V56.9L124.8,56.9z"/>
								<path class="st14" d="M124.8,56.9c0,3.7-5.9,6.7-13.1,6.7H13.2c-7.3,0-13.1-3-13.1-6.7V6.8c0-3.7,5.9-6.7,13.1-6.7h98.5
									c7.3,0,13.1,3,13.1,6.7V56.9L124.8,56.9z"/>
							</g>
						</g>
						
							<linearGradient id="路径_66_" gradientUnits="userSpaceOnUse" x1="312.0242" y1="265.6719" x2="312.0242" y2="264.6719" gradientTransform="matrix(124 0 0 -64 -38178 17274)">
							<stop  offset="0" style="stop-color:#52FFEA;stop-opacity:0.2224"/>
							<stop  offset="1" style="stop-color:#20A0FF;stop-opacity:0.2363"/>
						</linearGradient>
						
							<linearGradient id="路径_67_" gradientUnits="userSpaceOnUse" x1="312.0242" y1="265.6719" x2="312.0242" y2="264.6719" gradientTransform="matrix(124 0 0 -64 -38178 17274)">
							<stop  offset="0" style="stop-color:#52FFEA"/>
							<stop  offset="1" style="stop-color:#20A0FF"/>
						</linearGradient>
						<path id="路径_33_" class="st19" d="M575,327.8c0,4-6.3,7.2-14,7.2H465c-7.8,0-14-3.2-14-7.2v-49.5c0-4,6.3-7.2,14-7.2H561
							c7.8,0,14,3.2,14,7.2V327.8L575,327.8z"/>
						<g id="编组_7_" transform="translate(143.000000, 27.000000)">
							<g id="Clipped">
								<g id="SVGID_7_">
								</g>
								<defs>
									<filter id="Adobe_OpacityMaskFilter" filterUnits="userSpaceOnUse" x="5.4" y="4.7" width="49" height="49">
										<feColorMatrix  type="matrix" values="1 0 0 0 0  0 1 0 0 0  0 0 1 0 0  0 0 0 1 0"/>
									</filter>
								</defs>
								<mask maskUnits="userSpaceOnUse" x="5.4" y="4.7" width="49" height="49" id="mask-15_1_">
									<g class="st20">
										<rect id="path-14_1_" x="0.3" y="0" class="st21" width="56.4" height="56.4"/>
									</g>
								</mask>
								<path id="形状" class="st22" d="M29.9,52.7c-13,0-23.5-10.5-23.5-23.5S16.9,5.7,29.9,5.7c13,0,23.5,10.5,23.5,23.5
									S42.9,52.7,29.9,52.7L29.9,52.7z"/>
							</g>
							<polygon id="路径_34_" class="st21" points="35.1,14 18,30.9 25.3,30.9 20.4,43 40,26.1 30.2,26.1 							"/>
						</g>
						<g id="编组_8_" transform="translate(591.000000, 34.000000)">
							<path id="路径_35_" class="st21" d="M35.9,16.7c-0.3-0.4-0.8-0.6-1.3-0.3L31.9,18v-2.7c0-0.3-0.3-0.6-0.6-0.6
								c-0.3,0-0.6,0.3-0.6,0.6v3.3L25,21.9v-6.6l2.9-1.7c0.3-0.2,0.4-0.5,0.2-0.8c-0.2-0.3-0.5-0.4-0.8-0.2L25,14v-3.1
								c0-0.5-0.4-0.9-0.9-0.9c-0.5,0-0.9,0.4-0.9,0.9V14l-2.4-1.3c-0.3-0.2-0.6-0.1-0.8,0.2c-0.2,0.3-0.1,0.6,0.2,0.8l2.9,1.7v6.6
								l-5.8-3.3v-3.3c0-0.3-0.3-0.6-0.6-0.6c-0.3,0-0.6,0.3-0.6,0.6V18l-2.7-1.6c-0.5-0.3-1-0.1-1.3,0.3c-0.3,0.4-0.1,1,0.3,1.3
								l2.7,1.6l-2.4,1.3c-0.3,0.2-0.4,0.5-0.2,0.8c0.1,0.2,0.3,0.3,0.5,0.3c0.1,0,0.2,0,0.3-0.1l2.9-1.7l5.8,3.3l-5.8,3.3l-2.9-1.7
								c-0.3-0.2-0.6-0.1-0.8,0.2c-0.2,0.3-0.1,0.6,0.2,0.8l2.4,1.3L12.5,29c-0.5,0.3-0.6,0.8-0.3,1.3c0.2,0.3,0.5,0.5,0.8,0.5
								c0.2,0,0.3,0,0.5-0.1l2.7-1.6v2.7c0,0.3,0.3,0.6,0.6,0.6c0.3,0,0.6-0.3,0.6-0.6v-3.3l5.8-3.3v6.6l-2.9,1.7
								c-0.3,0.2-0.4,0.5-0.2,0.8c0.1,0.2,0.3,0.3,0.5,0.3c0.1,0,0.2,0,0.3-0.1L23,33v3.1c0,0.5,0.4,0.9,0.9,0.9
								c0.5,0,0.9-0.4,0.9-0.9V33l2.4,1.3c0.1,0.1,0.2,0.1,0.3,0.1c0.2,0,0.4-0.1,0.5-0.3c0.2-0.3,0.1-0.6-0.2-0.8l-2.9-1.7v-6.6
								l5.8,3.3v3.3c0,0.3,0.3,0.6,0.6,0.6c0.3,0,0.6-0.3,0.6-0.6V29l2.7,1.6c0.2,0.1,0.3,0.1,0.5,0.1c0.3,0,0.6-0.2,0.8-0.5
								c0.3-0.4,0.1-1-0.3-1.3l-2.7-1.6l2.4-1.3c0.3-0.2,0.4-0.5,0.2-0.8c-0.2-0.3-0.5-0.4-0.8-0.2l-2.9,1.7l-5.8-3.3l5.8-3.3
								l2.9,1.7c0.1,0.1,0.2,0.1,0.3,0.1c0.2,0,0.4-0.1,0.5-0.3c0.2-0.3,0.1-0.6-0.2-0.8l-2.4-1.3l2.7-1.6
								C36,17.8,36.1,17.2,35.9,16.7L35.9,16.7z"/>
							<path id="形状_1_" class="st23" d="M23.6,46.3c-12.7,0-23-10.3-23-23s10.3-23,23-23c12.7,0,23,10.3,23,23
								S36.3,46.3,23.6,46.3L23.6,46.3z"/>
						</g>
						<g id="编组_9_" transform="translate(361.000000, 101.000000)" class="st24">
							<path id="形状_2_" class="st25" d="M48.1,13.7h36.1c0.3,0,0.5-0.1,0.5-0.5V4.5c0-0.3-0.3-0.5-0.5-0.5H41.9l-9.8,1.2
								c0,0-10.5-1.3-10.5,10.3v5.9h-16v19.5h82.9V21.4H48.1V13.7L48.1,13.7z M28.3,15.5c0,0,0.7-3.2,3.7-3.1h0.1v0.1l9.8,1.3h0.8
								v7.6H28.3V15.5L28.3,15.5z M90.2,21.4H92V41h-1.8V21.4z M2,21.4h1.8V41H2V21.4z"/>
							<rect id="矩形" x="67" y="10" class="st26" width="12" height="14"/>
							<g id="Clipped_1_">
								<g>
									<g id="SVGID_9_">
									</g>
									<defs>
										<filter id="Adobe_OpacityMaskFilter_1_" filterUnits="userSpaceOnUse" x="0.9" y="0.6" width="91.9" height="45.9">
											<feColorMatrix  type="matrix" values="1 0 0 0 0  0 1 0 0 0  0 0 1 0 0  0 0 0 1 0"/>
										</filter>
									</defs>
									<mask maskUnits="userSpaceOnUse" x="0.9" y="0.6" width="91.9" height="45.9" id="mask-17_1_">
										<g class="st27">
											<rect id="path-16_1_" x="0.1" y="0.6" class="st21" width="93.6" height="46.1"/>
										</g>
									</mask>
									<path id="形状_3_" class="st28" d="M19.4,18.2H30v1.3H19.4V18.2z M5.5,43.5V19.4H3.7v23.9l-1.2,1.5H0.9v1.8h7.2v-1.8H6.6
										L5.5,43.5z M90,43.3V19.4h-1.8v24.1L87,44.7h-1.5v1.8h7.2v-1.8h-1.5L90,43.3z M41.7,17.8h7.2v1.4h-7.2V17.8z M31.4,4.3h0.9
										v8.8h-0.9V4.3z M81.9,2.5h0.9v12.3h-0.9V2.5z M42.4,13.7V4.8h1.9V0.6h-3.6v4.1h0.7v8.9H42.4z"/>
								</g>
								<g>
									<g id="SVGID_11_">
									</g>
									<defs>
										<filter id="Adobe_OpacityMaskFilter_2_" filterUnits="userSpaceOnUse" x="0.1" y="19.4" width="93.6" height="22.9">
											<feColorMatrix  type="matrix" values="1 0 0 0 0  0 1 0 0 0  0 0 1 0 0  0 0 0 1 0"/>
										</filter>
									</defs>
									<mask maskUnits="userSpaceOnUse" x="0.1" y="19.4" width="93.6" height="22.9" id="mask-19_1_">
										<g class="st29">
											<rect id="path-18_1_" x="0.1" y="0.6" class="st21" width="93.6" height="46.1"/>
										</g>
									</mask>
									<path id="形状_4_" class="st30" d="M93.7,20.5V20h-0.5v-0.6h-1.8v22.9h1.8v-0.4h0.5v-0.5h-0.5v-1h0.5v-0.5h-0.5V39h0.5
										v-0.5h-0.5v-0.8h0.5v-0.5h-0.5v-0.8h0.5v-0.5h-0.5v-1h0.5v-0.5h-0.5v-0.9h0.5v-0.5h-0.5V32h0.5v-0.5h-0.5v-1h0.5v-0.5h-0.5
										v-0.8h0.5v-0.5h-0.5v-0.8h0.5v-0.5h-0.5v-0.8h0.5v-0.5h-0.5v-1h0.5v-0.5h-0.5v-0.9h0.5v-0.5h-0.5v-0.8h0.5v-0.5h-0.5v-1
										L93.7,20.5L93.7,20.5z M2.4,42.3V19.4H0.5V20H0.1v0.5h0.5v1H0.1v0.5h0.5v0.8H0.1v0.5h0.5v0.9H0.1v0.5h0.5v1H0.1v0.5h0.5
										v0.8H0.1v0.5h0.5v0.8H0.1v0.5h0.5v0.8H0.1v0.5h0.5v1H0.1V32h0.5v0.8H0.1v0.5h0.5v0.9H0.1v0.5h0.5v1H0.1v0.5h0.5v0.8H0.1
										v0.5h0.5v0.8H0.1V39h0.5v0.8H0.1v0.5h0.5v1H0.1v0.5h0.5v0.4H2.4L2.4,42.3z M67.2,23.6h11.9v1.8H67.2V23.6z"/>
								</g>
							</g>
							<rect id="矩形_1_" x="71" y="14" class="st31" width="5" height="5"/>
						</g>
						<g id="编组_10_" transform="translate(13.000000, 131.000000)" class="st32">
							<path id="形状_5_" class="st33" d="M49.8,22.7c0.9,0,1.6-0.7,1.6-1.6v-6.2c0,0,0-0.2-0.2-0.2L51,14.6l-0.2-0.2
								c0,0-0.2-0.2-0.4-0.2L32.9,8c-0.2-0.2-0.5-0.2-0.7-0.2c-0.2,0-0.5,0-0.7,0.2l-17.6,6.2c-0.2,0-0.2,0-0.4,0.2l-0.2,0.2
								l-0.2,0.2l-0.2,0.2v6.2c0,0.9,0.7,1.6,1.6,1.6c0.9,0,1.6-0.7,1.6-1.6v-1.6h9.2v3.4l-11.2,3.9c-0.2,0-0.2,0-0.4,0.2l-0.2,0.2
								l-0.2,0.2l-0.2,0.2v1.2c-0.5,0.7-1.1,1.8-1.4,3c-2.5-0.7-4.6-0.5-5.5,0.5c-0.9,1.4,0,3.7,2.1,6c-2.1,2.3-3,4.8-2.1,6
								c0.9,1.2,2.8,1.2,5.5,0.5c0.9,2.5,2.1,4.1,3.6,4.1c1.4,0,2.7-1.6,3.6-4.1c2.5,0.7,4.6,0.5,5.5-0.5c0.9-1.4,0-3.7-2.1-6
								c2.1-2.3,3-4.8,2.1-6c-0.5-0.9-1.8-1.1-3.2-1.1c2.8-0.5,5.2-0.2,6,1.2c0.5,0.7,0.5,1.6,0.4,2.7l2.5,2l-4.1,3.2
								c0.7,1.1,1.2,2,1.4,2.8l5.2-4.1l14.4,11.4h2.1c0,0,0.2,0,0.2-0.2h0.2c0,0,0.2,0,0.2-0.2v-1.8l-8.4-16.9h7.8v2
								c0,0.9,0.7,1.6,1.6,1.6c0.9,0,1.6-0.7,1.6-1.6v-6.2c0,0,0-0.2-0.2-0.2l-0.2-0.2l-0.2-0.2c0,0-0.2-0.2-0.4-0.2l-11.2-3.9v-3.4
								h9.2v1.6C48.2,22,48.9,22.7,49.8,22.7L49.8,22.7z M24.9,29h-6c0.5,0.7,1.1,1.6,1.4,2.7c-0.7,0-1.4,0.2-2.3,0.4
								c-0.9-2.5-2.1-4.1-3.6-4.1h-0.5c0.5-0.4,1.2-0.7,2-0.7c0.9,0,1.8,0.4,2.5,1.2l6.4-2.3V29H24.9L24.9,29z"/>
							<g id="Clipped_2_">
								<g>
									<g id="SVGID_15_">
									</g>
									<defs>
										<filter id="Adobe_OpacityMaskFilter_3_" filterUnits="userSpaceOnUse" x="9.6" y="35.6" width="3.1" height="3.4">
											<feColorMatrix  type="matrix" values="1 0 0 0 0  0 1 0 0 0  0 0 1 0 0  0 0 0 1 0"/>
										</filter>
									</defs>
									<mask maskUnits="userSpaceOnUse" x="9.6" y="35.6" width="3.1" height="3.4" id="mask-21_1_">
										<g class="st34">
											<rect id="path-20_1_" x="0.1" y="0.5" class="st21" width="52.4" height="50"/>
										</g>
									</mask>
									<path id="路径_36_" class="st35" d="M11.9,35.9c-0.5-0.4-1.1-0.4-1.6,0c-0.5,0.4-0.7,0.9-0.7,1.4c0,0.5,0.4,1.1,0.7,1.4
										c0.5,0.4,1.1,0.4,1.6,0c0.5-0.4,0.7-0.9,0.7-1.4C12.8,36.6,12.4,36.1,11.9,35.9L11.9,35.9z"/>
								</g>
								<g>
									<g id="SVGID_17_">
									</g>
									<defs>
										<filter id="Adobe_OpacityMaskFilter_4_" filterUnits="userSpaceOnUse" x="0.1" y="24.3" width="22.2" height="25.9">
											<feColorMatrix  type="matrix" values="1 0 0 0 0  0 1 0 0 0  0 0 1 0 0  0 0 0 1 0"/>
										</filter>
									</defs>
									<mask maskUnits="userSpaceOnUse" x="0.1" y="24.3" width="22.2" height="25.9" id="mask-23_1_">
										<g class="st36">
											<rect id="path-22_1_" x="0.1" y="0.5" class="st21" width="52.4" height="50"/>
										</g>
									</mask>
									<path id="形状_6_" class="st37" d="M21.8,30c-0.9-1.4-3.4-1.6-6.4-0.7c-0.9-3-2.5-5-4.3-5c-1.8,0-3.2,2-4.3,5
										c-3-0.9-5.5-0.7-6.4,0.7c-1.1,1.6,0,4.4,2.5,7.3c-2.5,2.8-3.6,5.7-2.5,7.3c0.9,1.4,3.4,1.6,6.4,0.7c0.9,3,2.5,5,4.3,5
										s3.2-2,4.3-5c3,0.9,5.5,0.7,6.4-0.7c1.1-1.6,0-4.4-2.5-7.3C21.8,34.3,22.9,31.6,21.8,30L21.8,30z M2.3,43.2
										c-0.5-0.9,0.2-2.7,2.1-4.6C4.9,39.1,5.5,39.4,6,40c0.2,1.2,0.4,2.3,0.5,3.4C4.4,43.9,2.8,44.1,2.3,43.2L2.3,43.2z
										 M5.7,37.3C5.8,37.3,5.8,37.1,5.7,37.3C5.8,37.3,5.8,37.3,5.7,37.3C5.8,37.3,5.8,37.3,5.7,37.3L5.7,37.3z M5.8,34.5
										c-0.5,0.5-1.1,0.9-1.6,1.4c-1.8-2-2.7-3.7-2.1-4.6c0.5-0.7,2.1-0.7,4.1-0.2C6.2,32.2,6,33.2,5.8,34.5L5.8,34.5z M14.2,32.9
										C14.2,32.9,14,32.9,14.2,32.9c-0.4-0.2-0.7-0.4-0.9-0.7c0.4-0.2,0.5-0.2,0.9-0.4C14,32.2,14,32.5,14.2,32.9L14.2,32.9z
										 M11.2,26.5c0.9,0,1.8,1.2,2.5,3.4c-0.7,0.4-1.6,0.7-2.5,1.1c-0.9-0.4-1.6-0.7-2.5-1.1C9.2,27.9,10.1,26.5,11.2,26.5
										L11.2,26.5z M8.1,31.8C8.3,32,8.7,32,9,32.2c-0.4,0.2-0.7,0.4-0.9,0.5V31.8z M8.1,41.6c0.4,0.2,0.7,0.4,0.9,0.7
										c-0.4,0.2-0.5,0.2-0.9,0.4V41.6z M11.2,47.8c-0.9,0-1.8-1.2-2.5-3.4c0.7-0.4,1.6-0.7,2.5-1.1c0.9,0.4,1.6,0.7,2.5,1.1
										C12.9,46.6,12.1,47.8,11.2,47.8L11.2,47.8z M14,42.6c-0.2-0.2-0.5-0.2-0.9-0.4c0.4-0.2,0.7-0.4,0.9-0.5V42.6z M14.4,38.9
										c-0.5,0.4-0.9,0.7-1.4,1.1c-0.7,0.4-1.2,0.9-1.8,1.2c-0.5-0.4-1.2-0.7-1.8-1.2c-0.5-0.4-0.9-0.7-1.4-1.1v-3.6
										c0.5-0.4,0.9-0.7,1.4-1.1c0.7-0.4,1.2-0.9,1.8-1.2c0.5,0.4,1.2,0.7,1.8,1.2c0.5,0.4,0.9,0.7,1.4,1.1V38.9z M19.9,43.2
										c-0.5,0.7-2.1,0.7-4.1,0.2c0.2-1.1,0.4-2.1,0.5-3.4c0.5-0.5,1.1-0.9,1.6-1.4C19.7,40.5,20.6,42.3,19.9,43.2L19.9,43.2z
										 M16.5,37.3C16.5,37.1,16.5,37.3,16.5,37.3L16.5,37.3z M17.9,35.9c-0.5-0.5-1.1-0.9-1.6-1.4c-0.2-1.2-0.4-2.3-0.5-3.4
										c2.1-0.7,3.6-0.7,4.1,0.2C20.6,32.2,19.7,33.9,17.9,35.9L17.9,35.9z"/>
								</g>
							</g>
							<path id="形状_7_" class="st38" d="M50.1,17.6c1.1,0,1.2-0.9,1.2-1.8V9.1c0-0.2,0-0.2-0.2-0.4c0-0.2-0.2-0.2-0.2-0.4
								c0-0.2-0.2-0.2-0.2-0.2c-0.2,0-0.2-0.2-0.4-0.2c-0.2,0-0.2-0.2-0.4-0.2L30.2,0.7c-0.2-0.2-0.5-0.2-0.9-0.2
								c-0.4,0-0.5,0-0.9,0.2L8.5,7.8c-0.2,0-0.2,0-0.4,0.2C8,8,8,8.2,7.8,8.2c-0.2,0-0.2,0.2-0.2,0.2c0,0.2-0.2,0.2-0.2,0.4
								c0,0.2,0,0.2-0.2,0.4v7.1c0,1.1,0.4,1.8,1.2,1.8s1.1-0.9,1.1-1.8v-1.8h11.7v3.9L8.5,22.7c-0.2,0-0.2,0-0.4,0.2
								c-0.2,0-0.2,0.2-0.4,0.2c-0.2,0-0.2,0.2-0.2,0.2c0,0.2-0.2,0.2-0.2,0.4s0,0.2-0.2,0.4v2.1c1.1-1.8,2.5-2.7,3.9-2.7
								c1.1,0,1.8-0.7,2.7,0.2l7.5-2.7v4.8h-6c0.7,0.9,0.4,1.4,0.9,2.7c3.2-0.7,5.9-0.2,6.9,1.4c0.5,0.9,2.1,2,1.8,3.2l2.5,2.1
								l-4.6,3.7c0.7,1.1,1.4,1.4,1.8,2.5l4.8-3.9l16.4,12.8h0.5c0.2,0,0.2,0,0.4,0.2h1.2c0,0,0.2,0,0.2-0.2l0.2-0.2l0.2-0.2
								c0,0,0-0.2,0.2-0.2c0.2-0.2,0.2-0.2,0.2-0.4V48l-9.6-19.2h10v2.1c0,1.1,0.4,1.8,1.4,1.8s1.1-0.9,1.1-1.8v-6.8
								c0-0.2,0-0.2-0.2-0.4c0-0.2-0.2-0.2-0.2-0.4c0-0.2-0.2-0.2-0.2-0.2c-0.2,0-0.2-0.2-0.4-0.2c-0.2,0-0.2-0.2-0.4-0.2l-12.8-4.4
								v-3.9h11.6v1.8C48.7,16.9,49.1,17.6,50.1,17.6L50.1,17.6z M22.9,11.2H9.6V10l13.3-4.4V11.2z M25.6,5.7V4.8L29,3.2l3.4,1.6
								v6.4h-6.9V5.7H25.6L25.6,5.7z M24.9,14h8.7v2.5l-3.2-1.1c-0.4-0.2-0.7-0.4-1.2-0.4c-0.4,0-0.9,0.2-1.2,0.4l-3.2,1.1V14H24.9z
								 M24,19.6l5.3-2l5.3,2v5.7H24.2v-5.7H24z M29.1,33.1l-5.7-4.6v-0.2h11.4c0.5,0,0,0.2,0,0.2L29.1,33.1z M45.5,46.6L31.1,34.8
								l5.2-4.3C36.2,30,39.3,35.4,45.5,46.6L45.5,46.6z M48.3,24.5l-0.2,1.1h-11v-4.8L48.3,24.5z M35.4,11.4V5.7l13.3,4.4v1.2H35.4
								L35.4,11.4z"/>
						</g>
						<g id="编组_11_" transform="translate(381.000000, 229.000000)" class="st24">
							<g id="Clipped_3_">
								<g>
									<g id="SVGID_21_">
									</g>
									<defs>
										<filter id="Adobe_OpacityMaskFilter_5_" filterUnits="userSpaceOnUse" x="0" y="0.2" width="49.8" height="49.3">
											<feColorMatrix  type="matrix" values="1 0 0 0 0  0 1 0 0 0  0 0 1 0 0  0 0 0 1 0"/>
										</filter>
									</defs>
									<mask maskUnits="userSpaceOnUse" x="0" y="0.2" width="49.8" height="49.3" id="mask-25_1_">
										<g class="st39">
											<rect id="path-24_1_" x="0" y="0.2" class="st21" width="49.9" height="49.4"/>
										</g>
									</mask>
									<path id="路径_37_" class="st40" d="M24.9,49.5C11.2,49.5,0,38.4,0,24.8S11.2,0.2,24.9,0.2c13.7,0,24.9,11.1,24.9,24.6
										S38.6,49.5,24.9,49.5L24.9,49.5z"/>
								</g>
							</g>
							<path id="路径_38_" class="st41" d="M50,27.1l-22-9.6c0,0-1.9-0.8-4-0.4c-2.4,0.4-6.9,2.2-6.9,7.5c0,3.2,1.2,4.9,1.2,4.9
								l6,19.5c0.3,0,0.6,0,0.9,0C38.1,49,48.8,39.4,50,27.1L50,27.1z"/>
							<path id="路径_39_" class="st42" d="M18.7,30c-1.1-1.4-1.7-3.1-1.7-5c0-4.4,3.6-8,8-8c4.4,0,8,3.6,8,8s-3.6,8-8,8
								c-1.1,0-2.2-0.2-3.1-0.6"/>
							<path id="形状_8_" class="st43" d="M24.4,33c-1.1,0-2.2-0.2-3.3-0.7c-0.2-0.1-0.2-0.3-0.2-0.4c0.1-0.2,0.3-0.2,0.4-0.2
								c1,0.4,2,0.6,3,0.6c4.3,0,7.7-3.4,7.7-7.7c0-4.2-3.5-7.7-7.7-7.7s-7.7,3.4-7.7,7.7c0,1.7,0.6,3.4,1.7,4.8
								c0.1,0.1,0.1,0.3-0.1,0.5c-0.1,0.1-0.3,0.1-0.5-0.1c-1.2-1.5-1.8-3.3-1.8-5.2c0-4.6,3.8-8.3,8.4-8.3c4.6,0,8.4,3.7,8.4,8.3
								C32.8,29.3,29,33,24.4,33 M26.9,12.3c-0.1,0-0.2,0-0.3-0.1c-0.1-0.1-0.1-0.2-0.1-0.3l0.3-1.7c0-0.2,0.2-0.3,0.4-0.3
								c0.1,0,0.2,0.1,0.2,0.1c0.1,0.1,0.1,0.2,0.1,0.2L27.2,12C27.2,12.2,27.1,12.3,26.9,12.3 M26.5,15.4c-0.1,0-0.2,0-0.3-0.1
								c-0.1-0.1-0.1-0.2-0.1-0.3l0.3-1.9c0-0.2,0.2-0.3,0.4-0.3c0.2,0,0.3,0.2,0.3,0.4l-0.3,1.9C26.8,15.3,26.6,15.4,26.5,15.4
								 M17.3,14.5c-0.1,0-0.2,0-0.3-0.1l-0.9-1.2c-0.1-0.1-0.1-0.2-0.1-0.2c0-0.1,0.1-0.2,0.1-0.2c0.1-0.1,0.2-0.1,0.2-0.1
								c0.1,0,0.2,0.1,0.2,0.1l0.9,1.2c0.1,0.1,0.1,0.2,0.1,0.2c0,0.1-0.1,0.2-0.1,0.2C17.5,14.5,17.4,14.5,17.3,14.5 M19.3,17.1
								c-0.1,0-0.2,0-0.3-0.1l-1.1-1.5c-0.1-0.1-0.1-0.2-0.1-0.2c0-0.1,0.1-0.2,0.1-0.2c0.1-0.1,0.4-0.1,0.5,0.1l1.1,1.5
								c0.1,0.1,0.1,0.2,0.1,0.2c0,0.1-0.1,0.2-0.1,0.2C19.4,17.1,19.3,17.1,19.3,17.1 M35.2,17.4c-0.1,0-0.2-0.1-0.3-0.1
								c-0.1-0.1-0.1-0.2-0.1-0.2c0-0.1,0.1-0.2,0.1-0.2l1.5-1.1c0.1-0.1,0.2-0.1,0.2-0.1c0.1,0,0.2,0.1,0.2,0.1
								C37,15.9,37,16,37,16c0,0.1-0.1,0.2-0.1,0.2l-1.5,1.1C35.3,17.4,35.3,17.4,35.2,17.4 M32.8,19.2c-0.1,0-0.2,0-0.3-0.1
								c-0.1-0.1-0.1-0.2-0.1-0.2c0-0.1,0.1-0.2,0.1-0.2l1.3-0.9c0.1-0.1,0.2-0.1,0.2-0.1c0.1,0,0.2,0.1,0.2,0.1
								c0.1,0.1,0.1,0.2,0.1,0.2c0,0.1-0.1,0.2-0.1,0.2L33,19.1C32.9,19.1,32.9,19.2,32.8,19.2"/>
							<path id="形状_9_" class="st44" d="M30.7,21.4c0.3,0.5,0.6,1,0.9,1.5c0.2,0.3,0.6,0,0.4-0.3c-0.3-0.5-0.5-1-0.9-1.5
								C30.9,20.9,30.5,21.1,30.7,21.4 M28.2,19.5c0.7,0.2,1.3,0.6,1.8,1.1c0.2,0.2,0.6-0.1,0.4-0.4c-0.6-0.6-1.3-1-2-1.2
								C28,18.9,27.9,19.4,28.2,19.5"/>
							<path id="形状_10_" class="st43" d="M22.4,39C22.3,39,22.3,39,22.4,39c-0.1,0-0.2-0.1-0.3-0.1C22,38.8,22,38.7,22,38.6
								l0.3-1.6c0-0.1,0.1-0.2,0.2-0.3c0.1,0,0.2,0,0.3,0c0.1,0.1,0.1,0.2,0.1,0.3l-0.3,1.6C22.7,38.9,22.5,39,22.4,39 M22.8,36.3
								c-0.1,0-0.2,0-0.2-0.1c-0.1-0.1-0.1-0.2-0.1-0.3l0.3-1.9c0-0.2,0.2-0.3,0.4-0.3c0.1,0,0.2,0.1,0.2,0.1
								c0.1,0.1,0.1,0.2,0.1,0.2L23.1,36C23.1,36.2,22.9,36.3,22.8,36.3 M33.1,36.4c-0.1,0-0.2,0-0.3-0.1l-0.9-1.2
								c-0.1-0.1-0.1-0.3,0.1-0.4c0.1-0.1,0.2-0.1,0.2-0.1c0.1,0,0.2,0.1,0.2,0.1l0.9,1.2c0.1,0.1,0.1,0.2,0.1,0.2
								c0,0.1-0.1,0.2-0.1,0.2C33.2,36.4,33.2,36.4,33.1,36.4 M31.3,34.1c-0.1,0-0.2,0-0.3-0.1L30,32.6c-0.1-0.1-0.1-0.2-0.1-0.2
								c0-0.1,0.1-0.2,0.1-0.2c0.1-0.1,0.2-0.1,0.2-0.1c0.1,0,0.2,0.1,0.2,0.1l1.1,1.4c0.1,0.1,0.1,0.2,0.1,0.2
								c0,0.1-0.1,0.2-0.1,0.2C31.5,34.1,31.4,34.1,31.3,34.1 M12.9,33.5c-0.1,0-0.2,0-0.3-0.1c-0.1-0.1-0.1-0.2-0.1-0.2
								c0-0.1,0.1-0.2,0.1-0.2l1.5-1.1c0.1-0.1,0.4-0.1,0.5,0.1c0.1,0.1,0.1,0.2,0.1,0.2c0,0.1-0.1,0.2-0.1,0.2l-1.5,1.1
								C13,33.5,13,33.5,12.9,33.5 M15.5,31.6c-0.1,0-0.2,0-0.3-0.1c-0.1-0.1-0.1-0.2-0.1-0.2c0-0.1,0.1-0.2,0.1-0.2l1.3-0.9
								c0.1-0.1,0.3-0.1,0.5,0.1c0.1,0.1,0.1,0.3-0.1,0.4l-1.3,0.9C15.6,31.6,15.6,31.6,15.5,31.6 M14.1,23.7
								C14.1,23.7,14,23.7,14.1,23.7l-1.7-0.2c-0.1,0-0.2-0.1-0.2-0.1c-0.1-0.1-0.1-0.2-0.1-0.2c0-0.2,0.2-0.3,0.4-0.3l1.7,0.2
								c0.1,0,0.2,0.1,0.3,0.2c0.1,0.1,0,0.2,0,0.3C14.3,23.7,14.2,23.8,14.1,23.7 M11.3,23.3C11.3,23.3,11.2,23.3,11.3,23.3l-2-0.3
								c-0.1,0-0.2-0.1-0.2-0.1C9,22.9,9,22.8,9,22.7c0-0.2,0.2-0.3,0.4-0.3l2,0.3c0.1,0,0.2,0.1,0.3,0.2c0.1,0.1,0,0.2,0,0.3
								C11.5,23.3,11.4,23.4,11.3,23.3 M39.7,27.1C39.7,27.1,39.6,27.1,39.7,27.1L38,26.9c-0.1,0-0.2-0.1-0.2-0.1
								c-0.1-0.1-0.1-0.2-0.1-0.2c0-0.2,0.2-0.3,0.4-0.3l1.7,0.2c0.1,0,0.2,0.1,0.2,0.1c0.1,0.1,0.1,0.2,0.1,0.2
								C40,27,39.8,27.1,39.7,27.1 M36.9,26.7C36.9,26.7,36.8,26.7,36.9,26.7l-2-0.3c-0.1,0-0.2-0.1-0.2-0.1
								c-0.1-0.1-0.1-0.2-0.1-0.2c0-0.2,0.2-0.3,0.4-0.3l1.9,0.3c0.1,0,0.2,0.1,0.3,0.2c0.1,0.1,0,0.2,0,0.3
								C37.1,26.7,37,26.8,36.9,26.7 M15.2,19.9c-0.1,0-0.1,0-0.2-0.1l-1.4-1c-0.1-0.1-0.2-0.3-0.1-0.4c0.1-0.1,0.3-0.2,0.5-0.1
								l1.4,1c0.1,0.1,0.1,0.1,0.1,0.2c0,0.1,0,0.2-0.1,0.2C15.4,19.8,15.3,19.9,15.2,19.9 M34.4,31.1c-0.1,0-0.1,0-0.2-0.1
								l-1.4-0.9c-0.2-0.1-0.2-0.3-0.1-0.4c0.1-0.1,0.3-0.2,0.5-0.1l1.4,0.9c0.1,0,0.1,0.1,0.1,0.2c0,0.1,0,0.2,0,0.2
								C34.6,31,34.5,31.1,34.4,31.1 M12.8,27.7c-0.2,0-0.3-0.1-0.3-0.3c0-0.1,0-0.2,0.1-0.2c0.1-0.1,0.1-0.1,0.2-0.1l1.7-0.2
								c0.2,0,0.3,0.1,0.4,0.3c0,0.2-0.1,0.3-0.3,0.4L12.8,27.7C12.9,27.7,12.9,27.7,12.8,27.7 M34.6,22.7c-0.2,0-0.3-0.1-0.3-0.3
								c0-0.2,0.1-0.3,0.3-0.3l1.7-0.3c0.2,0,0.4,0.1,0.4,0.2c0,0.2-0.1,0.3-0.3,0.4L34.6,22.7C34.6,22.6,34.6,22.7,34.6,22.7
								 M18.1,35.1c-0.1,0-0.1,0-0.2-0.1c-0.1-0.1-0.1-0.1-0.1-0.2c0-0.1,0-0.2,0.1-0.2l1-1.3c0.1-0.1,0.1-0.1,0.2-0.1
								c0.1,0,0.2,0,0.2,0.1c0.1,0.1,0.1,0.1,0.1,0.2c0,0.1,0,0.2-0.1,0.2l-1,1.3C18.3,35,18.2,35.1,18.1,35.1 M29.8,16.6
								c-0.1,0-0.1,0-0.2-0.1c-0.1,0-0.1-0.1-0.1-0.2c0-0.1,0-0.2,0-0.2l0.9-1.4c0.1-0.1,0.3-0.2,0.5-0.1s0.2,0.3,0.1,0.4L30,16.5
								C30,16.6,29.9,16.6,29.8,16.6 M28,36.3c-0.2,0-0.3-0.1-0.3-0.3l-0.3-1.6c0-0.1,0-0.2,0.1-0.2c0.1-0.1,0.1-0.1,0.2-0.1
								c0.2,0,0.3,0.1,0.4,0.3l0.3,1.6c0,0.1,0,0.2-0.1,0.3C28.2,36.2,28.1,36.3,28,36.3 M22.8,15.2c-0.2,0-0.3-0.1-0.3-0.3
								l-0.3-1.6c0-0.1,0-0.2,0-0.2c0-0.1,0.1-0.1,0.2-0.1s0.2,0,0.2,0c0.1,0,0.1,0.1,0.1,0.2l0.3,1.6C23.1,15,23,15.2,22.8,15.2
								C22.8,15.2,22.8,15.2,22.8,15.2"/>
						</g>
						<g id="编组_12_" transform="translate(489.000000, 279.000000)">
							<g id="Clipped_4_">
								<g id="SVGID_29_">
								</g>
								<defs>
									<filter id="Adobe_OpacityMaskFilter_6_" filterUnits="userSpaceOnUse" x="14.6" y="17.1" width="23.3" height="23.1">
										<feColorMatrix  type="matrix" values="1 0 0 0 0  0 1 0 0 0  0 0 1 0 0  0 0 0 1 0"/>
									</filter>
								</defs>
								<mask maskUnits="userSpaceOnUse" x="14.6" y="17.1" width="23.3" height="23.1" id="mask-27_1_">
									<g class="st45">
										<rect id="path-26_1_" x="0.3" y="0.3" class="st21" width="49.3" height="48.3"/>
									</g>
								</mask>
								<path id="形状_11_" class="st46" d="M37.7,28.2c-0.1-0.2-0.4-0.4-0.7-0.4h-1.7l0.3-0.3c0.3-0.3,0.4-0.6,0.2-1
									c-0.1-0.3-0.4-0.5-0.8-0.5c-0.2,0-0.5,0.1-0.6,0.3l-1.6,1.5h-2.8c-0.1-0.3-0.2-0.7-0.4-1l2.3-2.3h2.2c0.1,0,0.1,0,0.2,0
									c0.3,0,0.5-0.1,0.7-0.4c0.1-0.2,0.1-0.6,0-0.8c-0.2-0.3-0.4-0.4-0.8-0.4h-0.6l1.1-1c0.3-0.3,0.4-0.6,0.2-1
									c-0.1-0.3-0.4-0.5-0.7-0.5c-0.2,0-0.4,0.1-0.6,0.3l-1.2,1.2v-0.7c0-0.4-0.3-0.8-0.8-0.8c-0.5,0-0.8,0.3-0.8,0.8v2.3
									c0,0,0,0.1,0,0.1l-2.1,2.1c-0.5-0.4-1.1-0.7-1.7-0.8v-3.2l1.7-1.7c0.3-0.3,0.4-0.6,0.2-1c-0.1-0.3-0.4-0.5-0.8-0.5
									c-0.2,0-0.5,0.1-0.6,0.3c-0.2,0.2-0.3,0.3-0.5,0.5V18c0-0.2,0-0.4-0.1-0.5c-0.1-0.2-0.4-0.3-0.7-0.3c-0.5,0-0.9,0.3-0.9,0.8
									V19c-0.1-0.1-0.2-0.2-0.3-0.3c-0.2-0.2-0.4-0.3-0.7-0.3c-0.4,0-0.7,0.2-0.8,0.6c-0.1,0.3,0,0.6,0.3,0.8l1.5,1.5v3.5
									c-0.4,0.1-0.8,0.3-1.2,0.5c-0.9-0.9-1.9-1.8-2.8-2.7v-2.1c0-0.2,0-0.4-0.1-0.5c-0.1-0.2-0.4-0.3-0.7-0.3
									c-0.5,0-0.9,0.3-0.9,0.8V21l-0.6-0.6c-0.2-0.2-0.4-0.3-0.6-0.3c-0.3,0-0.7,0.2-0.8,0.5c-0.1,0.3-0.1,0.6,0.1,0.8l0.9,0.9
									h-0.8c0,0-0.1,0-0.1,0c-0.2,0-0.4,0.1-0.6,0.3c-0.1,0.1-0.1,0.3-0.1,0.5c0,0.5,0.3,0.9,0.8,0.9h2.5l2.5,2.5
									c-0.3,0.4-0.5,0.9-0.6,1.4h-3.1c-0.1-0.1-0.2-0.2-0.3-0.3c-0.4-0.4-0.8-0.9-1.3-1.2c-0.1-0.2-0.4-0.3-0.6-0.3
									c-0.3,0-0.6,0.2-0.7,0.5c-0.1,0.3-0.1,0.7,0.2,1l0.3,0.3h-1.6c-0.4,0-0.8,0.4-0.8,0.9c0,0.5,0.3,0.9,0.8,0.9h1.6
									c-0.1,0.1-0.2,0.2-0.3,0.3c-0.3,0.3-0.4,0.6-0.2,1c0.1,0.3,0.4,0.5,0.7,0.5c0.2,0,0.4-0.1,0.6-0.3c0.5-0.4,0.9-0.8,1.3-1.2
									c0.1-0.1,0.2-0.2,0.3-0.3h3.1c0.1,0.5,0.3,1,0.6,1.4l-2,2h-2.2c0,0-0.1,0-0.1,0c-0.4,0-0.7,0.3-0.7,0.8
									c0,0.5,0.3,0.9,0.8,0.9h0.6L18,35.9c-0.2,0.2-0.3,0.6-0.2,0.9c0.1,0.3,0.5,0.6,0.8,0.6c0.2,0,0.3-0.1,0.5-0.2l0,0l1.5-1.5
									v0.7c0,0.2,0,0.4,0.1,0.5c0.1,0.2,0.4,0.3,0.7,0.3c0.5,0,0.9-0.3,0.9-0.8v-2.3l1.9-1.9c0.3,0.2,0.7,0.3,1.1,0.4v3.4
									l-1.6,1.5c-0.3,0.3-0.4,0.6-0.2,0.9c0.1,0.3,0.5,0.5,0.8,0.5c0.2,0,0.4-0.1,0.5-0.2l0,0l0.4-0.4v1.1c0,0.5,0.4,0.8,0.8,0.8
									c0.2,0,0.4-0.1,0.5-0.2c0.1-0.1,0.2-0.3,0.2-0.6v-1.3l0.5,0.5l0,0c0.2,0.1,0.4,0.2,0.5,0.2c0.4,0,0.7-0.2,0.8-0.5
									c0.1-0.3,0-0.6-0.2-0.9l-1.7-1.7v-3.2c0.5-0.1,1-0.3,1.4-0.5l2,2v2.3c0,0.2,0,0.4,0.1,0.5c0.1,0.2,0.4,0.3,0.7,0.3
									c0.5,0,0.9-0.3,0.9-0.8v-0.7l1.3,1.3c0.1,0.1,0.3,0.2,0.5,0.2c0.3,0,0.6-0.2,0.8-0.5c0.2-0.3,0.1-0.6-0.1-0.9l0,0l-1.4-1.4
									h0.5c0.1,0,0.1,0,0.1,0l0,0c0.2,0,0.5-0.1,0.6-0.3c0.2-0.3,0.1-0.6,0-0.9c-0.1-0.2-0.4-0.4-0.6-0.4h-2.2l-2-2
									c0.3-0.4,0.5-0.9,0.6-1.4h2.7l1.7,1.7c0.2,0.2,0.4,0.3,0.6,0.3c0.3,0,0.7-0.2,0.8-0.5c0.1-0.3,0.1-0.7-0.2-1l-0.5-0.5H37
									c0,0,0.1,0,0.1,0c0.2,0,0.5-0.1,0.6-0.3C37.9,28.8,37.9,28.5,37.7,28.2L37.7,28.2z M28.4,28.7c0,1.3-0.9,2.2-2.2,2.2
									c-1.3,0-2.2-0.9-2.2-2.2s0.9-2.2,2.2-2.2C27.5,26.5,28.4,27.4,28.4,28.7L28.4,28.7z"/>
							</g>
							<g id="Clipped_5_">
								<g id="SVGID_31_">
								</g>
								<defs>
									<filter id="Adobe_OpacityMaskFilter_7_" filterUnits="userSpaceOnUse" x="0.3" y="0.4" width="49.3" height="48.2">
										<feColorMatrix  type="matrix" values="1 0 0 0 0  0 1 0 0 0  0 0 1 0 0  0 0 0 1 0"/>
									</filter>
								</defs>
								<mask maskUnits="userSpaceOnUse" x="0.3" y="0.4" width="49.3" height="48.2" id="mask-29_1_">
									<g class="st47">
										<rect id="path-28_1_" x="0.3" y="0.3" class="st21" width="49.3" height="48.3"/>
									</g>
								</mask>
								<path id="形状_12_" class="st48" d="M41.9,1.8c-4.5-0.9-10.6-1.4-17-1.4c-6.4,0-12.4,0.5-17,1.4c-5.2,1-7.7,2.4-7.7,4.3
									v36.3c0,0,0.7,0.3,1.4,0c0.6-0.3,0.5-0.7,0.5-1.1V8.5C3.5,9.2,5.4,9.8,8,10.3c4.5,0.9,10.6,1.4,17,1.4
									c6.4,0,12.4-0.5,17-1.4c2.6-0.5,4.5-1.1,5.8-1.8v32.8c-11.7,6.3-23.5,6-31.3,4.5c-1.7-0.3-3.4-0.7-5-1.2
									c-1.7-0.5-0.8,0.1-0.9,0.8c-0.1,0.7,0.9,1.1,0.9,1.1c1.5,0.4,3.1,0.8,4.6,1c2.9,0.5,6.2,0.9,9.9,0.9c7,0,15.2-1.4,23.3-5.9
									l0.5-0.3V6.1C49.6,4.2,47.1,2.8,41.9,1.8L41.9,1.8z M41.5,8.5C37.1,9.4,31.2,9.9,25,9.9c-6.3,0-12.2-0.5-16.6-1.4
									c-5.1-1-6.2-2.2-6.2-2.4c0-0.3,1-1.4,6.2-2.4C12.8,2.7,18.7,2.2,25,2.2c6.3,0,12.2,0.5,16.6,1.4c5.1,1,6.2,2.2,6.2,2.4
									C47.7,6.3,46.7,7.5,41.5,8.5L41.5,8.5z"/>
							</g>
						</g>
						<rect id="矩形_2_" x="133" y="8" class="st49" width="79" height="18"/>
						<text transform="matrix(1 0 0 1 156 17)" class="st21 st50 st51">供电</text>
						<rect id="矩形_3_" x="366" y="206" class="st49" width="79" height="18"/>
						<text transform="matrix(1 0 0 1 391 217)" class="st21 st50 st51">供热</text>
						<rect id="矩形_4_" y="107" class="st49" width="79" height="18"/>
						<text transform="matrix(1 0 0 1 13 116)" class="st21 st52 st53">市政电网</text>
						<rect id="矩形_5_" x="354" y="73" class="st49" width="105" height="18"/>
						<text transform="matrix(1 0 0 1 357 81)" class="st21 st52 st53">离心式冷水机组</text>
						<rect id="矩形_6_" x="371" y="160" class="st49" width="74" height="18"/>
						<text transform="matrix(1 0 0 1 386 176)" class="st21 st52 st53">3000kW</text>
						<rect id="矩形_7_" x="245" y="143" class="st49" width="79" height="18"/>
						<text transform="matrix(1 0 0 1 256 154)" class="st21 st52 st53">水源热泵</text>
						<rect id="矩形_8_" x="245" y="226" class="st49" width="74" height="18"/>
						<text transform="matrix(1 0 0 1 261 245)" class="st21 st52 st53">1800kW</text>
						<rect id="矩形_9_" x="470" y="252" class="st49" width="90" height="18"/>
						<text transform="matrix(1 0 0 1 492 263)" class="st21 st52 st53">水蓄冷</text>
						<rect id="矩形_10_" x="478" y="337" class="st49" width="74" height="18"/>
						<text transform="matrix(1 0 0 1 483 353)" class="st21 st52 st53">17100kWh</text>
						<rect id="矩形_11_" x="582" y="6" class="st49" width="69" height="18"/>
						<text transform="matrix(1 0 0 1 601 17)" class="st21 st50 st51">供冷</text>
						<g id="编组_13_" transform="translate(254.000000, 169.000000)">
							<polygon id="路径_40_" class="st54" points="14.3,2 0,7.1 44.4,9 54,3.6 							"/>
							<polygon id="路径_41_" class="st21" points="1,7 1,46.1 44.5,50 45,8.9 							"/>
							<polygon id="路径_42_" class="st55" points="54,4 44.5,8.9 44,50 54,42.4 							"/>
							<path id="路径_43_" class="st56" d="M28,7c8.3,0,15-0.8,15-1.8V2.1c-6.4,0.8-11.4,1.3-15,1.3c-4.5,0-9.5-0.4-15-1.3v3.2
								C13,6.2,19.7,7,28,7L28,7z"/>
							<path id="路径_44_" class="st54" d="M13,2c0,0.7,2.9,1.4,7.5,1.7c4.6,0.4,10.4,0.4,15,0C40.1,3.4,43,2.7,43,2
								c0-1.1-6.7-2-15-2C19.7,0,13,0.9,13,2L13,2z"/>
							<polygon id="路径_45_" class="st57" points="4,10 38,11.5 38,46 4,42.7 							"/>
							<path id="路径_46_" class="st54" d="M41,17c1.1,0,2-1.3,2-3s-0.9-3-2-3c-0.1,0-0.7,0-0.8,0c-1,0.2-1.2,1.5-1.2,3
								c0,1.5,0.3,2.7,1.2,3C40.3,17,40.9,17,41,17L41,17z"/>
							<path id="路径_47_" class="st58" d="M38,14c0,1.7,0.9,3,2,3s2-1.3,2-3s-0.9-3-2-3C38.9,11,38,12.3,38,14L38,14z"/>
							<path id="形状_13_" class="st57" d="M41,12l-0.4,2.1L40.4,14L41,12z M40,16l0.6-1.8l-0.2-0.1L40,16z"/>
							<path id="路径_48_" class="st59" d="M38.1,13.3c-0.2,0.7-0.1,1.4,0.3,2c0.5,0.5,1.2,0.8,1.9,0.7c0.7-0.1,1.3-0.6,1.5-1.3
								c0.2-0.7,0.1-1.4-0.3-2s-1.2-0.8-1.9-0.7C38.9,12.2,38.4,12.6,38.1,13.3L38.1,13.3z"/>
							<path id="路径_49_" class="st59" d="M38.1,13.3c-0.2,0.7-0.1,1.4,0.3,2c0.5,0.5,1.2,0.8,1.9,0.7c0.7-0.1,1.3-0.6,1.5-1.3
								c0.2-0.7,0.1-1.4-0.3-2s-1.2-0.8-1.9-0.7C38.9,12.2,38.4,12.6,38.1,13.3L38.1,13.3z"/>
							<path id="路径_50_" class="st54" d="M41,25c1.1,0,2-1.3,2-3c0-1.6-0.9-3-2-3c-0.1,0-0.7,0-0.8,0c-1,0.2-1.2,1.5-1.2,3
								c0,1.5,0.3,2.7,1.2,3C40.3,25,40.9,25,41,25L41,25z"/>
							<path id="路径_51_" class="st58" d="M38,22c0,1.7,0.9,3,2,3s2-1.3,2-3c0-1.7-0.9-3-2-3C38.9,19,38,20.3,38,22L38,22z"/>
							<path id="形状_14_" class="st57" d="M41,20l-0.4,2.1L40.4,22L41,20z M40,24l0.6-1.8l-0.2-0.1L40,24z"/>
							<path id="路径_52_" class="st59" d="M38.1,21.3c-0.2,0.7-0.1,1.4,0.3,2c0.5,0.5,1.2,0.8,1.9,0.7c0.7-0.1,1.3-0.6,1.5-1.3
								c0.2-0.7,0.1-1.4-0.3-2c-0.5-0.5-1.2-0.8-1.9-0.7C38.9,20.2,38.4,20.6,38.1,21.3L38.1,21.3z"/>
							<path id="路径_53_" class="st60" d="M47.5,35.5l0.8-0.3c0.5-0.2,1-0.2,1.3,0.2l0.2,0.3c0.3,0.4,0.2,0.7-0.3,0.9l-0.8,0.3
								c-0.5,0.2-1,0.2-1.3-0.2l-0.2-0.3C46.9,36,47,35.7,47.5,35.5L47.5,35.5z"/>
							<path id="路径_54_" class="st60" d="M50.5,33.5l0.8-0.3c0.5-0.2,1-0.2,1.3,0.2l0.2,0.3c0.3,0.4,0.2,0.7-0.3,0.9l-0.8,0.3
								c-0.5,0.2-1,0.2-1.3-0.2l-0.2-0.3C49.9,34,50,33.7,50.5,33.5L50.5,33.5z"/>
						</g>
						<line id="路径_55_" class="st61" x1="233" y1="414" x2="408" y2="414"/>
						<polygon id="路径_56_" class="st62" points="325,408 333,414 325,420 						"/>
						<polygon id="路径_57_" class="st62" points="317,420 309,414 317,408 						"/>
						<g id="编组_14_" transform="translate(108.000000, 383.000000)">
							<g id="路径_58_">
								
									<linearGradient id="SVGID_14_" gradientUnits="userSpaceOnUse" x1="204.026" y1="-117.2966" x2="204.026" y2="-118.2966" gradientTransform="matrix(124.0921 0 0 -63.4557 -25255.5488 -7443.0884)">
									<stop  offset="0" style="stop-color:#52FFEA;stop-opacity:0.2824"/>
									<stop  offset="1" style="stop-color:#20A0FF;stop-opacity:0.2999"/>
								</linearGradient>
								<path class="st63" d="M124.5,56.8c0,3.7-5.8,6.7-13.1,6.7h-98c-7.2,0-13.1-3-13.1-6.7V6.7C0.4,3,6.3,0,13.5,0h98
									c7.2,0,13.1,3,13.1,6.7V56.8L124.5,56.8z"/>
							</g>
						</g>
						
							<linearGradient id="路径_68_" gradientUnits="userSpaceOnUse" x1="312.0242" y1="265.6719" x2="312.0242" y2="264.6719" gradientTransform="matrix(124 0 0 -64 -38520 17386)">
							<stop  offset="0" style="stop-color:#52FFEA"/>
							<stop  offset="1" style="stop-color:#20A0FF"/>
						</linearGradient>
						<path id="路径_59_" class="st64" d="M219,447H123c-7.8,0-14-3.2-14-7.2v-49.5c0-4,6.3-7.2,14-7.2H219c7.8,0,14,3.2,14,7.2
							v49.5C233,443.8,226.7,447,219,447z"/>
						<g id="编组_15_" transform="translate(133.000000, 387.000000)">
							<polygon id="路径_60_" class="st49" points="17.7,18.2 17.7,18.4 17.7,24.7 13,25.1 9.5,26.8 7.2,29.1 5.4,33 5.1,37.9 
								7.1,42.2 11.7,45.8 17.7,46.7 18.2,51.6 23.7,51.2 23.7,46.1 51,46.3 50.8,51.6 56.4,51.6 56.4,47 62.8,46.3 67.1,44.4 
								68.8,41.7 70.4,38.2 71,35 69.2,30.1 64.2,25.9 58.7,25.4 58.9,18.2 56.5,18.2 56.5,25.1 40.3,25.3 40.3,18.2 37.7,18.2 
								37.7,25.4 20.2,25.4 19.8,18.2 							"/>
							<g>
								<path id="形状_15_" class="st21" d="M62.2,47.4H13.8V24.2h48.4V47.4z M16.1,45.1H60V26.4H16.1V45.1z"/>
								<path id="形状_16_" class="st21" d="M14.5,47.4l-0.5,0c-2.6-0.2-5.1-1.5-6.9-3.7c-1.8-2.2-2.8-5-2.8-7.9
									c0-2.9,1-5.7,2.8-7.9c1.8-2.2,4.3-3.5,6.9-3.7l0.5,0V47.4z M13.2,26.5C9,27,5.7,31.1,5.7,35.8s3.2,8.8,7.4,9.4V26.5z
									 M61.5,47.4V24.2l0.5,0c2.6,0.2,5.1,1.5,6.9,3.7c1.8,2.2,2.8,5,2.8,7.9c0,2.9-1,5.7-2.8,7.9c-1.8,2.2-4.3,3.5-6.9,3.7
									L61.5,47.4z M62.9,26.5v18.7c4.2-0.6,7.4-4.6,7.4-9.3C70.3,31,67,27,62.9,26.5L62.9,26.5z M20.7,25h-3.9v-7.4h3.9V25z
									 M18.3,24.2h0.8v-5.7h-0.8V24.2z M41.1,25h-3.9v-7.4h3.9V25z M38.7,24.2h0.8v-5.7h-0.8V24.2z M59.7,25h-3.9v-7.4h3.9V25z
									 M57.3,24.2h0.8v-5.7h-0.8V24.2z M24.6,52h-7.3v-5.3h7.3V52z M18.9,50.7h4.2V48h-4.2V50.7z"/>
								<path id="形状_17_" class="st21" d="M26.1,53.6H15.6v-2.5h10.6V53.6z M16.4,52.6h8.9v-0.4h-8.9V52.6z M57.4,52h-7.3v-5.3
									h7.3V52z M51.7,50.7h4.2V48h-4.2V50.7z"/>
								<path id="形状_18_" class="st21" d="M58.9,53.6H48.4v-2.5h10.6V53.6z M49.2,52.6h8.9v-0.4h-8.9V52.6z"/>
								<rect id="矩形_12_" x="0.6" y="31.6" class="st21" width="2.3" height="8.3"/>
								<rect id="矩形_13_" x="2.6" y="35" class="st65" width="2" height="2.2"/>
								<path id="形状_19_" class="st21" d="M62.2,47h-7.1V36.9h7.1V47L62.2,47z M56.1,46.2h4.4v-8.4h-4.4V46.2z"/>
								<path id="形状_20_" class="st21" d="M37.7,14.3c0.7,0.4,1.4,0.4,1.9,0.1c0.5-0.3,0.4-0.7-0.3-1.1
									c-2.3-1.4-2.6-3.2-0.8-4.9c0.5-0.5,1-0.9,1.5-1.4c0.8-0.8,1.4-1.7,1.4-2.5c0-1.3-1.3-3-2.5-3.7c-0.5-0.2-1.2-0.2-1.6,0
									c-0.5,0.3-0.5,0.6-0.1,0.9c0.3,0.3,0.7,0.6,1,0.9c1.1,1,1.2,2,0.3,3c-0.6,0.7-1.2,1.3-1.9,1.9C34,9.8,34.5,12.5,37.7,14.3
									L37.7,14.3z M52.3,14.4c0.6,0.3,1.3,0.2,1.8-0.1c0.4-0.3,0.3-0.6-0.2-1c-2.6-1.6-2.8-3.3-0.8-5.2c0.7-0.6,1.4-1.3,1.9-2
									c1.7-2.2,0.6-3.5-1.7-5.4c-0.4-0.3-1.2-0.3-1.7,0c-0.4,0.2-0.5,0.6-0.1,0.9c0.3,0.3,0.7,0.6,1,0.9c1,0.9,1.2,1.9,0.3,3
									c-0.6,0.7-1.3,1.3-1.9,2c-1,0.9-1.6,1.9-1.6,3.1C49.4,12.1,50.4,13.4,52.3,14.4L52.3,14.4z M22.9,14.1
									c0.2,0.1,0.5,0.3,0.7,0.4c0.5,0.2,1.2,0.1,1.6-0.2c0.4-0.3,0.3-0.7-0.2-1c-0.1-0.1-0.3-0.2-0.4-0.3
									c-2.1-1.4-2.3-3.1-0.6-4.7c0.6-0.6,1.2-1.1,1.7-1.7C26.4,6,27,5.1,27,4.2c0-1.4-1.2-2.4-2.5-3.4c-0.4-0.3-1.2-0.2-1.6,0
									c-0.4,0.2-0.5,0.6-0.1,0.9c0.3,0.3,0.6,0.6,1,0.9c1.1,1,1.2,2,0.3,3c-0.6,0.7-1.2,1.3-1.9,1.9C19.7,9.7,20,12.2,22.9,14.1
									L22.9,14.1z"/>
							</g>
						</g>
						<rect id="矩形_14_" x="82" y="364" class="st49" width="90" height="18"/>
						<text transform="matrix(1 0 0 1 138 466)" class="st21 st52 st53">蓄热电锅炉</text>
						<text transform="matrix(1 0 0 1 141 486)" class="st21 st52 st53">4000kWh</text>
						<line id="路径_61_" class="st3" x1="616" y1="126" x2="472" y2="126"/>
					</g>
				</g>
			</g>
		</g>
	</g>
</g>
</svg>
